<svg xmlns="http://www.w3.org/2000/svg" xmlns:xlink="http://www.w3.org/1999/xlink" viewBox="0 0 300.22 251.89">
	<defs>
		<linearGradient id="Безымянный_градиент" x1="5195.97" y1="-12993.77" x2="15786.97" y2="-12993.77" gradientTransform="matrix(0.03, 0, 0, -0.03, -147.29, -262.62)" gradientUnits="userSpaceOnUse">
			<stop offset="0" stop-color="#1b8df2"/>
			<stop offset="0.45" stop-color="#2347e3"/>
			<stop offset="1" stop-color="#2b00d4"/>
		</linearGradient>
		<linearGradient id="Безымянный_градиент_2" x1="11859.97" y1="-11476.77" x2="15782.97" y2="-11476.77" gradientTransform="matrix(0.03, 0, 0, -0.03, -147.29, -262.62)" gradientUnits="userSpaceOnUse">
			<stop offset="0" stop-color="#041885"/>
			<stop offset="0" stop-color="#123ab6"/>
			<stop offset="0.01" stop-color="#150671"/>
			<stop offset="1" stop-color="#205de8"/>
		</linearGradient>
		<linearGradient id="Безымянный_градиент_3" x1="5204.97" y1="-14486.85" x2="9107.97" y2="-14486.85" gradientTransform="matrix(0.03, 0, 0, -0.03, -147.29, -262.62)" gradientUnits="userSpaceOnUse">
			<stop offset="0" stop-color="#1066fc"/>
			<stop offset="0.54" stop-color="#1233b3"/>
			<stop offset="1" stop-color="#150069"/>
		</linearGradient>
	</defs>
	<g id="Слой_2" data-name="Слой 2">
	<g id="Слой_1-2" data-name="Слой 1">
	<g id="Слой_1-3" data-name="Слой_1">
		<path class="cls-1" style="fill:url(#Безымянный_градиент);" d="M42.52,211.41A42.52,42.52,0,0,1,0,168.89a40.78,40.78,0,0,1,3.6-17.15L64.4,24.55l.34-.74a42.51,42.51,0,0,1,72.37-6.55L189,87l30.67-63.5A42.53,42.53,0,1,1,295.6,61.82L235.9,185.44a42.68,42.68,0,0,1-39.18,26,41.44,41.44,0,0,1-33.9-16.84l-51.93-70.16C96.07,155.42,81.24,211.41,42.52,211.41Z"/>
		<path class="cls-2" style="fill:url(#Безымянный_градиент_2);" d="M278.14,98.28l17.34-36.34A42.55,42.55,0,0,0,257.58.11c-16.64,0-30.69,8.9-37.7,22.82L188.9,87l13.44,18.19a42.43,42.43,0,0,0,36.11,20.1C257.33,125.29,270.31,114.72,278.14,98.28Z"/>
		<path class="cls-3" style="fill:url(#Безымянный_градиент_3);" d="M24.72,108.06c6.72-14.63,20.61-23,37.76-23,15.13,0,28,7.25,35.54,19.13l12.87,20.18h0L92.83,165.86l-7.62,14.48-2.72,4.39L78,190.43C68.66,204.09,58.11,210.76,42.77,211c-23.49.34-42.51-19-42.51-42.52A42.41,42.41,0,0,1,4,151Z"/>
		<path class="cls-4" d="M17,231.22h3.68L23,238l2.32-6.81H29l-3.52,9.36,2.61,6.57,5.84-16H38.3l-8.39,20.57H26.56L23,243.1l-3.57,8.64H16l-8.3-20.57H12l5.87,16,2.55-6.57Zm37.73,17v3.51H40.42V231.17h14v3.51h-10v4.93h8.67v3.26H44.42v5.36Zm19.73-1.79a4.58,4.58,0,0,1-.54,2.3,4.85,4.85,0,0,1-1.42,1.64,6.42,6.42,0,0,1-2.12,1,9.21,9.21,0,0,1-2.56.34H57.86V231.17h11a4.1,4.1,0,0,1,2,.45,4.57,4.57,0,0,1,1.47,1.22,5.08,5.08,0,0,1,.94,1.67,5.4,5.4,0,0,1,.34,1.9,5.86,5.86,0,0,1-.74,2.83,4.7,4.7,0,0,1-2.21,2,5.1,5.1,0,0,1,3.83,5.24Zm-4-.76a3.11,3.11,0,0,0-.2-1.05,2.42,2.42,0,0,0-.51-.88,2,2,0,0,0-.76-.59,2,2,0,0,0-.94-.23H61.85v5.41H67.8a2.37,2.37,0,0,0,1-.2,2.44,2.44,0,0,0,.82-.56,2.38,2.38,0,0,0,.54-.85A2.6,2.6,0,0,0,70.41,245.68Zm-8.56-11.11v5.21h5.33a2.42,2.42,0,0,0,1.73-.71,2.51,2.51,0,0,0,.71-1.92,2.69,2.69,0,0,0-.65-1.87,2.14,2.14,0,0,0-1.62-.71Zm22.68,17.17V231.17H92a11.22,11.22,0,0,1,4.42.79,8.81,8.81,0,0,1,3.18,2.21,9.24,9.24,0,0,1,1.9,3.26,12.47,12.47,0,0,1,.65,4,12,12,0,0,1-.71,4.25,9.18,9.18,0,0,1-2,3.23,9,9,0,0,1-3.2,2.1,11.71,11.71,0,0,1-4.2.73Zm13.61-10.31a8.34,8.34,0,0,0-.43-2.72,5.48,5.48,0,0,0-1.19-2.16,5,5,0,0,0-1.93-1.39,6.22,6.22,0,0,0-2.58-.48H88.53v13.55H92a6.3,6.3,0,0,0,2.61-.51,5.08,5.08,0,0,0,1.93-1.45,6,6,0,0,0,1.16-2.15A8.34,8.34,0,0,0,98.14,241.43Zm21.45,6.8v3.51H105.28V231.17h14.06v3.51h-10v4.93H118v3.26H109.3v5.36Zm5.25-17.06,5.55,15.56,5.53-15.56h4.2l-8,20.57h-3.37l-8.08-20.57Zm31.77,17.06v3.51H142.33V231.17h14v3.51h-10v4.93H155v3.26h-8.68v5.36Zm3.15,3.51V231.17h4v17.06h10.49v3.51Zm24.41.15a9.41,9.41,0,0,1-4.11-.88,10.08,10.08,0,0,1-3.15-2.35,10.61,10.61,0,0,1-2-3.35,10.75,10.75,0,0,1-.74-3.85,10.34,10.34,0,0,1,.77-4,10.62,10.62,0,0,1,2.12-3.34,10.19,10.19,0,0,1,3.21-2.3,9.66,9.66,0,0,1,4-.85,8.86,8.86,0,0,1,4.08.91,10.16,10.16,0,0,1,3.15,2.38,11.6,11.6,0,0,1,2,3.38,10.51,10.51,0,0,1,.71,3.82,11,11,0,0,1-.74,3.94,11.11,11.11,0,0,1-2.09,3.29,10.19,10.19,0,0,1-3.21,2.3A9.59,9.59,0,0,1,184.17,251.89Zm-6-10.43a8,8,0,0,0,.42,2.57,7,7,0,0,0,1.16,2.22,6.1,6.1,0,0,0,1.9,1.53,5.35,5.35,0,0,0,2.53.56,5.53,5.53,0,0,0,2.57-.59,5.93,5.93,0,0,0,1.88-1.56,7.46,7.46,0,0,0,1.16-2.24,8.46,8.46,0,0,0,.39-2.49,8,8,0,0,0-.42-2.58,7.52,7.52,0,0,0-1.19-2.22,6.22,6.22,0,0,0-1.87-1.53,5.82,5.82,0,0,0-2.52-.56,5.4,5.4,0,0,0-4.46,2.18,6.82,6.82,0,0,0-1.16,2.18A8.68,8.68,0,0,0,178.19,241.46Zm19.13,10.28V231.17H206a5.78,5.78,0,0,1,2.64.59,6.81,6.81,0,0,1,2.07,1.56,6.91,6.91,0,0,1,1.36,2.21,6.39,6.39,0,0,1,.51,2.47,7.27,7.27,0,0,1-1.79,4.73,6.14,6.14,0,0,1-2,1.53,5.72,5.72,0,0,1-2.61.6h-4.87v6.88Zm4-10.4h4.62a2.29,2.29,0,0,0,1.84-.91,3.6,3.6,0,0,0,.74-2.43,3.56,3.56,0,0,0-.23-1.39,2.89,2.89,0,0,0-.6-1.08,2.4,2.4,0,0,0-.87-.65,2.69,2.69,0,0,0-1-.2h-4.45Zm30.84,10.4V238.11l-5.3,10.15h-2.19l-5.3-10.15v13.63h-4V231.17h4.28l6.09,11.7,6.15-11.7h4.25v20.57Zm22.59-3.51v3.51H240.46V231.17h14v3.51h-10v4.93h8.67v3.26h-8.67v5.36Zm7.14-9.67v13.18h-4V231.17H261l10.74,13.49V231.19h4v20.55h-3.26Zm33.54-3.88h-6.61v17.06h-4V234.68h-6.57v-3.51h17.15Z"/>
	</g>
	</g>
	</g>
</svg>
