<svg xmlns="http://www.w3.org/2000/svg" width="76" height="80" viewBox="0 0 76 80" fill="none">
  <path d="M45.4169 61.0128C45.1961 60.9585 44.9629 60.992 44.7662 61.106C44.5696 61.2201 44.4248 61.4059 44.3622 61.6245C43.3288 65.4462 41.2689 68.9121 38.4058 71.6463C35.5427 74.3805 31.9857 76.2787 28.1205 77.1352C24.2552 77.9916 20.2293 77.7735 16.4792 76.5045C12.7292 75.2356 9.39804 72.9642 6.84705 69.9367C4.29607 66.9092 2.62259 63.2411 2.00807 59.3301C1.39356 55.4192 1.86145 51.4146 3.36102 47.7506C4.86059 44.0867 7.33462 40.9031 10.5148 38.5453C13.695 36.1874 17.4601 34.7451 21.4017 34.3749C21.6306 34.3537 21.8417 34.2424 21.9885 34.0655C22.1354 33.8887 22.206 33.6607 22.1848 33.4318C22.1636 33.2029 22.0523 32.9918 21.8754 32.845C21.6986 32.6981 21.4706 32.6275 21.2417 32.6487C15.4212 33.1637 10.0068 35.8472 6.07231 40.1673C2.13779 44.4873 -0.0294851 50.1282 0.000303039 55.9714C0.000303039 68.8825 10.505 79.3872 23.4161 79.3872C28.5625 79.3825 33.5644 77.685 37.6506 74.5563C41.7367 71.4276 44.6801 67.0415 46.0269 62.0745C46.0866 61.8528 46.0559 61.6165 45.9415 61.4175C45.8271 61.2184 45.6385 61.0729 45.4169 61.0128Z" fill="white"/>
  <path d="M14.1936 58.5487C14.1269 58.4563 14.0427 58.3781 13.9457 58.3183C13.8487 58.2585 13.7409 58.2184 13.6285 58.2003C13.516 58.1822 13.4011 58.1864 13.2902 58.2127C13.1794 58.239 13.0748 58.2869 12.9825 58.3536C12.8901 58.4203 12.8119 58.5045 12.7521 58.6015C12.6923 58.6985 12.6522 58.8063 12.6341 58.9187C12.616 59.0312 12.6202 59.1461 12.6465 59.257C12.6728 59.3678 12.7207 59.4724 12.7874 59.5647L17.7954 66.4764C17.8669 66.5735 17.9577 66.6548 18.062 66.7153C18.1664 66.7758 18.282 66.8141 18.4018 66.828H18.4967C18.7083 66.8269 18.9124 66.7495 19.0715 66.61L34.3153 53.1364C34.4006 53.061 34.4702 52.9696 34.5202 52.8673C34.5701 52.765 34.5994 52.6539 34.6065 52.5403C34.6135 52.4267 34.5981 52.3128 34.5611 52.2052C34.5241 52.0975 34.4662 51.9982 34.3909 51.9129C34.3155 51.8276 34.2241 51.758 34.1218 51.7081C34.0195 51.6581 33.9084 51.6288 33.7948 51.6218C33.6812 51.6147 33.5673 51.6302 33.4597 51.6672C33.352 51.7042 33.2527 51.762 33.1674 51.8374L18.6391 64.6799L14.1936 58.5487Z" fill="white"/>
  <path d="M74.9522 11.9031C75.7907 10.4406 75.7151 8.60548 74.7413 6.73341C73.8343 4.9879 72.2294 3.39356 70.2237 2.24747C68.218 1.10138 66.0313 0.521298 64.0714 0.625009C61.9848 0.732235 60.38 1.58477 59.5309 3.02442L50.7946 16.6932C43.1218 14.9354 36.4263 16.8549 33.7034 21.615L28.829 30.0367C24.9811 36.7604 30.1702 46.9908 40.3972 52.8443C44.9288 55.4371 49.8208 56.8363 54.2979 56.8363C54.66 56.8363 55.0186 56.8275 55.3737 56.81C60.2763 56.5568 64.0222 54.5881 65.9206 51.2693L70.3011 43.6158C70.4768 43.3662 70.6526 43.1096 70.8003 42.8406C73.553 38.0277 71.7724 31.2531 66.2722 25.4963L74.7606 12.2125C74.8222 12.1246 74.8802 12.0367 74.9364 11.9418L74.9593 11.9066L74.9522 11.9031ZM61.8372 29.2106C61.3098 30.144 60.1848 30.7012 58.6872 30.7768C57.0507 30.8576 55.1997 30.3654 53.4805 29.3811C51.7614 28.3967 50.3973 27.0537 49.6397 25.5983C48.9471 24.2693 48.861 23.0231 49.3725 22.1266L59.1442 6.8336C59.7489 8.98341 61.5612 11.1842 64.2331 12.7117C66.0858 13.7664 68.1003 14.3465 69.9425 14.3465C70.0919 14.3465 70.2413 14.3465 70.3889 14.3342C70.7347 14.3172 71.0788 14.2767 71.419 14.2129L61.8372 29.2106ZM64.1557 2.3547C64.2753 2.3547 64.3966 2.34591 64.5196 2.34591C66.063 2.34591 67.7698 2.83809 69.3641 3.75216C71.0833 4.73653 72.4473 6.08126 73.205 7.53497C73.894 8.86036 73.9819 10.1031 73.4546 11.033L73.321 11.2404C72.7462 12.0508 71.6915 12.5359 70.2993 12.608C68.6593 12.6889 66.8136 12.1967 65.0927 11.2123C61.7212 9.27872 59.8491 5.93888 61.0075 3.92091C61.5401 2.98751 62.6598 2.43204 64.1557 2.3547ZM64.4106 50.4098C62.8128 53.2012 59.5696 54.8606 55.27 55.0803C50.8333 55.307 45.8552 53.9816 41.2444 51.3432C31.8472 45.9643 26.9446 36.7938 30.3161 30.9033L32.4255 27.2699C32.5362 29.258 33.1497 31.3709 34.2641 33.5137C36.4649 37.7447 40.3725 41.6172 45.268 44.4121C49.9192 47.0734 54.8218 48.3795 59.1548 48.3795C61.8952 48.3795 64.4018 47.8522 66.469 46.8221L64.4106 50.4098ZM69.6595 41.2393L68.8298 42.6895C65.0487 47.8996 55.1329 48.0701 46.1276 42.9145C41.5169 40.2777 37.8483 36.6531 35.8005 32.7191C33.8159 28.9047 33.6032 25.266 35.2011 22.4764C37.4669 18.516 43.1446 16.8953 49.7909 18.2576L47.8907 21.2301C47.054 22.6926 47.1296 24.5277 48.1016 26.3981C49.0104 28.1436 50.6153 29.7379 52.621 30.8857C54.4737 31.9404 56.4882 32.5188 58.3304 32.5188C58.4798 32.5188 58.6292 32.5188 58.7768 32.5082C60.8862 32.3992 62.5034 31.5344 63.319 30.1088L65.3036 27.0027C69.7579 31.8121 71.405 37.2438 69.6595 41.2393Z" fill="white"/>
</svg>
