<svg xmlns="http://www.w3.org/2000/svg" viewBox="0 0 151 60">
  <g mask="url(#mask0_4269_3065)">
    <path d="M31.4585 25.795V34.7056C31.4585 39.0913 29.5255 43.2174 23.1966 43.2174H8.40132C3.06685 43.2174 0 40.3615 0 34.6406V7.97397C0 2.12325 3.0018 -0.00933838 7.79725 -0.00933838H23.4568C29.5162 -0.00933838 31.4492 2.98557 31.4492 8.9661V15.1506H21.5238V8.9661H9.92546V34.2976H21.5238V25.7858H31.4492L31.4585 25.795Z" />
    <path d="M40.7256 43.2174V0H50.7811V17.2833H52.3146L62.5188 0H74.0428L61.6452 20.8067V21.4094L74.9071 43.2174H63.1136L52.3889 25.4613H50.7811V43.2174H40.7256Z" />
    <path d="M104.367 35.1692H92.6382L91.0397 43.2174H80.8447L90.3706 0H106.764L116.16 43.2174H105.965L104.367 35.1692ZM94.3668 26.7872H102.694L99.0321 8.56745H98.0284L94.3668 26.7872Z" />
    <path d="M129.485 8.83635H118.556V0H150.544V8.83635H139.615V43.2174H129.485V8.83635Z" />
    <path d="M1.43054 55.6791C1.62571 55.6791 1.80228 55.6976 1.97886 55.7254L3.24277 54.1121H4.08848L2.6387 55.9201C2.85245 56.0036 3.03832 56.1056 3.2056 56.2354C3.37289 56.3559 3.51229 56.5136 3.6424 56.6897C3.77251 56.8659 3.87473 57.0606 3.96766 57.2831C4.0606 57.5057 4.13496 57.756 4.2093 58.0249H3.36359C3.28924 57.7004 3.2056 57.4222 3.09407 57.209C2.98255 56.9957 2.85245 56.8195 2.69446 56.6804C2.53647 56.5414 2.3599 56.4486 2.14615 56.393C1.9324 56.3374 1.69077 56.3003 1.42125 56.291V58.0249H0.65918V54.1213H1.42125V55.6791H1.43054Z" />
    <path d="M8.50352 55.5123C8.50352 55.2156 8.41988 54.9931 8.25259 54.8448C8.08531 54.6964 7.85298 54.6222 7.54629 54.6222C7.32325 54.6222 7.11879 54.6593 6.92363 54.7428C6.72847 54.8262 6.56118 54.9282 6.43107 55.0673L6.02216 54.6129C6.19873 54.4368 6.42177 54.2977 6.70058 54.1864C6.97938 54.0752 7.28607 54.0195 7.61134 54.0195C7.84368 54.0195 8.04814 54.0473 8.2433 54.1122C8.43847 54.1771 8.60575 54.2606 8.73586 54.3811C8.87526 54.5017 8.98679 54.65 9.06114 54.8355C9.13549 55.0209 9.18195 55.2342 9.19125 55.4845C9.19125 55.5587 9.19125 55.6329 9.19125 55.7071V57.1813C9.19125 57.3297 9.19124 57.478 9.20053 57.6357C9.20053 57.7933 9.21911 57.9231 9.2377 58.0344H8.54999C8.5407 57.9416 8.53141 57.8489 8.52211 57.7469C8.52211 57.6449 8.51281 57.5522 8.51281 57.4595H8.49423C8.33624 57.6913 8.14108 57.8675 7.92733 57.9695C7.70428 58.0807 7.45336 58.1271 7.15597 58.1271C7.00727 58.1271 6.84928 58.1085 6.69129 58.0622C6.5333 58.0251 6.3846 57.9509 6.24519 57.8582C6.10579 57.7655 5.99427 57.6357 5.91063 57.4873C5.82698 57.339 5.78052 57.1535 5.78052 56.9217C5.78052 56.625 5.85487 56.3932 6.01286 56.217C6.16155 56.0409 6.36601 55.9111 6.62623 55.8183C6.87715 55.7256 7.16526 55.67 7.49053 55.6422C7.81581 55.6143 8.15036 55.6051 8.48493 55.6051V55.4938L8.50352 55.5123ZM8.34553 56.1428C8.14108 56.1428 7.92732 56.1428 7.71357 56.1707C7.49982 56.1892 7.31395 56.2263 7.13738 56.2819C6.9608 56.3376 6.82139 56.4117 6.70987 56.5137C6.59835 56.6157 6.54259 56.7455 6.54259 56.9124C6.54259 57.033 6.57047 57.135 6.61694 57.2184C6.66341 57.3019 6.72846 57.3668 6.80281 57.4224C6.87716 57.478 6.97009 57.5151 7.06303 57.5337C7.16525 57.5522 7.2582 57.5708 7.36042 57.5708C7.54629 57.5708 7.70427 57.5429 7.84368 57.478C7.98308 57.4224 8.1039 57.3389 8.19683 57.2277C8.29906 57.1164 8.37342 56.9959 8.41988 56.8568C8.46635 56.7177 8.49423 56.5694 8.49423 56.4117V56.1614H8.32694L8.34553 56.1428Z" />
    <path d="M13.2991 54.1679C13.5872 54.1679 13.8474 54.2143 14.0891 54.307C14.3307 54.3997 14.5351 54.5295 14.7024 54.7057C14.8697 54.8819 15.0091 55.0859 15.1021 55.3269C15.195 55.568 15.2415 55.8462 15.2415 56.1429C15.2415 56.4396 15.1857 56.727 15.0835 56.9681C14.9812 57.2092 14.8325 57.4224 14.6467 57.5893C14.4608 57.7655 14.2471 57.8953 13.9961 57.988C13.7452 58.0807 13.485 58.1271 13.2062 58.1271C12.9274 58.1271 12.6486 58.0807 12.4162 57.988C12.1746 57.8953 11.9701 57.7655 11.7936 57.5893C11.617 57.4131 11.4776 57.1999 11.3754 56.9496C11.2731 56.6992 11.2081 56.4118 11.1895 56.0965C11.1802 56.0131 11.1709 55.9203 11.1709 55.8276V55.5494C11.1895 54.9838 11.2638 54.4832 11.3847 54.0659C11.5055 53.6487 11.6727 53.2963 11.8958 53.0274C12.1188 52.7493 12.3976 52.5453 12.7415 52.4155C13.0854 52.2857 13.485 52.2115 13.9589 52.2115H15.1299V52.8234H13.9497C13.6058 52.8234 13.3084 52.8698 13.0761 52.9625C12.8344 53.0552 12.6393 53.1851 12.4906 53.352C12.3419 53.5189 12.2211 53.7228 12.1374 53.9639C12.0538 54.205 11.9887 54.4739 11.9515 54.7706C12.091 54.5759 12.2861 54.4275 12.5185 54.3163C12.7601 54.205 13.0203 54.1494 13.2991 54.1494M14.4887 56.1243C14.4887 55.9296 14.4608 55.7442 14.3957 55.5865C14.3307 55.4196 14.2471 55.2806 14.1355 55.16C14.024 55.0395 13.8939 54.9468 13.7452 54.8819C13.5965 54.8169 13.4292 54.7799 13.2434 54.7799C13.0668 54.7799 12.8995 54.8077 12.7415 54.8633C12.5835 54.919 12.4441 55.0024 12.3233 55.1044C12.2025 55.2157 12.1095 55.3455 12.0352 55.5031C11.9609 55.6607 11.933 55.8554 11.933 56.0594C11.933 56.2634 11.9608 56.4581 12.0259 56.625C12.091 56.8012 12.1746 56.9495 12.2861 57.0701C12.3976 57.1906 12.537 57.2926 12.695 57.3575C12.853 57.4224 13.0389 57.4595 13.2341 57.4595C13.4292 57.4595 13.6058 57.4224 13.7638 57.3575C13.9218 57.2833 14.0426 57.1906 14.1541 57.0701C14.2563 56.9495 14.34 56.8012 14.3957 56.6436C14.4515 56.4859 14.4794 56.3098 14.4794 56.1243" />
    <path d="M20.8246 56.0036V56.1427C20.8246 56.1891 20.8246 56.2355 20.8246 56.2818H17.6927C17.6927 56.458 17.7392 56.6249 17.8043 56.7732C17.8693 56.9216 17.9622 57.0514 18.083 57.1627C18.1946 57.2739 18.334 57.3574 18.492 57.4223C18.65 57.4872 18.8172 57.5243 18.9845 57.5243C19.254 57.5243 19.4957 57.4594 19.6908 57.3388C19.886 57.2183 20.0347 57.0792 20.1369 56.9216L20.6852 57.311C20.4622 57.5985 20.2113 57.8117 19.9324 57.9415C19.6443 58.0713 19.3284 58.1362 18.9845 58.1362C18.6964 58.1362 18.4269 58.0899 18.1667 57.9879C17.9158 57.8859 17.6927 57.7468 17.5162 57.5706C17.3303 57.3945 17.1909 57.1719 17.0886 56.9216C16.9864 56.6712 16.9307 56.3931 16.9307 56.0871C16.9307 55.7811 16.9771 55.5122 17.0794 55.2526C17.1816 55.0023 17.321 54.7797 17.5069 54.5943C17.6834 54.4088 17.8972 54.2698 18.1388 54.1678C18.3804 54.0658 18.65 54.0194 18.9381 54.0194C19.2355 54.0194 19.505 54.0658 19.7466 54.1678C19.9789 54.2698 20.1834 54.4088 20.3414 54.585C20.4994 54.7612 20.6295 54.9744 20.7131 55.2155C20.7967 55.4566 20.8432 55.7162 20.8432 56.0036M20.0998 55.744C20.0905 55.4195 19.9882 55.1413 19.7837 54.9281C19.5886 54.7148 19.3005 54.6036 18.9381 54.6036C18.7708 54.6036 18.6128 54.6314 18.4641 54.6963C18.3154 54.7612 18.1946 54.8446 18.083 54.9466C17.9715 55.0486 17.8879 55.1692 17.8135 55.3082C17.7485 55.4473 17.702 55.5864 17.6927 55.7347H20.0998V55.744Z" />
    <path d="M25.4192 58.0253L24.2482 55.0304L23.0214 58.0253H22.2129L23.8671 54.1218H24.6478L26.2184 58.0253H25.4192Z" />
    <path d="M28.5975 54.1218V55.4384H29.5454C29.8335 55.4384 30.0845 55.4755 30.2796 55.5404C30.4841 55.6053 30.6421 55.698 30.7722 55.8093C30.9023 55.9206 30.986 56.0596 31.051 56.2173C31.1068 56.3749 31.1347 56.5511 31.1347 56.7272C31.1347 56.9034 31.0975 57.0796 31.0324 57.2372C30.9674 57.3948 30.8652 57.5339 30.735 57.6544C30.6049 57.775 30.4376 57.8677 30.2425 57.9326C30.0473 57.9975 29.8243 58.0346 29.5734 58.0346H27.8262V54.131H28.5882L28.5975 54.1218ZM28.5975 57.4505H29.4061C29.6849 57.4505 29.9172 57.4041 30.0938 57.3021C30.2704 57.2001 30.3633 57.0054 30.3633 56.7272C30.3633 56.5882 30.3354 56.4676 30.2889 56.3749C30.2425 56.2822 30.1681 56.208 30.0845 56.1524C30.0008 56.0967 29.8893 56.0596 29.7685 56.0411C29.6477 56.0225 29.5176 56.004 29.3782 56.004H28.5975V57.4597V57.4505Z" />
    <path d="M33.7448 58.0253H32.9734V54.1217H33.7448V55.6702H35.7243V54.1217H36.4863V58.0253H35.7243V56.2821H33.7448V58.0253Z" />
    <path d="M41.0668 55.5122C41.0668 55.2155 40.9831 54.993 40.8158 54.8446C40.6485 54.6963 40.4162 54.6221 40.1095 54.6221C39.8865 54.6221 39.682 54.6592 39.4869 54.7426C39.2917 54.8261 39.1244 54.9281 38.9943 55.0672L38.5854 54.6128C38.762 54.4367 38.985 54.2976 39.2638 54.1863C39.5426 54.075 39.8493 54.0194 40.1746 54.0194C40.4069 54.0194 40.6114 54.0472 40.8066 54.1121C41.0017 54.177 41.169 54.2605 41.2991 54.381C41.4385 54.5016 41.55 54.6499 41.6244 54.8354C41.708 55.0208 41.7452 55.2341 41.7545 55.4844C41.7545 55.5586 41.7545 55.6328 41.7545 55.7069V57.1812C41.7545 57.3296 41.7545 57.4779 41.7638 57.6355C41.7638 57.7932 41.7823 57.923 41.8009 58.0342H41.1132C41.1039 57.9415 41.0946 57.8488 41.0853 57.7468C41.0853 57.6448 41.076 57.5521 41.076 57.4594H41.0575C40.8995 57.6912 40.7043 57.8673 40.4906 57.9693C40.2675 58.0806 40.0166 58.127 39.7192 58.127C39.5705 58.127 39.4125 58.1084 39.2545 58.0621C39.0965 58.025 38.9478 57.9508 38.8084 57.8581C38.669 57.7654 38.5575 57.6355 38.4739 57.4872C38.3902 57.3388 38.3438 57.1534 38.3438 56.9216C38.3438 56.6249 38.4181 56.3931 38.5761 56.2169C38.7248 56.0407 38.9292 55.9109 39.1895 55.8182C39.4404 55.7255 39.7285 55.6699 40.0538 55.642C40.3791 55.6142 40.7136 55.6049 41.0482 55.6049V55.4937L41.0668 55.5122ZM40.9088 56.1427C40.7043 56.1427 40.4906 56.1427 40.2768 56.1705C40.0631 56.1891 39.8772 56.2262 39.7006 56.2818C39.524 56.3374 39.3846 56.4116 39.2731 56.5136C39.1616 56.6156 39.1058 56.7454 39.1058 56.9123C39.1058 57.0329 39.1337 57.1348 39.1802 57.2183C39.2267 57.3017 39.2917 57.3667 39.366 57.4223C39.4404 57.4779 39.5333 57.515 39.6263 57.5335C39.7285 57.5521 39.8214 57.5706 39.9237 57.5706C40.1095 57.5706 40.2675 57.5428 40.4069 57.4779C40.5463 57.4223 40.6671 57.3388 40.7601 57.2276C40.8623 57.1163 40.9367 56.9958 40.9831 56.8567C41.0296 56.7176 41.0575 56.5692 41.0575 56.4116V56.1613H40.8902L40.9088 56.1427Z" />
    <path d="M45.7327 56.4857C45.3516 56.4857 45.0635 56.6155 44.8591 56.8658C44.6546 57.1162 44.5245 57.5056 44.4688 58.0341H43.623C43.6788 57.5613 43.8089 57.1626 44.0041 56.8473C44.2085 56.532 44.4595 56.3188 44.7847 56.2261V56.1982C44.5152 56.1704 44.2829 56.087 44.097 55.9386C43.9111 55.7903 43.8182 55.5585 43.8182 55.2432C43.8182 55.0485 43.8554 54.8909 43.939 54.7425C44.0227 54.6034 44.1249 54.4922 44.2643 54.3995C44.4037 54.3067 44.571 54.2418 44.7661 54.1955C44.9613 54.1491 45.1843 54.1306 45.4167 54.1306H47.0524V58.0341H46.2996V56.495H45.7327V56.4857ZM44.5896 55.3174C44.5896 55.4287 44.6174 55.5214 44.6639 55.5956C44.7197 55.6697 44.7847 55.7254 44.8776 55.7625C44.9613 55.7995 45.0728 55.8274 45.1937 55.8366C45.3145 55.8459 45.4446 55.8552 45.584 55.8552H46.3089V54.7611H45.5747C45.426 54.7611 45.2959 54.7611 45.175 54.7796C45.0542 54.7889 44.952 54.8167 44.8684 54.8538C44.7847 54.8909 44.7197 54.9465 44.6732 55.0207C44.6268 55.0949 44.5989 55.1876 44.5989 55.3081" />
    <path d="M54.4701 55.5122C54.4701 55.2155 54.3864 54.993 54.2191 54.8446C54.0519 54.6963 53.8195 54.6221 53.5128 54.6221C53.2898 54.6221 53.0853 54.6592 52.8902 54.7426C52.695 54.8261 52.5277 54.9281 52.3976 55.0672L51.9887 54.6128C52.1653 54.4367 52.3883 54.2976 52.6671 54.1863C52.9459 54.075 53.2526 54.0194 53.5779 54.0194C53.8102 54.0194 54.0147 54.0472 54.2098 54.1121C54.405 54.177 54.5723 54.2605 54.7024 54.381C54.8418 54.5016 54.9533 54.6499 55.0277 54.8354C55.102 55.0208 55.1485 55.2341 55.1578 55.4844C55.1578 55.5586 55.1578 55.6328 55.1578 55.7069V57.1812C55.1578 57.3296 55.1578 57.4779 55.1671 57.6355C55.1671 57.7932 55.1857 57.923 55.2043 58.0342H54.5165C54.5073 57.9415 54.498 57.8488 54.4887 57.7468C54.4887 57.6448 54.4794 57.5521 54.4794 57.4594H54.4608C54.3028 57.6912 54.1076 57.8673 53.8939 57.9693C53.6708 58.0806 53.4199 58.127 53.1225 58.127C52.9738 58.127 52.8158 58.1084 52.6578 58.0621C52.4999 58.025 52.3511 57.9508 52.2117 57.8581C52.0723 57.7654 51.9608 57.6355 51.8772 57.4872C51.7936 57.3388 51.7471 57.1534 51.7471 56.9216C51.7471 56.6249 51.8214 56.3931 51.9794 56.2169C52.1281 56.0407 52.3326 55.9109 52.5928 55.8182C52.8437 55.7255 53.1318 55.6699 53.4571 55.642C53.7823 55.6142 54.1169 55.6049 54.4515 55.6049V55.4937L54.4701 55.5122ZM54.3121 56.1427C54.1076 56.1427 53.8939 56.1427 53.6801 56.1705C53.4664 56.1891 53.2805 56.2262 53.1039 56.2818C52.9273 56.3374 52.7879 56.4116 52.6764 56.5136C52.5649 56.6156 52.5091 56.7454 52.5091 56.9123C52.5091 57.0329 52.537 57.1348 52.5835 57.2183C52.6299 57.3017 52.695 57.3667 52.7694 57.4223C52.8437 57.4779 52.9366 57.515 53.0296 57.5335C53.1318 57.5521 53.2247 57.5706 53.327 57.5706C53.5128 57.5706 53.6708 57.5428 53.8102 57.4779C53.9496 57.4223 54.0705 57.3388 54.1634 57.2276C54.2656 57.1163 54.34 56.9958 54.3864 56.8567C54.4329 56.7176 54.4608 56.5692 54.4608 56.4116V56.1613H54.2935L54.3121 56.1427Z" />
    <path d="M58.1048 59.9999H57.3428V54.1214H58.0863V54.7426H58.1141C58.2628 54.5108 58.4673 54.3347 58.7275 54.2048C58.9784 54.075 59.248 54.0194 59.5361 54.0194C59.8242 54.0194 60.103 54.075 60.3446 54.177C60.5862 54.279 60.8 54.4274 60.9673 54.6128C61.1438 54.7983 61.2739 55.0208 61.3669 55.2619C61.4598 55.5122 61.5063 55.7811 61.5063 56.0593C61.5063 56.3374 61.4598 56.6156 61.3669 56.8567C61.2739 57.107 61.1438 57.3203 60.9673 57.5057C60.7907 57.6912 60.5862 57.8395 60.3446 57.9508C60.103 58.0621 59.8241 58.1177 59.5268 58.1177C59.2572 58.1177 58.997 58.0528 58.7461 57.9415C58.4952 57.821 58.2907 57.6448 58.142 57.413H58.1141V59.9814L58.1048 59.9999ZM60.7256 56.0685C60.7256 55.8738 60.6977 55.6977 60.642 55.5215C60.5862 55.3546 60.5026 55.197 60.3818 55.0672C60.2702 54.9374 60.1308 54.8354 59.9635 54.7612C59.7963 54.687 59.6104 54.6499 59.3967 54.6499C59.2015 54.6499 59.0156 54.687 58.8483 54.7612C58.6811 54.8354 58.5416 54.9374 58.4208 55.0672C58.3 55.197 58.2071 55.3453 58.142 55.5215C58.077 55.6884 58.0398 55.8738 58.0398 56.0778C58.0398 56.2818 58.077 56.458 58.142 56.6341C58.2071 56.8103 58.3 56.9587 58.4208 57.0885C58.5416 57.2183 58.6811 57.3203 58.8483 57.3945C59.0156 57.4686 59.2015 57.5057 59.3967 57.5057C59.6104 57.5057 59.7963 57.4686 59.9635 57.3945C60.1308 57.3203 60.2702 57.2183 60.3818 57.0885C60.4933 56.9587 60.5862 56.8103 60.642 56.6341C60.6977 56.458 60.7256 56.2818 60.7256 56.0871" />
    <path d="M64.0607 54.1217L65.6685 56.0225L67.2484 54.1217H67.9082V58.0253H67.1369V55.2065L65.7707 56.9497H65.5477L64.1722 55.2344V58.0253H63.4102V54.1217H64.0607Z" />
    <path d="M72.4906 55.5122C72.4906 55.2155 72.4069 54.993 72.2396 54.8446C72.0723 54.6963 71.84 54.6221 71.5333 54.6221C71.3103 54.6221 71.1058 54.6592 70.9107 54.7426C70.7155 54.8261 70.5482 54.9281 70.4181 55.0672L70.0092 54.6128C70.1858 54.4367 70.4088 54.2976 70.6876 54.1863C70.9664 54.075 71.2731 54.0194 71.5984 54.0194C71.8307 54.0194 72.0352 54.0472 72.2303 54.1121C72.4255 54.177 72.5928 54.2605 72.7229 54.381C72.8623 54.5016 72.9738 54.6499 73.0482 54.8354C73.1318 55.0208 73.169 55.2341 73.1783 55.4844C73.1783 55.5586 73.1783 55.6328 73.1783 55.7069V57.1812C73.1783 57.3296 73.1783 57.4779 73.1876 57.6355C73.1876 57.7932 73.2061 57.923 73.2247 58.0342H72.537C72.5277 57.9415 72.5184 57.8488 72.5091 57.7468C72.5091 57.6448 72.4998 57.5521 72.4998 57.4594H72.4813C72.3233 57.6912 72.1281 57.8673 71.9144 57.9693C71.6913 58.0806 71.4404 58.127 71.143 58.127C70.9943 58.127 70.8363 58.1084 70.6783 58.0621C70.5203 58.025 70.3717 57.9508 70.2323 57.8581C70.0929 57.7654 69.9813 57.6355 69.8977 57.4872C69.814 57.3388 69.7676 57.1534 69.7676 56.9216C69.7676 56.6249 69.8419 56.3931 69.9999 56.2169C70.1486 56.0407 70.353 55.9109 70.6133 55.8182C70.8642 55.7255 71.1523 55.6699 71.4776 55.642C71.8029 55.6142 72.1374 55.6049 72.472 55.6049V55.4937L72.4906 55.5122ZM72.3326 56.1427C72.1281 56.1427 71.9144 56.1427 71.7006 56.1705C71.4869 56.1891 71.301 56.2262 71.1244 56.2818C70.9478 56.3374 70.8084 56.4116 70.6969 56.5136C70.5854 56.6156 70.5296 56.7454 70.5296 56.9123C70.5296 57.0329 70.5575 57.1348 70.604 57.2183C70.6505 57.3017 70.7155 57.3667 70.7898 57.4223C70.8642 57.4779 70.9571 57.515 71.0501 57.5335C71.1523 57.5521 71.2452 57.5706 71.3475 57.5706C71.5333 57.5706 71.6913 57.5428 71.8307 57.4779C71.9701 57.4223 72.0909 57.3388 72.1839 57.2276C72.2861 57.1163 72.3605 56.9958 72.4069 56.8567C72.4534 56.7176 72.4813 56.5692 72.4813 56.4116V56.1613H72.314L72.3326 56.1427Z" />
    <path d="M74.7744 54.1216H78.213V54.7335H76.8376V58.0251H76.0755V54.7335H74.7744V54.1216Z" />
    <path d="M81.2921 57.2092H81.32L82.4166 54.1216H83.2438L81.5245 58.4702C81.4315 58.6927 81.3479 58.8967 81.2642 59.0822C81.1806 59.2676 81.0784 59.4345 80.9761 59.5643C80.8646 59.7034 80.7345 59.8054 80.5765 59.8796C80.4185 59.9538 80.2234 59.9908 79.991 59.9908C79.8981 59.9908 79.8051 59.9908 79.7029 59.9723C79.6007 59.963 79.5078 59.9445 79.4241 59.9352L79.5078 59.2676C79.5728 59.2862 79.6379 59.3047 79.7029 59.3233C79.7773 59.3325 79.8516 59.3418 79.926 59.3418C80.1211 59.3418 80.2698 59.2862 80.372 59.1749C80.4836 59.0636 80.5672 58.906 80.6509 58.6927L80.9204 58.0066L79.2568 54.1216H80.1025L81.3014 57.2092H81.2921Z" />
    <path d="M85.5912 59.9999H84.8291V54.1214H85.5726V54.7426H85.6005C85.7491 54.5108 85.9536 54.3347 86.2138 54.2048C86.4648 54.075 86.7343 54.0194 87.0224 54.0194C87.3105 54.0194 87.5893 54.075 87.8309 54.177C88.0725 54.279 88.2863 54.4274 88.4536 54.6128C88.6301 54.7983 88.7602 55.0208 88.8532 55.2619C88.9461 55.5122 88.9926 55.7811 88.9926 56.0593C88.9926 56.3374 88.9461 56.6156 88.8532 56.8567C88.7602 57.107 88.6301 57.3203 88.4536 57.5057C88.277 57.6912 88.0725 57.8395 87.8309 57.9508C87.5893 58.0621 87.3105 58.1177 87.0131 58.1177C86.7436 58.1177 86.4833 58.0528 86.2324 57.9415C85.9815 57.821 85.777 57.6448 85.6283 57.413H85.6005V59.9814L85.5912 59.9999ZM88.2119 56.0685C88.2119 55.8738 88.184 55.6977 88.1283 55.5215C88.0725 55.3546 87.9889 55.197 87.8681 55.0672C87.7565 54.9374 87.6172 54.8354 87.4499 54.7612C87.2826 54.687 87.0967 54.6499 86.883 54.6499C86.6878 54.6499 86.5019 54.687 86.3346 54.7612C86.1674 54.8354 86.028 54.9374 85.9072 55.0672C85.7863 55.197 85.6934 55.3453 85.6283 55.5215C85.5633 55.6884 85.5261 55.8738 85.5261 56.0778C85.5261 56.2818 85.5633 56.458 85.6283 56.6341C85.6934 56.8103 85.7863 56.9587 85.9072 57.0885C86.028 57.2183 86.1674 57.3203 86.3346 57.3945C86.5019 57.4686 86.6878 57.5057 86.883 57.5057C87.0967 57.5057 87.2826 57.4686 87.4499 57.3945C87.6172 57.3203 87.7565 57.2183 87.8681 57.0885C87.9796 56.9587 88.0725 56.8103 88.1283 56.6341C88.184 56.458 88.2119 56.2818 88.2119 56.0871" />
    <path d="M93.3438 55.5123C93.3438 55.2156 93.2602 54.9931 93.0929 54.8448C92.9256 54.6964 92.6933 54.6222 92.3866 54.6222C92.1636 54.6222 91.9591 54.6593 91.7639 54.7428C91.5688 54.8262 91.4015 54.9282 91.2714 55.0673L90.8625 54.6129C91.039 54.4368 91.2621 54.2977 91.5409 54.1864C91.8197 54.0752 92.1264 54.0195 92.4516 54.0195C92.684 54.0195 92.8885 54.0473 93.0836 54.1122C93.2788 54.1771 93.4461 54.2606 93.5855 54.3811C93.7249 54.5017 93.8364 54.65 93.9107 54.8355C93.9944 55.0209 94.0316 55.2342 94.0409 55.4845C94.0409 55.5587 94.0409 55.6329 94.0409 55.7071V57.1813C94.0409 57.3297 94.0408 57.478 94.0501 57.6357C94.0501 57.7933 94.0687 57.9231 94.0873 58.0344H93.3996C93.3903 57.9416 93.381 57.8489 93.3717 57.7469C93.3717 57.6449 93.3624 57.5522 93.3624 57.4595H93.3438C93.1859 57.6913 92.9907 57.8675 92.7769 57.9695C92.5539 58.0807 92.303 58.1271 92.0056 58.1271C91.8569 58.1271 91.6989 58.1085 91.5409 58.0622C91.3829 58.0251 91.2342 57.9509 91.0948 57.8582C90.9554 57.7655 90.8532 57.6357 90.7602 57.4873C90.6673 57.339 90.6301 57.1535 90.6301 56.9217C90.6301 56.625 90.7045 56.3932 90.8625 56.217C91.0112 56.0409 91.2156 55.9111 91.4758 55.8183C91.7268 55.7256 92.0149 55.67 92.3401 55.6422C92.6654 55.6143 93 55.6051 93.3345 55.6051V55.4938L93.3438 55.5123ZM93.1858 56.1428C92.9814 56.1428 92.7676 56.1428 92.5539 56.1707C92.3401 56.1892 92.1543 56.2263 91.9777 56.2819C91.8011 56.3376 91.6617 56.4117 91.5502 56.5137C91.4387 56.6157 91.3829 56.7455 91.3829 56.9124C91.3829 57.033 91.4108 57.135 91.4573 57.2184C91.5037 57.3019 91.5688 57.3668 91.6431 57.4224C91.7175 57.478 91.8104 57.5151 91.9033 57.5337C92.0056 57.5522 92.0985 57.5708 92.2007 57.5708C92.3773 57.5708 92.5446 57.5429 92.684 57.478C92.8234 57.4224 92.9442 57.3389 93.0464 57.2277C93.1394 57.1164 93.2137 56.9959 93.2695 56.8568C93.3159 56.7177 93.3438 56.5694 93.3438 56.4117V56.1614H93.1765L93.1858 56.1428Z" />
    <path d="M101.513 58.0251H100.723V53.1851L99.617 54.103L99.1523 53.556L100.797 52.2208H101.513V58.0251Z" />
    <path d="M107.228 58.0251H106.439V53.1851L105.333 54.103L104.868 53.556L106.522 52.2208H107.228V58.0251Z" />
    <path d="M112.283 52.0724C112.627 52.0724 112.925 52.1558 113.175 52.3135C113.426 52.4711 113.631 52.6936 113.789 52.9625C113.947 53.2407 114.068 53.5652 114.142 53.9361C114.216 54.307 114.254 54.7057 114.254 55.1229C114.254 55.5402 114.216 55.9481 114.142 56.319C114.068 56.6899 113.947 57.0144 113.789 57.2833C113.631 57.5615 113.417 57.7748 113.175 57.9324C112.925 58.09 112.627 58.1735 112.283 58.1735C111.939 58.1735 111.642 58.09 111.382 57.9324C111.131 57.7748 110.926 57.5522 110.759 57.2833C110.601 57.0052 110.48 56.6806 110.397 56.319C110.322 55.9481 110.285 55.5494 110.285 55.1229C110.285 54.6964 110.322 54.307 110.397 53.9361C110.471 53.5652 110.592 53.2407 110.759 52.9625C110.917 52.6844 111.131 52.4711 111.382 52.3135C111.633 52.1558 111.93 52.0724 112.283 52.0724ZM112.283 52.74C112.042 52.74 111.846 52.8142 111.688 52.9718C111.54 53.1294 111.419 53.3241 111.326 53.5652C111.242 53.8063 111.187 54.0659 111.149 54.3441C111.122 54.6222 111.103 54.8818 111.103 55.1322C111.103 55.3825 111.122 55.6422 111.149 55.9203C111.187 56.1985 111.242 56.4581 111.326 56.6899C111.41 56.9217 111.53 57.1257 111.688 57.2741C111.846 57.4317 112.042 57.5059 112.283 57.5059C112.525 57.5059 112.711 57.4317 112.859 57.2741C113.008 57.1164 113.129 56.9217 113.213 56.6899C113.306 56.4581 113.361 56.1985 113.398 55.9203C113.436 55.6422 113.445 55.3825 113.445 55.1322C113.445 54.8818 113.426 54.6222 113.398 54.3441C113.361 54.0659 113.306 53.8063 113.213 53.5652C113.129 53.3241 113.008 53.1294 112.859 52.9718C112.711 52.8142 112.516 52.74 112.283 52.74Z" />
    <path d="M117.824 55.7071H115.919V56.3562H117.824V55.7071Z" />
    <path d="M123.037 52.9254H120.63L120.583 54.446C120.695 54.4089 120.815 54.3811 120.955 54.3626C121.085 54.344 121.215 54.3347 121.336 54.3347C121.615 54.3347 121.875 54.3811 122.117 54.4646C122.358 54.548 122.563 54.6685 122.73 54.8262C122.906 54.9838 123.037 55.1785 123.139 55.401C123.241 55.6329 123.288 55.8832 123.288 56.1614C123.288 56.4673 123.241 56.7455 123.13 56.9958C123.027 57.2369 122.879 57.4502 122.702 57.6264C122.525 57.8025 122.312 57.9323 122.061 58.0251C121.819 58.1178 121.55 58.1641 121.252 58.1641C120.797 58.1641 120.416 58.0622 120.1 57.8489C119.784 57.6356 119.552 57.3575 119.394 56.9958L120.118 56.7084C120.211 56.9402 120.36 57.1349 120.555 57.274C120.76 57.4131 120.992 57.4873 121.252 57.4873C121.42 57.4873 121.578 57.4595 121.726 57.3946C121.875 57.3296 122.005 57.2462 122.117 57.1442C122.228 57.0329 122.312 56.9031 122.377 56.7548C122.442 56.5971 122.47 56.4302 122.47 56.2448C122.47 56.0223 122.433 55.8368 122.358 55.6699C122.284 55.5123 122.182 55.3732 122.061 55.2712C121.931 55.1692 121.791 55.0951 121.624 55.0394C121.457 54.9931 121.289 54.9653 121.104 54.9653C120.881 54.9653 120.657 54.9931 120.425 55.058C120.193 55.1229 119.988 55.1971 119.812 55.2898L119.895 52.2021H123.037V52.9068V52.9254Z" />
    <path d="M127.172 52.0723C127.516 52.0723 127.813 52.1558 128.064 52.3134C128.315 52.471 128.52 52.6936 128.678 52.9625C128.836 53.2406 128.957 53.5652 129.031 53.936C129.105 54.3069 129.142 54.7056 129.142 55.1229C129.142 55.5401 129.105 55.9481 129.031 56.319C128.957 56.6899 128.836 57.0144 128.678 57.2833C128.52 57.5614 128.306 57.7747 128.064 57.9323C127.813 58.09 127.516 58.1734 127.172 58.1734C126.828 58.1734 126.531 58.09 126.271 57.9323C126.02 57.7747 125.815 57.5522 125.648 57.2833C125.49 57.0051 125.369 56.6806 125.286 56.319C125.211 55.9481 125.174 55.5494 125.174 55.1229C125.174 54.6964 125.211 54.3069 125.286 53.936C125.36 53.5652 125.481 53.2406 125.648 52.9625C125.806 52.6843 126.02 52.471 126.271 52.3134C126.522 52.1558 126.819 52.0723 127.172 52.0723ZM127.172 52.7399C126.931 52.7399 126.735 52.8141 126.577 52.9717C126.429 53.1294 126.308 53.3241 126.215 53.5651C126.131 53.8062 126.076 54.0658 126.038 54.344C126.01 54.6222 125.992 54.8818 125.992 55.1321C125.992 55.3825 126.01 55.6421 126.038 55.9203C126.076 56.1984 126.131 56.4581 126.215 56.6899C126.299 56.9217 126.419 57.1256 126.577 57.274C126.735 57.4316 126.931 57.5058 127.172 57.5058C127.414 57.5058 127.6 57.4316 127.748 57.274C127.897 57.1164 128.018 56.9217 128.102 56.6899C128.194 56.4581 128.25 56.1984 128.287 55.9203C128.325 55.6421 128.334 55.3825 128.334 55.1321C128.334 54.8818 128.315 54.6222 128.287 54.344C128.25 54.0658 128.194 53.8062 128.102 53.5651C128.018 53.3241 127.897 53.1294 127.748 52.9717C127.6 52.8141 127.405 52.7399 127.172 52.7399Z" />
    <path d="M132.897 52.0724C133.24 52.0724 133.538 52.1558 133.789 52.3135C134.04 52.4711 134.244 52.6936 134.402 52.9625C134.56 53.2407 134.681 53.5652 134.755 53.9361C134.83 54.307 134.867 54.7057 134.867 55.1229C134.867 55.5402 134.83 55.9481 134.755 56.319C134.681 56.6899 134.56 57.0144 134.402 57.2833C134.244 57.5615 134.03 57.7748 133.789 57.9324C133.538 58.09 133.24 58.1735 132.897 58.1735C132.553 58.1735 132.255 58.09 131.995 57.9324C131.744 57.7748 131.54 57.5522 131.372 57.2833C131.214 57.0052 131.094 56.6806 131.01 56.319C130.936 55.9481 130.898 55.5494 130.898 55.1229C130.898 54.6964 130.936 54.307 131.01 53.9361C131.084 53.5652 131.205 53.2407 131.372 52.9625C131.53 52.6844 131.744 52.4711 131.995 52.3135C132.246 52.1558 132.543 52.0724 132.897 52.0724ZM132.897 52.74C132.655 52.74 132.46 52.8142 132.302 52.9718C132.153 53.1294 132.032 53.3241 131.939 53.5652C131.856 53.8063 131.8 54.0659 131.763 54.3441C131.735 54.6222 131.716 54.8818 131.716 55.1322C131.716 55.3825 131.735 55.6422 131.763 55.9203C131.8 56.1985 131.856 56.4581 131.939 56.6899C132.023 56.9217 132.144 57.1257 132.302 57.2741C132.46 57.4317 132.655 57.5059 132.897 57.5059C133.138 57.5059 133.324 57.4317 133.473 57.2741C133.621 57.1164 133.742 56.9217 133.826 56.6899C133.919 56.4581 133.975 56.1985 134.012 55.9203C134.049 55.6422 134.058 55.3825 134.058 55.1322C134.058 54.8818 134.04 54.6222 134.012 54.3441C133.975 54.0659 133.919 53.8063 133.826 53.5652C133.742 53.3241 133.621 53.1294 133.473 52.9718C133.324 52.8142 133.129 52.74 132.897 52.74Z" />
    <path d="M140.464 55.6791C140.659 55.6791 140.836 55.6976 141.013 55.7254L142.276 54.1121H143.122L141.672 55.9201C141.886 56.0036 142.072 56.1056 142.239 56.2354C142.407 56.3559 142.546 56.5136 142.676 56.6897C142.806 56.8659 142.908 57.0606 143.001 57.2831C143.094 57.5057 143.169 57.756 143.243 58.0249H142.397C142.323 57.7004 142.239 57.4222 142.128 57.209C142.016 56.9957 141.886 56.8195 141.728 56.6804C141.57 56.5414 141.394 56.4486 141.18 56.393C140.966 56.3374 140.734 56.3003 140.464 56.291V58.0249H139.702V54.1213H140.464V55.6791Z" />
    <path d="M145.163 52.2207H147.05C147.273 52.2207 147.496 52.2485 147.719 52.2856C147.942 52.332 148.146 52.4154 148.332 52.5267C148.518 52.6379 148.657 52.7956 148.778 52.981C148.89 53.1757 148.955 53.4168 148.955 53.7042C148.955 54.0195 148.862 54.2884 148.676 54.5109C148.49 54.7334 148.249 54.8818 147.942 54.9653V54.9838C148.128 55.0023 148.304 55.0487 148.453 55.1321C148.611 55.2063 148.75 55.299 148.862 55.4196C148.973 55.5401 149.066 55.6792 149.131 55.8461C149.196 56.013 149.234 56.1984 149.234 56.4024C149.234 56.662 149.178 56.8938 149.076 57.0978C148.973 57.3018 148.815 57.4687 148.62 57.6078C148.425 57.7469 148.193 57.8489 147.923 57.9231C147.654 57.9972 147.366 58.025 147.04 58.025H145.163V52.2114V52.2207ZM145.953 54.7056H147.031C147.17 54.7056 147.301 54.6871 147.44 54.6593C147.579 54.6315 147.7 54.5758 147.802 54.5016C147.905 54.4275 147.988 54.3347 148.053 54.2142C148.118 54.0937 148.156 53.9546 148.156 53.7877C148.156 53.6208 148.128 53.4817 148.063 53.3704C147.998 53.2592 147.914 53.1665 147.793 53.0923C147.672 53.0181 147.542 52.9625 147.394 52.9347C147.245 52.9068 147.078 52.8883 146.892 52.8883H145.953V54.7149V54.7056ZM145.953 57.3667H146.975C147.161 57.3667 147.338 57.3482 147.514 57.3111C147.691 57.274 147.84 57.2184 147.979 57.1349C148.118 57.0515 148.221 56.9495 148.304 56.8197C148.379 56.6899 148.425 56.5322 148.425 56.3375C148.425 55.9945 148.304 55.7348 148.063 55.5772C147.821 55.4196 147.486 55.3269 147.059 55.3269H145.962V57.3667H145.953Z" />
  </g>
</svg>
