<svg xmlns="http://www.w3.org/2000/svg" viewBox="0 0 40 40" fill="none">
    <path fill-rule="evenodd" clip-rule="evenodd" d="M14.1625 14.7726V25.2269C14.1625 28.4409 16.7645 31.0439 19.9753 31.0439C23.1859 31.0439 25.788 28.44 25.788 25.2269V14.7726C25.788 11.5586 23.1861 8.95552 19.9753 8.95552C16.7646 8.95552 14.1625 11.5594 14.1625 14.7726ZM13 14.7726C13 10.9178 16.1221 7.79297 19.9753 7.79297C23.8276 7.79297 26.9506 10.916 26.9506 14.7726V25.2269C26.9506 29.0816 23.8285 32.2065 19.9753 32.2065C16.1229 32.2065 13 29.0835 13 25.2269V14.7726Z" fill="white"/>
    <path fill-rule="evenodd" clip-rule="evenodd" d="M19.3945 11.8625V14.1876C19.3945 14.5086 19.6548 14.7689 19.9758 14.7689C20.2968 14.7689 20.5571 14.5086 20.5571 14.1876V11.8625C20.5571 11.5415 20.2968 11.2812 19.9758 11.2812C19.6548 11.2812 19.3945 11.5415 19.3945 11.8625Z" fill="white"/>
    <path fill-rule="evenodd" clip-rule="evenodd" d="M19.9747 38.596L23.1716 35.3991C23.3986 35.1721 23.7666 35.1721 23.9936 35.3991C24.2206 35.6261 24.2206 35.9941 23.9936 36.2211L20.3857 39.829C20.2722 39.9425 20.1234 39.9993 19.9747 39.9993C19.8259 39.9993 19.6771 39.9425 19.5636 39.829L15.9281 36.1935C15.7011 35.9665 15.7011 35.5984 15.9281 35.3714C16.1551 35.1444 16.5231 35.1444 16.7501 35.3714L19.9747 38.596Z" fill="white"/>
    <path fill-rule="evenodd" clip-rule="evenodd" d="M20.3857 0.170251L23.9936 3.77818C24.2206 4.00519 24.2206 4.37323 23.9936 4.60023C23.7666 4.82723 23.3986 4.82723 23.1716 4.60023L19.9747 1.40332L16.7501 4.62788C16.5231 4.85488 16.1551 4.85488 15.9281 4.62788C15.7011 4.40088 15.7011 4.03284 15.9281 3.80583L19.5636 0.170251C19.6771 0.0567505 19.8259 0 19.9747 0C20.1234 0 20.2722 0.0567505 20.3857 0.170251Z" fill="white"/>
</svg>
