<svg width="90" height="112" viewBox="0 0 90 112" fill="none" xmlns="http://www.w3.org/2000/svg">
<g opacity="0.6">
<path d="M45.2169 87.1165C25.2469 87.1165 9 70.7184 9 50.5623C9 30.4064 25.2468 14.0084 45.2169 14.0084C65.1871 14.0084 81.4338 30.4065 81.4338 50.5623C81.4338 70.7184 65.1869 87.1165 45.2169 87.1165ZM45.2169 15.7662C26.2162 15.7662 10.7578 31.3756 10.7578 50.5623C10.7578 69.749 26.216 85.3587 45.2169 85.3587C64.2178 85.3587 79.676 69.749 79.676 50.5623C79.676 31.3756 64.2178 15.7662 45.2169 15.7662Z" fill="white"/>
<path d="M45.2168 87.125C39.9281 87.125 35.0027 83.2445 31.348 76.1983C27.7884 69.3356 25.8281 60.2312 25.8281 50.5623C25.8281 40.8937 27.7884 31.7894 31.348 24.9267C35.0027 17.8805 39.9281 14 45.2168 14C50.5055 14 55.4309 17.8805 59.0856 24.9267C62.6452 31.7894 64.6055 40.8937 64.6055 50.5623C64.6055 60.2312 62.6452 69.3356 59.0856 76.1983C55.4309 83.2445 50.5055 87.125 45.2168 87.125ZM45.2168 15.7578C40.6171 15.7578 36.2458 19.3016 32.9084 25.736C29.4761 32.3533 27.5859 41.1702 27.5859 50.5623C27.5859 59.9548 29.4761 68.7717 32.9084 75.3888C36.2458 81.8236 40.6171 85.3672 45.2168 85.3672C49.8165 85.3672 54.1878 81.8236 57.5252 75.3888C60.9575 68.7715 62.8477 59.9547 62.8477 50.5623C62.8477 41.1702 60.9575 32.3533 57.5252 25.736C54.1878 19.3016 49.8165 15.7578 45.2168 15.7578Z" fill="white"/>
<path d="M80.5299 51.4412H9.9043C9.41896 51.4412 9.02539 51.0478 9.02539 50.5623C9.02539 50.0768 9.41896 49.6834 9.9043 49.6834H80.5299C81.0154 49.6834 81.4088 50.0768 81.4088 50.5623C81.4088 51.0478 81.0152 51.4412 80.5299 51.4412Z" fill="white"/>
<path d="M45.2959 35.913C35.8129 35.913 26.1759 33.9663 16.6501 30.126C16.1999 29.9446 15.9821 29.4323 16.1635 28.9822C16.345 28.532 16.857 28.314 17.3074 28.4956C35.9286 36.0025 54.7075 36.0029 73.1227 28.4968C73.5726 28.3131 74.0854 28.5295 74.2684 28.979C74.4517 29.4285 74.2357 29.9414 73.7864 30.1247C64.3934 33.9534 54.8379 35.9007 45.3854 35.913C45.3557 35.913 45.3255 35.913 45.2959 35.913Z" fill="white"/>
<path d="M16.9791 72.6931C16.6312 72.6931 16.3016 72.4852 16.1636 72.1426C15.982 71.6924 16.2 71.1804 16.6502 70.9988C26.1754 67.1587 35.8139 65.2115 45.2962 65.2115C45.3264 65.2115 45.3551 65.2117 45.3853 65.2117C54.838 65.2239 64.3934 67.1713 73.7863 71.0002C74.2358 71.1834 74.4516 71.6963 74.2683 72.1459C74.0849 72.5954 73.5718 72.8111 73.1225 72.6279C54.7079 65.1217 35.9288 65.1221 17.3073 72.6293C17.1997 72.6728 17.0884 72.6931 16.9791 72.6931Z" fill="white"/>
<path d="M45.2168 86.7541C44.7313 86.7541 44.3379 86.3607 44.3379 85.8752V15.2496C44.3379 14.7643 44.7313 14.3707 45.2168 14.3707C45.7023 14.3707 46.0957 14.7643 46.0957 15.2496V85.875C46.0957 86.3605 45.7023 86.7541 45.2168 86.7541Z" fill="white"/>
</g>
</svg>
