<svg xmlns="http://www.w3.org/2000/svg" viewBox="0 0 15 13">
  <path fill-rule="evenodd" clip-rule="evenodd" d="M1.80159 5.65081C5.37999 4.02519 7.76219 2.945 8.9584 2.42095C12.363 0.934364 13.0787 0.677687 13.5388 0.666992C13.641 0.666992 13.8659 0.688382 14.0193 0.816721C14.142 0.92367 14.1726 1.0627 14.1931 1.16965C14.2135 1.2766 14.234 1.50119 14.2135 1.67231C14.0295 3.70434 13.232 8.63468 12.8231 10.902C12.6493 11.8645 12.3119 12.1854 11.9847 12.2175C11.269 12.2816 10.7271 11.7255 10.0421 11.2549C8.95839 10.517 8.35518 10.0571 7.3021 9.32985C6.08545 8.49565 6.8727 8.03577 7.56793 7.28713C7.75196 7.09462 10.8907 4.10005 10.9521 3.83268C10.9623 3.80059 10.9623 3.67225 10.8907 3.60809C10.8192 3.54392 10.7169 3.56531 10.6351 3.5867C10.5227 3.60809 8.80503 4.80591 5.46178 7.16948C4.97103 7.52241 4.5314 7.69353 4.13266 7.68284C3.69303 7.67214 2.85466 7.42616 2.22077 7.21226C1.45397 6.95558 0.840531 6.81655 0.891651 6.36737C0.922323 6.13208 1.22904 5.89679 1.80159 5.65081Z" />
</svg>
