<svg xmlns="http://www.w3.org/2000/svg" viewBox="0 0 40 40" fill="none">
  <g clip-path="url(#clip0_5563_46552)">
    <path d="M35.1765 13.8331H35.1155C34.2703 13.8361 33.4579 14.1612 32.844 14.7417C32.3647 13.3415 31.0936 12.3385 29.6003 12.3385C28.6753 12.3505 27.7963 12.743 27.1706 13.4239C26.6052 12.2309 25.4376 11.4309 24.0917 11.4309H24.0267C23.2522 11.4309 22.4982 11.6615 21.9834 12.12V3.63682C21.9834 1.63141 20.4284 0 18.5306 0C16.6348 0 15.0858 1.63007 15.0845 3.63414L15.0697 20.4114L14.0519 19.1741C13.2329 18.1543 12.0268 17.5209 10.7224 17.425C9.44425 17.3376 8.18685 17.7826 7.24815 18.6546L6.42809 19.3349C6.17909 19.5414 6.10804 19.8936 6.25717 20.1801L14.2322 35.4915C15.683 38.2788 18.4428 40 21.4345 40H30.3794C34.9154 40 38.6095 36.0793 38.6142 31.2471C38.6162 29.0882 38.6186 27.4823 38.6199 26.1743C38.6246 22.6524 38.6263 21.3357 38.6173 17.4589C38.6126 15.4588 37.0693 13.8331 35.1765 13.8331ZM37.2472 26.1776C37.2459 27.4856 37.2436 29.0869 37.2415 31.2458C37.2375 35.3216 34.1594 38.6273 30.3794 38.6273H21.4345C18.9562 38.6273 16.6629 37.1893 15.4494 34.8581L7.73006 20.033L8.13691 19.6986C8.14562 19.6912 8.15467 19.6848 8.16305 19.6768C8.8256 19.0534 9.71772 18.7334 10.6256 18.7941C11.5529 18.8651 12.4095 19.3185 12.9896 20.0458L15.2212 22.7626C15.4052 22.9865 15.7098 23.0706 15.9826 22.9731C16.2554 22.8756 16.4377 22.6172 16.4381 22.3273L16.4511 3.63548C16.4518 2.38813 17.3912 1.37302 18.5313 1.37302C19.6711 1.37302 20.6108 2.38847 20.6108 3.63682V14.9086C20.6108 14.9474 20.6091 14.9863 20.6091 15.0255C20.6091 15.0426 20.6108 15.0587 20.6108 15.0751V19.8953C20.6108 20.2743 20.9181 20.5816 21.2971 20.5816C21.6761 20.5816 21.9834 20.2743 21.9834 19.8953V14.9317C21.9834 13.7272 22.9154 12.8036 24.0267 12.8036H24.0917C25.2319 12.8036 26.1873 13.7778 26.1873 15.0265V19.4355C26.1873 19.8145 26.4946 20.1218 26.8737 20.1218C27.2527 20.1218 27.56 19.8145 27.56 19.4355V15.9759C27.56 14.7276 28.4756 13.7118 29.6224 13.7118C30.7628 13.7118 31.6781 14.7276 31.6781 15.9759V19.2398C31.6781 19.6188 31.9854 19.9261 32.3644 19.9261C32.7434 19.9261 33.0508 19.6188 33.0508 19.2398V17.4726C33.0508 16.2239 33.975 15.2058 35.1155 15.2058H35.1765C36.3139 15.2058 37.2419 16.2199 37.2446 17.4646C37.2536 21.339 37.2519 22.6574 37.2472 26.1776Z" fill="white"/>
    <path d="M24.3817 6.79808H33.277L31.6821 8.39296C31.5045 8.56555 31.4334 8.82025 31.4965 9.05953C31.5595 9.29915 31.7465 9.48615 31.9861 9.54916C32.2254 9.61183 32.4801 9.54078 32.6526 9.36316L35.4091 6.60706C35.6772 6.33896 35.6772 5.90429 35.4091 5.63652L32.6526 2.88042C32.3842 2.615 31.9519 2.61634 31.6851 2.8831C31.418 3.1502 31.4167 3.58252 31.6821 3.85096L33.2566 5.42539H24.3817C24.0026 5.42539 23.6953 5.73271 23.6953 6.11174C23.6953 6.49077 24.0026 6.79808 24.3817 6.79808Z" fill="white"/>
    <path d="M3.72354 6.79808H12.5398C12.9188 6.79808 13.2261 6.49077 13.2261 6.11174C13.2261 5.73271 12.9188 5.42539 12.5398 5.42539H3.74399L5.31842 3.85096C5.58385 3.58252 5.58251 3.1502 5.31541 2.8831C5.04864 2.61634 4.61633 2.615 4.34789 2.88042L1.59145 5.63652C1.32368 5.90463 1.32368 6.33929 1.59145 6.60706L4.34789 9.36316C4.52082 9.53843 4.77451 9.60747 5.01245 9.54413C5.25039 9.48113 5.43605 9.29513 5.49939 9.05719C5.56273 8.81925 5.4937 8.56589 5.31842 8.39263L3.72354 6.79808Z" fill="white"/>
  </g>
  <defs>
    <clipPath id="clip0_5563_46552">
      <rect width="40" height="40" fill="white"/>
    </clipPath>
  </defs>
</svg>
