<svg xmlns="http://www.w3.org/2000/svg" viewBox="0 0 16 16" fill="none">
  <path d="M8 1C9.5913 1 11.1174 1.60704 12.2426 2.68759C13.3679 3.76814 14 5.23367 14 6.76179C14 9.19652 12.2185 11.8499 8.70154 14.7503C8.50598 14.9116 8.25665 15.0002 7.99885 15C7.74104 14.9998 7.49188 14.9108 7.29662 14.7491L7.064 14.5553C3.70277 11.7305 2 9.14215 2 6.76179C2 5.23367 2.63214 3.76814 3.75736 2.68759C4.88258 1.60704 6.4087 1 8 1ZM8 4.54572C7.38796 4.54572 6.80099 4.7792 6.36822 5.19479C5.93544 5.61039 5.69231 6.17405 5.69231 6.76179C5.69231 7.34953 5.93544 7.9132 6.36822 8.32879C6.80099 8.74439 7.38796 8.97787 8 8.97787C8.61204 8.97787 9.19901 8.74439 9.63179 8.32879C10.0646 7.9132 10.3077 7.34953 10.3077 6.76179C10.3077 6.17405 10.0646 5.61039 9.63179 5.19479C9.19901 4.7792 8.61204 4.54572 8 4.54572Z" fill="white"/>
</svg>
