<svg xmlns="http://www.w3.org/2000/svg" viewBox="0 0 16 16" >
  <path d="M8.63978 12.4355C3.77756 12.4355 1.00423 9.10221 0.888672 3.55554H3.32423C3.40423 7.62665 5.19978 9.3511 6.622 9.70665V3.55554H8.91534V7.06665C10.3198 6.91554 11.7953 5.31554 12.2931 3.55554H14.5864C14.3989 4.46833 14.025 5.33259 13.4881 6.09427C12.9513 6.85595 12.263 7.49867 11.4664 7.98221C12.3556 8.42404 13.141 9.04941 13.7707 9.81705C14.4005 10.5847 14.8603 11.4772 15.1198 12.4355H12.5953C12.3624 11.6031 11.8889 10.858 11.2343 10.2934C10.5797 9.72895 9.77298 9.37021 8.91534 9.26221V12.4355H8.63978Z"/>
</svg>
