<svg xmlns="http://www.w3.org/2000/svg" viewBox="0 0 16 16" >
  <path fill-rule="evenodd" clip-rule="evenodd" d="M14.2549 3.76211C14.4721 3.98374 14.6281 4.25933 14.7073 4.56129C15 5.67581 15 8 15 8C15 8 15 10.3242 14.7073 11.4387C14.6281 11.7407 14.4721 12.0163 14.2549 12.2379C14.0377 12.4595 13.7669 12.6194 13.4695 12.7016C12.375 13 8 13 8 13C8 13 3.625 13 2.53045 12.7016C2.23313 12.6194 1.9623 12.4595 1.74508 12.2379C1.52787 12.0163 1.37188 11.7407 1.29273 11.4387C1 10.3242 1 8 1 8C1 8 1 5.67581 1.29273 4.56129C1.37188 4.25933 1.52787 3.98374 1.74508 3.76211C1.9623 3.54047 2.23313 3.38057 2.53045 3.29839C3.625 3 8 3 8 3C8 3 12.375 3 13.4695 3.29839C13.7669 3.38057 14.0377 3.54047 14.2549 3.76211ZM10.2273 8.00002L6.56819 5.88953V10.1105L10.2273 8.00002Z" />
</svg>
