<svg viewBox="0 0 600 240" fill="none" xmlns="http://www.w3.org/2000/svg">
  <path fill-rule="evenodd" clip-rule="evenodd" d="M413.664 118.666C413.664 180.522 363.52 230.666 301.664 230.666C271.229 230.666 243.63 218.527 223.444 198.826L381.824 40.4457C401.525 60.632 413.664 88.2314 413.664 118.666ZM220.631 195.982L378.98 37.6331C358.877 18.4473 331.647 6.66602 301.664 6.66602C239.808 6.66602 189.664 56.8101 189.664 118.666C189.664 148.648 201.445 175.879 220.631 195.982ZM417.664 118.666C417.664 182.731 365.729 234.666 301.664 234.666C237.599 234.666 185.664 182.731 185.664 118.666C185.664 54.601 237.599 2.66602 301.664 2.66602C365.729 2.66602 417.664 54.601 417.664 118.666Z" fill="#EBAA5B"/>
  <path opacity="0.2" d="M99.8 231L100.76 179.16H0.28V159L50.84 5.07999L77.08 8.59998L28.76 155.16V156.76L100.76 155.48L106.84 69.4H126.68V155.48L147.16 154.84V179.16H126.68L127 231H99.8Z" fill="#777777"/>
  <path opacity="0.2" d="M551.8 231L552.76 179.16H452.28V159L502.84 5.07999L529.08 8.59998L480.76 155.16V156.76L552.76 155.48L558.84 69.4H578.68V155.48L599.16 154.84V179.16H578.68L579 231H551.8Z" fill="#777777"/>
</svg>
