<svg xmlns="http://www.w3.org/2000/svg" viewBox="0 0 90 113" fill="none">
  <g opacity="0.6">
    <path d="M53.0782 61.0846L56.7025 56.185C56.9986 55.7854 56.914 55.222 56.5144 54.9268C56.1148 54.6307 55.5514 54.7153 55.2562 55.1149L51.6319 60.0145C51.3358 60.4141 51.4204 60.9775 51.82 61.2727C51.9811 61.3924 52.1692 61.4491 52.3546 61.4491C52.63 61.4491 52.9018 61.3222 53.0782 61.0846Z" fill="white"/>
    <path d="M29.9167 50.9768C30.0922 51.1523 30.3226 51.2405 30.553 51.2405C30.7834 51.2405 31.0138 51.1523 31.1893 50.9768C31.5412 50.6258 31.5412 50.0561 31.1893 49.7042L27.4975 46.0115C27.1456 45.6596 26.5768 45.6596 26.2249 46.0115C25.873 46.3625 25.873 46.9322 26.2249 47.2841L29.9167 50.9768Z" fill="white"/>
    <path d="M87.4 94.6412H82.3438V51.7031C82.3465 51.6734 82.3618 51.6464 82.3618 51.6158C82.3618 51.4025 82.288 51.2072 82.1638 51.0533L64.3744 17.4788C64.2178 17.1845 63.9118 17 63.5788 17H54.2206H35.5042C35.0074 17 34.6042 17.4032 34.6042 17.9V29.2598C34.6042 29.7566 35.0074 30.1598 35.5042 30.1598H37.7452V39.3425C37.7452 39.8393 38.1484 40.2425 38.6452 40.2425H40.9348V52.892C40.9348 53.3888 41.338 53.792 41.8348 53.792H43.9633V63.1016C43.9633 63.5993 44.3665 64.0016 44.8633 64.0016C45.3601 64.0016 45.7633 63.5993 45.7633 63.1016V53.792H47.89C48.3877 53.792 48.79 53.3888 48.79 52.892V40.2425H51.0814C51.5791 40.2425 51.9814 39.8393 51.9814 39.3425V30.1598H59.6989L71.1874 51.8399V94.6412H56.6758V69.5573C56.6758 69.0596 56.2735 68.6573 55.7758 68.6573H40.4029L33.7186 62.4176C33.6844 62.3861 33.6421 62.3726 33.6052 62.3474C33.5494 62.3096 33.4972 62.2673 33.4342 62.243C33.3676 62.2169 33.2983 62.2106 33.2281 62.2007C33.1867 62.1944 33.1489 62.1764 33.1048 62.1764H22.717V52.892C22.717 52.3952 22.3138 51.992 21.817 51.992H7.0039C6.5071 51.992 6.1039 52.3952 6.1039 52.892V94.6412H1.9C1.4032 94.6412 1 95.0435 1 95.5412C1 96.0389 1.4032 96.4412 1.9 96.4412H87.4C87.8977 96.4412 88.3 96.0389 88.3 95.5412C88.3 95.0435 87.8977 94.6412 87.4 94.6412ZM63.0379 18.8L79.9489 50.7158H72.6283L61.2703 29.2814C61.2703 29.2742 61.2748 29.2679 61.2748 29.2607C61.2748 28.952 61.1092 28.6928 60.8725 28.5299L55.7164 18.8H63.0379ZM46.99 51.992H42.7348V40.2425H46.99V51.992ZM50.1814 38.4425H47.89H41.8348H39.5452V30.1598H50.1814V38.4425ZM51.0814 28.3598H38.6452H36.4042V18.8H53.6788L58.744 28.3598H51.0814ZM72.9865 52.5158H80.5429V94.6412H72.9865V52.5158ZM7.9039 53.792H20.917V62.1755H14.41C13.9132 62.1755 13.51 62.5778 13.51 63.0755C13.51 63.5732 13.9132 63.9755 14.41 63.9755H32.7493L37.7641 68.6564H14.41C13.9132 68.6564 13.51 69.0587 13.51 69.5564C13.51 70.0541 13.9132 70.4564 14.41 70.4564H54.8758V94.6403H7.9039V53.792Z" fill="white"/>
  </g>
</svg>
