<svg xmlns="http://www.w3.org/2000/svg" viewBox="0 0 16 16" fill="none">
  <path d="M15 7.9996H5.65027M2.35005 7.9996H1M2.35005 7.9996C2.35005 7.53904 2.52386 7.09734 2.83325 6.77167C3.14263 6.446 3.56225 6.26304 3.99978 6.26304C4.43732 6.26304 4.85693 6.446 5.16632 6.77167C5.4757 7.09734 5.64951 7.53904 5.64951 7.9996C5.64951 8.46016 5.4757 8.90186 5.16632 9.22753C4.85693 9.5532 4.43732 9.73616 3.99978 9.73616C3.56225 9.73616 3.14263 9.5532 2.83325 9.22753C2.52386 8.90186 2.35005 8.46016 2.35005 7.9996ZM15 13.2626H10.6502M10.6502 13.2626C10.6502 13.7233 10.4759 14.1655 10.1665 14.4913C9.85702 14.817 9.43731 15 8.99968 15C8.56214 15 8.14253 14.8162 7.83314 14.4906C7.52376 14.1649 7.34995 13.7232 7.34995 13.2626M10.6502 13.2626C10.6502 12.802 10.4759 12.3606 10.1665 12.0348C9.85702 11.7091 9.43731 11.5261 8.99968 11.5261C8.56214 11.5261 8.14253 11.709 7.83314 12.0347C7.52376 12.3604 7.34995 12.8021 7.34995 13.2626M7.34995 13.2626H1M15 2.73656H12.6503M9.35005 2.73656H1M9.35005 2.73656C9.35005 2.27599 9.52386 1.83429 9.83325 1.50863C10.1426 1.18296 10.5622 1 10.9998 1C11.2164 1 11.431 1.04492 11.6311 1.13219C11.8313 1.21946 12.0131 1.34737 12.1663 1.50863C12.3195 1.66988 12.441 1.86132 12.5239 2.07201C12.6068 2.28269 12.6495 2.50851 12.6495 2.73656C12.6495 2.96461 12.6068 3.19042 12.5239 3.40111C12.441 3.6118 12.3195 3.80323 12.1663 3.96449C12.0131 4.12574 11.8313 4.25366 11.6311 4.34093C11.431 4.4282 11.2164 4.47311 10.9998 4.47311C10.5622 4.47311 10.1426 4.29016 9.83325 3.96449C9.52386 3.63882 9.35005 3.19712 9.35005 2.73656Z"  stroke-miterlimit="10" stroke-linecap="round"/>
</svg>
