<svg xmlns="http://www.w3.org/2000/svg" width="90" height="90" viewBox="0 0 90 90" fill="none">
  <g opacity="0.6">
    <path d="M77.9953 90C78.3777 90 78.6876 89.69 78.6876 89.3077V18C78.6876 17.9848 78.68 17.9722 78.679 17.9572C78.675 17.8944 78.6628 17.834 78.6421 17.7745C78.6344 17.7523 78.6287 17.7303 78.6188 17.7092C78.5855 17.6376 78.5435 17.5697 78.4856 17.5116L78.4846 17.5103L61.1851 0.203036L61.1838 0.202022C61.1257 0.144132 61.0578 0.102088 60.986 0.0687068C60.9651 0.0589036 60.9433 0.053326 60.9213 0.0456355C60.8617 0.024846 60.8011 0.012592 60.7381 0.00862006C60.7232 0.0076482 60.7105 0 60.6954 0H12.0047C11.6224 0 11.3124 0.309983 11.3124 0.692308V89.3077C11.3124 89.69 11.6224 90 12.0047 90H77.9953ZM61.3877 2.36426L76.3244 17.3077H61.3877V2.36426ZM12.697 1.38462H60.0031V18C60.0031 18.3823 60.3131 18.6923 60.6954 18.6923H77.303V88.6154H12.697V1.38462Z" fill="white"/>
    <path d="M21.3759 10.0385H48.0859C48.4682 10.0385 48.7782 9.72848 48.7782 9.34615C48.7782 8.96383 48.4682 8.65385 48.0859 8.65385H21.3759C20.9936 8.65385 20.6836 8.96383 20.6836 9.34615C20.6836 9.72848 20.9936 10.0385 21.3759 10.0385Z" fill="white"/>
    <path d="M21.3759 21.1587H52.932C53.3143 21.1587 53.6243 20.8487 53.6243 20.4663C53.6243 20.084 53.3143 19.774 52.932 19.774H21.3759C20.9936 19.774 20.6836 20.084 20.6836 20.4663C20.6836 20.8487 20.9936 21.1587 21.3759 21.1587Z" fill="white"/>
    <path d="M21.3759 32.2788H67.4157C67.798 32.2788 68.108 31.9689 68.108 31.5865C68.108 31.2042 67.798 30.8942 67.4157 30.8942H21.3759C20.9936 30.8942 20.6836 31.2042 20.6836 31.5865C20.6836 31.9689 20.9936 32.2788 21.3759 32.2788Z" fill="white"/>
    <path d="M21.3759 43.399H58.4705C58.8528 43.399 59.1628 43.0891 59.1628 42.7067C59.1628 42.3244 58.8528 42.0144 58.4705 42.0144H21.3759C20.9936 42.0144 20.6836 42.3244 20.6836 42.7067C20.6836 43.0891 20.9936 43.399 21.3759 43.399Z" fill="white"/>
    <path d="M68.108 53.8269C68.108 53.4446 67.798 53.1346 67.4157 53.1346H21.3759C20.9936 53.1346 20.6836 53.4446 20.6836 53.8269C20.6836 54.2092 20.9936 54.5192 21.3759 54.5192H67.4157C67.798 54.5192 68.108 54.2092 68.108 53.8269Z" fill="white"/>
    <path d="M68.1746 68.4577C68.0478 68.0676 68.0809 67.5277 68.1157 66.9564C68.1692 66.0836 68.23 65.0942 67.6763 64.3336C67.1172 63.5655 66.1524 63.3178 65.3009 63.0994C64.7512 62.9584 64.232 62.8249 63.9075 62.5889C63.5904 62.3581 63.3071 61.9098 63.0073 61.4352C62.5347 60.6871 61.9989 59.839 61.0835 59.5415C60.2022 59.2545 59.2895 59.6159 58.4836 59.9333C57.9667 60.1371 57.432 60.3477 57.0074 60.3477C56.5825 60.3477 56.048 60.1371 55.5308 59.9333C54.7246 59.6152 53.8099 59.2548 52.9309 59.5415C52.0155 59.839 51.4801 60.6871 51.0072 61.4352C50.7073 61.9098 50.424 62.3581 50.107 62.5889C49.7824 62.8249 49.2632 62.9584 48.7135 63.0994C47.8624 63.3181 46.8976 63.5659 46.3385 64.3339C45.7848 65.0948 45.8453 66.0839 45.8987 66.9568C45.9338 67.5281 45.967 68.0676 45.8402 68.4577C45.7229 68.8194 45.3893 69.2203 45.036 69.6452C44.4661 70.3304 43.8201 71.1069 43.8201 72.0865C43.8201 73.0658 44.4661 73.8423 45.036 74.5279C45.3893 74.9525 45.7229 75.3537 45.8402 75.7154C45.967 76.1055 45.9338 76.6454 45.899 77.2166C45.8456 78.0891 45.7848 79.0786 46.3385 79.8392C46.8976 80.6072 47.8624 80.855 48.7139 81.0737C49.2635 81.2147 49.7828 81.3482 50.1073 81.5841C50.4244 81.815 50.7077 82.2633 51.0075 82.7379C51.4801 83.486 52.0159 84.3341 52.9316 84.6316C53.1571 84.7046 53.3846 84.7357 53.6121 84.7357C54.2726 84.7357 54.9315 84.4757 55.5308 84.2394C56.048 84.0359 56.5828 83.825 57.0074 83.825C57.4323 83.825 57.9671 84.0359 58.4843 84.2398C59.2898 84.5572 60.2025 84.9155 61.0838 84.6316C61.9992 84.3341 62.5347 83.486 63.0076 82.7379C63.3074 82.2633 63.5907 81.815 63.9078 81.5841C64.2323 81.3478 64.7516 81.2147 65.3016 81.0734C66.1527 80.855 67.1172 80.6072 67.6763 79.8392C68.23 79.0782 68.1695 78.0888 68.1161 77.216C68.0809 76.6447 68.0478 76.1052 68.1746 75.7154C68.2919 75.3537 68.6255 74.9525 68.9788 74.5279C69.5487 73.8423 70.1947 73.0658 70.1947 72.0865C70.1947 71.1069 69.5487 70.3301 68.9788 69.6449C68.6255 69.2203 68.2919 68.819 68.1746 68.4577ZM67.9143 73.6425C67.4931 74.1489 67.0573 74.6729 66.8576 75.2878C66.6497 75.9277 66.6926 76.6258 66.7338 77.3005C66.7768 78.0029 66.8177 78.6662 66.5567 79.0245C66.2907 79.3899 65.6129 79.564 64.9571 79.7323C64.3053 79.8997 63.6316 80.0724 63.0931 80.4645C62.5617 80.8513 62.1933 81.4344 61.837 81.9982C61.4557 82.602 61.0956 83.1719 60.6562 83.3146C60.2499 83.4474 59.6384 83.2064 58.992 82.9515C58.3545 82.7003 57.6953 82.4404 57.0074 82.4404C56.3198 82.4404 55.6606 82.7003 55.0231 82.9515C54.3767 83.2061 53.7662 83.4481 53.3592 83.3146C52.9191 83.1719 52.5591 82.6016 52.1781 81.9982C51.8218 81.4344 51.4534 80.8513 50.922 80.4645C50.3835 80.0728 49.7098 79.8997 49.058 79.7323C48.4022 79.564 47.7241 79.3899 47.4581 79.0245C47.1974 78.6662 47.238 78.0033 47.2809 77.3012C47.3225 76.6261 47.3651 75.928 47.1572 75.2874C46.9574 74.6729 46.5217 74.1489 46.1005 73.6425C45.6397 73.0885 45.2047 72.5652 45.2047 72.0865C45.2047 71.6075 45.6397 71.0846 46.1005 70.5305C46.5217 70.0238 46.9574 69.4999 47.1572 68.8853C47.3651 68.245 47.3222 67.5473 47.2809 66.8723C47.238 66.1701 47.1971 65.5069 47.4581 65.1486C47.7241 64.7832 48.4022 64.6091 49.058 64.4407C49.7094 64.2734 50.3831 64.1003 50.9216 63.7085C51.453 63.3218 51.8215 62.7387 52.1778 62.1748C52.5591 61.5711 52.9191 61.0012 53.3589 60.8585C53.4387 60.8325 53.5262 60.821 53.6205 60.821C54.0069 60.821 54.5035 61.0167 55.0231 61.2216C55.6606 61.4727 56.3195 61.7323 57.0074 61.7323C57.695 61.7323 58.3541 61.4727 58.9913 61.2216C59.6377 60.967 60.2482 60.7263 60.6555 60.8585C61.0956 61.0012 61.4557 61.5714 61.8366 62.1748C62.1929 62.7387 62.5614 63.3218 63.0928 63.7085C63.6313 64.1003 64.305 64.2734 64.9568 64.4404C65.6125 64.6087 66.2907 64.7828 66.5567 65.1483C66.8173 65.5066 66.7768 66.1698 66.7338 66.8716C66.6923 67.547 66.6497 68.245 66.8576 68.8856C67.0573 69.4999 67.4927 70.0235 67.9139 70.5302C68.375 71.0842 68.8101 71.6075 68.8101 72.0865C68.8101 72.5652 68.375 73.0885 67.9143 73.6425Z" fill="white"/>
    <path d="M57.0074 64.4441C52.7934 64.4441 49.365 67.8725 49.365 72.0865C49.365 76.3006 52.7934 79.729 57.0074 79.729C61.2214 79.729 64.6498 76.3006 64.6498 72.0865C64.6498 67.8725 61.2214 64.4441 57.0074 64.4441ZM57.0074 78.3443C53.5567 78.3443 50.7496 75.5373 50.7496 72.0865C50.7496 68.6358 53.5567 65.8287 57.0074 65.8287C60.4581 65.8287 63.2652 68.6358 63.2652 72.0865C63.2652 75.5373 60.4581 78.3443 57.0074 78.3443Z" fill="white"/>
    <path d="M59.22 69.5959L55.7071 73.1088L54.793 72.1947C54.5226 71.9243 54.0845 71.9243 53.814 72.1947C53.5436 72.4651 53.5436 72.9032 53.814 73.1737L55.2176 74.5772C55.3528 74.7124 55.5299 74.78 55.7071 74.78C55.8842 74.78 56.0613 74.7124 56.1965 74.5772L60.1989 70.5748C60.4694 70.3044 60.4694 69.8663 60.1989 69.5959C59.9285 69.3254 59.4904 69.3254 59.22 69.5959Z" fill="white"/>
  </g>
</svg>
