<svg viewBox="0 0 1680 80" fill="none" xmlns="http://www.w3.org/2000/svg">
<rect x="-100.5" y="0.5" width="1881" height="79" stroke="#EBAA5B" stroke-opacity="0.2"/>
<path d="M-97.992 27.844H-95.688V37.668H-83.336V27.844H-81.032V50.5H-83.336V39.78H-95.688V50.5H-97.992V27.844ZM-65.7112 40.836C-65.7112 39.5347 -66.0526 38.564 -66.7352 37.924C-67.4179 37.284 -68.4099 36.964 -69.7112 36.964C-70.6072 36.964 -71.4392 37.124 -72.2072 37.444C-72.9752 37.764 -73.6259 38.1907 -74.1592 38.724L-75.3752 37.284C-74.7566 36.6653 -73.9459 36.1533 -72.9432 35.748C-71.9192 35.3427 -70.7672 35.14 -69.4872 35.14C-68.6766 35.14 -67.9192 35.2573 -67.2152 35.492C-66.5112 35.7053 -65.8926 36.036 -65.3592 36.484C-64.8259 36.932 -64.4099 37.4973 -64.1112 38.18C-63.8126 38.8627 -63.6632 39.6627 -63.6632 40.58V47.14C-63.6632 47.716 -63.6419 48.3133 -63.5992 48.932C-63.5566 49.5507 -63.4926 50.0733 -63.4072 50.5H-65.3592C-65.4232 50.1373 -65.4766 49.7427 -65.5192 49.316C-65.5619 48.8893 -65.5832 48.4733 -65.5832 48.068H-65.6472C-66.3299 49.0707 -67.1086 49.796 -67.9832 50.244C-68.8366 50.6707 -69.8712 50.884 -71.0872 50.884C-71.6632 50.884 -72.2606 50.7987 -72.8792 50.628C-73.4766 50.4787 -74.0312 50.2227 -74.5432 49.86C-75.0339 49.4973 -75.4499 49.028 -75.7912 48.452C-76.1112 47.876 -76.2712 47.172 -76.2712 46.34C-76.2712 45.188 -75.9832 44.2813 -75.4072 43.62C-74.8099 42.9373 -74.0206 42.436 -73.0392 42.116C-72.0579 41.7747 -70.9379 41.5613 -69.6792 41.476C-68.3992 41.3693 -67.0766 41.316 -65.7112 41.316V40.836ZM-66.3512 43.012C-67.2472 43.012 -68.1539 43.0547 -69.0712 43.14C-69.9672 43.204 -70.7886 43.3533 -71.5352 43.588C-72.2606 43.8013 -72.8579 44.1213 -73.3273 44.548C-73.7966 44.9747 -74.0312 45.54 -74.0312 46.244C-74.0312 46.7773 -73.9352 47.2253 -73.7432 47.588C-73.5299 47.9507 -73.2526 48.2493 -72.9112 48.484C-72.5699 48.6973 -72.1966 48.8573 -71.7912 48.964C-71.3646 49.0493 -70.9379 49.092 -70.5112 49.092C-69.7432 49.092 -69.0606 48.964 -68.4632 48.708C-67.8659 48.4307 -67.3646 48.068 -66.9592 47.62C-66.5539 47.1507 -66.2446 46.6173 -66.0312 46.02C-65.8179 45.4227 -65.7112 44.7933 -65.7112 44.132V43.012H-66.3512ZM-58.1855 50.5V35.524H-56.0095V48.676H-49.2895V35.524H-47.1135V48.676H-40.3615V35.524H-38.1855V50.5H-58.1855ZM-21.2615 38.308L-30.4455 50.5H-32.6855V35.524H-30.4455V47.268L-21.2615 35.524H-19.0215V50.5H-21.2615V38.308ZM-3.35325 41.668C-2.49992 41.668 -1.69992 41.732 -0.953249 41.86L4.42275 35.524H6.85475L1.03075 42.308C2.80142 42.8627 4.17742 43.812 5.15875 45.156C6.14008 46.4787 6.91875 48.26 7.49475 50.5H5.06275C4.76408 49.1773 4.38008 48.0787 3.91075 47.204C3.46275 46.308 2.88675 45.5933 2.18275 45.06C1.50008 44.5053 0.700084 44.1213 -0.21725 43.908C-1.13458 43.6733 -2.17992 43.5453 -3.35325 43.524V50.5H-5.52925V35.524H-3.35325V41.668ZM22.1498 50.5L17.1898 38.148L12.0058 50.5H9.73375L16.2938 35.524H18.2138L24.3578 50.5H22.1498ZM39.176 38.308L29.992 50.5H27.752V35.524H29.992V47.268L39.176 35.524H41.416V50.5H39.176V38.308ZM58.4603 41.86C58.3963 40.452 57.9376 39.2893 57.0843 38.372C56.2523 37.4333 55.0576 36.964 53.5003 36.964C52.7749 36.964 52.1029 37.1027 51.4843 37.38C50.8656 37.636 50.3216 37.9987 49.8523 38.468C49.3829 38.916 49.0096 39.4387 48.7323 40.036C48.4549 40.612 48.2949 41.22 48.2523 41.86H58.4603ZM60.6683 42.564C60.6683 42.7133 60.6683 42.8733 60.6683 43.044C60.6683 43.2147 60.6576 43.396 60.6363 43.588H48.2203C48.2416 44.3347 48.3909 45.0387 48.6683 45.7C48.9456 46.3613 49.3296 46.9373 49.8203 47.428C50.3109 47.9187 50.8869 48.3133 51.5483 48.612C52.2096 48.8893 52.9243 49.028 53.6923 49.028C54.8229 49.028 55.7936 48.772 56.6043 48.26C57.4363 47.7267 58.0656 47.1187 58.4923 46.436L60.1243 47.716C59.2283 48.8467 58.2363 49.6573 57.1483 50.148C56.0816 50.6387 54.9296 50.884 53.6923 50.884C52.5829 50.884 51.5483 50.692 50.5883 50.308C49.6496 49.9027 48.8389 49.348 48.1562 48.644C47.4736 47.94 46.9296 47.108 46.5243 46.148C46.1403 45.188 45.9483 44.1427 45.9483 43.012C45.9483 41.8813 46.1403 40.836 46.5243 39.876C46.9083 38.916 47.4416 38.084 48.1243 37.38C48.8069 36.676 49.6069 36.132 50.5243 35.748C51.4416 35.3427 52.4336 35.14 53.5003 35.14C54.6736 35.14 55.7083 35.3427 56.6043 35.748C57.5003 36.132 58.2469 36.6653 58.8443 37.348C59.4416 38.0093 59.8896 38.788 60.1883 39.684C60.5083 40.58 60.6683 41.54 60.6683 42.564ZM67.3968 50.5H65.2208V35.524H67.3968V41.572H75.9408V35.524H78.1168V50.5H75.9408V43.396H67.3968V50.5ZM81.195 35.524H94.347V37.348H88.683V50.5H86.507V37.348H81.195V35.524ZM99.5843 35.524V40.708H102.656C103.766 40.708 104.704 40.836 105.472 41.092C106.24 41.3267 106.859 41.668 107.328 42.116C107.798 42.5427 108.139 43.0547 108.352 43.652C108.566 44.2493 108.672 44.8893 108.672 45.572C108.672 46.2547 108.544 46.8947 108.288 47.492C108.054 48.0893 107.691 48.612 107.2 49.06C106.71 49.508 106.091 49.86 105.344 50.116C104.619 50.372 103.766 50.5 102.784 50.5H97.4083V35.524H99.5843ZM99.5843 48.74H102.272C102.87 48.74 103.424 48.6973 103.936 48.612C104.448 48.5053 104.875 48.3347 105.216 48.1C105.579 47.844 105.856 47.5133 106.048 47.108C106.262 46.7027 106.368 46.1907 106.368 45.572C106.368 44.9533 106.262 44.4413 106.048 44.036C105.835 43.6307 105.536 43.3107 105.152 43.076C104.79 42.8413 104.352 42.6813 103.84 42.596C103.328 42.4893 102.774 42.436 102.176 42.436H99.5843V48.74ZM112.8 35.524V50.5H110.624V35.524H112.8Z" fill="#EBAA5B"/>
<path d="M166.036 54.528L172.3 39.444L177.628 25.944H181.12L175 40.668L169.492 54.528H166.036Z" fill="#EBAA5B" fill-opacity="0.2"/>
<path d="M235.008 27.844H237.312V37.668H249.664V27.844H251.968V50.5H249.664V39.78H237.312V50.5H235.008V27.844ZM267.289 40.836C267.289 39.5347 266.947 38.564 266.265 37.924C265.582 37.284 264.59 36.964 263.289 36.964C262.393 36.964 261.561 37.124 260.793 37.444C260.025 37.764 259.374 38.1907 258.841 38.724L257.625 37.284C258.243 36.6653 259.054 36.1533 260.057 35.748C261.081 35.3427 262.233 35.14 263.513 35.14C264.323 35.14 265.081 35.2573 265.785 35.492C266.489 35.7053 267.107 36.036 267.641 36.484C268.174 36.932 268.59 37.4973 268.889 38.18C269.187 38.8627 269.337 39.6627 269.337 40.58V47.14C269.337 47.716 269.358 48.3133 269.401 48.932C269.443 49.5507 269.507 50.0733 269.593 50.5H267.641C267.577 50.1373 267.523 49.7427 267.481 49.316C267.438 48.8893 267.417 48.4733 267.417 48.068H267.353C266.67 49.0707 265.891 49.796 265.017 50.244C264.163 50.6707 263.129 50.884 261.913 50.884C261.337 50.884 260.739 50.7987 260.121 50.628C259.523 50.4787 258.969 50.2227 258.457 49.86C257.966 49.4973 257.55 49.028 257.209 48.452C256.889 47.876 256.729 47.172 256.729 46.34C256.729 45.188 257.017 44.2813 257.593 43.62C258.19 42.9373 258.979 42.436 259.961 42.116C260.942 41.7747 262.062 41.5613 263.321 41.476C264.601 41.3693 265.923 41.316 267.289 41.316V40.836ZM266.649 43.012C265.753 43.012 264.846 43.0547 263.929 43.14C263.033 43.204 262.211 43.3533 261.465 43.588C260.739 43.8013 260.142 44.1213 259.673 44.548C259.203 44.9747 258.969 45.54 258.969 46.244C258.969 46.7773 259.065 47.2253 259.257 47.588C259.47 47.9507 259.747 48.2493 260.089 48.484C260.43 48.6973 260.803 48.8573 261.209 48.964C261.635 49.0493 262.062 49.092 262.489 49.092C263.257 49.092 263.939 48.964 264.537 48.708C265.134 48.4307 265.635 48.068 266.041 47.62C266.446 47.1507 266.755 46.6173 266.969 46.02C267.182 45.4227 267.289 44.7933 267.289 44.132V43.012H266.649ZM274.815 50.5V35.524H276.991V48.676H283.711V35.524H285.887V48.676H292.639V35.524H294.815V50.5H274.815ZM311.739 38.308L302.555 50.5H300.315V35.524H302.555V47.268L311.739 35.524H313.979V50.5H311.739V38.308ZM329.647 41.668C330.5 41.668 331.3 41.732 332.047 41.86L337.423 35.524H339.855L334.031 42.308C335.801 42.8627 337.177 43.812 338.159 45.156C339.14 46.4787 339.919 48.26 340.495 50.5H338.063C337.764 49.1773 337.38 48.0787 336.911 47.204C336.463 46.308 335.887 45.5933 335.183 45.06C334.5 44.5053 333.7 44.1213 332.783 43.908C331.865 43.6733 330.82 43.5453 329.647 43.524V50.5H327.471V35.524H329.647V41.668ZM355.15 50.5L350.19 38.148L345.006 50.5H342.734L349.294 35.524H351.214L357.358 50.5H355.15ZM372.176 38.308L362.992 50.5H360.752V35.524H362.992V47.268L372.176 35.524H374.416V50.5H372.176V38.308ZM391.46 41.86C391.396 40.452 390.938 39.2893 390.084 38.372C389.252 37.4333 388.058 36.964 386.5 36.964C385.775 36.964 385.103 37.1027 384.484 37.38C383.866 37.636 383.322 37.9987 382.852 38.468C382.383 38.916 382.01 39.4387 381.732 40.036C381.455 40.612 381.295 41.22 381.252 41.86H391.46ZM393.668 42.564C393.668 42.7133 393.668 42.8733 393.668 43.044C393.668 43.2147 393.658 43.396 393.636 43.588H381.22C381.242 44.3347 381.391 45.0387 381.668 45.7C381.946 46.3613 382.33 46.9373 382.82 47.428C383.311 47.9187 383.887 48.3133 384.548 48.612C385.21 48.8893 385.924 49.028 386.692 49.028C387.823 49.028 388.794 48.772 389.604 48.26C390.436 47.7267 391.066 47.1187 391.492 46.436L393.124 47.716C392.228 48.8467 391.236 49.6573 390.148 50.148C389.082 50.6387 387.93 50.884 386.692 50.884C385.583 50.884 384.548 50.692 383.588 50.308C382.65 49.9027 381.839 49.348 381.156 48.644C380.474 47.94 379.93 47.108 379.524 46.148C379.14 45.188 378.948 44.1427 378.948 43.012C378.948 41.8813 379.14 40.836 379.524 39.876C379.908 38.916 380.442 38.084 381.124 37.38C381.807 36.676 382.607 36.132 383.524 35.748C384.442 35.3427 385.434 35.14 386.5 35.14C387.674 35.14 388.708 35.3427 389.604 35.748C390.5 36.132 391.247 36.6653 391.844 37.348C392.442 38.0093 392.89 38.788 393.188 39.684C393.508 40.58 393.668 41.54 393.668 42.564ZM400.397 50.5H398.221V35.524H400.397V41.572H408.941V35.524H411.117V50.5H408.941V43.396H400.397V50.5ZM414.195 35.524H427.347V37.348H421.683V50.5H419.507V37.348H414.195V35.524ZM432.584 35.524V40.708H435.656C436.766 40.708 437.704 40.836 438.472 41.092C439.24 41.3267 439.859 41.668 440.328 42.116C440.798 42.5427 441.139 43.0547 441.352 43.652C441.566 44.2493 441.672 44.8893 441.672 45.572C441.672 46.2547 441.544 46.8947 441.288 47.492C441.054 48.0893 440.691 48.612 440.2 49.06C439.71 49.508 439.091 49.86 438.344 50.116C437.619 50.372 436.766 50.5 435.784 50.5H430.408V35.524H432.584ZM432.584 48.74H435.272C435.87 48.74 436.424 48.6973 436.936 48.612C437.448 48.5053 437.875 48.3347 438.216 48.1C438.579 47.844 438.856 47.5133 439.048 47.108C439.262 46.7027 439.368 46.1907 439.368 45.572C439.368 44.9533 439.262 44.4413 439.048 44.036C438.835 43.6307 438.536 43.3107 438.152 43.076C437.79 42.8413 437.352 42.6813 436.84 42.596C436.328 42.4893 435.774 42.436 435.176 42.436H432.584V48.74ZM445.8 35.524V50.5H443.624V35.524H445.8Z" fill="#EBAA5B"/>
<path d="M499.036 54.528L505.3 39.444L510.628 25.944H514.12L508 40.668L502.492 54.528H499.036Z" fill="#EBAA5B" fill-opacity="0.2"/>
<path d="M568.008 27.844H570.312V37.668H582.664V27.844H584.968V50.5H582.664V39.78H570.312V50.5H568.008V27.844ZM600.289 40.836C600.289 39.5347 599.947 38.564 599.265 37.924C598.582 37.284 597.59 36.964 596.289 36.964C595.393 36.964 594.561 37.124 593.793 37.444C593.025 37.764 592.374 38.1907 591.841 38.724L590.625 37.284C591.243 36.6653 592.054 36.1533 593.057 35.748C594.081 35.3427 595.233 35.14 596.513 35.14C597.323 35.14 598.081 35.2573 598.785 35.492C599.489 35.7053 600.107 36.036 600.641 36.484C601.174 36.932 601.59 37.4973 601.889 38.18C602.187 38.8627 602.337 39.6627 602.337 40.58V47.14C602.337 47.716 602.358 48.3133 602.401 48.932C602.443 49.5507 602.507 50.0733 602.593 50.5H600.641C600.577 50.1373 600.523 49.7427 600.481 49.316C600.438 48.8893 600.417 48.4733 600.417 48.068H600.353C599.67 49.0707 598.891 49.796 598.017 50.244C597.163 50.6707 596.129 50.884 594.913 50.884C594.337 50.884 593.739 50.7987 593.121 50.628C592.523 50.4787 591.969 50.2227 591.457 49.86C590.966 49.4973 590.55 49.028 590.209 48.452C589.889 47.876 589.729 47.172 589.729 46.34C589.729 45.188 590.017 44.2813 590.593 43.62C591.19 42.9373 591.979 42.436 592.961 42.116C593.942 41.7747 595.062 41.5613 596.321 41.476C597.601 41.3693 598.923 41.316 600.289 41.316V40.836ZM599.649 43.012C598.753 43.012 597.846 43.0547 596.929 43.14C596.033 43.204 595.211 43.3533 594.465 43.588C593.739 43.8013 593.142 44.1213 592.673 44.548C592.203 44.9747 591.969 45.54 591.969 46.244C591.969 46.7773 592.065 47.2253 592.257 47.588C592.47 47.9507 592.747 48.2493 593.089 48.484C593.43 48.6973 593.803 48.8573 594.209 48.964C594.635 49.0493 595.062 49.092 595.489 49.092C596.257 49.092 596.939 48.964 597.537 48.708C598.134 48.4307 598.635 48.068 599.041 47.62C599.446 47.1507 599.755 46.6173 599.969 46.02C600.182 45.4227 600.289 44.7933 600.289 44.132V43.012H599.649ZM607.815 50.5V35.524H609.991V48.676H616.711V35.524H618.887V48.676H625.639V35.524H627.815V50.5H607.815ZM644.739 38.308L635.555 50.5H633.315V35.524H635.555V47.268L644.739 35.524H646.979V50.5H644.739V38.308ZM662.647 41.668C663.5 41.668 664.3 41.732 665.047 41.86L670.423 35.524H672.855L667.031 42.308C668.801 42.8627 670.177 43.812 671.159 45.156C672.14 46.4787 672.919 48.26 673.495 50.5H671.063C670.764 49.1773 670.38 48.0787 669.911 47.204C669.463 46.308 668.887 45.5933 668.183 45.06C667.5 44.5053 666.7 44.1213 665.783 43.908C664.865 43.6733 663.82 43.5453 662.647 43.524V50.5H660.471V35.524H662.647V41.668ZM688.15 50.5L683.19 38.148L678.006 50.5H675.734L682.294 35.524H684.214L690.358 50.5H688.15ZM705.176 38.308L695.992 50.5H693.752V35.524H695.992V47.268L705.176 35.524H707.416V50.5H705.176V38.308ZM724.46 41.86C724.396 40.452 723.938 39.2893 723.084 38.372C722.252 37.4333 721.058 36.964 719.5 36.964C718.775 36.964 718.103 37.1027 717.484 37.38C716.866 37.636 716.322 37.9987 715.852 38.468C715.383 38.916 715.01 39.4387 714.732 40.036C714.455 40.612 714.295 41.22 714.252 41.86H724.46ZM726.668 42.564C726.668 42.7133 726.668 42.8733 726.668 43.044C726.668 43.2147 726.658 43.396 726.636 43.588H714.22C714.242 44.3347 714.391 45.0387 714.668 45.7C714.946 46.3613 715.33 46.9373 715.82 47.428C716.311 47.9187 716.887 48.3133 717.548 48.612C718.21 48.8893 718.924 49.028 719.692 49.028C720.823 49.028 721.794 48.772 722.604 48.26C723.436 47.7267 724.066 47.1187 724.492 46.436L726.124 47.716C725.228 48.8467 724.236 49.6573 723.148 50.148C722.082 50.6387 720.93 50.884 719.692 50.884C718.583 50.884 717.548 50.692 716.588 50.308C715.65 49.9027 714.839 49.348 714.156 48.644C713.474 47.94 712.93 47.108 712.524 46.148C712.14 45.188 711.948 44.1427 711.948 43.012C711.948 41.8813 712.14 40.836 712.524 39.876C712.908 38.916 713.442 38.084 714.124 37.38C714.807 36.676 715.607 36.132 716.524 35.748C717.442 35.3427 718.434 35.14 719.5 35.14C720.674 35.14 721.708 35.3427 722.604 35.748C723.5 36.132 724.247 36.6653 724.844 37.348C725.442 38.0093 725.89 38.788 726.188 39.684C726.508 40.58 726.668 41.54 726.668 42.564ZM733.397 50.5H731.221V35.524H733.397V41.572H741.941V35.524H744.117V50.5H741.941V43.396H733.397V50.5ZM747.195 35.524H760.347V37.348H754.683V50.5H752.507V37.348H747.195V35.524ZM765.584 35.524V40.708H768.656C769.766 40.708 770.704 40.836 771.472 41.092C772.24 41.3267 772.859 41.668 773.328 42.116C773.798 42.5427 774.139 43.0547 774.352 43.652C774.566 44.2493 774.672 44.8893 774.672 45.572C774.672 46.2547 774.544 46.8947 774.288 47.492C774.054 48.0893 773.691 48.612 773.2 49.06C772.71 49.508 772.091 49.86 771.344 50.116C770.619 50.372 769.766 50.5 768.784 50.5H763.408V35.524H765.584ZM765.584 48.74H768.272C768.87 48.74 769.424 48.6973 769.936 48.612C770.448 48.5053 770.875 48.3347 771.216 48.1C771.579 47.844 771.856 47.5133 772.048 47.108C772.262 46.7027 772.368 46.1907 772.368 45.572C772.368 44.9533 772.262 44.4413 772.048 44.036C771.835 43.6307 771.536 43.3107 771.152 43.076C770.79 42.8413 770.352 42.6813 769.84 42.596C769.328 42.4893 768.774 42.436 768.176 42.436H765.584V48.74ZM778.8 35.524V50.5H776.624V35.524H778.8Z" fill="#EBAA5B"/>
<path d="M832.036 54.528L838.3 39.444L843.628 25.944H847.12L841 40.668L835.492 54.528H832.036Z" fill="#EBAA5B" fill-opacity="0.2"/>
<path d="M901.008 27.844H903.312V37.668H915.664V27.844H917.968V50.5H915.664V39.78H903.312V50.5H901.008V27.844ZM933.289 40.836C933.289 39.5347 932.947 38.564 932.265 37.924C931.582 37.284 930.59 36.964 929.289 36.964C928.393 36.964 927.561 37.124 926.793 37.444C926.025 37.764 925.374 38.1907 924.841 38.724L923.625 37.284C924.243 36.6653 925.054 36.1533 926.057 35.748C927.081 35.3427 928.233 35.14 929.513 35.14C930.323 35.14 931.081 35.2573 931.785 35.492C932.489 35.7053 933.107 36.036 933.641 36.484C934.174 36.932 934.59 37.4973 934.889 38.18C935.187 38.8627 935.337 39.6627 935.337 40.58V47.14C935.337 47.716 935.358 48.3133 935.401 48.932C935.443 49.5507 935.507 50.0733 935.593 50.5H933.641C933.577 50.1373 933.523 49.7427 933.481 49.316C933.438 48.8893 933.417 48.4733 933.417 48.068H933.353C932.67 49.0707 931.891 49.796 931.017 50.244C930.163 50.6707 929.129 50.884 927.913 50.884C927.337 50.884 926.739 50.7987 926.121 50.628C925.523 50.4787 924.969 50.2227 924.457 49.86C923.966 49.4973 923.55 49.028 923.209 48.452C922.889 47.876 922.729 47.172 922.729 46.34C922.729 45.188 923.017 44.2813 923.593 43.62C924.19 42.9373 924.979 42.436 925.961 42.116C926.942 41.7747 928.062 41.5613 929.321 41.476C930.601 41.3693 931.923 41.316 933.289 41.316V40.836ZM932.649 43.012C931.753 43.012 930.846 43.0547 929.929 43.14C929.033 43.204 928.211 43.3533 927.465 43.588C926.739 43.8013 926.142 44.1213 925.673 44.548C925.203 44.9747 924.969 45.54 924.969 46.244C924.969 46.7773 925.065 47.2253 925.257 47.588C925.47 47.9507 925.747 48.2493 926.089 48.484C926.43 48.6973 926.803 48.8573 927.209 48.964C927.635 49.0493 928.062 49.092 928.489 49.092C929.257 49.092 929.939 48.964 930.537 48.708C931.134 48.4307 931.635 48.068 932.041 47.62C932.446 47.1507 932.755 46.6173 932.969 46.02C933.182 45.4227 933.289 44.7933 933.289 44.132V43.012H932.649ZM940.815 50.5V35.524H942.991V48.676H949.711V35.524H951.887V48.676H958.639V35.524H960.815V50.5H940.815ZM977.739 38.308L968.555 50.5H966.315V35.524H968.555V47.268L977.739 35.524H979.979V50.5H977.739V38.308ZM995.647 41.668C996.5 41.668 997.3 41.732 998.047 41.86L1003.42 35.524H1005.85L1000.03 42.308C1001.8 42.8627 1003.18 43.812 1004.16 45.156C1005.14 46.4787 1005.92 48.26 1006.49 50.5H1004.06C1003.76 49.1773 1003.38 48.0787 1002.91 47.204C1002.46 46.308 1001.89 45.5933 1001.18 45.06C1000.5 44.5053 999.7 44.1213 998.783 43.908C997.865 43.6733 996.82 43.5453 995.647 43.524V50.5H993.471V35.524H995.647V41.668ZM1021.15 50.5L1016.19 38.148L1011.01 50.5H1008.73L1015.29 35.524H1017.21L1023.36 50.5H1021.15ZM1038.18 38.308L1028.99 50.5H1026.75V35.524H1028.99V47.268L1038.18 35.524H1040.42V50.5H1038.18V38.308ZM1057.46 41.86C1057.4 40.452 1056.94 39.2893 1056.08 38.372C1055.25 37.4333 1054.06 36.964 1052.5 36.964C1051.77 36.964 1051.1 37.1027 1050.48 37.38C1049.87 37.636 1049.32 37.9987 1048.85 38.468C1048.38 38.916 1048.01 39.4387 1047.73 40.036C1047.45 40.612 1047.29 41.22 1047.25 41.86H1057.46ZM1059.67 42.564C1059.67 42.7133 1059.67 42.8733 1059.67 43.044C1059.67 43.2147 1059.66 43.396 1059.64 43.588H1047.22C1047.24 44.3347 1047.39 45.0387 1047.67 45.7C1047.95 46.3613 1048.33 46.9373 1048.82 47.428C1049.31 47.9187 1049.89 48.3133 1050.55 48.612C1051.21 48.8893 1051.92 49.028 1052.69 49.028C1053.82 49.028 1054.79 48.772 1055.6 48.26C1056.44 47.7267 1057.07 47.1187 1057.49 46.436L1059.12 47.716C1058.23 48.8467 1057.24 49.6573 1056.15 50.148C1055.08 50.6387 1053.93 50.884 1052.69 50.884C1051.58 50.884 1050.55 50.692 1049.59 50.308C1048.65 49.9027 1047.84 49.348 1047.16 48.644C1046.47 47.94 1045.93 47.108 1045.52 46.148C1045.14 45.188 1044.95 44.1427 1044.95 43.012C1044.95 41.8813 1045.14 40.836 1045.52 39.876C1045.91 38.916 1046.44 38.084 1047.12 37.38C1047.81 36.676 1048.61 36.132 1049.52 35.748C1050.44 35.3427 1051.43 35.14 1052.5 35.14C1053.67 35.14 1054.71 35.3427 1055.6 35.748C1056.5 36.132 1057.25 36.6653 1057.84 37.348C1058.44 38.0093 1058.89 38.788 1059.19 39.684C1059.51 40.58 1059.67 41.54 1059.67 42.564ZM1066.4 50.5H1064.22V35.524H1066.4V41.572H1074.94V35.524H1077.12V50.5H1074.94V43.396H1066.4V50.5ZM1080.2 35.524H1093.35V37.348H1087.68V50.5H1085.51V37.348H1080.2V35.524ZM1098.58 35.524V40.708H1101.66C1102.77 40.708 1103.7 40.836 1104.47 41.092C1105.24 41.3267 1105.86 41.668 1106.33 42.116C1106.8 42.5427 1107.14 43.0547 1107.35 43.652C1107.57 44.2493 1107.67 44.8893 1107.67 45.572C1107.67 46.2547 1107.54 46.8947 1107.29 47.492C1107.05 48.0893 1106.69 48.612 1106.2 49.06C1105.71 49.508 1105.09 49.86 1104.34 50.116C1103.62 50.372 1102.77 50.5 1101.78 50.5H1096.41V35.524H1098.58ZM1098.58 48.74H1101.27C1101.87 48.74 1102.42 48.6973 1102.94 48.612C1103.45 48.5053 1103.87 48.3347 1104.22 48.1C1104.58 47.844 1104.86 47.5133 1105.05 47.108C1105.26 46.7027 1105.37 46.1907 1105.37 45.572C1105.37 44.9533 1105.26 44.4413 1105.05 44.036C1104.83 43.6307 1104.54 43.3107 1104.15 43.076C1103.79 42.8413 1103.35 42.6813 1102.84 42.596C1102.33 42.4893 1101.77 42.436 1101.18 42.436H1098.58V48.74ZM1111.8 35.524V50.5H1109.62V35.524H1111.8Z" fill="#EBAA5B"/>
<path d="M1165.04 54.528L1171.3 39.444L1176.63 25.944H1180.12L1174 40.668L1168.49 54.528H1165.04Z" fill="#EBAA5B" fill-opacity="0.2"/>
<path d="M1234.01 27.844H1236.31V37.668H1248.66V27.844H1250.97V50.5H1248.66V39.78H1236.31V50.5H1234.01V27.844ZM1266.29 40.836C1266.29 39.5347 1265.95 38.564 1265.26 37.924C1264.58 37.284 1263.59 36.964 1262.29 36.964C1261.39 36.964 1260.56 37.124 1259.79 37.444C1259.02 37.764 1258.37 38.1907 1257.84 38.724L1256.62 37.284C1257.24 36.6653 1258.05 36.1533 1259.06 35.748C1260.08 35.3427 1261.23 35.14 1262.51 35.14C1263.32 35.14 1264.08 35.2573 1264.78 35.492C1265.49 35.7053 1266.11 36.036 1266.64 36.484C1267.17 36.932 1267.59 37.4973 1267.89 38.18C1268.19 38.8627 1268.34 39.6627 1268.34 40.58V47.14C1268.34 47.716 1268.36 48.3133 1268.4 48.932C1268.44 49.5507 1268.51 50.0733 1268.59 50.5H1266.64C1266.58 50.1373 1266.52 49.7427 1266.48 49.316C1266.44 48.8893 1266.42 48.4733 1266.42 48.068H1266.35C1265.67 49.0707 1264.89 49.796 1264.02 50.244C1263.16 50.6707 1262.13 50.884 1260.91 50.884C1260.34 50.884 1259.74 50.7987 1259.12 50.628C1258.52 50.4787 1257.97 50.2227 1257.46 49.86C1256.97 49.4973 1256.55 49.028 1256.21 48.452C1255.89 47.876 1255.73 47.172 1255.73 46.34C1255.73 45.188 1256.02 44.2813 1256.59 43.62C1257.19 42.9373 1257.98 42.436 1258.96 42.116C1259.94 41.7747 1261.06 41.5613 1262.32 41.476C1263.6 41.3693 1264.92 41.316 1266.29 41.316V40.836ZM1265.65 43.012C1264.75 43.012 1263.85 43.0547 1262.93 43.14C1262.03 43.204 1261.21 43.3533 1260.46 43.588C1259.74 43.8013 1259.14 44.1213 1258.67 44.548C1258.2 44.9747 1257.97 45.54 1257.97 46.244C1257.97 46.7773 1258.06 47.2253 1258.26 47.588C1258.47 47.9507 1258.75 48.2493 1259.09 48.484C1259.43 48.6973 1259.8 48.8573 1260.21 48.964C1260.64 49.0493 1261.06 49.092 1261.49 49.092C1262.26 49.092 1262.94 48.964 1263.54 48.708C1264.13 48.4307 1264.64 48.068 1265.04 47.62C1265.45 47.1507 1265.76 46.6173 1265.97 46.02C1266.18 45.4227 1266.29 44.7933 1266.29 44.132V43.012H1265.65ZM1273.81 50.5V35.524H1275.99V48.676H1282.71V35.524H1284.89V48.676H1291.64V35.524H1293.81V50.5H1273.81ZM1310.74 38.308L1301.55 50.5H1299.31V35.524H1301.55V47.268L1310.74 35.524H1312.98V50.5H1310.74V38.308ZM1328.65 41.668C1329.5 41.668 1330.3 41.732 1331.05 41.86L1336.42 35.524H1338.85L1333.03 42.308C1334.8 42.8627 1336.18 43.812 1337.16 45.156C1338.14 46.4787 1338.92 48.26 1339.49 50.5H1337.06C1336.76 49.1773 1336.38 48.0787 1335.91 47.204C1335.46 46.308 1334.89 45.5933 1334.18 45.06C1333.5 44.5053 1332.7 44.1213 1331.78 43.908C1330.87 43.6733 1329.82 43.5453 1328.65 43.524V50.5H1326.47V35.524H1328.65V41.668ZM1354.15 50.5L1349.19 38.148L1344.01 50.5H1341.73L1348.29 35.524H1350.21L1356.36 50.5H1354.15ZM1371.18 38.308L1361.99 50.5H1359.75V35.524H1361.99V47.268L1371.18 35.524H1373.42V50.5H1371.18V38.308ZM1390.46 41.86C1390.4 40.452 1389.94 39.2893 1389.08 38.372C1388.25 37.4333 1387.06 36.964 1385.5 36.964C1384.77 36.964 1384.1 37.1027 1383.48 37.38C1382.87 37.636 1382.32 37.9987 1381.85 38.468C1381.38 38.916 1381.01 39.4387 1380.73 40.036C1380.45 40.612 1380.29 41.22 1380.25 41.86H1390.46ZM1392.67 42.564C1392.67 42.7133 1392.67 42.8733 1392.67 43.044C1392.67 43.2147 1392.66 43.396 1392.64 43.588H1380.22C1380.24 44.3347 1380.39 45.0387 1380.67 45.7C1380.95 46.3613 1381.33 46.9373 1381.82 47.428C1382.31 47.9187 1382.89 48.3133 1383.55 48.612C1384.21 48.8893 1384.92 49.028 1385.69 49.028C1386.82 49.028 1387.79 48.772 1388.6 48.26C1389.44 47.7267 1390.07 47.1187 1390.49 46.436L1392.12 47.716C1391.23 48.8467 1390.24 49.6573 1389.15 50.148C1388.08 50.6387 1386.93 50.884 1385.69 50.884C1384.58 50.884 1383.55 50.692 1382.59 50.308C1381.65 49.9027 1380.84 49.348 1380.16 48.644C1379.47 47.94 1378.93 47.108 1378.52 46.148C1378.14 45.188 1377.95 44.1427 1377.95 43.012C1377.95 41.8813 1378.14 40.836 1378.52 39.876C1378.91 38.916 1379.44 38.084 1380.12 37.38C1380.81 36.676 1381.61 36.132 1382.52 35.748C1383.44 35.3427 1384.43 35.14 1385.5 35.14C1386.67 35.14 1387.71 35.3427 1388.6 35.748C1389.5 36.132 1390.25 36.6653 1390.84 37.348C1391.44 38.0093 1391.89 38.788 1392.19 39.684C1392.51 40.58 1392.67 41.54 1392.67 42.564ZM1399.4 50.5H1397.22V35.524H1399.4V41.572H1407.94V35.524H1410.12V50.5H1407.94V43.396H1399.4V50.5ZM1413.2 35.524H1426.35V37.348H1420.68V50.5H1418.51V37.348H1413.2V35.524ZM1431.58 35.524V40.708H1434.66C1435.77 40.708 1436.7 40.836 1437.47 41.092C1438.24 41.3267 1438.86 41.668 1439.33 42.116C1439.8 42.5427 1440.14 43.0547 1440.35 43.652C1440.57 44.2493 1440.67 44.8893 1440.67 45.572C1440.67 46.2547 1440.54 46.8947 1440.29 47.492C1440.05 48.0893 1439.69 48.612 1439.2 49.06C1438.71 49.508 1438.09 49.86 1437.34 50.116C1436.62 50.372 1435.77 50.5 1434.78 50.5H1429.41V35.524H1431.58ZM1431.58 48.74H1434.27C1434.87 48.74 1435.42 48.6973 1435.94 48.612C1436.45 48.5053 1436.87 48.3347 1437.22 48.1C1437.58 47.844 1437.86 47.5133 1438.05 47.108C1438.26 46.7027 1438.37 46.1907 1438.37 45.572C1438.37 44.9533 1438.26 44.4413 1438.05 44.036C1437.83 43.6307 1437.54 43.3107 1437.15 43.076C1436.79 42.8413 1436.35 42.6813 1435.84 42.596C1435.33 42.4893 1434.77 42.436 1434.18 42.436H1431.58V48.74ZM1444.8 35.524V50.5H1442.62V35.524H1444.8Z" fill="#EBAA5B"/>
<path d="M1498.04 54.528L1504.3 39.444L1509.63 25.944H1513.12L1507 40.668L1501.49 54.528H1498.04Z" fill="#EBAA5B" fill-opacity="0.2"/>
<path d="M1567.01 27.844H1569.31V37.668H1581.66V27.844H1583.97V50.5H1581.66V39.78H1569.31V50.5H1567.01V27.844ZM1599.29 40.836C1599.29 39.5347 1598.95 38.564 1598.26 37.924C1597.58 37.284 1596.59 36.964 1595.29 36.964C1594.39 36.964 1593.56 37.124 1592.79 37.444C1592.02 37.764 1591.37 38.1907 1590.84 38.724L1589.62 37.284C1590.24 36.6653 1591.05 36.1533 1592.06 35.748C1593.08 35.3427 1594.23 35.14 1595.51 35.14C1596.32 35.14 1597.08 35.2573 1597.78 35.492C1598.49 35.7053 1599.11 36.036 1599.64 36.484C1600.17 36.932 1600.59 37.4973 1600.89 38.18C1601.19 38.8627 1601.34 39.6627 1601.34 40.58V47.14C1601.34 47.716 1601.36 48.3133 1601.4 48.932C1601.44 49.5507 1601.51 50.0733 1601.59 50.5H1599.64C1599.58 50.1373 1599.52 49.7427 1599.48 49.316C1599.44 48.8893 1599.42 48.4733 1599.42 48.068H1599.35C1598.67 49.0707 1597.89 49.796 1597.02 50.244C1596.16 50.6707 1595.13 50.884 1593.91 50.884C1593.34 50.884 1592.74 50.7987 1592.12 50.628C1591.52 50.4787 1590.97 50.2227 1590.46 49.86C1589.97 49.4973 1589.55 49.028 1589.21 48.452C1588.89 47.876 1588.73 47.172 1588.73 46.34C1588.73 45.188 1589.02 44.2813 1589.59 43.62C1590.19 42.9373 1590.98 42.436 1591.96 42.116C1592.94 41.7747 1594.06 41.5613 1595.32 41.476C1596.6 41.3693 1597.92 41.316 1599.29 41.316V40.836ZM1598.65 43.012C1597.75 43.012 1596.85 43.0547 1595.93 43.14C1595.03 43.204 1594.21 43.3533 1593.46 43.588C1592.74 43.8013 1592.14 44.1213 1591.67 44.548C1591.2 44.9747 1590.97 45.54 1590.97 46.244C1590.97 46.7773 1591.06 47.2253 1591.26 47.588C1591.47 47.9507 1591.75 48.2493 1592.09 48.484C1592.43 48.6973 1592.8 48.8573 1593.21 48.964C1593.64 49.0493 1594.06 49.092 1594.49 49.092C1595.26 49.092 1595.94 48.964 1596.54 48.708C1597.13 48.4307 1597.64 48.068 1598.04 47.62C1598.45 47.1507 1598.76 46.6173 1598.97 46.02C1599.18 45.4227 1599.29 44.7933 1599.29 44.132V43.012H1598.65ZM1606.81 50.5V35.524H1608.99V48.676H1615.71V35.524H1617.89V48.676H1624.64V35.524H1626.81V50.5H1606.81ZM1643.74 38.308L1634.55 50.5H1632.31V35.524H1634.55V47.268L1643.74 35.524H1645.98V50.5H1643.74V38.308ZM1661.65 41.668C1662.5 41.668 1663.3 41.732 1664.05 41.86L1669.42 35.524H1671.85L1666.03 42.308C1667.8 42.8627 1669.18 43.812 1670.16 45.156C1671.14 46.4787 1671.92 48.26 1672.49 50.5H1670.06C1669.76 49.1773 1669.38 48.0787 1668.91 47.204C1668.46 46.308 1667.89 45.5933 1667.18 45.06C1666.5 44.5053 1665.7 44.1213 1664.78 43.908C1663.87 43.6733 1662.82 43.5453 1661.65 43.524V50.5H1659.47V35.524H1661.65V41.668ZM1687.15 50.5L1682.19 38.148L1677.01 50.5H1674.73L1681.29 35.524H1683.21L1689.36 50.5H1687.15ZM1704.18 38.308L1694.99 50.5H1692.75V35.524H1694.99V47.268L1704.18 35.524H1706.42V50.5H1704.18V38.308ZM1723.46 41.86C1723.4 40.452 1722.94 39.2893 1722.08 38.372C1721.25 37.4333 1720.06 36.964 1718.5 36.964C1717.77 36.964 1717.1 37.1027 1716.48 37.38C1715.87 37.636 1715.32 37.9987 1714.85 38.468C1714.38 38.916 1714.01 39.4387 1713.73 40.036C1713.45 40.612 1713.29 41.22 1713.25 41.86H1723.46ZM1725.67 42.564C1725.67 42.7133 1725.67 42.8733 1725.67 43.044C1725.67 43.2147 1725.66 43.396 1725.64 43.588H1713.22C1713.24 44.3347 1713.39 45.0387 1713.67 45.7C1713.95 46.3613 1714.33 46.9373 1714.82 47.428C1715.31 47.9187 1715.89 48.3133 1716.55 48.612C1717.21 48.8893 1717.92 49.028 1718.69 49.028C1719.82 49.028 1720.79 48.772 1721.6 48.26C1722.44 47.7267 1723.07 47.1187 1723.49 46.436L1725.12 47.716C1724.23 48.8467 1723.24 49.6573 1722.15 50.148C1721.08 50.6387 1719.93 50.884 1718.69 50.884C1717.58 50.884 1716.55 50.692 1715.59 50.308C1714.65 49.9027 1713.84 49.348 1713.16 48.644C1712.47 47.94 1711.93 47.108 1711.52 46.148C1711.14 45.188 1710.95 44.1427 1710.95 43.012C1710.95 41.8813 1711.14 40.836 1711.52 39.876C1711.91 38.916 1712.44 38.084 1713.12 37.38C1713.81 36.676 1714.61 36.132 1715.52 35.748C1716.44 35.3427 1717.43 35.14 1718.5 35.14C1719.67 35.14 1720.71 35.3427 1721.6 35.748C1722.5 36.132 1723.25 36.6653 1723.84 37.348C1724.44 38.0093 1724.89 38.788 1725.19 39.684C1725.51 40.58 1725.67 41.54 1725.67 42.564ZM1732.4 50.5H1730.22V35.524H1732.4V41.572H1740.94V35.524H1743.12V50.5H1740.94V43.396H1732.4V50.5ZM1746.2 35.524H1759.35V37.348H1753.68V50.5H1751.51V37.348H1746.2V35.524ZM1764.58 35.524V40.708H1767.66C1768.77 40.708 1769.7 40.836 1770.47 41.092C1771.24 41.3267 1771.86 41.668 1772.33 42.116C1772.8 42.5427 1773.14 43.0547 1773.35 43.652C1773.57 44.2493 1773.67 44.8893 1773.67 45.572C1773.67 46.2547 1773.54 46.8947 1773.29 47.492C1773.05 48.0893 1772.69 48.612 1772.2 49.06C1771.71 49.508 1771.09 49.86 1770.34 50.116C1769.62 50.372 1768.77 50.5 1767.78 50.5H1762.41V35.524H1764.58ZM1764.58 48.74H1767.27C1767.87 48.74 1768.42 48.6973 1768.94 48.612C1769.45 48.5053 1769.87 48.3347 1770.22 48.1C1770.58 47.844 1770.86 47.5133 1771.05 47.108C1771.26 46.7027 1771.37 46.1907 1771.37 45.572C1771.37 44.9533 1771.26 44.4413 1771.05 44.036C1770.83 43.6307 1770.54 43.3107 1770.15 43.076C1769.79 42.8413 1769.35 42.6813 1768.84 42.596C1768.33 42.4893 1767.77 42.436 1767.18 42.436H1764.58V48.74ZM1777.8 35.524V50.5H1775.62V35.524H1777.8Z" fill="#EBAA5B"/>
</svg>
