<svg xmlns="http://www.w3.org/2000/svg" viewBox="0 0 16 16" fill="none">
  <rect x="1.09375" y="1.09375" width="13.8125" height="13.8125" rx="2" fill="#EB1E3D"/>
  <path d="M4.6508 12.4062C4.41036 12.3993 4.19431 12.2566 4.09325 12.0408C3.91902 11.7136 3.93296 11.3203 4.1281 11.0036C4.54626 10.3563 5.36168 9.81331 6.48723 9.43047L6.52556 9.41654L6.54298 9.38174C6.92281 8.623 7.25385 7.84338 7.5396 7.04288L7.55702 6.99763L7.53263 6.95586C7.33052 6.6461 7.17022 6.31198 7.05523 5.96394C6.69282 4.7771 6.99947 3.8513 7.50475 3.64248C7.58141 3.61115 7.66505 3.59375 7.74868 3.59375C7.90897 3.59723 8.06578 3.6564 8.18426 3.76429C8.29577 3.86523 8.38986 3.98008 8.45955 4.11234C8.67909 4.51259 8.57106 5.44535 8.15638 6.74356C8.14942 6.76792 8.13896 6.79228 8.13199 6.81665C8.12502 6.84101 8.11457 6.86885 8.1076 6.89322L8.09715 6.93846L8.12154 6.97675L8.14593 7.01155L8.16684 7.04288C8.62682 7.6798 9.13558 8.28192 9.68616 8.83879L9.71403 8.87011H9.75933H10.0834C10.2437 8.87011 10.3866 8.87011 10.512 8.88055C11.6445 8.94668 12.3833 9.21816 12.5959 9.64625C12.6934 9.85856 12.676 10.1057 12.5575 10.3075C12.4112 10.5825 12.1463 10.7704 11.8362 10.8122C11.7944 10.8192 11.7526 10.8192 11.7142 10.8192C11.3344 10.8192 10.8779 10.6069 10.4284 10.224L10.411 10.2101C10.411 10.2101 10.3831 10.1822 10.3413 10.144C10.2019 10.0187 9.91615 9.75415 9.55025 9.3887L9.51889 9.35738H9.47359C9.05543 9.37478 8.63727 9.42002 8.22608 9.49311C7.77656 9.56272 7.334 9.66366 6.89842 9.79591L6.8566 9.80635L6.83569 9.84464C6.64752 10.2205 6.44192 10.5825 6.22587 10.9236C5.59863 11.9225 5.0829 12.4062 4.6508 12.4062ZM5.90528 10.1822C5.26759 10.485 4.80413 10.847 4.53232 11.2681C4.48005 11.3552 4.45218 11.4526 4.44869 11.5501C4.44869 11.6266 4.46611 11.7032 4.50096 11.7693C4.54626 11.8703 4.60202 11.919 4.65777 11.919H4.66474C4.72746 11.912 5.08987 11.8111 5.83559 10.6243C5.9018 10.5233 5.96801 10.4224 6.02725 10.3215L6.19451 10.043L5.90528 10.1822ZM10.735 9.8516C10.8744 9.98038 11.3553 10.3423 11.7282 10.3423H11.7839C11.9373 10.3145 12.0697 10.2136 12.1394 10.0709C12.1777 10.0082 12.1847 9.93165 12.1603 9.86204C12.0697 9.66017 11.5121 9.4235 10.4841 9.36434H10.2089L10.4946 9.63233C10.6375 9.76459 10.6967 9.82724 10.7385 9.85508L10.735 9.8516ZM7.82186 7.65544C7.64762 8.10789 7.44551 8.57775 7.22598 9.0511L7.14234 9.23556L7.34446 9.18683C7.64762 9.11026 7.95427 9.0511 8.25744 9.00585C8.45955 8.97453 8.67212 8.94668 8.89165 8.9258L9.08679 8.9084L8.95437 8.75874C8.77666 8.56731 8.55015 8.30976 8.32016 8.03132L7.88806 7.49185L7.82186 7.65544ZM7.63717 4.12278C7.43506 4.28984 7.22249 4.89196 7.50823 5.8282C7.54657 5.94653 7.58838 6.06487 7.64065 6.17972L7.75216 6.4164L7.82534 6.1658C8.01351 5.508 8.20169 4.65877 8.02745 4.35249C7.9717 4.25156 7.86019 4.08101 7.73822 4.08101H7.63717V4.12278Z" fill="white"/>
</svg>
