<svg xmlns="http://www.w3.org/2000/svg" viewBox="0 0 16 16" fill="none">
  <path d="M4.00019 2.21975C4.13162 2.07915 4.30985 2.00016 4.49569 2.00016C4.68154 2.00016 4.85977 2.07915 4.9912 2.21975L7.79465 5.21975C7.92232 5.3612 7.99296 5.55065 7.99136 5.7473C7.98976 5.94395 7.91606 6.13206 7.78611 6.27111C7.65616 6.41017 7.48038 6.48905 7.29662 6.49076C7.11285 6.49246 6.93581 6.41687 6.80363 6.28025L5.19656 4.5605V13.25C5.19656 13.4489 5.12271 13.6397 4.99128 13.7803C4.85984 13.921 4.68157 14 4.49569 14C4.30981 14 4.13155 13.921 4.00011 13.7803C3.86867 13.6397 3.79483 13.4489 3.79483 13.25V4.5605L2.18776 6.28025C2.05557 6.41687 1.87853 6.49246 1.69477 6.49076C1.51101 6.48905 1.33522 6.41017 1.20528 6.27111C1.07533 6.13206 1.00162 5.94395 1.00003 5.7473C0.99843 5.55065 1.06907 5.3612 1.19674 5.21975L4.00019 2.21975ZM10.8034 11.4395V2.75C10.8034 2.55109 10.8773 2.36032 11.0087 2.21967C11.1402 2.07902 11.3184 2 11.5043 2C11.6902 2 11.8685 2.07902 11.9999 2.21967C12.1313 2.36032 12.2052 2.55109 12.2052 2.75V11.4395L13.8122 9.71975C13.9444 9.58313 14.1215 9.50754 14.3052 9.50924C14.489 9.51095 14.6648 9.58983 14.7947 9.72889C14.9247 9.86794 14.9984 10.0561 15 10.2527C15.0016 10.4493 14.9309 10.6388 14.8033 10.7802L11.9998 13.7803C11.8684 13.9209 11.6901 13.9998 11.5043 13.9998C11.3185 13.9998 11.1402 13.9209 11.0088 13.7803L8.20535 10.7802C8.07768 10.6388 8.00704 10.4493 8.00864 10.2527C8.01024 10.0561 8.08394 9.86794 8.21389 9.72889C8.34384 9.58983 8.51962 9.51095 8.70338 9.50924C8.88715 9.50754 9.06419 9.58313 9.19637 9.71975L10.8034 11.4395Z" fill="#A0A0A0"/>
</svg>
