<svg xmlns="http://www.w3.org/2000/svg" viewBox="0 0 6 30" fill="none">
  <path opacity="0.5" d="M0 15C0 13.6487 0.120806 12.2973 0.362416 10.9459C0.604027 9.5946 0.939597 8.27703 1.36913 6.99324C1.8255 5.70946 2.37584 4.48198 3.02013 3.31081C3.66443 2.11712 4.38926 1.01351 5.19463 0L6 0.337838C5.19463 1.26126 4.4698 2.31982 3.8255 3.51351C3.20805 4.68469 2.67114 5.92342 2.21477 7.22973C1.78524 8.51351 1.44966 9.83108 1.20805 11.1824C0.993289 12.5113 0.885906 13.7838 0.885906 15C0.885906 16.2162 0.993289 17.5 1.20805 18.8514C1.44966 20.1802 1.78524 21.4977 2.21477 22.8041C2.67114 24.0878 3.20805 25.3153 3.8255 26.4865C4.4698 27.6802 5.19463 28.7387 6 29.6622L5.19463 30C4.38926 28.9865 3.66443 27.8829 3.02013 26.6892C2.37584 25.518 1.8255 24.2905 1.36913 23.0068C0.939597 21.723 0.604027 20.4054 0.362416 19.0541C0.120806 17.7027 0 16.3514 0 15Z" fill="white"/>
</svg>
