<svg xmlns="http://www.w3.org/2000/svg" viewBox="0 0 90 113" fill="none">
  <g opacity="0.6" clip-path="url(#clip0_4269_1364)">
    <path d="M90.1226 59.2486L86.8827 52.9529H82.586L78.7469 46.3049C78.7485 46.286 78.7579 46.2719 78.7579 46.2546V40.7594C78.7579 40.3175 78.3978 39.9557 77.9527 39.9557H64.0197V35.8037C64.0197 35.3586 63.6596 35 63.2161 35H13.6447C13.1996 35 12.8395 35.3586 12.8395 35.8037V43.7067H5.33746C4.89394 43.7067 4.53221 44.0669 4.53221 44.5104C4.53221 44.9571 4.89237 45.3156 5.33746 45.3156H23.8267C24.2702 45.3156 24.6303 44.9571 24.6303 44.5104C24.6303 44.0685 24.2702 43.7067 23.8267 43.7067H14.4484V36.6073H62.4108V40.7578V52.9513V53.755V70.9058H39.1185C38.7174 67.688 35.9966 65.1778 32.6686 65.1778C29.3407 65.1778 26.6199 67.688 26.2188 70.9058H14.4468V56.133H20.5428C20.9878 56.133 21.348 55.7744 21.348 55.3293C21.348 54.8858 20.9878 54.5241 20.5428 54.5241H0.713585C0.270071 54.5241 -0.0900879 54.8842 -0.0900879 55.3293C-0.0900879 55.7744 0.270071 56.133 0.713585 56.133H12.8395V71.711C12.8395 72.153 13.1996 72.5147 13.6447 72.5147H26.2204C26.6214 75.7341 29.3423 78.2395 32.6702 78.2395C35.9981 78.2395 38.719 75.7341 39.12 72.5147H62.4124H63.2176H67.862C68.2646 75.7341 70.9854 78.2395 74.3134 78.2395C77.6413 78.2395 80.3621 75.7341 80.7632 72.5147H90.283V65.7802V59.5537V59.2486H90.1226ZM32.6702 76.6322C29.9556 76.6322 27.7459 74.4256 27.7459 71.7126C27.7459 68.9949 29.9556 66.7883 32.6702 66.7883C35.3848 66.7883 37.5945 68.9949 37.5945 71.7126C37.5929 74.424 35.3832 76.6322 32.6702 76.6322ZM80.7302 52.9529H69.7131V47.0598H77.3236L80.7302 52.9529ZM64.0182 41.5646H77.149V45.4525H68.9094C68.4659 45.4525 68.1057 45.8111 68.1057 46.2561V52.9545H64.0182V41.5646ZM74.3102 76.6322C71.5941 76.6322 69.3859 74.4256 69.3859 71.7126C69.3859 68.9949 71.5941 66.7883 74.3102 66.7883C77.0248 66.7883 79.2345 68.9949 79.2345 71.7126C79.2345 74.424 77.0248 76.6322 74.3102 76.6322ZM88.671 70.9074H80.76C80.359 67.6895 77.6381 65.1794 74.3102 65.1794C70.9823 65.1794 68.2614 67.6895 67.8588 70.9074H64.0182V54.5602H68.9078H85.9029L88.3139 59.247H82.8754V65.7786H88.671V70.9074ZM88.671 60.8559V64.1713H84.4843V60.8559H88.671Z" fill="white"/>
    <path d="M32.6706 69.0483C31.2017 69.0483 30.0095 70.2421 30.0095 71.711C30.0095 73.1784 31.2032 74.3689 32.6706 74.3689C34.138 74.3689 35.3317 73.1768 35.3317 71.711C35.3317 70.2421 34.138 69.0483 32.6706 69.0483ZM32.6706 72.7647C32.0903 72.7647 31.6169 72.2929 31.6169 71.7126C31.6169 71.1322 32.0903 70.6573 32.6706 70.6573C33.2509 70.6573 33.7243 71.1322 33.7243 71.7126C33.7243 72.2929 33.2509 72.7647 32.6706 72.7647Z" fill="white"/>
    <path d="M74.3097 69.1001C72.8691 69.1001 71.699 70.2702 71.699 71.7124C71.699 73.1499 72.8691 74.3216 74.3097 74.3216C75.7488 74.3216 76.9205 73.1499 76.9205 71.7124C76.9205 70.2702 75.7488 69.1001 74.3097 69.1001ZM74.3097 72.7127C73.7561 72.7127 73.3063 72.2645 73.3063 71.7109C73.3063 71.1572 73.7561 70.7059 74.3097 70.7059C74.8633 70.7059 75.3131 71.1572 75.3131 71.7109C75.3131 72.2645 74.8633 72.7127 74.3097 72.7127Z" fill="white"/>
    <path d="M29.3861 50.5058C29.8312 50.5058 30.1914 50.1472 30.1914 49.7021C30.1914 49.2602 29.8312 48.8984 29.3861 48.8984H9.55695C9.11187 48.8984 8.75171 49.2586 8.75171 49.7021C8.75171 50.1472 9.11187 50.5058 9.55695 50.5058H29.3861Z" fill="white"/>
  </g>
</svg>
