<svg width="16" height="16" viewBox="0 0 16 16" fill="none" xmlns="http://www.w3.org/2000/svg">
  <path d="M8.89506 5.82969V13H7.11111V5.82969H8.89506ZM7 3.9609C7 3.68257 7.09053 3.45284 7.2716 3.2717C7.45267 3.09057 7.69547 3 8 3C8.30041 3 8.54115 3.09057 8.72222 3.2717C8.90741 3.45284 9 3.68257 9 3.9609C9 4.23923 8.90741 4.46896 8.72222 4.6501C8.54115 4.83123 8.30041 4.9218 8 4.9218C7.69547 4.9218 7.45267 4.83123 7.2716 4.6501C7.09053 4.46896 7 4.23923 7 3.9609Z" fill="#C5C5C5" />
  <rect x="0.5" y="0.5" width="15" height="15" rx="7.5" stroke="#C5C5C5" />
</svg>
