<?xml version="1.0" standalone="no"?>
<!DOCTYPE svg PUBLIC "-//W3C//DTD SVG 20010904//EN"
 "http://www.w3.org/TR/2001/REC-SVG-20010904/DTD/svg10.dtd">
<svg version="1.0" xmlns="http://www.w3.org/2000/svg"
 width="70.000000pt" height="70.000000pt" viewBox="0 0 70.000000 70.000000"
 preserveAspectRatio="xMidYMid meet">
<metadata>
Created by potrace 1.14, written by Peter Selinger 2001-2017
</metadata>
<g transform="translate(0.000000,70.000000) scale(0.100000,-0.100000)"
fill="#000000" stroke="none">
<path d="M219 643 c-3 -7 -7 -24 -8 -40 -1 -16 -3 -16 -11 -3 -5 8 -10 10 -10
4 0 -6 -6 -11 -12 -12 -7 0 -22 -3 -33 -6 -11 -2 -24 -5 -28 -5 -4 -1 -2 -7 5
-15 8 -9 17 -11 24 -5 7 5 11 4 11 -5 0 -8 -7 -13 -16 -11 -26 4 -54 -15 -42
-29 12 -14 0 -38 -15 -28 -6 4 -14 14 -18 22 -3 8 -4 5 -2 -7 2 -13 1 -25 -3
-28 -13 -7 -10 -218 3 -234 8 -11 8 -13 -1 -7 -9 5 -11 2 -7 -9 4 -9 15 -15
28 -13 15 2 21 -2 21 -17 0 -11 3 -24 6 -30 4 -5 5 -18 4 -27 -3 -15 0 -16 16
-8 24 13 25 21 1 13 -13 -5 -14 -3 -5 7 11 12 37 5 29 -9 -9 -13 13 -35 36
-37 33 -3 70 -12 77 -19 3 -4 -7 -4 -22 -1 -15 2 -27 0 -27 -5 0 -6 -5 -7 -12
-3 -7 4 -8 3 -4 -5 4 -6 11 -9 16 -6 4 3 11 -1 13 -7 4 -10 6 -10 6 0 1 14 31
17 31 2 0 -12 22 -9 32 5 5 6 8 6 8 -1 0 -12 78 -13 97 -1 6 4 14 1 16 -5 4
-10 6 -10 6 0 1 7 6 10 11 7 6 -3 10 -1 10 4 0 11 -15 15 -35 11 -5 -1 -4 4 2
11 15 15 46 22 37 8 -3 -5 0 -9 5 -9 6 0 11 5 11 11 0 5 5 7 10 4 6 -3 10 -2
10 3 0 5 12 7 27 4 23 -4 25 -2 20 17 -4 17 0 24 16 30 12 5 25 7 28 5 6 -4 8
8 12 79 1 29 4 33 24 29 13 -2 23 0 24 4 5 45 3 82 -3 78 -5 -3 -8 0 -8 5 0 6
4 11 8 11 5 0 8 10 6 23 -1 12 -3 25 -3 30 -1 4 -12 7 -25 7 -17 0 -23 6 -23
23 -1 83 -2 87 -28 87 -24 0 -30 9 -26 38 1 6 -8 12 -19 12 -12 0 -30 5 -40
10 -13 7 -21 7 -25 0 -3 -5 -12 -10 -18 -10 -7 0 -6 4 3 10 8 5 10 10 4 10 -6
0 -11 7 -11 16 0 14 2 14 11 3 6 -8 20 -15 31 -16 11 -1 14 0 7 3 -6 3 -10 10
-7 15 4 5 -2 6 -11 2 -10 -4 -15 -2 -11 3 3 6 -42 9 -114 9 -65 0 -120 -1
-120 -2z m393 -230 c-6 -2 -9 -10 -6 -15 4 -7 2 -8 -5 -4 -13 9 -5 26 12 25 9
0 8 -2 -1 -6z m18 -23 c-6 -11 -15 -20 -20 -20 -6 0 -2 9 7 20 10 11 19 20 21
20 1 0 -2 -9 -8 -20z m-10 -50 c0 -5 -5 -10 -11 -10 -5 0 -7 5 -4 10 3 6 8 10
11 10 2 0 4 -4 4 -10z m15 -32 c-2 -23 -4 -24 -28 -14 -8 3 -6 10 7 20 24 20
23 20 21 -6z"/>
<path d="M177 629 c7 -7 15 -10 18 -7 3 3 -2 9 -12 12 -14 6 -15 5 -6 -5z"/>
<path d="M613 473 c-17 -6 -17 -20 0 -26 8 -3 13 3 13 14 0 11 0 19 -1 18 0 0
-6 -3 -12 -6z"/>
<path d="M67 179 c7 -7 15 -10 18 -7 3 3 -2 9 -12 12 -14 6 -15 5 -6 -5z"/>
</g>
</svg>
