<?xml version="1.0" encoding="utf-8"?><svg xmlns="http://www.w3.org/2000/svg" xmlns:xlink="http://www.w3.org/1999/xlink"><symbol viewBox="0 0 44 40" id="burger" xmlns="http://www.w3.org/2000/svg"><path d="M0 16h44M0 24h44" stroke="#fff" stroke-width="2" stroke-linecap="square" stroke-linejoin="round"/></symbol><symbol viewBox="0 0 90 113" fill="none" id="clock" xmlns="http://www.w3.org/2000/svg"><path d="M44.8 15.6C66.987 15.6 85 33.613 85 55.8S66.987 96 44.8 96 4.6 77.987 4.6 55.8s18.013-40.2 40.2-40.2zm0 2.513C23.97 18.113 7.112 34.97 7.112 55.8c0 20.829 16.859 37.688 37.688 37.688S82.487 76.627 82.487 55.8c0-20.829-16.858-37.688-37.687-37.688zm0 12.562c.693 0 1.256.562 1.256 1.256V55.8c0 .694-.563 1.256-1.256 1.256H23.443a1.256 1.256 0 110-2.512h20.1V31.93c0-.694.563-1.256 1.257-1.256z" fill="#fff" opacity=".6"/></symbol><symbol viewBox="0 0 88 28" id="dev" xmlns="http://www.w3.org/2000/svg"><path fill-rule="evenodd" clip-rule="evenodd" d="M47.316 7.328c.212.221 2.117 5.497 2.316 6.148.198.698.479 1.367.834 1.993.66.156.722-.534.922-1.081 1.083-2.957 2.726-7.268 3.548-10.173.573-1.407.622-1.785-.411-1.785s-.921.704-1.332 1.616c-.361 1.732-1.756 5.392-2.266 7.072 0 .222 0 .222-.262.222-.859-2.501-1.855-5.562-2.826-8.037-.261-.482-.722-.586-1.033.495C46.283 5.518 45.56 7.562 45 9.23c0 0-.672 2.11-.722 2.214a6.684 6.684 0 01-.772-1.94c-.772-1.994-1.444-4.143-2.104-6.136-.162-.377-.162-.599-.523-.82a2.065 2.065 0 00-1.133-.105c-1.02.17-.36 1.03-.15 1.668 1.246 3.504 2.628 7.71 4.01 11.045a.506.506 0 00.152.21.474.474 0 00.482.067.489.489 0 00.2-.16c.2-.403 2.727-7.945 2.876-7.945zM.203 2.652c-.052.217-.034.446.05.651.211.912-.411 11.306-.25 11.723a2.389 2.389 0 001.607.156c.249-.273.15-.534.15-.963 0-1.837.149-3.608.149-5.497.062-.703.112-1.185.112-1.615 0-.43 0-.378.1-.482.099-.104 1.73 2.865 1.892 3.191.311.638.921 1.615 1.332 2.37.623 1.186.934.378 1.083.105.361-.482 3.15-5.601 3.35-5.705.186.208.186 5.327.186 5.705 0 2.8-.311 3.074 1.382 2.957.523 0 .573-.43.523-.912v-2.853a129.16 129.16 0 01-.236-7.268c0-.273.1-1.302.1-1.459a.998.998 0 00-.586-.34.97.97 0 00-.66.119c-.361.221-.46.703-.722 1.029-1.046 1.94-2.453 4.142-3.436 5.979-.361.65-.361.43-.673 0-.672-1.03-1.544-2.8-2.154-3.83l-1.245-2.15a4.474 4.474 0 00-.66-1.028c-.348-.26-1.033-.052-1.394.117zM65.902 8.682c.44-.376.964-.632 1.522-.746a3.303 3.303 0 011.678.095c1.644.756 1.855 3.295 1.133 4.533-.308.482-.75.853-1.268 1.06a2.566 2.566 0 01-1.62.1 3.652 3.652 0 01-1.445-.652v-4.39zm0-1.836a38.993 38.993 0 010-4.26c0-.586-.199-.69-.722-.481-1.245.547-1.245.325-1.07 1.51.099.6 0 7.542 0 8.52 0 1.927-.262 2.37 2.415 3.177a5.526 5.526 0 002.313.013 5.644 5.644 0 002.132-.938c2.627-2.253 1.904-8.61-2.889-8.127a9.195 9.195 0 00-1.245.156c-.162.052-.772.43-.847.43h-.087zM29.596 15.143c.194-.679.25-1.394.162-2.097-.051-.737-.051-1.477 0-2.214.149 0 .31.274.622.6.311.325 2.876 3.125 3.287 3.438.143.14.316.242.504.298.188.057.387.066.58.028.36 0 .933 0 1.132-.26 0-.379-.722-.978-1.033-1.303-.312-.326-.71-.743-1.071-1.186a22.515 22.515 0 01-2.216-2.357c0-.118 2.826-2.605 3.349-3.074.2-.222.41-.274.361-.6a3.196 3.196 0 00-1.967 0c-.25.118-1.955 1.733-2.415 2.163-.15.156-1.034 1.133-1.133 1.08-.15-.494 0-7.228-.1-7.606-.1-.378-1.855.221-1.805.873.097.457.147.924.149 1.393v9.314c0 .325-.1 1.302.112 1.458a3.3 3.3 0 001.482.053zM16.186 10.728c.573-.156 2.49.325 2.577.86.05.576.05 1.156 0 1.732-.36.482-2.839 1.446-3.66-.274a1.893 1.893 0 010-1.563c.12-.198.278-.368.464-.498.187-.13.398-.218.619-.257zm2.627-.652a4.4 4.4 0 00-1.594-.69 5.649 5.649 0 00-2.116.156 2.826 2.826 0 00-1.463 1.042 3.044 3.044 0 00-.585 1.747 3.052 3.052 0 00.523 1.768c.35.515.85.9 1.425 1.096a4.509 4.509 0 003.038 0c.212-.104.623-.377.772-.43.15-.051.212.378.41.483.2.104 1.134 0 1.395-.26.262-.261.312-.222.15-.6a2.806 2.806 0 01-.25-1.615V8.89a2.362 2.362 0 00-.36-1.563c-.984-2.045-6.91-1.237-6.437.495.473 1.732 1.245-.6 3.86-.273 1.406.156 1.257 1.563 1.257 2.526h-.025zM79.76 9.816h-4.27c.057-.534.29-1.032.66-1.406.403-.37.91-.594 1.444-.639.278-.024.558.011.824.103.265.092.51.239.72.432.21.181.378.413.486.676.108.263.155.549.136.834zm-4.382 1.394c.31-.156 4.98 0 5.826 0 .847 0 .461-2.904-1.083-4.09a4.016 4.016 0 00-4.432-.365 4.261 4.261 0 00-1.67 1.676 4.524 4.524 0 00-.559 2.35c-.03.798.148 1.59.514 2.292a4.347 4.347 0 001.565 1.693c1.382.977 5.093.925 5.553-.586.573-1.94-.772-.86-1.245-.651-.398.17-.817.28-1.245.325-2.751.326-3.424-2.214-3.224-2.644zM56.689 9.816a2.269 2.269 0 01.677-1.454c.392-.379.906-.59 1.44-.59 1.07-.118 2.315.859 2.103 2.044h-4.22zm-.212 1.303h5.777c.672 0 .56-.43.51-.964a4.316 4.316 0 00-.624-2.034 4.071 4.071 0 00-1.504-1.446 3.853 3.853 0 00-1.99-.48 3.87 3.87 0 00-1.957.612 4.31 4.31 0 00-1.57 1.717 4.557 4.557 0 00-.485 2.321 4.23 4.23 0 00.493 2.284c.374.694.934 1.259 1.611 1.624 1.756 1.133 5.205.651 5.516-.638 0-.378.25-1.303-.311-1.082a6.69 6.69 0 01-2.179.821 2.979 2.979 0 01-1.22-.083 3.062 3.062 0 01-1.096-.568c-.448-.378-1.17-1.511-.97-2.084zM84.44 15.195c.312-.325.262-.482.262-.964V12.93c0-1.72-.311-4.572 1.594-5.002.41-.104.51.26 1.033.156.309-.29.54-.657.673-1.068 0-.82-1.245-.977-2.378-.443-.361.17-.66.756-.922.808 0-.482.1-.69-.212-1.12-.398.04-.785.169-1.132.378-.51.26-.61.26-.51.911.099.652 0 5.12 0 6.187.049 1.629.049 1.576 1.593 1.46zM23.735 15.143v-.104c.144-1.323.182-2.656.112-3.986 0-1.029.249-2.696 1.332-3.022.872-.325.921.534 1.494 0 1.332-1.459-.46-2.045-1.544-1.563-1.083.482-.934.86-1.245.964a2.725 2.725 0 010-.638c0-.274-.112-.274-.212-.43-.399-.003-.79.11-1.133.326-.51.208-.672.26-.51.911a19.8 19.8 0 01.1 3.01v2.969c.112 1.615-.1 1.732 1.606 1.563zM46.955 16.876a27.048 27.048 0 00-6.026 1.497c-.61.274-1.245.43-1.855.704-1.245.482-2.415.912-3.648 1.407-.41.156-3.35 1.068-3.86 1.185-2.49.638-6.225 1.394-8.603.26-1.133-.586-1.245 1.238 1.332 1.89a10.07 10.07 0 004.532-.21c1.245-.273 2.74-.755 3.922-1.132 1.183-.378 2.577-.808 3.86-1.186.311-.117.56-.221.921-.325l1.905-.6c.361-.104.623-.26.934-.377l1.967-.482c.361-.105.623-.209.934-.326a35.765 35.765 0 017.93-.86c.66 0 1.644.17 2.316.274 1.246.156.972-.534.15-.977a12.558 12.558 0 00-6.71-.742z"/></symbol><symbol viewBox="0 0 90 113" fill="none" id="factory" xmlns="http://www.w3.org/2000/svg"><g opacity=".6" fill="#fff"><path d="M53.078 61.085l3.624-4.9a.899.899 0 10-1.446-1.07l-3.624 4.9a.899.899 0 101.446 1.07zM29.917 50.977a.898.898 0 001.272 0 .899.899 0 000-1.273l-3.692-3.693a.899.899 0 10-1.272 1.273l3.692 3.693z"/><path d="M87.4 94.641h-5.056V51.703c.003-.03.018-.057.018-.087a.891.891 0 00-.198-.563L64.374 17.48A.902.902 0 0063.58 17H35.504a.9.9 0 00-.9.9v11.36a.9.9 0 00.9.9h2.241v9.183a.9.9 0 00.9.9h2.29v12.649a.9.9 0 00.9.9h2.128v9.31a.9.9 0 101.8 0v-9.31h2.127a.9.9 0 00.9-.9v-12.65h2.291a.9.9 0 00.9-.9V30.16H59.7l11.488 21.68V94.64H56.676V69.557a.9.9 0 00-.9-.9H40.403l-6.684-6.24c-.035-.03-.077-.044-.114-.07-.056-.037-.108-.08-.17-.104-.067-.026-.137-.032-.207-.042-.041-.007-.08-.025-.123-.025H22.717v-9.284a.9.9 0 00-.9-.9H7.004a.9.9 0 00-.9.9v41.75H1.9a.9.9 0 100 1.8h85.5a.9.9 0 100-1.8zM63.038 18.8l16.91 31.916h-7.32L61.27 29.28c0-.007.005-.013.005-.02a.887.887 0 00-.402-.731l-5.157-9.73h7.322zM46.99 51.992h-4.255v-11.75h4.255v11.75zm3.191-13.55H39.545V30.16h10.636v8.283zm.9-10.082H36.405V18.8h17.274l5.065 9.56h-7.663zm21.906 24.156h7.556V94.64h-7.556V52.516zM7.904 53.792h13.013v8.383H14.41a.9.9 0 100 1.8h18.34l5.014 4.681H14.41a.9.9 0 100 1.8h40.466V94.64H7.904V53.792z"/></g></symbol><symbol fill="none" viewBox="0 0 76 80" id="guarantee" xmlns="http://www.w3.org/2000/svg"><path d="M45.417 61.013a.879.879 0 00-1.055.611 21.684 21.684 0 11-22.96-27.25.866.866 0 10-.16-1.725A23.294 23.294 0 000 55.97c0 12.911 10.505 23.416 23.416 23.416a23.45 23.45 0 0022.61-17.313.866.866 0 00-.61-1.061z" fill="#fff"/><path d="M14.194 58.549a.866.866 0 10-1.407 1.016l5.008 6.911a.878.878 0 00.607.352h.095a.879.879 0 00.575-.218l15.243-13.474a.868.868 0 00-1.148-1.299L18.64 64.68l-4.445-6.131zM74.952 11.903c.839-1.462.763-3.298-.21-5.17-.908-1.745-2.513-3.34-4.518-4.486C68.218 1.101 66.03.521 64.07.625c-2.086.107-3.691.96-4.54 2.4l-8.736 13.668c-7.673-1.758-14.369.162-17.092 4.922l-4.874 8.422C24.981 36.76 30.17 46.99 40.397 52.844c4.532 2.593 9.424 3.992 13.9 3.992.363 0 .722-.008 1.077-.026 4.902-.253 8.648-2.222 10.547-5.54l4.38-7.654a8.33 8.33 0 00.5-.775c2.752-4.813.971-11.588-4.529-17.345l8.489-13.283c.061-.088.12-.176.175-.271l.023-.035-.007-.004zM61.837 29.211c-.527.933-1.652 1.49-3.15 1.566-1.636.08-3.487-.412-5.206-1.396-1.72-.984-3.084-2.327-3.841-3.783-.693-1.329-.779-2.575-.267-3.471l9.771-15.293c.605 2.15 2.417 4.35 5.09 5.878 1.852 1.054 3.866 1.635 5.709 1.635.149 0 .298 0 .446-.013.346-.017.69-.057 1.03-.121L61.837 29.21zm2.319-26.856c.12 0 .24-.01.364-.01 1.543 0 3.25.493 4.844 1.407 1.72.985 3.083 2.33 3.841 3.783.689 1.325.777 2.568.25 3.498l-.134.207c-.575.81-1.63 1.296-3.022 1.368-1.64.08-3.485-.411-5.206-1.396-3.372-1.933-5.244-5.273-4.086-7.291.533-.933 1.653-1.489 3.149-1.566zm.255 48.055c-1.598 2.791-4.841 4.45-9.141 4.67-4.437.227-9.415-1.098-14.026-3.737-9.397-5.379-14.3-14.55-10.928-20.44l2.11-3.633c.11 1.988.724 4.1 1.838 6.244 2.2 4.23 6.108 8.103 11.004 10.898 4.651 2.661 9.554 3.968 13.887 3.968 2.74 0 5.247-.528 7.314-1.558l-2.058 3.588zm5.248-9.17l-.83 1.45c-3.78 5.21-13.696 5.38-22.701.224-4.611-2.636-8.28-6.26-10.328-10.195-1.984-3.814-2.197-7.453-.599-10.243 2.266-3.96 7.944-5.58 14.59-4.218l-1.9 2.972c-.837 1.463-.761 3.298.21 5.168.91 1.746 2.514 3.34 4.52 4.488 1.853 1.054 3.867 1.633 5.71 1.633.149 0 .298 0 .446-.01 2.11-.11 3.726-.975 4.542-2.4l1.985-3.106c4.454 4.81 6.101 10.24 4.355 14.236z" fill="#fff"/></symbol><symbol fill="none" viewBox="0 0 90 90" id="list" xmlns="http://www.w3.org/2000/svg"><g opacity=".6" fill="#fff"><path d="M77.995 90c.383 0 .693-.31.693-.692V18c0-.015-.008-.028-.009-.043a.683.683 0 00-.037-.183c-.008-.022-.013-.044-.023-.065a.683.683 0 00-.133-.197l-.001-.002L61.185.203l-.001-.001a.683.683 0 00-.198-.133c-.02-.01-.043-.016-.065-.023a.682.682 0 00-.183-.037C60.723.008 60.711 0 60.695 0h-48.69a.692.692 0 00-.693.692v88.616c0 .382.31.692.693.692h65.99zM61.388 2.364l14.936 14.944H61.388V2.364zm-48.691-.98h47.306V18c0 .382.31.692.692.692h16.608v69.923H12.697V1.385z"/><path d="M21.376 10.039h26.71a.692.692 0 000-1.385h-26.71a.692.692 0 000 1.385zM21.376 21.159h31.556a.692.692 0 000-1.385H21.376a.692.692 0 000 1.385zM21.376 32.279h46.04a.692.692 0 100-1.385h-46.04a.692.692 0 000 1.385zM21.376 43.399H58.47a.692.692 0 100-1.385H21.377a.692.692 0 000 1.385zM68.108 53.827a.692.692 0 00-.692-.692h-46.04a.692.692 0 000 1.384h46.04c.382 0 .692-.31.692-.692zM68.175 68.458c-.127-.39-.094-.93-.06-1.502.054-.872.115-1.862-.439-2.622-.559-.769-1.524-1.016-2.375-1.235-.55-.14-1.069-.274-1.394-.51-.317-.23-.6-.68-.9-1.154-.472-.748-1.008-1.596-1.923-1.894-.882-.286-1.795.075-2.6.392-.517.204-1.052.415-1.477.415-.424 0-.959-.21-1.476-.415-.806-.318-1.721-.678-2.6-.392-.915.298-1.45 1.146-1.924 1.894-.3.475-.583.923-.9 1.154-.325.236-.844.37-1.393.51-.852.22-1.816.467-2.375 1.235-.554.76-.494 1.75-.44 2.623.035.571.068 1.11-.059 1.5-.117.362-.45.763-.804 1.188-.57.685-1.216 1.462-1.216 2.442 0 .979.646 1.755 1.216 2.44.353.425.687.827.804 1.188.127.39.094.93.059 1.502-.053.872-.114 1.862.44 2.622.559.768 1.523 1.016 2.375 1.235.55.14 1.069.274 1.393.51.317.231.6.68.9 1.154.473.748 1.009 1.596 1.925 1.894.225.073.453.104.68.104.66 0 1.32-.26 1.919-.497.517-.203 1.052-.414 1.476-.414.425 0 .96.21 1.477.415.806.317 1.718.675 2.6.392.915-.298 1.45-1.146 1.924-1.894.3-.475.583-.923.9-1.154.324-.236.844-.37 1.394-.51.85-.219 1.815-.467 2.374-1.235.554-.76.493-1.75.44-2.623-.035-.571-.068-1.11.059-1.5.117-.362.45-.763.804-1.188.57-.686 1.216-1.462 1.216-2.442 0-.98-.646-1.756-1.216-2.441-.353-.425-.687-.826-.804-1.187zm-.26 5.184c-.422.507-.858 1.03-1.057 1.646-.208.64-.165 1.338-.124 2.013.043.702.084 1.365-.177 1.724-.266.365-.944.539-1.6.707-.652.168-1.325.34-1.864.733-.531.386-.9.97-1.256 1.533-.381.604-.741 1.174-1.18 1.317-.407.132-1.019-.109-1.665-.364-.637-.25-1.297-.51-1.985-.51-.687 0-1.346.26-1.984.51-.646.255-1.257.497-1.664.364-.44-.143-.8-.713-1.18-1.317-.357-.564-.726-1.147-1.257-1.534-.538-.391-1.212-.564-1.864-.732-.656-.168-1.334-.342-1.6-.707-.26-.359-.22-1.022-.177-1.724.041-.675.084-1.373-.124-2.014-.2-.614-.635-1.138-1.056-1.645-.461-.553-.896-1.077-.896-1.555 0-.48.435-1.002.895-1.556.422-.507.857-1.031 1.057-1.646.208-.64.165-1.338.124-2.013-.043-.702-.084-1.365.177-1.723.266-.366.944-.54 1.6-.708.651-.168 1.325-.34 1.864-.733.531-.386.9-.97 1.256-1.533.381-.604.741-1.174 1.18-1.316a.842.842 0 01.263-.038c.386 0 .883.196 1.402.4.638.252 1.296.511 1.984.511s1.347-.26 1.984-.51c.647-.255 1.257-.496 1.665-.364.44.143.8.713 1.18 1.317.357.564.725 1.147 1.257 1.534.538.391 1.212.564 1.864.731.656.169 1.334.343 1.6.708.26.359.22 1.022.177 1.724-.042.675-.084 1.373.124 2.014.2.614.635 1.138 1.056 1.644.461.554.896 1.078.896 1.556 0 .48-.435 1.002-.896 1.556z"/><path d="M57.007 64.444c-4.214 0-7.642 3.428-7.642 7.642 0 4.215 3.428 7.643 7.642 7.643s7.643-3.428 7.643-7.642c0-4.215-3.429-7.643-7.643-7.643zm0 13.9a6.265 6.265 0 01-6.257-6.257 6.265 6.265 0 016.257-6.258 6.265 6.265 0 016.258 6.258 6.265 6.265 0 01-6.258 6.257z"/><path d="M59.22 69.596l-3.513 3.513-.914-.914a.692.692 0 10-.979.979l1.404 1.403a.69.69 0 00.978 0l4.003-4.002a.692.692 0 10-.979-.98z"/></g></symbol><symbol fill="none" viewBox="0 0 101 40" id="logo" xmlns="http://www.w3.org/2000/svg"><g mask="url(#mask0_4262_9352)" fill="#EBAA5B"><path d="M20.972 17.197v5.94c0 2.924-1.288 5.675-5.508 5.675H5.601C2.045 28.812 0 26.908 0 23.094V5.316c0-3.9 2.001-5.322 5.198-5.322h10.44c4.04 0 5.328 1.996 5.328 5.983V10.1H14.35V5.977H6.617v16.888h7.732v-5.674h6.617l.006.006zM27.15 28.812V0h6.704v11.522h1.022L41.68 0h7.683l-8.265 13.871v.402l8.841 14.539h-7.862l-7.15-11.838h-1.072v11.838H27.15zM69.578 23.446h-7.82l-1.065 5.366h-6.796L60.247 0h10.93l6.263 28.812h-6.797l-1.065-5.366zm-6.667-5.588h5.552L66.02 5.712h-.669l-2.44 12.146zM86.323 5.89h-7.286V0h21.326v5.89h-7.287v22.922h-6.753V5.89zM.954 37.12c.13 0 .248.012.365.03l.843-1.075h.564l-.967 1.205c.143.056.267.124.378.21.112.08.205.186.291.303.087.118.155.247.217.396.062.148.112.315.161.494h-.564a2.33 2.33 0 00-.18-.544 1.2 1.2 0 00-.266-.352.865.865 0 00-.365-.192 2.226 2.226 0 00-.483-.068v1.156H.439v-2.602h.509v1.038h.006zM5.669 37.008c0-.198-.056-.346-.167-.445-.112-.099-.267-.148-.471-.148-.149 0-.285.025-.415.08a.95.95 0 00-.329.216l-.272-.302c.117-.118.266-.21.452-.285a1.63 1.63 0 011.028-.05c.13.044.242.1.329.18.093.08.167.18.217.303.05.123.08.266.086.433v1.131c0 .099 0 .198.007.303 0 .105.012.191.024.266H5.7l-.019-.192c0-.068-.006-.13-.006-.192h-.012a.98.98 0 01-.378.34 1.124 1.124 0 01-.515.105c-.099 0-.204-.012-.31-.043a.922.922 0 01-.297-.136.714.714 0 01-.31-.624c0-.198.05-.353.155-.47a.925.925 0 01.41-.266c.167-.062.359-.099.576-.117.216-.019.44-.025.662-.025v-.074l.013.012zm-.105.42c-.137 0-.28 0-.422.019a1.765 1.765 0 00-.384.074.74.74 0 00-.285.155.34.34 0 00-.111.265c0 .08.018.149.05.204a.435.435 0 00.297.21c.068.013.13.025.198.025.124 0 .229-.018.322-.061a.585.585 0 00.235-.167.678.678 0 00.15-.248.932.932 0 00.049-.296v-.167H5.55l.013-.013zM8.866 36.112c.192 0 .366.03.527.093.16.061.297.148.409.265.111.118.204.254.266.415.062.16.093.346.093.544 0 .197-.037.389-.105.55-.069.16-.168.303-.292.414a1.242 1.242 0 01-.433.266c-.168.062-.341.092-.527.092s-.372-.03-.527-.092a1.165 1.165 0 01-.415-.266 1.274 1.274 0 01-.278-.427 1.782 1.782 0 01-.124-.568 1.627 1.627 0 01-.013-.18v-.185c.013-.377.062-.71.143-.99.08-.277.192-.512.34-.691a1.29 1.29 0 01.564-.408c.23-.087.496-.136.812-.136h.78v.408H9.3c-.23 0-.428.03-.583.092a.984.984 0 00-.39.26c-.1.111-.18.247-.235.408-.056.16-.1.34-.124.538a.967.967 0 01.378-.303c.16-.074.334-.111.52-.111m.793 1.316a.947.947 0 00-.235-.643.77.77 0 00-.26-.185.828.828 0 00-.335-.068 1 1 0 00-.335.055.889.889 0 00-.278.161.838.838 0 00-.193.266.881.881 0 00-.068.37c0 .137.019.267.062.378.044.117.1.216.174.297.074.08.167.148.272.191a.953.953 0 00.713 0 .814.814 0 00.26-.191.917.917 0 00.161-.285 1.04 1.04 0 00.056-.346M13.883 37.336v.185h-2.088a.818.818 0 00.26.587.82.82 0 00.273.174.89.89 0 00.8-.056c.13-.08.229-.173.297-.278l.365.26a1.384 1.384 0 01-.502.42c-.192.086-.402.13-.632.13a1.47 1.47 0 01-.545-.1 1.306 1.306 0 01-.434-.278 1.227 1.227 0 01-.285-.432 1.46 1.46 0 01-.105-.557c0-.204.031-.383.1-.556.067-.167.16-.315.284-.439.118-.123.26-.216.421-.284.162-.068.341-.1.533-.1.199 0 .378.032.54.1a1.147 1.147 0 01.644.698c.056.161.087.334.087.526m-.496-.173a.793.793 0 00-.21-.544c-.13-.142-.323-.217-.565-.217a.778.778 0 00-.316.062.875.875 0 00-.434.408.784.784 0 00-.08.285H13.4v.006zM16.946 38.684l-.78-1.997-.818 1.997h-.54l1.103-2.603h.52l1.048 2.603h-.533zM19.065 36.081v.878h.632c.192 0 .36.025.49.068a.924.924 0 01.328.18.69.69 0 01.186.271c.037.105.055.223.055.34a.9.9 0 01-.068.34.792.792 0 01-.198.278.891.891 0 01-.328.186c-.13.043-.28.068-.446.068H18.55v-2.603h.508l.006-.006zm0 2.22h.539c.186 0 .34-.032.459-.1.117-.068.18-.197.18-.383a.527.527 0 00-.05-.235.392.392 0 00-.137-.148.532.532 0 00-.21-.074 1.7 1.7 0 00-.26-.025h-.521v.97-.006zM22.497 38.684h-.515V36.08h.515v1.032h1.32v-1.032h.507v2.603h-.508v-1.162h-1.32v1.162zM27.378 37.008c0-.198-.056-.346-.167-.445-.112-.099-.267-.148-.471-.148-.149 0-.285.025-.415.08a.95.95 0 00-.329.216l-.272-.302c.117-.118.266-.21.452-.285a1.63 1.63 0 011.028-.05c.13.044.242.1.329.18.093.08.167.18.217.303.055.123.08.266.086.433v1.131c0 .099 0 .198.007.303 0 .105.012.191.024.266h-.458l-.019-.192c0-.068-.006-.13-.006-.192h-.012a.98.98 0 01-.378.34 1.124 1.124 0 01-.514.105c-.1 0-.205-.012-.31-.043a.922.922 0 01-.298-.136.714.714 0 01-.31-.624c0-.198.05-.353.155-.47a.925.925 0 01.41-.266c.167-.062.359-.099.576-.117a7.8 7.8 0 01.662-.025v-.074l.013.012zm-.105.42c-.137 0-.28 0-.422.019a1.765 1.765 0 00-.384.074.739.739 0 00-.285.155.34.34 0 00-.111.265c0 .08.018.149.05.204a.435.435 0 00.297.21c.068.013.13.025.198.025.124 0 .229-.018.322-.061a.585.585 0 00.235-.167.679.679 0 00.15-.248.932.932 0 00.049-.296v-.167h-.112l.012-.013zM30.488 37.657c-.254 0-.446.087-.582.254-.136.166-.223.426-.26.778h-.564c.037-.315.124-.58.254-.79.136-.211.304-.353.52-.415v-.019a.86.86 0 01-.458-.173c-.124-.099-.186-.253-.186-.463a.65.65 0 01.08-.334.695.695 0 01.217-.229c.093-.061.205-.105.335-.136.13-.03.279-.043.434-.043h1.09v2.602h-.502v-1.026h-.378v-.006zm-.762-.779c0 .074.019.136.05.186a.32.32 0 00.142.111c.056.025.13.043.211.05.08.006.167.012.26.012h.484v-.73h-.49c-.099 0-.186 0-.266.013a.622.622 0 00-.205.05.286.286 0 00-.13.11.351.351 0 00-.05.192M36.313 37.008c0-.198-.055-.346-.167-.445-.111-.099-.266-.148-.47-.148-.15 0-.286.025-.416.08a.949.949 0 00-.328.216l-.273-.302c.118-.118.267-.21.452-.285a1.63 1.63 0 011.029-.05c.13.044.242.1.328.18.093.08.168.18.217.303.05.123.08.266.087.433v1.131c0 .099 0 .198.006.303 0 .105.012.191.025.266h-.459l-.018-.192c0-.068-.006-.13-.006-.192h-.013a.98.98 0 01-.378.34 1.124 1.124 0 01-.514.105c-.1 0-.204-.012-.31-.043a.923.923 0 01-.297-.136.715.715 0 01-.31-.624c0-.198.05-.353.155-.47a.926.926 0 01.409-.266c.167-.062.36-.099.576-.117a7.8 7.8 0 01.663-.025v-.074l.012.012zm-.105.42c-.136 0-.279 0-.421.019a1.765 1.765 0 00-.384.074.74.74 0 00-.285.155.34.34 0 00-.112.265c0 .08.019.149.05.204a.433.433 0 00.297.21c.068.013.13.025.198.025.124 0 .23-.018.322-.061a.585.585 0 00.236-.167.678.678 0 00.149-.248.932.932 0 00.05-.296v-.167h-.112l.012-.013zM38.737 40h-.509v-3.92h.496v.415h.019c.099-.154.235-.272.409-.358a1.15 1.15 0 01.539-.124c.192 0 .378.037.539.105.16.068.303.167.415.29.118.124.204.273.266.433.062.167.093.346.093.532a1.5 1.5 0 01-.093.532 1.24 1.24 0 01-.266.432 1.339 1.339 0 01-.415.297 1.303 1.303 0 01-1.066-.006.966.966 0 01-.403-.353h-.018v1.713l-.006.012zm1.747-2.621c0-.13-.019-.247-.056-.365a.824.824 0 00-.452-.507.915.915 0 00-.378-.074.86.86 0 00-.65.278 1.013 1.013 0 00-.254.674c0 .136.024.254.067.371a.888.888 0 00.471.507.9.9 0 00.366.074.917.917 0 00.378-.074.777.777 0 00.279-.204.861.861 0 00.173-.303c.037-.117.056-.235.056-.365M42.707 36.081l1.072 1.267 1.053-1.267h.44v2.602h-.514v-1.879l-.91 1.162h-.15l-.916-1.143v1.86h-.509v-2.602h.434zM48.327 37.008c0-.198-.056-.346-.167-.445-.112-.099-.267-.148-.471-.148-.149 0-.285.025-.415.08a.95.95 0 00-.329.216l-.272-.302c.117-.118.266-.21.452-.285a1.63 1.63 0 011.029-.05c.13.044.241.1.328.18.093.08.167.18.217.303.056.123.08.266.087.433v1.131c0 .099 0 .198.006.303 0 .105.012.191.024.266h-.458l-.019-.192c0-.068-.006-.13-.006-.192h-.012a.98.98 0 01-.378.34 1.124 1.124 0 01-.514.105c-.1 0-.205-.012-.31-.043a.922.922 0 01-.297-.136.715.715 0 01-.31-.624c0-.198.05-.353.155-.47a.925.925 0 01.408-.266c.168-.062.36-.099.577-.117a7.8 7.8 0 01.663-.025v-.074l.012.012zm-.105.42c-.137 0-.28 0-.422.019a1.765 1.765 0 00-.384.074.739.739 0 00-.285.155.34.34 0 00-.111.265c0 .08.018.149.05.204a.435.435 0 00.297.21c.068.013.13.025.198.025.124 0 .23-.018.322-.061a.585.585 0 00.236-.167.679.679 0 00.148-.248.932.932 0 00.05-.296v-.167h-.112l.013-.013zM49.85 36.081h2.292v.408h-.917v2.194h-.508V36.49h-.867v-.408zM54.195 38.14h.018l.731-2.059h.552l-1.146 2.9c-.062.148-.118.283-.174.407a1.58 1.58 0 01-.192.322.731.731 0 01-.266.21.915.915 0 01-.39.074c-.063 0-.125 0-.193-.013-.068-.006-.13-.018-.186-.024l.056-.445.13.037c.05.006.1.012.149.012.13 0 .23-.037.297-.111a.916.916 0 00.186-.322l.18-.457-1.11-2.59h.565l.799 2.058h-.006zM57.06 40h-.507v-3.92h.495v.415h.019c.1-.154.235-.272.409-.358a1.15 1.15 0 01.539-.124c.192 0 .378.037.539.105.161.068.303.167.415.29.118.124.204.273.267.433.061.167.092.346.092.532a1.5 1.5 0 01-.093.532 1.24 1.24 0 01-.266.432 1.339 1.339 0 01-.415.297 1.303 1.303 0 01-1.066-.006.966.966 0 01-.402-.353h-.019v1.713l-.006.012zm1.748-2.621c0-.13-.019-.247-.056-.365a.824.824 0 00-.452-.507.915.915 0 00-.378-.074.86.86 0 00-.65.278 1.013 1.013 0 00-.254.674c0 .136.024.254.068.371a.888.888 0 00.47.507.9.9 0 00.366.074.917.917 0 00.378-.074.777.777 0 00.279-.204.861.861 0 00.173-.303c.037-.117.056-.235.056-.365M62.23 37.008c0-.198-.057-.346-.168-.445-.112-.099-.267-.148-.471-.148-.149 0-.285.025-.415.08a.95.95 0 00-.329.216l-.272-.302c.117-.118.266-.21.452-.285a1.63 1.63 0 011.029-.05c.13.044.241.1.334.18.093.08.167.18.217.303.056.123.08.266.087.433v1.131c0 .099 0 .198.006.303 0 .105.012.191.025.266h-.459l-.018-.192c0-.068-.006-.13-.006-.192h-.013a.98.98 0 01-.378.34 1.124 1.124 0 01-.514.105c-.1 0-.205-.012-.31-.043a.922.922 0 01-.297-.136.78.78 0 01-.223-.247.694.694 0 01-.087-.377c0-.198.05-.353.155-.47a.925.925 0 01.409-.266c.167-.062.36-.099.576-.117a7.8 7.8 0 01.663-.025v-.074l.006.012zm-.106.42c-.137 0-.28 0-.422.019a1.765 1.765 0 00-.384.074.739.739 0 00-.285.155.34.34 0 00-.111.265c0 .08.018.149.05.204a.435.435 0 00.297.21c.068.013.13.025.198.025a.768.768 0 00.564-.228.907.907 0 00.148-.248.932.932 0 00.05-.296v-.167h-.111l.006-.013zM67.675 38.683h-.526v-3.226l-.738.612-.31-.365 1.097-.89h.477v3.87zM71.486 38.683h-.527v-3.226l-.737.612-.31-.365 1.103-.89h.47v3.87zM74.856 34.715c.229 0 .427.055.594.16.168.106.304.254.41.433.105.186.185.402.235.65.05.247.074.512.074.79 0 .279-.025.55-.074.798-.05.247-.13.464-.236.643a1.25 1.25 0 01-.409.432c-.167.106-.365.161-.594.161-.23 0-.428-.055-.602-.16a1.326 1.326 0 01-.415-.433 2.39 2.39 0 01-.241-.643 4.052 4.052 0 01-.075-.797c0-.285.025-.544.075-.792.05-.247.13-.463.241-.649.106-.185.248-.327.415-.432.168-.105.366-.161.602-.161zm0 .445a.533.533 0 00-.397.154c-.1.105-.18.235-.242.396-.055.16-.093.334-.117.52-.019.185-.031.358-.031.525 0 .167.012.34.03.525.025.186.063.359.118.513.056.155.137.29.242.39a.533.533 0 00.397.154c.16 0 .285-.05.384-.154.099-.105.18-.235.235-.39.062-.154.1-.327.124-.513.025-.185.031-.358.031-.525 0-.167-.012-.34-.031-.526a2.277 2.277 0 00-.124-.519 1.085 1.085 0 00-.235-.396.505.505 0 00-.384-.154zM78.55 37.138h-1.27v.433h1.27v-.433zM82.024 35.283H80.42l-.031 1.014a1.816 1.816 0 01.502-.074c.185 0 .359.031.52.087a1.12 1.12 0 01.682.624c.068.155.099.321.099.507a1.329 1.329 0 01-.39.977c-.118.117-.26.203-.428.265-.161.062-.34.093-.54.093-.303 0-.557-.068-.767-.21a1.287 1.287 0 01-.471-.569l.483-.191a.842.842 0 00.291.377.809.809 0 00.465.142.778.778 0 00.316-.062.938.938 0 00.26-.167.83.83 0 00.174-.26.873.873 0 00.062-.34.92.92 0 00-.075-.383.788.788 0 00-.198-.266.939.939 0 00-.291-.154 1.273 1.273 0 00-.347-.05c-.149 0-.298.019-.453.062a2.086 2.086 0 00-.409.155l.056-2.059h2.094v.482zM84.781 34.715c.23 0 .428.055.595.16.167.106.304.254.409.433.105.186.186.402.235.65.05.247.075.512.075.79 0 .279-.025.55-.075.798-.05.247-.13.464-.235.643a1.25 1.25 0 01-.409.432c-.167.106-.366.161-.595.161-.229 0-.427-.055-.6-.16a1.325 1.325 0 01-.416-.433 2.39 2.39 0 01-.241-.643 4.052 4.052 0 01-.075-.797c0-.285.025-.544.075-.792.05-.247.13-.463.241-.649.106-.185.248-.327.415-.432.168-.105.366-.161.601-.161zm0 .445a.533.533 0 00-.396.154c-.1.105-.18.235-.242.396-.056.16-.093.334-.118.52a5.282 5.282 0 00-.03.525c0 .167.012.34.03.525.025.186.062.359.118.513.056.155.136.29.242.39a.533.533 0 00.396.154c.161 0 .285-.05.384-.154.1-.105.18-.235.236-.39.062-.154.099-.327.124-.513.024-.185.03-.358.03-.525 0-.167-.012-.34-.03-.526a2.277 2.277 0 00-.124-.519 1.086 1.086 0 00-.236-.396.505.505 0 00-.384-.154zM88.598 34.715c.229 0 .427.055.594.16.168.106.304.254.41.433.105.186.185.402.235.65.05.247.074.512.074.79 0 .279-.025.55-.074.798-.05.247-.13.464-.236.643a1.25 1.25 0 01-.409.432c-.167.106-.365.161-.594.161-.23 0-.428-.055-.601-.16a1.325 1.325 0 01-.415-.433 2.39 2.39 0 01-.242-.643 4.052 4.052 0 01-.074-.797c0-.285.024-.544.074-.792.05-.247.13-.463.242-.649.105-.185.247-.327.415-.432.167-.105.365-.161.6-.161zm0 .445a.533.533 0 00-.397.154c-.099.105-.18.235-.241.396-.056.16-.093.334-.118.52a5.282 5.282 0 00-.031.525c0 .167.012.34.03.525.026.186.063.359.119.513.055.155.136.29.241.39a.533.533 0 00.397.154c.16 0 .285-.05.384-.154.099-.105.18-.235.235-.39.062-.154.1-.327.124-.513.025-.185.031-.358.031-.525 0-.167-.012-.34-.03-.526a2.277 2.277 0 00-.125-.519 1.086 1.086 0 00-.235-.396.505.505 0 00-.384-.154zM93.643 37.12c.13 0 .248.012.365.03l.843-1.075h.564l-.967 1.205c.143.056.267.124.378.21.112.08.205.186.291.303.087.118.155.247.217.396.062.148.112.315.161.494h-.564a2.33 2.33 0 00-.18-.544 1.2 1.2 0 00-.266-.352.865.865 0 00-.365-.192 2.167 2.167 0 00-.477-.068v1.156h-.508v-2.602h.508v1.038zM96.775 34.814h1.258c.149 0 .297.018.446.043.149.031.285.087.41.16.123.075.216.18.297.304.074.13.117.29.117.482 0 .21-.062.39-.186.538a.933.933 0 01-.49.303v.012a.873.873 0 01.342.099.866.866 0 01.452.476c.043.111.068.235.068.37 0 .174-.037.328-.105.464a.937.937 0 01-.304.34c-.13.093-.285.16-.465.21a2.2 2.2 0 01-.588.068h-1.252v-3.875.006zm.527 1.656h.719c.093 0 .18-.012.272-.03a.611.611 0 00.242-.106.56.56 0 00.167-.191.586.586 0 00.068-.285.545.545 0 00-.061-.278.514.514 0 00-.18-.185.774.774 0 00-.267-.105 1.81 1.81 0 00-.334-.031h-.626v1.218-.007zm0 1.775h.682c.124 0 .241-.013.359-.038a.978.978 0 00.31-.117.642.642 0 00.216-.21.633.633 0 00.081-.322c0-.228-.08-.401-.242-.507-.16-.105-.384-.166-.669-.166h-.73v1.36h-.007z"/></g></symbol><symbol fill="none" viewBox="0 0 16 16" id="mob-burger" xmlns="http://www.w3.org/2000/svg"><g clip-path="url(#hclip0_4262_9731)" stroke="#fff" stroke-linecap="square" stroke-linejoin="round"><path d="M0 6h16M0 10h16"/></g><defs><clipPath id="hclip0_4262_9731"><path fill="#fff" d="M0 0h16v16H0z"/></clipPath></defs></symbol><symbol fill="none" viewBox="0 0 16 16" id="mob-close" xmlns="http://www.w3.org/2000/svg"><path d="M3 3l10 10M3 13L13 3" stroke="#FAFAFA" stroke-linejoin="round"/></symbol><symbol viewBox="0 0 16 16" fill="none" id="search" xmlns="http://www.w3.org/2000/svg"><path d="M7.333 12.667A5.333 5.333 0 107.333 2a5.333 5.333 0 000 10.667zM14 14l-2.9-2.9" stroke="#fff" stroke-linecap="round" stroke-linejoin="round"/></symbol><symbol viewBox="0 0 15 13" id="tg" xmlns="http://www.w3.org/2000/svg"><path fill-rule="evenodd" clip-rule="evenodd" d="M1.802 5.65c3.578-1.625 5.96-2.705 7.156-3.23C12.363.935 13.078.679 13.538.668c.103 0 .328.021.481.15.123.107.154.246.174.353.02.107.041.331.02.502-.183 2.032-.981 6.963-1.39 9.23-.174.963-.511 1.283-.838 1.316-.716.064-1.258-.492-1.943-.963-1.084-.738-1.687-1.198-2.74-1.925-1.217-.834-.43-1.294.266-2.043.184-.192 3.323-3.187 3.384-3.454.01-.032.01-.16-.061-.225-.072-.064-.174-.043-.256-.021-.112.021-1.83 1.219-5.173 3.582-.491.353-.93.525-1.33.514-.439-.01-1.277-.257-1.911-.47-.767-.257-1.38-.396-1.33-.846.031-.235.338-.47.91-.716z"/></symbol><symbol viewBox="0 0 32 32" fill="none" id="top-arrow" xmlns="http://www.w3.org/2000/svg"><path d="M15.998 25.428V6.572M6.57 16l9.428-9.428L25.426 16" stroke-linecap="round" stroke-linejoin="round"/></symbol><symbol viewBox="0 0 90 113" fill="none" id="truck" xmlns="http://www.w3.org/2000/svg"><g opacity=".6" clip-path="url(#clip0_4269_1364)" fill="#fff"><path d="M90.123 59.249l-3.24-6.296h-4.297l-3.84-6.648c.003-.019.012-.033.012-.05v-5.496a.805.805 0 00-.805-.803H64.02v-4.152a.803.803 0 00-.804-.804H13.645a.803.803 0 00-.806.804v7.903H5.337a.805.805 0 000 1.609h18.49a.803.803 0 100-1.61h-9.379v-7.099h47.963v34.298H39.118c-.4-3.217-3.121-5.727-6.45-5.727-3.327 0-6.048 2.51-6.45 5.728H14.448V56.133h6.096a.803.803 0 100-1.609H.713a.804.804 0 000 1.609H12.84v15.578c0 .442.36.804.805.804H26.22c.401 3.22 3.122 5.725 6.45 5.725 3.328 0 6.049-2.506 6.45-5.725H67.862c.403 3.22 3.123 5.725 6.451 5.725 3.328 0 6.05-2.506 6.45-5.725h9.52V59.249h-.16zM32.67 76.632a4.928 4.928 0 01-4.924-4.92 4.929 4.929 0 014.924-4.924 4.929 4.929 0 014.924 4.925 4.93 4.93 0 01-4.924 4.92zm48.06-23.68H69.713V47.06h7.61l3.407 5.893zM64.018 41.566H77.15v3.888h-8.24a.803.803 0 00-.803.803v6.699h-4.088v-11.39zM74.31 76.632a4.927 4.927 0 01-4.924-4.92 4.928 4.928 0 014.924-4.924 4.929 4.929 0 014.924 4.925c0 2.711-2.21 4.92-4.924 4.92zm14.361-5.725H80.76c-.401-3.218-3.122-5.728-6.45-5.728-3.328 0-6.049 2.51-6.451 5.728h-3.84V54.56h21.884l2.41 4.687h-5.438v6.532h5.796v5.128zm0-10.051v3.315h-4.187v-3.315h4.187z"/><path d="M32.67 69.048a2.661 2.661 0 102.661 2.663 2.664 2.664 0 00-2.66-2.663zm0 3.717a1.054 1.054 0 010-2.108 1.054 1.054 0 010 2.107zM74.31 69.1c-1.44 0-2.611 1.17-2.611 2.612 0 1.438 1.17 2.61 2.61 2.61s2.612-1.172 2.612-2.61A2.614 2.614 0 0074.31 69.1zm0 3.613a1.003 1.003 0 11-.002-2.006 1.003 1.003 0 01.002 2.006zM29.386 50.506a.803.803 0 100-1.608H9.556a.804.804 0 10.001 1.608h19.83z"/></g></symbol><symbol viewBox="0 0 16 16" id="vk" xmlns="http://www.w3.org/2000/svg"><path d="M8.64 12.435c-4.862 0-7.636-3.333-7.751-8.88h2.435c.08 4.072 1.876 5.796 3.298 6.152V3.556h2.293v3.51c1.405-.15 2.88-1.75 3.378-3.51h2.293a6.771 6.771 0 01-3.12 4.426 7.022 7.022 0 013.654 4.453h-2.525a4.391 4.391 0 00-3.68-3.173v3.173H8.64z"/></symbol><symbol fill="none" viewBox="0 0 16 16" id="warning" xmlns="http://www.w3.org/2000/svg"><path d="M8.895 5.83V13H7.111V5.83h1.784zM7 3.96c0-.277.09-.507.272-.688C7.452 3.09 7.695 3 8 3c.3 0 .541.09.722.272.185.18.278.41.278.689a.923.923 0 01-.278.69c-.18.18-.422.27-.722.27-.305 0-.547-.09-.728-.27A.934.934 0 017 3.96z" fill="#C5C5C5"/><rect x=".5" y=".5" width="15" height="15" rx="7.5" stroke="#C5C5C5"/></symbol><symbol viewBox="0 0 16 16" id="yt" xmlns="http://www.w3.org/2000/svg"><path fill-rule="evenodd" clip-rule="evenodd" d="M14.255 3.762c.217.222.373.497.452.8C15 5.675 15 8 15 8s0 2.324-.293 3.439a1.79 1.79 0 01-.452.799 1.754 1.754 0 01-.786.464C12.376 13 8 13 8 13s-4.375 0-5.47-.298a1.755 1.755 0 01-.785-.464 1.79 1.79 0 01-.452-.8C1 10.325 1 8 1 8s0-2.324.293-3.439a1.79 1.79 0 01.452-.799c.217-.222.488-.381.785-.464C3.625 3 8 3 8 3s4.375 0 5.47.298c.297.083.568.242.785.464zM10.227 8L6.568 5.89v4.22L10.228 8z"/></symbol></svg>