<?xml version="1.0" encoding="utf-8"?><svg xmlns="http://www.w3.org/2000/svg" xmlns:xlink="http://www.w3.org/1999/xlink"><symbol viewBox="0 0 16 16" fill="none" id="arrow-down" xmlns="http://www.w3.org/2000/svg"><path d="M3.285 8h9.428M8 3.286L12.712 8 8 12.714" stroke="#fff" stroke-linecap="round" stroke-linejoin="round"/></symbol><symbol viewBox="0 0 44 40" id="burger" xmlns="http://www.w3.org/2000/svg"><path d="M0 16h44M0 24h44" stroke="#fff" stroke-width="2" stroke-linecap="square" stroke-linejoin="round"/></symbol><symbol viewBox="0 0 16 16" fill="none" id="card-icon" xmlns="http://www.w3.org/2000/svg"><path d="M4.666 4.667l6.667 6.666M11.333 4.667v6.666H4.666" stroke-linecap="round" stroke-linejoin="round"/></symbol><symbol viewBox="0 0 16 16" fill="none" id="cert-ar" xmlns="http://www.w3.org/2000/svg"><path d="M4.666 4.667l6.667 6.667M11.333 4.667v6.667H4.666" stroke="#fff" stroke-linecap="round" stroke-linejoin="round"/></symbol><symbol fill="none" viewBox="0 0 16 16" id="chekbox" xmlns="http://www.w3.org/2000/svg"><path d="M13.333 4l-7.334 7.333L2.666 8" stroke="#fff" stroke-linecap="round" stroke-linejoin="round"/></symbol><symbol viewBox="0 0 20 20" fill="none" id="circle" xmlns="http://www.w3.org/2000/svg"><path fill-rule="evenodd" clip-rule="evenodd" d="M19 10a9 9 0 11-18 0 9 9 0 0118 0zm1 0c0 5.523-4.477 10-10 10S0 15.523 0 10 4.477 0 10 0s10 4.477 10 10zm-10 6a6 6 0 100-12 6 6 0 000 12z" fill="#EF9930"/></symbol><symbol viewBox="0 0 90 113" fill="none" id="clock" xmlns="http://www.w3.org/2000/svg"><path d="M44.8 15.6C66.987 15.6 85 33.613 85 55.8S66.987 96 44.8 96 4.6 77.987 4.6 55.8s18.013-40.2 40.2-40.2zm0 2.513C23.97 18.113 7.112 34.97 7.112 55.8c0 20.829 16.859 37.688 37.688 37.688S82.487 76.627 82.487 55.8c0-20.829-16.858-37.688-37.687-37.688zm0 12.562c.693 0 1.256.562 1.256 1.256V55.8c0 .694-.563 1.256-1.256 1.256H23.443a1.256 1.256 0 110-2.512h20.1V31.93c0-.694.563-1.256 1.257-1.256z" fill="#fff" opacity=".6"/></symbol><symbol viewBox="0 0 20 20" fill="none" id="close" xmlns="http://www.w3.org/2000/svg"><path d="M3.75 3.75l12.5 12.5M3.75 16.25l12.5-12.5" stroke="#A0A0A0" stroke-linejoin="round"/></symbol><symbol viewBox="0 0 88 28" id="dev" xmlns="http://www.w3.org/2000/svg"><path fill-rule="evenodd" clip-rule="evenodd" d="M47.316 7.328c.212.221 2.117 5.497 2.316 6.148.198.698.479 1.367.834 1.993.66.156.722-.534.922-1.081 1.083-2.957 2.726-7.268 3.548-10.173.573-1.407.622-1.785-.411-1.785s-.921.704-1.332 1.616c-.361 1.732-1.756 5.392-2.266 7.072 0 .222 0 .222-.262.222-.859-2.501-1.855-5.562-2.826-8.037-.261-.482-.722-.586-1.033.495C46.283 5.518 45.56 7.562 45 9.23c0 0-.672 2.11-.722 2.214a6.684 6.684 0 01-.772-1.94c-.772-1.994-1.444-4.143-2.104-6.136-.162-.377-.162-.599-.523-.82a2.065 2.065 0 00-1.133-.105c-1.02.17-.36 1.03-.15 1.668 1.246 3.504 2.628 7.71 4.01 11.045a.506.506 0 00.152.21.474.474 0 00.482.067.489.489 0 00.2-.16c.2-.403 2.727-7.945 2.876-7.945zM.203 2.652c-.052.217-.034.446.05.651.211.912-.411 11.306-.25 11.723a2.389 2.389 0 001.607.156c.249-.273.15-.534.15-.963 0-1.837.149-3.608.149-5.497.062-.703.112-1.185.112-1.615 0-.43 0-.378.1-.482.099-.104 1.73 2.865 1.892 3.191.311.638.921 1.615 1.332 2.37.623 1.186.934.378 1.083.105.361-.482 3.15-5.601 3.35-5.705.186.208.186 5.327.186 5.705 0 2.8-.311 3.074 1.382 2.957.523 0 .573-.43.523-.912v-2.853a129.16 129.16 0 01-.236-7.268c0-.273.1-1.302.1-1.459a.998.998 0 00-.586-.34.97.97 0 00-.66.119c-.361.221-.46.703-.722 1.029-1.046 1.94-2.453 4.142-3.436 5.979-.361.65-.361.43-.673 0-.672-1.03-1.544-2.8-2.154-3.83l-1.245-2.15a4.474 4.474 0 00-.66-1.028c-.348-.26-1.033-.052-1.394.117zM65.902 8.682c.44-.376.964-.632 1.522-.746a3.303 3.303 0 011.678.095c1.644.756 1.855 3.295 1.133 4.533-.308.482-.75.853-1.268 1.06a2.566 2.566 0 01-1.62.1 3.652 3.652 0 01-1.445-.652v-4.39zm0-1.836a38.993 38.993 0 010-4.26c0-.586-.199-.69-.722-.481-1.245.547-1.245.325-1.07 1.51.099.6 0 7.542 0 8.52 0 1.927-.262 2.37 2.415 3.177a5.526 5.526 0 002.313.013 5.644 5.644 0 002.132-.938c2.627-2.253 1.904-8.61-2.889-8.127a9.195 9.195 0 00-1.245.156c-.162.052-.772.43-.847.43h-.087zM29.596 15.143c.194-.679.25-1.394.162-2.097-.051-.737-.051-1.477 0-2.214.149 0 .31.274.622.6.311.325 2.876 3.125 3.287 3.438.143.14.316.242.504.298.188.057.387.066.58.028.36 0 .933 0 1.132-.26 0-.379-.722-.978-1.033-1.303-.312-.326-.71-.743-1.071-1.186a22.515 22.515 0 01-2.216-2.357c0-.118 2.826-2.605 3.349-3.074.2-.222.41-.274.361-.6a3.196 3.196 0 00-1.967 0c-.25.118-1.955 1.733-2.415 2.163-.15.156-1.034 1.133-1.133 1.08-.15-.494 0-7.228-.1-7.606-.1-.378-1.855.221-1.805.873.097.457.147.924.149 1.393v9.314c0 .325-.1 1.302.112 1.458a3.3 3.3 0 001.482.053zM16.186 10.728c.573-.156 2.49.325 2.577.86.05.576.05 1.156 0 1.732-.36.482-2.839 1.446-3.66-.274a1.893 1.893 0 010-1.563c.12-.198.278-.368.464-.498.187-.13.398-.218.619-.257zm2.627-.652a4.4 4.4 0 00-1.594-.69 5.649 5.649 0 00-2.116.156 2.826 2.826 0 00-1.463 1.042 3.044 3.044 0 00-.585 1.747 3.052 3.052 0 00.523 1.768c.35.515.85.9 1.425 1.096a4.509 4.509 0 003.038 0c.212-.104.623-.377.772-.43.15-.051.212.378.41.483.2.104 1.134 0 1.395-.26.262-.261.312-.222.15-.6a2.806 2.806 0 01-.25-1.615V8.89a2.362 2.362 0 00-.36-1.563c-.984-2.045-6.91-1.237-6.437.495.473 1.732 1.245-.6 3.86-.273 1.406.156 1.257 1.563 1.257 2.526h-.025zM79.76 9.816h-4.27c.057-.534.29-1.032.66-1.406.403-.37.91-.594 1.444-.639.278-.024.558.011.824.103.265.092.51.239.72.432.21.181.378.413.486.676.108.263.155.549.136.834zm-4.382 1.394c.31-.156 4.98 0 5.826 0 .847 0 .461-2.904-1.083-4.09a4.016 4.016 0 00-4.432-.365 4.261 4.261 0 00-1.67 1.676 4.524 4.524 0 00-.559 2.35c-.03.798.148 1.59.514 2.292a4.347 4.347 0 001.565 1.693c1.382.977 5.093.925 5.553-.586.573-1.94-.772-.86-1.245-.651-.398.17-.817.28-1.245.325-2.751.326-3.424-2.214-3.224-2.644zM56.689 9.816a2.269 2.269 0 01.677-1.454c.392-.379.906-.59 1.44-.59 1.07-.118 2.315.859 2.103 2.044h-4.22zm-.212 1.303h5.777c.672 0 .56-.43.51-.964a4.316 4.316 0 00-.624-2.034 4.071 4.071 0 00-1.504-1.446 3.853 3.853 0 00-1.99-.48 3.87 3.87 0 00-1.957.612 4.31 4.31 0 00-1.57 1.717 4.557 4.557 0 00-.485 2.321 4.23 4.23 0 00.493 2.284c.374.694.934 1.259 1.611 1.624 1.756 1.133 5.205.651 5.516-.638 0-.378.25-1.303-.311-1.082a6.69 6.69 0 01-2.179.821 2.979 2.979 0 01-1.22-.083 3.062 3.062 0 01-1.096-.568c-.448-.378-1.17-1.511-.97-2.084zM84.44 15.195c.312-.325.262-.482.262-.964V12.93c0-1.72-.311-4.572 1.594-5.002.41-.104.51.26 1.033.156.309-.29.54-.657.673-1.068 0-.82-1.245-.977-2.378-.443-.361.17-.66.756-.922.808 0-.482.1-.69-.212-1.12-.398.04-.785.169-1.132.378-.51.26-.61.26-.51.911.099.652 0 5.12 0 6.187.049 1.629.049 1.576 1.593 1.46zM23.735 15.143v-.104c.144-1.323.182-2.656.112-3.986 0-1.029.249-2.696 1.332-3.022.872-.325.921.534 1.494 0 1.332-1.459-.46-2.045-1.544-1.563-1.083.482-.934.86-1.245.964a2.725 2.725 0 010-.638c0-.274-.112-.274-.212-.43-.399-.003-.79.11-1.133.326-.51.208-.672.26-.51.911a19.8 19.8 0 01.1 3.01v2.969c.112 1.615-.1 1.732 1.606 1.563zM46.955 16.876a27.048 27.048 0 00-6.026 1.497c-.61.274-1.245.43-1.855.704-1.245.482-2.415.912-3.648 1.407-.41.156-3.35 1.068-3.86 1.185-2.49.638-6.225 1.394-8.603.26-1.133-.586-1.245 1.238 1.332 1.89a10.07 10.07 0 004.532-.21c1.245-.273 2.74-.755 3.922-1.132 1.183-.378 2.577-.808 3.86-1.186.311-.117.56-.221.921-.325l1.905-.6c.361-.104.623-.26.934-.377l1.967-.482c.361-.105.623-.209.934-.326a35.765 35.765 0 017.93-.86c.66 0 1.644.17 2.316.274 1.246.156.972-.534.15-.977a12.558 12.558 0 00-6.71-.742z"/></symbol><symbol viewBox="0 0 90 113" fill="none" id="factory" xmlns="http://www.w3.org/2000/svg"><g opacity=".6" fill="#fff"><path d="M53.078 61.085l3.624-4.9a.899.899 0 10-1.446-1.07l-3.624 4.9a.899.899 0 101.446 1.07zM29.917 50.977a.898.898 0 001.272 0 .899.899 0 000-1.273l-3.692-3.693a.899.899 0 10-1.272 1.273l3.692 3.693z"/><path d="M87.4 94.641h-5.056V51.703c.003-.03.018-.057.018-.087a.891.891 0 00-.198-.563L64.374 17.48A.902.902 0 0063.58 17H35.504a.9.9 0 00-.9.9v11.36a.9.9 0 00.9.9h2.241v9.183a.9.9 0 00.9.9h2.29v12.649a.9.9 0 00.9.9h2.128v9.31a.9.9 0 101.8 0v-9.31h2.127a.9.9 0 00.9-.9v-12.65h2.291a.9.9 0 00.9-.9V30.16H59.7l11.488 21.68V94.64H56.676V69.557a.9.9 0 00-.9-.9H40.403l-6.684-6.24c-.035-.03-.077-.044-.114-.07-.056-.037-.108-.08-.17-.104-.067-.026-.137-.032-.207-.042-.041-.007-.08-.025-.123-.025H22.717v-9.284a.9.9 0 00-.9-.9H7.004a.9.9 0 00-.9.9v41.75H1.9a.9.9 0 100 1.8h85.5a.9.9 0 100-1.8zM63.038 18.8l16.91 31.916h-7.32L61.27 29.28c0-.007.005-.013.005-.02a.887.887 0 00-.402-.731l-5.157-9.73h7.322zM46.99 51.992h-4.255v-11.75h4.255v11.75zm3.191-13.55H39.545V30.16h10.636v8.283zm.9-10.082H36.405V18.8h17.274l5.065 9.56h-7.663zm21.906 24.156h7.556V94.64h-7.556V52.516zM7.904 53.792h13.013v8.383H14.41a.9.9 0 100 1.8h18.34l5.014 4.681H14.41a.9.9 0 100 1.8h40.466V94.64H7.904V53.792z"/></g></symbol><symbol viewBox="0 0 16 16" fill="none" id="filter-icon" xmlns="http://www.w3.org/2000/svg"><path d="M15 8H5.65m-3.3 0H1m1.35 0c0-.461.174-.903.483-1.228.31-.326.73-.509 1.167-.509.437 0 .857.183 1.166.509.31.325.484.767.484 1.228 0 .46-.174.902-.484 1.228-.31.325-.729.508-1.166.508-.438 0-.857-.183-1.167-.508A1.784 1.784 0 012.35 8zM15 13.263h-4.35m0 0c0 .46-.174.902-.484 1.228A1.61 1.61 0 019 15a1.61 1.61 0 01-1.167-.51 1.784 1.784 0 01-.483-1.227m3.3 0c0-.461-.174-.902-.484-1.228A1.61 1.61 0 009 11.526c-.438 0-.857.183-1.167.509-.31.325-.483.767-.483 1.228m0 0H1M15 2.737h-2.35m-3.3 0H1m8.35 0c0-.461.174-.903.483-1.228.31-.326.73-.509 1.167-.509.216 0 .431.045.631.132.2.087.382.215.535.377.153.16.275.352.358.563a1.816 1.816 0 010 1.33c-.083.21-.204.401-.358.562-.153.162-.335.29-.535.377-.2.087-.415.132-.631.132-.438 0-.857-.183-1.167-.509a1.784 1.784 0 01-.483-1.227z" stroke-miterlimit="10" stroke-linecap="round"/></symbol><symbol fill="none" viewBox="0 0 76 80" id="guarantee" xmlns="http://www.w3.org/2000/svg"><path d="M45.417 61.013a.879.879 0 00-1.055.611 21.684 21.684 0 11-22.96-27.25.866.866 0 10-.16-1.725A23.294 23.294 0 000 55.97c0 12.911 10.505 23.416 23.416 23.416a23.45 23.45 0 0022.61-17.313.866.866 0 00-.61-1.061z" fill="#fff"/><path d="M14.194 58.549a.866.866 0 10-1.407 1.016l5.008 6.911a.878.878 0 00.607.352h.095a.879.879 0 00.575-.218l15.243-13.474a.868.868 0 00-1.148-1.299L18.64 64.68l-4.445-6.131zM74.952 11.903c.839-1.462.763-3.298-.21-5.17-.908-1.745-2.513-3.34-4.518-4.486C68.218 1.101 66.03.521 64.07.625c-2.086.107-3.691.96-4.54 2.4l-8.736 13.668c-7.673-1.758-14.369.162-17.092 4.922l-4.874 8.422C24.981 36.76 30.17 46.99 40.397 52.844c4.532 2.593 9.424 3.992 13.9 3.992.363 0 .722-.008 1.077-.026 4.902-.253 8.648-2.222 10.547-5.54l4.38-7.654a8.33 8.33 0 00.5-.775c2.752-4.813.971-11.588-4.529-17.345l8.489-13.283c.061-.088.12-.176.175-.271l.023-.035-.007-.004zM61.837 29.211c-.527.933-1.652 1.49-3.15 1.566-1.636.08-3.487-.412-5.206-1.396-1.72-.984-3.084-2.327-3.841-3.783-.693-1.329-.779-2.575-.267-3.471l9.771-15.293c.605 2.15 2.417 4.35 5.09 5.878 1.852 1.054 3.866 1.635 5.709 1.635.149 0 .298 0 .446-.013.346-.017.69-.057 1.03-.121L61.837 29.21zm2.319-26.856c.12 0 .24-.01.364-.01 1.543 0 3.25.493 4.844 1.407 1.72.985 3.083 2.33 3.841 3.783.689 1.325.777 2.568.25 3.498l-.134.207c-.575.81-1.63 1.296-3.022 1.368-1.64.08-3.485-.411-5.206-1.396-3.372-1.933-5.244-5.273-4.086-7.291.533-.933 1.653-1.489 3.149-1.566zm.255 48.055c-1.598 2.791-4.841 4.45-9.141 4.67-4.437.227-9.415-1.098-14.026-3.737-9.397-5.379-14.3-14.55-10.928-20.44l2.11-3.633c.11 1.988.724 4.1 1.838 6.244 2.2 4.23 6.108 8.103 11.004 10.898 4.651 2.661 9.554 3.968 13.887 3.968 2.74 0 5.247-.528 7.314-1.558l-2.058 3.588zm5.248-9.17l-.83 1.45c-3.78 5.21-13.696 5.38-22.701.224-4.611-2.636-8.28-6.26-10.328-10.195-1.984-3.814-2.197-7.453-.599-10.243 2.266-3.96 7.944-5.58 14.59-4.218l-1.9 2.972c-.837 1.463-.761 3.298.21 5.168.91 1.746 2.514 3.34 4.52 4.488 1.853 1.054 3.867 1.633 5.71 1.633.149 0 .298 0 .446-.01 2.11-.11 3.726-.975 4.542-2.4l1.985-3.106c4.454 4.81 6.101 10.24 4.355 14.236z" fill="#fff"/></symbol><symbol fill="none" viewBox="0 0 90 90" id="list" xmlns="http://www.w3.org/2000/svg"><g opacity=".6" fill="#fff"><path d="M77.995 90c.383 0 .693-.31.693-.692V18c0-.015-.008-.028-.009-.043a.683.683 0 00-.037-.183c-.008-.022-.013-.044-.023-.065a.683.683 0 00-.133-.197l-.001-.002L61.185.203l-.001-.001a.683.683 0 00-.198-.133c-.02-.01-.043-.016-.065-.023a.682.682 0 00-.183-.037C60.723.008 60.711 0 60.695 0h-48.69a.692.692 0 00-.693.692v88.616c0 .382.31.692.693.692h65.99zM61.388 2.364l14.936 14.944H61.388V2.364zm-48.691-.98h47.306V18c0 .382.31.692.692.692h16.608v69.923H12.697V1.385z"/><path d="M21.376 10.039h26.71a.692.692 0 000-1.385h-26.71a.692.692 0 000 1.385zM21.376 21.159h31.556a.692.692 0 000-1.385H21.376a.692.692 0 000 1.385zM21.376 32.279h46.04a.692.692 0 100-1.385h-46.04a.692.692 0 000 1.385zM21.376 43.399H58.47a.692.692 0 100-1.385H21.377a.692.692 0 000 1.385zM68.108 53.827a.692.692 0 00-.692-.692h-46.04a.692.692 0 000 1.384h46.04c.382 0 .692-.31.692-.692zM68.175 68.458c-.127-.39-.094-.93-.06-1.502.054-.872.115-1.862-.439-2.622-.559-.769-1.524-1.016-2.375-1.235-.55-.14-1.069-.274-1.394-.51-.317-.23-.6-.68-.9-1.154-.472-.748-1.008-1.596-1.923-1.894-.882-.286-1.795.075-2.6.392-.517.204-1.052.415-1.477.415-.424 0-.959-.21-1.476-.415-.806-.318-1.721-.678-2.6-.392-.915.298-1.45 1.146-1.924 1.894-.3.475-.583.923-.9 1.154-.325.236-.844.37-1.393.51-.852.22-1.816.467-2.375 1.235-.554.76-.494 1.75-.44 2.623.035.571.068 1.11-.059 1.5-.117.362-.45.763-.804 1.188-.57.685-1.216 1.462-1.216 2.442 0 .979.646 1.755 1.216 2.44.353.425.687.827.804 1.188.127.39.094.93.059 1.502-.053.872-.114 1.862.44 2.622.559.768 1.523 1.016 2.375 1.235.55.14 1.069.274 1.393.51.317.231.6.68.9 1.154.473.748 1.009 1.596 1.925 1.894.225.073.453.104.68.104.66 0 1.32-.26 1.919-.497.517-.203 1.052-.414 1.476-.414.425 0 .96.21 1.477.415.806.317 1.718.675 2.6.392.915-.298 1.45-1.146 1.924-1.894.3-.475.583-.923.9-1.154.324-.236.844-.37 1.394-.51.85-.219 1.815-.467 2.374-1.235.554-.76.493-1.75.44-2.623-.035-.571-.068-1.11.059-1.5.117-.362.45-.763.804-1.188.57-.686 1.216-1.462 1.216-2.442 0-.98-.646-1.756-1.216-2.441-.353-.425-.687-.826-.804-1.187zm-.26 5.184c-.422.507-.858 1.03-1.057 1.646-.208.64-.165 1.338-.124 2.013.043.702.084 1.365-.177 1.724-.266.365-.944.539-1.6.707-.652.168-1.325.34-1.864.733-.531.386-.9.97-1.256 1.533-.381.604-.741 1.174-1.18 1.317-.407.132-1.019-.109-1.665-.364-.637-.25-1.297-.51-1.985-.51-.687 0-1.346.26-1.984.51-.646.255-1.257.497-1.664.364-.44-.143-.8-.713-1.18-1.317-.357-.564-.726-1.147-1.257-1.534-.538-.391-1.212-.564-1.864-.732-.656-.168-1.334-.342-1.6-.707-.26-.359-.22-1.022-.177-1.724.041-.675.084-1.373-.124-2.014-.2-.614-.635-1.138-1.056-1.645-.461-.553-.896-1.077-.896-1.555 0-.48.435-1.002.895-1.556.422-.507.857-1.031 1.057-1.646.208-.64.165-1.338.124-2.013-.043-.702-.084-1.365.177-1.723.266-.366.944-.54 1.6-.708.651-.168 1.325-.34 1.864-.733.531-.386.9-.97 1.256-1.533.381-.604.741-1.174 1.18-1.316a.842.842 0 01.263-.038c.386 0 .883.196 1.402.4.638.252 1.296.511 1.984.511s1.347-.26 1.984-.51c.647-.255 1.257-.496 1.665-.364.44.143.8.713 1.18 1.317.357.564.725 1.147 1.257 1.534.538.391 1.212.564 1.864.731.656.169 1.334.343 1.6.708.26.359.22 1.022.177 1.724-.042.675-.084 1.373.124 2.014.2.614.635 1.138 1.056 1.644.461.554.896 1.078.896 1.556 0 .48-.435 1.002-.896 1.556z"/><path d="M57.007 64.444c-4.214 0-7.642 3.428-7.642 7.642 0 4.215 3.428 7.643 7.642 7.643s7.643-3.428 7.643-7.642c0-4.215-3.429-7.643-7.643-7.643zm0 13.9a6.265 6.265 0 01-6.257-6.257 6.265 6.265 0 016.257-6.258 6.265 6.265 0 016.258 6.258 6.265 6.265 0 01-6.258 6.257z"/><path d="M59.22 69.596l-3.513 3.513-.914-.914a.692.692 0 10-.979.979l1.404 1.403a.69.69 0 00.978 0l4.003-4.002a.692.692 0 10-.979-.98z"/></g></symbol><symbol viewBox="0 0 151 60" id="loader-grey" xmlns="http://www.w3.org/2000/svg"><g mask="url(#mask0_4269_3065)"><path d="M31.459 25.795v8.91c0 4.386-1.933 8.512-8.262 8.512H8.4C3.067 43.217 0 40.362 0 34.641V7.974C0 2.124 3.002-.009 7.797-.009h15.66c6.06 0 7.992 2.995 7.992 8.975v6.185h-9.925V8.966H9.925v25.332h11.599v-8.512h9.925l.01.009zM40.726 43.217V0H50.78v17.283h1.534L62.519 0h11.524L61.645 20.807v.602l13.262 21.808H63.114L52.389 25.461H50.78v17.756H40.726zM104.367 35.17H92.638l-1.598 8.047H80.845L90.37 0h16.393l9.396 43.217h-10.195l-1.598-8.048zm-10-8.383h8.327l-3.662-18.22h-1.004l-3.661 18.22zM129.485 8.836h-10.929V0h31.988v8.836h-10.929v34.381h-10.13V8.837zM1.43 55.68c.196 0 .372.018.549.045l1.264-1.613h.845l-1.45 1.808c.214.084.4.186.568.315.167.12.306.279.436.455s.233.37.326.593c.093.223.167.473.241.742h-.845c-.075-.325-.158-.603-.27-.816a1.802 1.802 0 00-.4-.529 1.3 1.3 0 00-.548-.287 3.333 3.333 0 00-.725-.102v1.734H.66V54.12h.762v1.558h.01zM8.504 55.512c0-.296-.084-.519-.251-.667-.168-.149-.4-.223-.707-.223-.223 0-.427.037-.622.12a1.423 1.423 0 00-.493.325l-.409-.454c.177-.176.4-.315.679-.427.278-.11.585-.166.91-.166.233 0 .437.027.632.092s.363.149.493.27c.14.12.25.268.325.454.074.185.121.398.13.648v1.697c0 .149 0 .297.01.455 0 .157.018.287.037.398H8.55c-.01-.092-.019-.185-.028-.287 0-.102-.01-.195-.01-.288h-.018a1.471 1.471 0 01-.567.51c-.223.112-.474.158-.771.158-.149 0-.307-.019-.465-.065a1.387 1.387 0 01-.446-.204 1.071 1.071 0 01-.334-.37 1.132 1.132 0 01-.13-.566c0-.297.074-.529.232-.705.149-.176.353-.306.613-.399.251-.092.54-.148.865-.176.325-.028.66-.037.994-.037v-.111l.019.018zm-.158.63c-.205 0-.419 0-.632.029-.214.018-.4.055-.577.11a1.11 1.11 0 00-.427.233.51.51 0 00-.167.398c0 .121.027.223.074.306a.652.652 0 00.446.316c.102.018.195.037.297.037.186 0 .344-.028.484-.093.14-.056.26-.14.353-.25.102-.112.176-.232.223-.371.046-.14.074-.288.074-.445v-.25h-.167l.019-.02zM13.3 54.168c.287 0 .547.046.79.139.24.093.445.222.612.399.168.176.307.38.4.62.093.242.14.52.14.817 0 .297-.056.584-.159.825a1.753 1.753 0 01-.436.621c-.186.177-.4.306-.65.399-.252.093-.512.14-.79.14-.28 0-.558-.047-.79-.14a1.748 1.748 0 01-.623-.399 1.912 1.912 0 01-.419-.64 2.672 2.672 0 01-.185-.852 2.442 2.442 0 01-.02-.27v-.278a6.114 6.114 0 01.215-1.483c.12-.417.288-.77.51-1.039.224-.278.503-.482.847-.611.343-.13.743-.204 1.217-.204h1.17v.611h-1.18c-.343 0-.64.047-.873.14a1.474 1.474 0 00-.585.389c-.15.167-.27.37-.354.612-.083.241-.148.51-.186.807a1.45 1.45 0 01.567-.455c.242-.111.502-.167.781-.167m1.19 1.975c0-.194-.028-.38-.093-.538a1.313 1.313 0 00-.26-.426 1.157 1.157 0 00-.39-.278 1.241 1.241 0 00-.503-.102 1.5 1.5 0 00-.502.083c-.157.056-.297.14-.418.241-.12.112-.213.242-.288.4a1.322 1.322 0 00-.102.555c0 .204.028.4.093.566.065.176.149.325.26.445.112.12.251.223.409.288.158.064.344.102.54.102.194 0 .37-.038.529-.102a1.22 1.22 0 00.39-.288c.102-.12.186-.269.242-.426a1.56 1.56 0 00.083-.52M20.825 56.004v.278h-3.132c0 .176.046.343.111.491.065.149.158.278.279.39.112.11.251.194.409.26a1.3 1.3 0 00.492.101c.27 0 .512-.065.707-.185.195-.12.344-.26.446-.417l.548.389c-.223.288-.474.5-.753.63a2.28 2.28 0 01-.947.195c-.289 0-.558-.046-.818-.148a1.958 1.958 0 01-.65-.417 1.84 1.84 0 01-.428-.65 2.19 2.19 0 01-.158-.834c0-.306.046-.575.148-.834.103-.25.242-.473.428-.659.176-.185.39-.324.632-.426.241-.102.511-.149.8-.149.296 0 .566.047.808.149.232.102.436.24.594.417.158.176.288.39.372.63.084.242.13.501.13.789m-.743-.26c-.01-.325-.112-.603-.316-.816-.195-.213-.483-.324-.846-.324-.167 0-.325.027-.474.092a1.317 1.317 0 00-.65.612c-.066.14-.112.278-.121.427H20.1v.009zM25.42 58.025l-1.172-2.995-1.227 2.995h-.808l1.654-3.903h.78l1.571 3.903h-.799zM28.598 54.122v1.316h.947c.288 0 .54.037.735.102.204.065.362.158.492.27.13.11.214.25.279.407.056.158.084.334.084.51s-.038.353-.103.51a1.186 1.186 0 01-.297.417c-.13.121-.297.214-.492.279a2.113 2.113 0 01-.67.102h-1.747V54.13h.762l.01-.01zm0 3.328h.808c.279 0 .511-.046.688-.148.176-.102.27-.297.27-.575a.791.791 0 00-.075-.352.59.59 0 00-.205-.223.796.796 0 00-.316-.11 2.528 2.528 0 00-.39-.038h-.78v1.456-.01zM33.745 58.025h-.772v-3.903h.772v1.548h1.98v-1.548h.761v3.903h-.762v-1.743h-1.98v1.743zM41.067 55.512c0-.297-.084-.519-.251-.667-.168-.149-.4-.223-.707-.223-.223 0-.427.037-.622.12a1.425 1.425 0 00-.493.325l-.409-.454c.177-.176.4-.315.679-.427.279-.111.585-.167.91-.167.233 0 .437.028.633.093.195.065.362.148.492.269.14.12.251.269.325.454.084.186.121.4.13.65v1.696c0 .149 0 .297.01.455 0 .157.018.287.037.398h-.688l-.028-.287c0-.102-.009-.195-.009-.288h-.019a1.471 1.471 0 01-.566.51c-.224.112-.474.158-.772.158-.148 0-.306-.019-.465-.065a1.387 1.387 0 01-.446-.204 1.072 1.072 0 01-.334-.37 1.132 1.132 0 01-.13-.566c0-.297.074-.529.232-.705.149-.176.353-.306.614-.399.25-.093.538-.148.864-.176.325-.028.66-.037.994-.037v-.111l.019.018zm-.158.63c-.205 0-.418 0-.632.028-.214.02-.4.056-.576.112-.177.055-.316.13-.428.232a.51.51 0 00-.167.398c0 .12.028.223.074.306a.654.654 0 00.446.315c.102.02.195.038.298.038.185 0 .343-.028.483-.093.14-.056.26-.14.353-.25.102-.112.177-.232.223-.371.047-.14.075-.288.075-.445v-.25h-.168l.019-.02zM45.733 56.486c-.381 0-.67.13-.874.38-.204.25-.334.64-.39 1.168h-.846c.056-.473.186-.871.381-1.187.205-.315.456-.528.78-.62v-.029a1.29 1.29 0 01-.687-.26c-.186-.148-.279-.38-.279-.695 0-.195.037-.352.121-.5.084-.14.186-.25.325-.343.14-.093.307-.158.502-.204.195-.047.418-.065.65-.065h1.636v3.903H46.3v-1.539h-.567v-.01zm-1.143-1.169c0 .112.027.204.074.279a.48.48 0 00.214.167.99.99 0 00.316.074c.12.009.25.018.39.018h.725v-1.094h-.734c-.149 0-.28 0-.4.019a.93.93 0 00-.307.074.43.43 0 00-.195.167.527.527 0 00-.074.287M54.47 55.512c0-.297-.084-.519-.25-.667-.168-.149-.4-.223-.707-.223-.223 0-.428.037-.623.12a1.425 1.425 0 00-.492.325l-.41-.454c.177-.176.4-.315.68-.427.278-.111.585-.167.91-.167.232 0 .437.028.632.093s.362.148.492.269c.14.12.251.269.326.454.074.186.12.4.13.65v1.696c0 .149 0 .297.01.455 0 .157.018.287.036.398h-.688l-.027-.287c0-.102-.01-.195-.01-.288h-.018a1.471 1.471 0 01-.567.51c-.223.112-.474.158-.771.158-.15 0-.307-.019-.465-.065a1.388 1.388 0 01-.446-.204 1.072 1.072 0 01-.335-.37 1.133 1.133 0 01-.13-.566c0-.297.074-.529.232-.705.15-.176.354-.306.614-.399.25-.093.539-.148.864-.176.325-.028.66-.037.995-.037v-.111l.018.018zm-.158.63c-.204 0-.418 0-.632.028-.214.02-.4.056-.576.112-.177.055-.316.13-.428.232a.51.51 0 00-.167.398c0 .12.028.223.075.306a.651.651 0 00.446.315c.102.02.195.038.297.038.186 0 .344-.028.483-.093.14-.056.26-.14.353-.25.103-.112.177-.232.223-.371.047-.14.075-.288.075-.445v-.25h-.167l.018-.02zM58.105 60h-.762V54.12h.743v.622h.028c.149-.232.353-.408.614-.538.25-.13.52-.186.808-.186.288 0 .567.056.809.158.241.102.455.25.622.436.177.185.307.408.4.649.093.25.14.52.14.797 0 .278-.047.557-.14.798-.093.25-.223.463-.4.649a2.008 2.008 0 01-.622.445 1.953 1.953 0 01-1.599-.01 1.45 1.45 0 01-.604-.528h-.028v2.568l-.01.019zm2.62-3.931c0-.195-.027-.371-.083-.547a1.235 1.235 0 00-.26-.455 1.166 1.166 0 00-.418-.306 1.373 1.373 0 00-.567-.111 1.29 1.29 0 00-.976.417c-.121.13-.214.278-.279.455a1.558 1.558 0 000 1.113 1.334 1.334 0 00.706.76c.168.074.354.11.549.11.213 0 .4-.036.567-.11.167-.075.306-.177.418-.306.111-.13.204-.279.26-.455.056-.176.084-.352.084-.547M64.06 54.122l1.608 1.9 1.58-1.9h.66v3.903h-.771v-2.819L65.77 56.95h-.223l-1.376-1.716v2.791h-.762v-3.903h.65zM72.49 55.512c0-.297-.083-.519-.25-.667-.168-.149-.4-.223-.707-.223-.223 0-.427.037-.622.12a1.425 1.425 0 00-.493.325l-.409-.454c.177-.176.4-.315.679-.427.278-.111.585-.167.91-.167.233 0 .437.028.632.093s.363.148.493.269c.14.12.25.269.325.454.084.186.121.4.13.65v1.696c0 .149 0 .297.01.455 0 .157.018.287.037.398h-.688l-.028-.287c0-.102-.01-.195-.01-.288h-.018a1.471 1.471 0 01-.567.51c-.223.112-.474.158-.771.158-.149 0-.307-.019-.465-.065a1.386 1.386 0 01-.446-.204 1.072 1.072 0 01-.334-.37 1.132 1.132 0 01-.13-.566c0-.297.074-.529.232-.705.149-.176.353-.306.613-.399.251-.093.54-.148.865-.176.325-.028.66-.037.994-.037v-.111l.019.018zm-.157.63c-.205 0-.419 0-.632.028-.214.02-.4.056-.577.112-.176.055-.316.13-.427.232a.51.51 0 00-.167.398c0 .12.028.223.074.306a.654.654 0 00.446.315c.102.02.195.038.297.038.186 0 .344-.028.484-.093.14-.056.26-.14.353-.25.102-.112.177-.232.223-.371.046-.14.074-.288.074-.445v-.25h-.167l.019-.02zM74.774 54.122h3.439v.611h-1.375v3.292h-.762v-3.291h-1.302v-.612zM81.292 57.21h.028l1.097-3.088h.827l-1.72 4.348c-.093.223-.176.427-.26.612a2.361 2.361 0 01-.288.482c-.111.14-.242.241-.4.316a1.373 1.373 0 01-.585.11c-.093 0-.186 0-.288-.018-.102-.009-.195-.028-.279-.037l.084-.667.195.055c.074.01.149.019.223.019.195 0 .344-.056.446-.167.112-.111.195-.269.279-.482l.27-.686-1.664-3.885h.846l1.198 3.087h-.009zM85.591 60h-.762V54.12h.744v.622h.028c.148-.232.353-.408.613-.538.25-.13.52-.186.808-.186.288 0 .567.056.809.158.242.102.455.25.623.436.176.185.306.408.4.649.092.25.139.52.139.797 0 .278-.047.557-.14.798-.093.25-.223.463-.4.649a2.008 2.008 0 01-.622.445 1.953 1.953 0 01-1.599-.01 1.45 1.45 0 01-.604-.528H85.6v2.568l-.009.019zm2.62-3.931c0-.195-.027-.371-.083-.547a1.235 1.235 0 00-.26-.455 1.165 1.165 0 00-.418-.306 1.374 1.374 0 00-.567-.111 1.289 1.289 0 00-.976.417c-.12.13-.214.278-.279.455a1.558 1.558 0 000 1.113 1.332 1.332 0 00.707.76c.167.074.353.11.548.11.214 0 .4-.036.567-.11.167-.075.306-.177.418-.306.112-.13.205-.279.26-.455.056-.176.084-.352.084-.547M93.344 55.512c0-.296-.084-.519-.251-.667-.167-.149-.4-.223-.706-.223-.223 0-.428.037-.623.12a1.424 1.424 0 00-.493.325l-.409-.454c.177-.176.4-.315.679-.427.279-.11.585-.166.91-.166.233 0 .438.027.633.092s.362.149.501.27c.14.12.251.268.326.454.083.185.12.398.13.648v1.697c0 .149 0 .297.01.455 0 .157.018.287.036.398H93.4c-.01-.092-.019-.185-.028-.287 0-.102-.01-.195-.01-.288h-.018a1.47 1.47 0 01-.567.51c-.223.112-.474.158-.771.158-.15 0-.307-.019-.465-.065a1.387 1.387 0 01-.446-.204 1.172 1.172 0 01-.335-.37c-.093-.149-.13-.334-.13-.566 0-.297.075-.529.233-.705.148-.176.353-.306.613-.399.25-.092.539-.148.864-.176a11.7 11.7 0 01.995-.037v-.111l.009.018zm-.158.63c-.205 0-.418 0-.632.029-.214.018-.4.055-.576.11a1.11 1.11 0 00-.428.233.51.51 0 00-.167.398c0 .121.028.223.074.306a.651.651 0 00.446.316c.103.018.195.037.298.037.176 0 .344-.028.483-.093a.98.98 0 00.362-.25 1.36 1.36 0 00.223-.371c.047-.14.075-.288.075-.445v-.25h-.167l.009-.02zM101.513 58.025h-.79v-4.84l-1.106.918-.465-.547 1.645-1.335h.716v5.804zM107.228 58.025h-.789v-4.84l-1.106.918-.465-.547 1.654-1.335h.706v5.804zM112.283 52.072c.344 0 .642.084.892.241.251.158.456.38.614.65.158.278.279.602.353.973.074.371.112.77.112 1.187 0 .417-.038.825-.112 1.196-.074.37-.195.695-.353.964a1.875 1.875 0 01-.614.65c-.25.157-.548.24-.892.24s-.641-.083-.901-.24a1.985 1.985 0 01-.623-.65 3.566 3.566 0 01-.362-.964 6.034 6.034 0 01-.112-1.196c0-.427.037-.816.112-1.187.074-.37.195-.695.362-.974a1.82 1.82 0 01.623-.649c.251-.157.548-.24.901-.24zm0 .668a.8.8 0 00-.595.232 1.794 1.794 0 00-.362.593c-.084.241-.139.5-.177.78a8.196 8.196 0 00-.046.787c0 .25.019.51.046.788.038.279.093.538.177.77.084.232.204.436.362.584a.8.8 0 00.595.232c.242 0 .428-.074.576-.232a1.67 1.67 0 00.354-.584c.093-.232.148-.491.185-.77a5.73 5.73 0 00.047-.788c0-.25-.019-.51-.047-.788a3.398 3.398 0 00-.185-.779 1.63 1.63 0 00-.354-.593.755.755 0 00-.576-.232zM117.824 55.707h-1.905v.65h1.905v-.65zM123.037 52.925h-2.407l-.047 1.521a2.721 2.721 0 01.753-.111c.279 0 .539.046.781.13a1.712 1.712 0 011.022.936c.102.232.149.482.149.76 0 .306-.047.584-.158.835a2 2 0 01-.428.63 1.75 1.75 0 01-.641.4 2.243 2.243 0 01-.809.138c-.455 0-.836-.102-1.152-.315a1.93 1.93 0 01-.706-.853l.724-.288c.093.232.242.427.437.566.205.14.437.213.697.213.168 0 .326-.028.474-.092.149-.065.279-.149.391-.25.111-.112.195-.242.26-.39.065-.158.093-.325.093-.51a1.37 1.37 0 00-.112-.575 1.175 1.175 0 00-.297-.399 1.411 1.411 0 00-.437-.232 1.91 1.91 0 00-.52-.074c-.223 0-.447.028-.679.093-.232.065-.437.14-.613.232l.083-3.088h3.142v.723zM127.172 52.072c.344 0 .641.084.892.241.251.158.456.38.614.65.158.278.279.602.353.973.074.37.111.77.111 1.187 0 .417-.037.825-.111 1.196-.074.37-.195.695-.353.964a1.876 1.876 0 01-.614.65 1.643 1.643 0 01-.892.24c-.344 0-.641-.083-.901-.24a1.985 1.985 0 01-.623-.65 3.567 3.567 0 01-.362-.964 6.034 6.034 0 01-.112-1.196c0-.427.037-.816.112-1.187.074-.37.195-.695.362-.974a1.82 1.82 0 01.623-.649c.251-.157.548-.24.901-.24zm0 .668a.8.8 0 00-.595.232 1.796 1.796 0 00-.362.593c-.084.241-.139.5-.177.779a7.89 7.89 0 00-.046.788c0 .25.018.51.046.788.038.278.093.538.177.77.084.232.204.436.362.584a.8.8 0 00.595.232c.242 0 .428-.074.576-.232a1.67 1.67 0 00.354-.584c.092-.232.148-.492.185-.77a5.73 5.73 0 00.047-.788c0-.25-.019-.51-.047-.788a3.451 3.451 0 00-.185-.779 1.631 1.631 0 00-.354-.593.755.755 0 00-.576-.232zM132.897 52.072c.343 0 .641.084.892.241.251.158.455.38.613.65.158.278.279.602.353.973.075.371.112.77.112 1.187a6.1 6.1 0 01-.112 1.196c-.074.37-.195.695-.353.964a1.882 1.882 0 01-.613.65 1.646 1.646 0 01-.892.24c-.344 0-.642-.083-.902-.24a1.995 1.995 0 01-.623-.65 3.6 3.6 0 01-.362-.964 6.11 6.11 0 01-.112-1.196c0-.427.038-.816.112-1.187.074-.37.195-.695.362-.974a1.82 1.82 0 01.623-.649c.251-.157.548-.24.902-.24zm0 .668a.8.8 0 00-.595.232 1.78 1.78 0 00-.363.593c-.083.241-.139.5-.176.78a7.898 7.898 0 00-.047.787c0 .25.019.51.047.788.037.279.093.538.176.77.084.232.205.436.363.584a.8.8 0 00.595.232.745.745 0 00.576-.232c.148-.158.269-.352.353-.584.093-.232.149-.491.186-.77.037-.278.046-.538.046-.788s-.018-.51-.046-.788a3.399 3.399 0 00-.186-.779 1.642 1.642 0 00-.353-.593.758.758 0 00-.576-.232zM140.464 55.68c.195 0 .372.018.549.045l1.263-1.613h.846l-1.45 1.808c.214.084.4.186.567.315.168.12.307.279.437.455s.232.37.325.593c.093.223.168.473.242.742h-.846c-.074-.325-.158-.603-.269-.816a1.811 1.811 0 00-.4-.529 1.297 1.297 0 00-.548-.287 3.246 3.246 0 00-.716-.102v1.734h-.762V54.12h.762v1.558zM145.163 52.22h1.887c.223 0 .446.029.669.066.223.046.427.13.613.24.186.112.325.27.446.455.112.195.177.436.177.723 0 .316-.093.584-.279.807a1.4 1.4 0 01-.734.454v.019c.186.018.362.065.511.148.158.074.297.167.409.288.111.12.204.26.269.426.065.167.103.352.103.556 0 .26-.056.492-.158.696-.103.204-.261.37-.456.51a2.18 2.18 0 01-.697.315 3.296 3.296 0 01-.883.102h-1.877v-5.814.01zm.79 2.486h1.078c.139 0 .27-.019.409-.047a.917.917 0 00.362-.157.831.831 0 00.251-.288.878.878 0 00.103-.426.817.817 0 00-.093-.418.771.771 0 00-.27-.278 1.166 1.166 0 00-.399-.157 2.715 2.715 0 00-.502-.047h-.939v1.827-.01zm0 2.66h1.022c.186 0 .363-.018.539-.055a1.46 1.46 0 00.465-.176.958.958 0 00.325-.315.943.943 0 00.121-.483c0-.343-.121-.602-.362-.76-.242-.157-.577-.25-1.004-.25h-1.097v2.04h-.009z"/></g></symbol><symbol viewBox="0 0 101 40" id="logo" xmlns="http://www.w3.org/2000/svg"><mask id="aoa" style="mask-type:luminance" maskUnits="userSpaceOnUse" x="0" y="0" width="101" height="40"><path d="M100.364 0H0v40h100.364V0z" fill="#fff"/></mask><g mask="url(#aoa)"><path d="M20.972 17.197v5.94c0 2.924-1.288 5.675-5.508 5.675H5.601C2.045 28.812 0 26.908 0 23.094V5.316c0-3.9 2.001-5.322 5.198-5.322h10.44c4.04 0 5.328 1.996 5.328 5.983V10.1H14.35V5.977H6.617v16.888h7.732v-5.674h6.617l.006.006zM27.15 28.812V0h6.704v11.522h1.022L41.68 0h7.683l-8.265 13.871v.402l8.841 14.539h-7.862l-7.15-11.838h-1.072v11.838H27.15zM69.578 23.446h-7.82l-1.065 5.366h-6.796L60.247 0h10.93l6.263 28.812h-6.797l-1.065-5.366zm-6.667-5.588h5.552L66.02 5.712h-.669l-2.44 12.146zM86.323 5.89h-7.286V0h21.326v5.89h-7.287v22.922h-6.753V5.89zM.954 37.12c.13 0 .248.012.365.03l.843-1.075h.564l-.967 1.205c.143.056.267.124.378.21.112.08.205.186.291.303.087.118.155.247.217.396.062.148.112.315.161.494h-.564a2.33 2.33 0 00-.18-.544 1.2 1.2 0 00-.266-.352.865.865 0 00-.365-.192 2.226 2.226 0 00-.483-.068v1.156H.439v-2.602h.509v1.038h.006zM5.669 37.008c0-.198-.056-.346-.167-.445-.112-.099-.267-.148-.471-.148-.149 0-.285.025-.415.08a.95.95 0 00-.329.216l-.272-.302c.117-.118.266-.21.452-.285a1.63 1.63 0 011.028-.05c.13.044.242.1.329.18.093.08.167.18.217.303.05.123.08.266.086.433v1.131c0 .099 0 .198.007.303 0 .105.012.191.024.266H5.7l-.019-.192c0-.068-.006-.13-.006-.192h-.012a.98.98 0 01-.378.34 1.124 1.124 0 01-.515.105c-.099 0-.204-.012-.31-.043a.922.922 0 01-.297-.136.714.714 0 01-.31-.624c0-.198.05-.353.155-.47a.925.925 0 01.41-.266c.167-.062.359-.099.576-.117.216-.019.44-.025.662-.025v-.074l.013.012zm-.105.42c-.137 0-.28 0-.422.019a1.765 1.765 0 00-.384.074.74.74 0 00-.285.155.34.34 0 00-.111.265c0 .08.018.149.05.204a.435.435 0 00.297.21c.068.013.13.025.198.025.124 0 .229-.018.322-.061a.585.585 0 00.235-.167.678.678 0 00.15-.248.932.932 0 00.049-.296v-.167H5.55l.013-.013zM8.866 36.112c.192 0 .366.03.527.093.16.061.297.148.409.265.111.118.204.254.266.415.062.16.093.346.093.544 0 .197-.037.389-.105.55-.069.16-.168.303-.292.414a1.242 1.242 0 01-.433.266c-.168.062-.341.092-.527.092s-.372-.03-.527-.092a1.165 1.165 0 01-.415-.266 1.274 1.274 0 01-.278-.427 1.782 1.782 0 01-.124-.568 1.627 1.627 0 01-.013-.18v-.185c.013-.377.062-.71.143-.99.08-.277.192-.512.34-.691a1.29 1.29 0 01.564-.408c.23-.087.496-.136.812-.136h.78v.408H9.3c-.23 0-.428.03-.583.092a.984.984 0 00-.39.26c-.1.111-.18.247-.235.408-.056.16-.1.34-.124.538a.967.967 0 01.378-.303c.16-.074.334-.111.52-.111m.793 1.316a.947.947 0 00-.235-.643.77.77 0 00-.26-.185.828.828 0 00-.335-.068 1 1 0 00-.335.055.889.889 0 00-.278.161.838.838 0 00-.193.266.881.881 0 00-.068.37c0 .137.019.267.062.378.044.117.1.216.174.297.074.08.167.148.272.191a.953.953 0 00.713 0 .814.814 0 00.26-.191.917.917 0 00.161-.285 1.04 1.04 0 00.056-.346M13.883 37.336v.185h-2.088a.818.818 0 00.26.587.82.82 0 00.273.174.89.89 0 00.8-.056c.13-.08.229-.173.297-.278l.365.26a1.384 1.384 0 01-.502.42c-.192.086-.402.13-.632.13a1.47 1.47 0 01-.545-.1 1.306 1.306 0 01-.434-.278 1.227 1.227 0 01-.285-.432 1.46 1.46 0 01-.105-.557c0-.204.031-.383.1-.556.067-.167.16-.315.284-.439.118-.123.26-.216.421-.284.162-.068.341-.1.533-.1.199 0 .378.032.54.1a1.147 1.147 0 01.644.698c.056.161.087.334.087.526m-.496-.173a.793.793 0 00-.21-.544c-.13-.142-.323-.217-.565-.217a.778.778 0 00-.316.062.875.875 0 00-.434.408.784.784 0 00-.08.285H13.4v.006zM16.946 38.684l-.78-1.997-.818 1.997h-.54l1.103-2.603h.52l1.048 2.603h-.533zM19.065 36.081v.878h.632c.192 0 .36.025.49.068a.924.924 0 01.328.18.69.69 0 01.186.271c.037.105.055.223.055.34a.9.9 0 01-.068.34.792.792 0 01-.198.278.891.891 0 01-.328.186c-.13.043-.28.068-.446.068H18.55v-2.603h.508l.006-.006zm0 2.22h.539c.186 0 .34-.032.459-.1.117-.068.18-.197.18-.383a.527.527 0 00-.05-.235.392.392 0 00-.137-.148.532.532 0 00-.21-.074 1.7 1.7 0 00-.26-.025h-.521v.97-.006zM22.497 38.684h-.515V36.08h.515v1.032h1.32v-1.032h.507v2.603h-.508v-1.162h-1.32v1.162zM27.378 37.008c0-.198-.056-.346-.167-.445-.112-.099-.267-.148-.471-.148-.149 0-.285.025-.415.08a.95.95 0 00-.329.216l-.272-.302c.117-.118.266-.21.452-.285a1.63 1.63 0 011.028-.05c.13.044.242.1.329.18.093.08.167.18.217.303.055.123.08.266.086.433v1.131c0 .099 0 .198.007.303 0 .105.012.191.024.266h-.458l-.019-.192c0-.068-.006-.13-.006-.192h-.012a.98.98 0 01-.378.34 1.124 1.124 0 01-.514.105c-.1 0-.205-.012-.31-.043a.922.922 0 01-.298-.136.714.714 0 01-.31-.624c0-.198.05-.353.155-.47a.925.925 0 01.41-.266c.167-.062.359-.099.576-.117a7.8 7.8 0 01.662-.025v-.074l.013.012zm-.105.42c-.137 0-.28 0-.422.019a1.765 1.765 0 00-.384.074.739.739 0 00-.285.155.34.34 0 00-.111.265c0 .08.018.149.05.204a.435.435 0 00.297.21c.068.013.13.025.198.025.124 0 .229-.018.322-.061a.585.585 0 00.235-.167.679.679 0 00.15-.248.932.932 0 00.049-.296v-.167h-.112l.012-.013zM30.488 37.657c-.254 0-.446.087-.582.254-.136.166-.223.426-.26.778h-.564c.037-.315.124-.58.254-.79.136-.211.304-.353.52-.415v-.019a.86.86 0 01-.458-.173c-.124-.099-.186-.253-.186-.463a.65.65 0 01.08-.334.695.695 0 01.217-.229c.093-.061.205-.105.335-.136.13-.03.279-.043.434-.043h1.09v2.602h-.502v-1.026h-.378v-.006zm-.762-.779c0 .074.019.136.05.186a.32.32 0 00.142.111c.056.025.13.043.211.05.08.006.167.012.26.012h.484v-.73h-.49c-.099 0-.186 0-.266.013a.622.622 0 00-.205.05.286.286 0 00-.13.11.351.351 0 00-.05.192M36.313 37.008c0-.198-.055-.346-.167-.445-.111-.099-.266-.148-.47-.148-.15 0-.286.025-.416.08a.949.949 0 00-.328.216l-.273-.302c.118-.118.267-.21.452-.285a1.63 1.63 0 011.029-.05c.13.044.242.1.328.18.093.08.168.18.217.303.05.123.08.266.087.433v1.131c0 .099 0 .198.006.303 0 .105.012.191.025.266h-.459l-.018-.192c0-.068-.006-.13-.006-.192h-.013a.98.98 0 01-.378.34 1.124 1.124 0 01-.514.105c-.1 0-.204-.012-.31-.043a.923.923 0 01-.297-.136.715.715 0 01-.31-.624c0-.198.05-.353.155-.47a.926.926 0 01.409-.266c.167-.062.36-.099.576-.117a7.8 7.8 0 01.663-.025v-.074l.012.012zm-.105.42c-.136 0-.279 0-.421.019a1.765 1.765 0 00-.384.074.74.74 0 00-.285.155.34.34 0 00-.112.265c0 .08.019.149.05.204a.433.433 0 00.297.21c.068.013.13.025.198.025.124 0 .23-.018.322-.061a.585.585 0 00.236-.167.678.678 0 00.149-.248.932.932 0 00.05-.296v-.167h-.112l.012-.013zM38.737 40h-.509v-3.92h.496v.415h.019c.099-.154.235-.272.409-.358a1.15 1.15 0 01.539-.124c.192 0 .378.037.539.105.16.068.303.167.415.29.118.124.204.273.266.433.062.167.093.346.093.532a1.5 1.5 0 01-.093.532 1.24 1.24 0 01-.266.432 1.339 1.339 0 01-.415.297 1.303 1.303 0 01-1.066-.006.966.966 0 01-.403-.353h-.018v1.713l-.006.012zm1.747-2.621c0-.13-.019-.247-.056-.365a.824.824 0 00-.452-.507.915.915 0 00-.378-.074.86.86 0 00-.65.278 1.013 1.013 0 00-.254.674c0 .136.024.254.067.371a.888.888 0 00.471.507.9.9 0 00.366.074.917.917 0 00.378-.074.777.777 0 00.279-.204.861.861 0 00.173-.303c.037-.117.056-.235.056-.365M42.707 36.081l1.072 1.267 1.053-1.267h.44v2.602h-.514v-1.879l-.91 1.162h-.15l-.916-1.143v1.86h-.509v-2.602h.434zM48.327 37.008c0-.198-.056-.346-.167-.445-.112-.099-.267-.148-.471-.148-.149 0-.285.025-.415.08a.95.95 0 00-.329.216l-.272-.302c.117-.118.266-.21.452-.285a1.63 1.63 0 011.029-.05c.13.044.241.1.328.18.093.08.167.18.217.303.056.123.08.266.087.433v1.131c0 .099 0 .198.006.303 0 .105.012.191.024.266h-.458l-.019-.192c0-.068-.006-.13-.006-.192h-.012a.98.98 0 01-.378.34 1.124 1.124 0 01-.514.105c-.1 0-.205-.012-.31-.043a.922.922 0 01-.297-.136.715.715 0 01-.31-.624c0-.198.05-.353.155-.47a.925.925 0 01.408-.266c.168-.062.36-.099.577-.117a7.8 7.8 0 01.663-.025v-.074l.012.012zm-.105.42c-.137 0-.28 0-.422.019a1.765 1.765 0 00-.384.074.739.739 0 00-.285.155.34.34 0 00-.111.265c0 .08.018.149.05.204a.435.435 0 00.297.21c.068.013.13.025.198.025.124 0 .23-.018.322-.061a.585.585 0 00.236-.167.679.679 0 00.148-.248.932.932 0 00.05-.296v-.167h-.112l.013-.013zM49.85 36.081h2.292v.408h-.917v2.194h-.508V36.49h-.867v-.408zM54.195 38.14h.018l.731-2.059h.552l-1.146 2.9c-.062.148-.118.283-.174.407a1.58 1.58 0 01-.192.322.731.731 0 01-.266.21.915.915 0 01-.39.074c-.063 0-.125 0-.193-.013-.068-.006-.13-.018-.186-.024l.056-.445.13.037c.05.006.1.012.149.012.13 0 .23-.037.297-.111a.916.916 0 00.186-.322l.18-.457-1.11-2.59h.565l.799 2.058h-.006zM57.06 40h-.507v-3.92h.495v.415h.019c.1-.154.235-.272.409-.358a1.15 1.15 0 01.539-.124c.192 0 .378.037.539.105.161.068.303.167.415.29.118.124.204.273.267.433.061.167.092.346.092.532a1.5 1.5 0 01-.093.532 1.24 1.24 0 01-.266.432 1.339 1.339 0 01-.415.297 1.303 1.303 0 01-1.066-.006.966.966 0 01-.402-.353h-.019v1.713l-.006.012zm1.748-2.621c0-.13-.019-.247-.056-.365a.824.824 0 00-.452-.507.915.915 0 00-.378-.074.86.86 0 00-.65.278 1.013 1.013 0 00-.254.674c0 .136.024.254.068.371a.888.888 0 00.47.507.9.9 0 00.366.074.917.917 0 00.378-.074.777.777 0 00.279-.204.861.861 0 00.173-.303c.037-.117.056-.235.056-.365M62.23 37.008c0-.198-.057-.346-.168-.445-.112-.099-.267-.148-.471-.148-.149 0-.285.025-.415.08a.95.95 0 00-.329.216l-.272-.302c.117-.118.266-.21.452-.285a1.63 1.63 0 011.029-.05c.13.044.241.1.334.18.093.08.167.18.217.303.056.123.08.266.087.433v1.131c0 .099 0 .198.006.303 0 .105.012.191.025.266h-.459l-.018-.192c0-.068-.006-.13-.006-.192h-.013a.98.98 0 01-.378.34 1.124 1.124 0 01-.514.105c-.1 0-.205-.012-.31-.043a.922.922 0 01-.297-.136.78.78 0 01-.223-.247.694.694 0 01-.087-.377c0-.198.05-.353.155-.47a.925.925 0 01.409-.266c.167-.062.36-.099.576-.117a7.8 7.8 0 01.663-.025v-.074l.006.012zm-.106.42c-.137 0-.28 0-.422.019a1.765 1.765 0 00-.384.074.739.739 0 00-.285.155.34.34 0 00-.111.265c0 .08.018.149.05.204a.435.435 0 00.297.21c.068.013.13.025.198.025a.768.768 0 00.564-.228.907.907 0 00.148-.248.932.932 0 00.05-.296v-.167h-.111l.006-.013zM67.675 38.683h-.526v-3.226l-.738.612-.31-.365 1.097-.89h.477v3.87zM71.486 38.683h-.527v-3.226l-.737.612-.31-.365 1.103-.89h.47v3.87zM74.856 34.715c.229 0 .427.055.594.16.168.106.304.254.41.433.105.186.185.402.235.65.05.247.074.512.074.79 0 .279-.025.55-.074.798-.05.247-.13.464-.236.643a1.25 1.25 0 01-.409.432c-.167.106-.365.161-.594.161-.23 0-.428-.055-.602-.16a1.326 1.326 0 01-.415-.433 2.39 2.39 0 01-.241-.643 4.052 4.052 0 01-.075-.797c0-.285.025-.544.075-.792.05-.247.13-.463.241-.649.106-.185.248-.327.415-.432.168-.105.366-.161.602-.161zm0 .445a.533.533 0 00-.397.154c-.1.105-.18.235-.242.396-.055.16-.093.334-.117.52-.019.185-.031.358-.031.525 0 .167.012.34.03.525.025.186.063.359.118.513.056.155.137.29.242.39a.533.533 0 00.397.154c.16 0 .285-.05.384-.154.099-.105.18-.235.235-.39.062-.154.1-.327.124-.513.025-.185.031-.358.031-.525 0-.167-.012-.34-.031-.526a2.277 2.277 0 00-.124-.519 1.085 1.085 0 00-.235-.396.505.505 0 00-.384-.154zM78.55 37.138h-1.27v.433h1.27v-.433zM82.024 35.283H80.42l-.031 1.014a1.816 1.816 0 01.502-.074c.185 0 .359.031.52.087a1.12 1.12 0 01.682.624c.068.155.099.321.099.507a1.329 1.329 0 01-.39.977c-.118.117-.26.203-.428.265-.161.062-.34.093-.54.093-.303 0-.557-.068-.767-.21a1.287 1.287 0 01-.471-.569l.483-.191a.842.842 0 00.291.377.809.809 0 00.465.142.778.778 0 00.316-.062.938.938 0 00.26-.167.83.83 0 00.174-.26.873.873 0 00.062-.34.92.92 0 00-.075-.383.788.788 0 00-.198-.266.939.939 0 00-.291-.154 1.273 1.273 0 00-.347-.05c-.149 0-.298.019-.453.062a2.086 2.086 0 00-.409.155l.056-2.059h2.094v.482zM84.781 34.715c.23 0 .428.055.595.16.167.106.304.254.409.433.105.186.186.402.235.65.05.247.075.512.075.79 0 .279-.025.55-.075.798-.05.247-.13.464-.235.643a1.25 1.25 0 01-.409.432c-.167.106-.366.161-.595.161-.229 0-.427-.055-.6-.16a1.325 1.325 0 01-.416-.433 2.39 2.39 0 01-.241-.643 4.052 4.052 0 01-.075-.797c0-.285.025-.544.075-.792.05-.247.13-.463.241-.649.106-.185.248-.327.415-.432.168-.105.366-.161.601-.161zm0 .445a.533.533 0 00-.396.154c-.1.105-.18.235-.242.396-.056.16-.093.334-.118.52a5.282 5.282 0 00-.03.525c0 .167.012.34.03.525.025.186.062.359.118.513.056.155.136.29.242.39a.533.533 0 00.396.154c.161 0 .285-.05.384-.154.1-.105.18-.235.236-.39.062-.154.099-.327.124-.513.024-.185.03-.358.03-.525 0-.167-.012-.34-.03-.526a2.277 2.277 0 00-.124-.519 1.086 1.086 0 00-.236-.396.505.505 0 00-.384-.154zM88.598 34.715c.229 0 .427.055.594.16.168.106.304.254.41.433.105.186.185.402.235.65.05.247.074.512.074.79 0 .279-.025.55-.074.798-.05.247-.13.464-.236.643a1.25 1.25 0 01-.409.432c-.167.106-.365.161-.594.161-.23 0-.428-.055-.601-.16a1.325 1.325 0 01-.415-.433 2.39 2.39 0 01-.242-.643 4.052 4.052 0 01-.074-.797c0-.285.024-.544.074-.792.05-.247.13-.463.242-.649.105-.185.247-.327.415-.432.167-.105.365-.161.6-.161zm0 .445a.533.533 0 00-.397.154c-.099.105-.18.235-.241.396-.056.16-.093.334-.118.52a5.282 5.282 0 00-.031.525c0 .167.012.34.03.525.026.186.063.359.119.513.055.155.136.29.241.39a.533.533 0 00.397.154c.16 0 .285-.05.384-.154.099-.105.18-.235.235-.39.062-.154.1-.327.124-.513.025-.185.031-.358.031-.525 0-.167-.012-.34-.03-.526a2.277 2.277 0 00-.125-.519 1.086 1.086 0 00-.235-.396.505.505 0 00-.384-.154zM93.643 37.12c.13 0 .248.012.365.03l.843-1.075h.564l-.967 1.205c.143.056.267.124.378.21.112.08.205.186.291.303.087.118.155.247.217.396.062.148.112.315.161.494h-.564a2.33 2.33 0 00-.18-.544 1.2 1.2 0 00-.266-.352.865.865 0 00-.365-.192 2.167 2.167 0 00-.477-.068v1.156h-.508v-2.602h.508v1.038zM96.775 34.814h1.258c.149 0 .297.018.446.043.149.031.285.087.41.16.123.075.216.18.297.304.074.13.117.29.117.482 0 .21-.062.39-.186.538a.933.933 0 01-.49.303v.012a.873.873 0 01.342.099.866.866 0 01.452.476c.043.111.068.235.068.37 0 .174-.037.328-.105.464a.937.937 0 01-.304.34c-.13.093-.285.16-.465.21a2.2 2.2 0 01-.588.068h-1.252v-3.875.006zm.527 1.656h.719c.093 0 .18-.012.272-.03a.611.611 0 00.242-.106.56.56 0 00.167-.191.586.586 0 00.068-.285.545.545 0 00-.061-.278.514.514 0 00-.18-.185.774.774 0 00-.267-.105 1.81 1.81 0 00-.334-.031h-.626v1.218-.007zm0 1.775h.682c.124 0 .241-.013.359-.038a.978.978 0 00.31-.117.642.642 0 00.216-.21.633.633 0 00.081-.322c0-.228-.08-.401-.242-.507-.16-.105-.384-.166-.669-.166h-.73v1.36h-.007z"/></g></symbol><symbol fill="none" viewBox="0 0 31 38" id="mark" xmlns="http://www.w3.org/2000/svg"><g stroke="#fff"><path d="M9 25.5l-3 8.75 3.429-.458L12 37l3-8.25M21 25.5l3 8.75-3.429-.458L18 37l-3-8.25M11.385 15.066l2.92 2.96 5.618-5.693"/><path d="M12.776 2.958a3.5 3.5 0 014.807 0l.664.627a4.5 4.5 0 002.962 1.227l.913.026a3.5 3.5 0 013.399 3.399l.026.913a4.5 4.5 0 001.227 2.962l.627.664a3.5 3.5 0 010 4.807l-.627.664a4.5 4.5 0 00-1.227 2.962l-.026.913a3.5 3.5 0 01-3.399 3.399l-.913.026a4.5 4.5 0 00-2.962 1.227l-.664.627a3.5 3.5 0 01-4.807 0l-.664-.627a4.5 4.5 0 00-2.962-1.227l-.913-.026a3.5 3.5 0 01-3.399-3.399l-.026-.913a4.5 4.5 0 00-1.227-2.962l-.627-.664a3.5 3.5 0 010-4.807l.627-.664A4.5 4.5 0 004.812 9.15l.026-.913a3.5 3.5 0 013.399-3.399l.913-.026a4.5 4.5 0 002.962-1.227l.664-.627z"/><circle cx="15" cy="15" r="8.5"/></g></symbol><symbol fill="none" viewBox="0 0 16 16" id="mob-burger" xmlns="http://www.w3.org/2000/svg"><g clip-path="url(#aqclip0_4262_9731)" stroke="#fff" stroke-linecap="square" stroke-linejoin="round"><path d="M0 6h16M0 10h16"/></g><defs><clipPath id="aqclip0_4262_9731"><path fill="#fff" d="M0 0h16v16H0z"/></clipPath></defs></symbol><symbol fill="none" viewBox="0 0 16 16" id="mob-close" xmlns="http://www.w3.org/2000/svg"><path d="M3 3l10 10M3 13L13 3" stroke="#FAFAFA" stroke-linejoin="round"/></symbol><symbol viewBox="0 0 24 24" fill="none" id="next-ar" xmlns="http://www.w3.org/2000/svg"><path d="M4.928 12H19.07M11.999 4.93l7.07 7.07L12 19.071" stroke-linecap="round" stroke-linejoin="round"/></symbol><symbol viewBox="0 0 16 16" fill="none" id="pdf" xmlns="http://www.w3.org/2000/svg"><rect x="1.094" y="1.094" width="13.813" height="13.813" rx="2" fill="#EB1E3D"/><path d="M4.65 12.406a.637.637 0 01-.557-.365 1.04 1.04 0 01.035-1.037c.418-.648 1.234-1.19 2.36-1.574l.038-.013.017-.035c.38-.759.71-1.539.997-2.34l.017-.044-.024-.042a4.265 4.265 0 01-.478-.992C6.693 4.777 7 3.85 7.505 3.642a.649.649 0 01.244-.048.67.67 0 01.435.17c.112.101.206.216.276.348.22.4.111 1.333-.304 2.632-.007.024-.017.048-.024.073l-.024.076-.01.045.024.039.024.035.02.03c.46.638.97 1.24 1.52 1.797l.028.031h.369c.16 0 .304 0 .429.01 1.133.067 1.871.338 2.084.766.097.213.08.46-.039.661a.96.96 0 01-.72.505c-.043.007-.084.007-.123.007-.38 0-.836-.212-1.286-.595l-.017-.014s-.028-.028-.07-.066c-.14-.125-.425-.39-.79-.755l-.032-.032h-.045a9.364 9.364 0 00-1.248.136c-.45.07-.892.17-1.328.303l-.041.01-.021.039c-.188.375-.394.737-.61 1.079-.627.998-1.143 1.482-1.575 1.482zm1.255-2.224c-.637.303-1.1.665-1.373 1.086a.59.59 0 00-.083.282c0 .077.017.153.052.22.045.1.101.149.157.149h.007c.062-.007.425-.108 1.17-1.295.067-.1.133-.202.192-.303l.168-.278-.29.14zm4.83-.33c.14.128.62.49.993.49h.056a.496.496 0 00.355-.271.245.245 0 00.021-.209c-.09-.202-.648-.438-1.676-.498h-.275l.286.268c.143.133.202.195.244.223l-.004-.003zM7.822 7.655a22.95 22.95 0 01-.596 1.396l-.084.185.202-.05c.304-.076.61-.135.913-.18.203-.031.415-.06.635-.08l.195-.018-.133-.15a17.365 17.365 0 01-.634-.727l-.432-.54-.066.164zm-.185-3.532c-.202.167-.415.769-.129 1.705a3.3 3.3 0 00.133.352l.111.236.073-.25c.189-.658.377-1.507.202-1.814-.055-.1-.167-.271-.289-.271h-.1v.042z" fill="#fff"/></symbol><symbol viewBox="0 0 16 16" fill="none" id="plus" xmlns="http://www.w3.org/2000/svg"><path d="M8 3.333v9.334M3.334 8h9.333" stroke-linecap="round" stroke-linejoin="round"/></symbol><symbol viewBox="0 0 24 24" fill="none" id="prev-ar" xmlns="http://www.w3.org/2000/svg"><path d="M19.072 12H4.93M12.001 4.93L4.931 12 12 19.071" stroke-linecap="round" stroke-linejoin="round"/></symbol><symbol viewBox="0 0 48 48" fill="none" id="proj-plus" xmlns="http://www.w3.org/2000/svg"><path d="M27.741 20.259H48v7.482H27.741V48H20.26V27.741H0V20.26h20.259V0h7.482v20.259z" fill="#fff"/></symbol><symbol viewBox="0 0 16 16" fill="none" id="reset-cross" xmlns="http://www.w3.org/2000/svg"><path d="M4.375 5.625l6.75 6.75M11.125 5.625l-6.75 6.75" stroke-linecap="square"/></symbol><symbol viewBox="0 0 92 21" fill="none" id="rosseti" xmlns="http://www.w3.org/2000/svg"><g clip-path="url(#ayclip0_4323_7045)" fill="#fff"><path d="M30.633 7.21c.119-.321.175-.66.17-1.005a2.937 2.937 0 00-.189-1.09 2.013 2.013 0 00-1.341-1.199 3.349 3.349 0 00-1.04-.145h-2.526v7.694h1.66V8.662h.96c.35.006.702-.054 1.027-.175.295-.11.558-.279.784-.497a2.2 2.2 0 00.495-.78zm-1.73-.26a1.035 1.035 0 01-.645.217h-.89V5.254h.865c.25-.012.495.06.689.218a.898.898 0 01.25.714.92.92 0 01-.281.763M35.616 11.362a2.243 2.243 0 001.323-1.283c.131-.327.194-.678.188-1.03V6.187c0-.302-.05-.605-.157-.896a2.25 2.25 0 00-1.253-1.356 2.772 2.772 0 00-1.128-.217 2.824 2.824 0 00-1.185.224c-.307.139-.576.332-.796.58a2.09 2.09 0 00-.445.794 2.868 2.868 0 00-.138.86v2.742c0 .333.05.665.145.986.087.303.238.588.444.836.22.248.49.442.796.569a3.231 3.231 0 002.2.036m-1.924-2.373V6.114a.84.84 0 01.226-.557.892.892 0 01.282-.218.925.925 0 01.426-.085.855.855 0 01.42.097c.106.06.194.133.27.224a.914.914 0 01.143.278c.025.085.038.17.038.255v3.05a.746.746 0 01-.257.606.938.938 0 01-.614.218.82.82 0 01-.727-.278 1.225 1.225 0 01-.226-.733M39.326 10.751c.213.248.483.442.79.569.37.151.77.224 1.172.218a2.666 2.666 0 001.648-.509c.458-.35.758-.853.846-1.404l-1.58-.43c-.037.46-.438.811-.914.805a.77.77 0 01-.683-.296 1.259 1.259 0 01-.2-.733V6.114c0-.097.018-.188.043-.279a.846.846 0 01.42-.496 1.03 1.03 0 01.426-.085.89.89 0 01.414.085c.106.055.2.127.282.218.075.079.131.17.169.272.031.085.056.17.075.26l1.56-.453a2.77 2.77 0 00-.275-.727 2.286 2.286 0 00-.508-.605 2.333 2.333 0 00-.745-.43 3.143 3.143 0 00-2.169.067c-.3.139-.57.333-.79.58-.2.23-.357.503-.445.794a2.685 2.685 0 00-.137.86v2.748c0 .339.05.672.144.993.094.308.244.593.457.835zM46.898 5.835a.913.913 0 01.144-.278.868.868 0 01.276-.218 1.01 1.01 0 01.426-.085.89.89 0 01.414.085c.106.054.2.127.288.218.075.079.132.17.163.272.031.097.056.188.075.26l1.56-.453a2.535 2.535 0 00-.263-.727c-.131-.23-.3-.436-.507-.605a2.37 2.37 0 00-.74-.43 2.861 2.861 0 00-.984-.157 2.838 2.838 0 00-1.184.218 2.188 2.188 0 00-.79.58c-.2.23-.35.503-.445.794a2.871 2.871 0 00-.138.86v2.754c0 .339.044.672.138.993.088.302.238.587.445.835.213.248.483.442.79.569.37.151.77.224 1.172.218a2.666 2.666 0 001.648-.509c.457-.345.758-.847.846-1.404l-1.58-.442c-.037.454-.432.805-.908.805a.77.77 0 01-.69-.284 1.215 1.215 0 01-.2-.733V6.114c0-.09.013-.188.044-.279zM51.828 11.465h4.631V9.952h-2.97V8.317h2.557v-1.47h-2.557V5.253h2.97V3.771h-4.63v7.694zM57.375 5.23h1.705v6.236h1.648V5.23h1.704V3.771h-5.057v1.46zM67.736 3.771L65.454 8.24h-.018V3.771H63.78v7.695h1.56l2.22-4.183h.012v4.183h1.66V3.77h-1.497zM13.074 6.32L6.738 20.213a11.27 11.27 0 008.21.03l-1.585-13.88a1.58 1.58 0 01-.289-.043zM12.365 5.902L.445 13.488c.815 2.627 2.651 4.849 5.133 6.186l6.988-13.578a1.352 1.352 0 01-.226-.194M13.908 6.284l2.231 13.408c2.507-1.337 4.368-3.577 5.177-6.235l-7.057-7.325a1.232 1.232 0 01-.35.164M12.516 3.844L10.241 0C7.371.157 4.69 1.41 2.777 3.48l9.257 1.078c.081-.278.25-.526.482-.714zM14.909 5c-.013.267-.1.52-.25.739l6.968 6.38c.088-.538.132-1.083.132-1.634 0-2.167-.696-4.28-1.993-6.054l-4.857.57zM11.989 5.097L1.874 4.588A10.226 10.226 0 00.15 12.222l11.92-6.768a1.184 1.184 0 01-.081-.357zM13.476 3.523a1.461 1.461 0 011.322.878l4.155-.95C17.054 1.41 14.403.168 11.57 0l1.536 3.56c.119-.025.244-.037.37-.037zM28.947 20.165V17.24h-.032l-.376.932-.489 1.09h-.601l-.508-1.127-.363-.895h-.02v2.924h-.845v-4.989h.796l.72 1.64.502 1.206h.031l.495-1.205.715-1.629h.814v4.982h-.84v-.006zM33.868 18.651a1.65 1.65 0 01-.119.648 1.377 1.377 0 01-.827.8c-.207.072-.42.108-.64.108a1.76 1.76 0 01-.726-.133 1.318 1.318 0 01-.771-.884 2.152 2.152 0 01-.088-.63v-1.882c0-.182.032-.364.088-.54.056-.18.15-.35.276-.496.138-.15.3-.278.489-.369.232-.103.482-.151.74-.14.243-.005.482.043.701.134a1.426 1.426 0 01.783.854c.063.181.094.369.094.557v1.973zm-.846-1.985a.872.872 0 00-.031-.218.732.732 0 00-.345-.442.715.715 0 00-.35-.085.714.714 0 00-.358.072.662.662 0 00-.226.188.812.812 0 00-.163.484v1.92c-.006.211.05.423.17.605a.65.65 0 00.583.242.754.754 0 00.501-.188.69.69 0 00.213-.52l.006-2.058zM37.824 19.105a1.352 1.352 0 01-.533.817c-.288.2-.633.297-.99.291a1.81 1.81 0 01-.696-.121 1.457 1.457 0 01-.495-.34 1.357 1.357 0 01-.307-.502 2.13 2.13 0 01-.094-.63v-1.936c0-.194.031-.388.094-.575.063-.182.163-.352.294-.497.138-.145.308-.266.496-.345.225-.09.463-.133.701-.127.364-.018.728.097 1.016.315.257.206.438.478.52.787l-.79.26a.75.75 0 00-.213-.4.595.595 0 00-.225-.133.78.78 0 00-.289-.048.793.793 0 00-.332.067.681.681 0 00-.357.4.732.732 0 00-.044.26v1.985c0 .103.013.2.044.297a.684.684 0 00.363.424c.1.042.213.06.32.06a.727.727 0 00.47-.151.66.66 0 00.245-.418l.802.26zM38.617 20.165v-4.989h.852v2.095h.408c.075 0 .15-.012.225-.03a.633.633 0 00.226-.103.746.746 0 00.2-.218c.07-.115.12-.236.151-.364l.382-1.368h.815l-.382 1.471c-.05.218-.144.424-.276.606a.844.844 0 01-.42.32c.188.061.357.182.47.34.126.187.213.393.263.611l.433 1.628h-.865l-.364-1.41a1.043 1.043 0 00-.325-.6.832.832 0 00-.49-.15h-.444v2.154l-.859.006zM45.67 18.65c0 .219-.038.443-.12.649a1.377 1.377 0 01-.827.8c-.207.071-.42.108-.64.108a1.76 1.76 0 01-.726-.134 1.318 1.318 0 01-.495-.357 1.526 1.526 0 01-.276-.526 2.152 2.152 0 01-.088-.63v-1.883c0-.181.031-.363.088-.538.056-.182.15-.352.276-.497.137-.151.3-.278.488-.37.232-.102.483-.15.74-.138.244-.006.482.042.702.133.188.085.357.206.495.357.132.145.232.309.288.496.063.182.094.37.094.557v1.974zm-.86-1.985a.792.792 0 00-.15-.46.787.787 0 00-.225-.2.714.714 0 00-.351-.084.714.714 0 00-.358.072.736.736 0 00-.225.188.814.814 0 00-.163.484v1.92c-.006.211.05.423.169.605a.66.66 0 00.577.242.754.754 0 00.501-.188.671.671 0 00.226-.52v-2.059zM49.728 18.688c.032.405-.112.799-.394 1.095-.289.26-.671.4-1.066.382h-1.66v-4.988h1.585a1.5 1.5 0 011.103.369c.257.272.389.63.37.999 0 .2-.044.4-.138.58a.944.944 0 01-.495.43v.037c.119.036.225.09.32.17.087.072.162.163.225.26.056.103.1.212.125.327.02.102.025.224.025.339zm-.902-2.125a.624.624 0 00-.17-.472.729.729 0 00-.538-.17h-.67v1.308h.67a.692.692 0 00.532-.182.704.704 0 00.176-.484zm.075 2.076a.787.787 0 00-.163-.508.683.683 0 00-.545-.194h-.746v1.465h.752a.79.79 0 00.332-.06.596.596 0 00.226-.164.679.679 0 00.12-.242c.018-.097.024-.2.024-.297zM53.634 19.105a1.352 1.352 0 01-.533.818 1.67 1.67 0 01-.984.29 1.81 1.81 0 01-.695-.12 1.362 1.362 0 01-.796-.842 1.948 1.948 0 01-.1-.63v-1.937c0-.194.03-.387.1-.575.125-.375.407-.684.783-.836.226-.09.464-.133.708-.127.364-.018.727.097 1.016.315.25.206.432.478.513.787l-.808.26a.751.751 0 00-.213-.4.596.596 0 00-.226-.132.78.78 0 00-.288-.049.71.71 0 00-.558.236.569.569 0 00-.131.23.733.733 0 00-.044.26v1.986c0 .103.012.2.044.297a.682.682 0 00.364.424c.1.042.212.06.325.06a.71.71 0 00.464-.151.66.66 0 00.244-.418l.815.255zM54.435 20.165v-4.989h.853v2.095h.407c.075 0 .15-.012.226-.03a.631.631 0 00.225-.103.747.747 0 00.201-.218c.069-.115.12-.236.15-.364l.383-1.368h.814l-.4 1.471a1.67 1.67 0 01-.276.606.856.856 0 01-.414.32c.194.061.363.176.483.34.125.187.219.393.263.611l.432 1.628h-.865l-.37-1.416a1.06 1.06 0 00-.325-.606.832.832 0 00-.49-.15h-.444v2.154l-.852.018zM58.522 20.164v-4.988h.84v3.342h.024c.113-.218.226-.412.326-.618.1-.205.2-.411.307-.617l.558-1.053c.182-.352.37-.703.552-1.066h.783v5h-.846v-3.257h-.013c-.081.158-.169.315-.25.479-.082.163-.17.32-.251.478l-1.216 2.294h-.814v.006zM62.914 20.165v-4.989h.84v3.342h.025c.113-.218.225-.412.32-.618.1-.205.206-.411.307-.617l.557-1.053.552-1.066h.79v5h-.847v-3.256h-.012c-.088.157-.17.314-.25.478-.082.163-.17.32-.251.478l-1.216 2.294-.815.006zm1.705-5.31a1.126 1.126 0 01-.527-.109 1.036 1.036 0 01-.526-.61 1.3 1.3 0 01-.07-.346h.64a.772.772 0 00.038.164.81.81 0 00.094.157.726.726 0 00.15.121c.063.03.125.048.194.042a.487.487 0 00.207-.042.49.49 0 00.238-.278.504.504 0 00.032-.164h.633c-.013.115-.038.23-.075.345a1.166 1.166 0 01-.189.345 1.08 1.08 0 01-.332.266 1.052 1.052 0 01-.507.11zM72.417 16.714c0 .206-.032.406-.094.6a1.325 1.325 0 01-.771.81 1.802 1.802 0 01-.67.122h-.753v1.913h-.846V15.17h1.56c.22 0 .446.03.653.097.382.115.683.4.814.763.082.218.113.454.107.684zm-.84-.018a.796.796 0 00-.188-.57.74.74 0 00-.564-.193h-.702v1.544h.714a.72.72 0 00.564-.218.84.84 0 00.176-.563zM73.182 20.165v-4.989h2.876v.763h-2.024v1.332h1.742v.744h-1.742v1.387h2.024v.775l-2.876-.012zM77.692 15.933v4.231h-.846v-4.988h2.845v.763h-2v-.006zM80.443 20.164v-4.988h.84v3.342h.025c.113-.218.226-.412.326-.618.1-.205.2-.411.307-.617l.558-1.053c.182-.352.37-.703.551-1.066h.784v5h-.846v-3.257h-.013c-.081.158-.169.315-.25.479-.082.163-.17.32-.251.478l-1.216 2.294-.815.006zM87.901 18.651c.006.218-.037.442-.113.648a1.445 1.445 0 01-.325.49 1.465 1.465 0 01-.502.31c-.207.072-.42.108-.64.108a1.76 1.76 0 01-.726-.133 1.317 1.317 0 01-.495-.357 1.527 1.527 0 01-.276-.527 2.152 2.152 0 01-.088-.63v-1.882c0-.182.032-.363.088-.539.056-.182.15-.351.276-.496.138-.152.3-.279.489-.37.231-.102.482-.151.74-.139.244-.006.482.043.701.133.188.085.357.206.495.357.132.146.232.31.288.497.063.181.094.37.094.557l-.006 1.973zm-.858-1.985a.794.794 0 00-.15-.46.784.784 0 00-.226-.2.693.693 0 00-.333-.085.753.753 0 00-.363.073.738.738 0 00-.226.187.811.811 0 00-.163.484v1.92c-.006.212.05.417.163.599a.667.667 0 00.583.254.754.754 0 00.501-.187.69.69 0 00.214-.521v-2.064zM91.156 20.165v-2.156h-1.454v2.155h-.852v-4.988h.852v2.095h1.454v-2.095h.846v4.989h-.846z"/></g><defs><clipPath id="ayclip0_4323_7045"><path fill="#fff" d="M0 0h92v21H0z"/></clipPath></defs></symbol><symbol viewBox="0 0 40 40" fill="none" id="scroll-icon" xmlns="http://www.w3.org/2000/svg"><path fill-rule="evenodd" clip-rule="evenodd" d="M14.162 14.773v10.454a5.814 5.814 0 1011.626 0V14.773a5.814 5.814 0 10-11.626 0zm-1.162 0a6.976 6.976 0 1113.95 0v10.454a6.976 6.976 0 11-13.95 0V14.773z" fill="#fff"/><path fill-rule="evenodd" clip-rule="evenodd" d="M19.395 11.863v2.325a.581.581 0 001.162 0v-2.325a.581.581 0 00-1.162 0zM19.975 38.596l3.197-3.197a.581.581 0 11.822.822l-3.608 3.608a.58.58 0 01-.822 0l-3.636-3.636a.581.581 0 01.822-.822l3.225 3.225zM20.386.17l3.608 3.608a.581.581 0 01-.822.822l-3.197-3.197-3.225 3.225a.581.581 0 11-.822-.822L19.564.17a.58.58 0 01.822 0z" fill="#fff"/></symbol><symbol viewBox="0 0 16 16" fill="none" id="search" xmlns="http://www.w3.org/2000/svg"><path d="M7.333 12.667A5.333 5.333 0 107.333 2a5.333 5.333 0 000 10.667zM14 14l-2.9-2.9" stroke="#fff" stroke-linecap="round" stroke-linejoin="round"/></symbol><symbol fill="none" viewBox="0 0 90 112" id="sng" xmlns="http://www.w3.org/2000/svg"><g opacity=".6" fill="#fff"><path d="M45.217 87.117C25.247 87.117 9 70.718 9 50.562s16.247-36.554 36.217-36.554 36.217 16.399 36.217 36.554c0 20.156-16.247 36.555-36.217 36.555zm0-71.35c-19 0-34.46 15.609-34.46 34.795 0 19.187 15.459 34.797 34.46 34.797 19 0 34.459-15.61 34.459-34.797 0-19.186-15.458-34.796-34.46-34.796z"/><path d="M45.217 87.125c-5.289 0-10.214-3.88-13.869-10.927-3.56-6.862-5.52-15.967-5.52-25.636 0-9.668 1.96-18.773 5.52-25.635C35.003 17.88 39.928 14 45.217 14c5.288 0 10.214 3.88 13.869 10.927 3.56 6.862 5.52 15.967 5.52 25.635 0 9.67-1.96 18.774-5.52 25.636-3.655 7.047-8.58 10.927-13.87 10.927zm0-71.367c-4.6 0-8.971 3.544-12.309 9.978-3.432 6.617-5.322 15.434-5.322 24.826 0 9.393 1.89 18.21 5.322 24.827 3.338 6.435 7.71 9.978 12.309 9.978 4.6 0 8.97-3.543 12.308-9.978 3.433-6.617 5.323-15.434 5.323-24.827 0-9.392-1.89-18.209-5.323-24.826-3.337-6.434-7.709-9.978-12.308-9.978z"/><path d="M80.53 51.441H9.904a.879.879 0 110-1.758H80.53a.879.879 0 110 1.758zM45.296 35.913c-9.483 0-19.12-1.947-28.646-5.787a.879.879 0 01.657-1.63c18.622 7.506 37.4 7.507 55.816 0a.878.878 0 11.663 1.629c-9.393 3.828-18.948 5.776-28.4 5.788h-.09zM16.98 72.693A.88.88 0 0116.65 71c9.525-3.84 19.164-5.787 28.646-5.787h.09c9.452.012 19.007 1.96 28.4 5.788a.879.879 0 11-.663 1.628c-18.415-7.506-37.194-7.506-55.816.001a.874.874 0 01-.328.064z"/><path d="M45.217 86.754a.879.879 0 01-.88-.879V15.25a.879.879 0 011.759 0v70.625c0 .486-.394.88-.88.88z"/></g></symbol><symbol viewBox="0 0 16 16" fill="none" id="sorting" xmlns="http://www.w3.org/2000/svg"><path d="M4 2.22c.132-.14.31-.22.496-.22s.364.08.495.22l2.804 3c.127.141.198.33.196.527a.777.777 0 01-.205.524.679.679 0 01-.49.22.677.677 0 01-.492-.21L5.197 4.56v8.689c0 .199-.074.39-.206.53a.678.678 0 01-.495.22.678.678 0 01-.496-.22.777.777 0 01-.205-.53V4.56L2.188 6.28a.677.677 0 01-.493.21.679.679 0 01-.49-.219A.777.777 0 011 5.747a.779.779 0 01.197-.527L4 2.22zm6.803 9.22V2.75c0-.199.074-.39.206-.53.131-.141.31-.22.495-.22.186 0 .364.079.496.22.131.14.205.331.205.53v8.69l1.607-1.72a.677.677 0 01.493-.21c.184 0 .36.08.49.219s.203.327.205.524a.779.779 0 01-.197.527l-2.803 3a.678.678 0 01-.496.22.678.678 0 01-.495-.22l-2.804-3a.779.779 0 01-.196-.527.777.777 0 01.205-.524.679.679 0 01.49-.22.677.677 0 01.492.21l1.607 1.72z" fill="#A0A0A0"/></symbol><symbol viewBox="0 0 6 30" fill="none" id="stamp-bracket-1" xmlns="http://www.w3.org/2000/svg"><path opacity=".5" d="M0 15c0-1.351.12-2.703.362-4.054A27.937 27.937 0 011.37 6.993 24.995 24.995 0 013.02 3.311 22.435 22.435 0 015.195 0L6 .338a17.332 17.332 0 00-2.175 3.176 27.168 27.168 0 00-1.61 3.716 27.936 27.936 0 00-1.007 3.952A23.945 23.945 0 00.886 15c0 1.216.107 2.5.322 3.851a29.59 29.59 0 001.007 3.953 27.984 27.984 0 001.61 3.683A17.334 17.334 0 006 29.662L5.195 30a22.434 22.434 0 01-2.175-3.31 25 25 0 01-1.65-3.683 27.938 27.938 0 01-1.008-3.953A22.992 22.992 0 010 15z" fill="#fff"/></symbol><symbol viewBox="0 0 6 30" fill="none" id="stamp-bracket-2" xmlns="http://www.w3.org/2000/svg"><path opacity=".5" d="M6 15c0-1.351-.12-2.703-.362-4.054A27.937 27.937 0 004.63 6.993 24.995 24.995 0 002.98 3.311 22.435 22.435 0 00.805 0L0 .338c.805.923 1.53 1.982 2.175 3.176a27.168 27.168 0 011.61 3.716c.43 1.284.765 2.601 1.007 3.952.215 1.33.322 2.602.322 3.818 0 1.216-.107 2.5-.322 3.851a29.59 29.59 0 01-1.007 3.953 27.984 27.984 0 01-1.61 3.683A17.334 17.334 0 010 29.662L.805 30a22.434 22.434 0 002.175-3.31 25 25 0 001.65-3.683c.43-1.284.766-2.602 1.008-3.953C5.879 17.703 6 16.351 6 15z" fill="#fff"/></symbol><symbol viewBox="0 0 15 13" id="tg" xmlns="http://www.w3.org/2000/svg"><path fill-rule="evenodd" clip-rule="evenodd" d="M1.802 5.65c3.578-1.625 5.96-2.705 7.156-3.23C12.363.935 13.078.679 13.538.668c.103 0 .328.021.481.15.123.107.154.246.174.353.02.107.041.331.02.502-.183 2.032-.981 6.963-1.39 9.23-.174.963-.511 1.283-.838 1.316-.716.064-1.258-.492-1.943-.963-1.084-.738-1.687-1.198-2.74-1.925-1.217-.834-.43-1.294.266-2.043.184-.192 3.323-3.187 3.384-3.454.01-.032.01-.16-.061-.225-.072-.064-.174-.043-.256-.021-.112.021-1.83 1.219-5.173 3.582-.491.353-.93.525-1.33.514-.439-.01-1.277-.257-1.911-.47-.767-.257-1.38-.396-1.33-.846.031-.235.338-.47.91-.716z"/></symbol><symbol viewBox="0 0 32 32" fill="none" id="top-arrow" xmlns="http://www.w3.org/2000/svg"><path d="M15.998 25.428V6.572M6.57 16l9.428-9.428L25.426 16" stroke-linecap="round" stroke-linejoin="round"/></symbol><symbol viewBox="0 0 90 113" fill="none" id="truck" xmlns="http://www.w3.org/2000/svg"><g opacity=".6" clip-path="url(#clip0_4269_1364)" fill="#fff"><path d="M90.123 59.249l-3.24-6.296h-4.297l-3.84-6.648c.003-.019.012-.033.012-.05v-5.496a.805.805 0 00-.805-.803H64.02v-4.152a.803.803 0 00-.804-.804H13.645a.803.803 0 00-.806.804v7.903H5.337a.805.805 0 000 1.609h18.49a.803.803 0 100-1.61h-9.379v-7.099h47.963v34.298H39.118c-.4-3.217-3.121-5.727-6.45-5.727-3.327 0-6.048 2.51-6.45 5.728H14.448V56.133h6.096a.803.803 0 100-1.609H.713a.804.804 0 000 1.609H12.84v15.578c0 .442.36.804.805.804H26.22c.401 3.22 3.122 5.725 6.45 5.725 3.328 0 6.049-2.506 6.45-5.725H67.862c.403 3.22 3.123 5.725 6.451 5.725 3.328 0 6.05-2.506 6.45-5.725h9.52V59.249h-.16zM32.67 76.632a4.928 4.928 0 01-4.924-4.92 4.929 4.929 0 014.924-4.924 4.929 4.929 0 014.924 4.925 4.93 4.93 0 01-4.924 4.92zm48.06-23.68H69.713V47.06h7.61l3.407 5.893zM64.018 41.566H77.15v3.888h-8.24a.803.803 0 00-.803.803v6.699h-4.088v-11.39zM74.31 76.632a4.927 4.927 0 01-4.924-4.92 4.928 4.928 0 014.924-4.924 4.929 4.929 0 014.924 4.925c0 2.711-2.21 4.92-4.924 4.92zm14.361-5.725H80.76c-.401-3.218-3.122-5.728-6.45-5.728-3.328 0-6.049 2.51-6.451 5.728h-3.84V54.56h21.884l2.41 4.687h-5.438v6.532h5.796v5.128zm0-10.051v3.315h-4.187v-3.315h4.187z"/><path d="M32.67 69.048a2.661 2.661 0 102.661 2.663 2.664 2.664 0 00-2.66-2.663zm0 3.717a1.054 1.054 0 010-2.108 1.054 1.054 0 010 2.107zM74.31 69.1c-1.44 0-2.611 1.17-2.611 2.612 0 1.438 1.17 2.61 2.61 2.61s2.612-1.172 2.612-2.61A2.614 2.614 0 0074.31 69.1zm0 3.613a1.003 1.003 0 11-.002-2.006 1.003 1.003 0 01.002 2.006zM29.386 50.506a.803.803 0 100-1.608H9.556a.804.804 0 10.001 1.608h19.83z"/></g></symbol><symbol viewBox="0 0 16 16" fill="none" id="view-grid" xmlns="http://www.w3.org/2000/svg"><path fill="#fff" d="M1 1h6v6H1zM9 1h6v6H9zM1 9h6v6H1zM9 9h6v6H9z"/></symbol><symbol viewBox="0 0 16 16" fill="none" id="view-grid-mob" xmlns="http://www.w3.org/2000/svg"><path fill="#A0A0A0" d="M1 1h6v6H1zM9 1h6v6H9zM1 9h6v6H1zM9 9h6v6H9z"/></symbol><symbol viewBox="0 0 16 16" fill="none" id="view-list" xmlns="http://www.w3.org/2000/svg"><path fill="#fff" d="M1 1h14v6H1zM1 9h14v6H1z"/></symbol><symbol viewBox="0 0 16 16" id="vk" xmlns="http://www.w3.org/2000/svg"><path d="M8.64 12.435c-4.862 0-7.636-3.333-7.751-8.88h2.435c.08 4.072 1.876 5.796 3.298 6.152V3.556h2.293v3.51c1.405-.15 2.88-1.75 3.378-3.51h2.293a6.771 6.771 0 01-3.12 4.426 7.022 7.022 0 013.654 4.453h-2.525a4.391 4.391 0 00-3.68-3.173v3.173H8.64z"/></symbol><symbol fill="none" viewBox="0 0 16 16" id="warning" xmlns="http://www.w3.org/2000/svg"><path d="M8.895 5.83V13H7.111V5.83h1.784zM7 3.96c0-.277.09-.507.272-.688C7.452 3.09 7.695 3 8 3c.3 0 .541.09.722.272.185.18.278.41.278.689a.923.923 0 01-.278.69c-.18.18-.422.27-.722.27-.305 0-.547-.09-.728-.27A.934.934 0 017 3.96z" fill="#C5C5C5"/><rect x=".5" y=".5" width="15" height="15" rx="7.5" stroke="#C5C5C5"/></symbol><symbol viewBox="0 0 16 16" id="yt" xmlns="http://www.w3.org/2000/svg"><path fill-rule="evenodd" clip-rule="evenodd" d="M14.255 3.762c.217.222.373.497.452.8C15 5.675 15 8 15 8s0 2.324-.293 3.439a1.79 1.79 0 01-.452.799 1.754 1.754 0 01-.786.464C12.376 13 8 13 8 13s-4.375 0-5.47-.298a1.755 1.755 0 01-.785-.464 1.79 1.79 0 01-.452-.8C1 10.325 1 8 1 8s0-2.324.293-3.439a1.79 1.79 0 01.452-.799c.217-.222.488-.381.785-.464C3.625 3 8 3 8 3s4.375 0 5.47.298c.297.083.568.242.785.464zM10.227 8L6.568 5.89v4.22L10.228 8z"/></symbol></svg>