<?xml version="1.0" encoding="utf-8"?><svg xmlns="http://www.w3.org/2000/svg" xmlns:xlink="http://www.w3.org/1999/xlink"><symbol viewBox="0 0 10 11" id="cross" xmlns="http://www.w3.org/2000/svg"><path d="M9.3.901L.433 9.768m0-8.867L9.3 9.768"/></symbol><symbol viewBox="0 0 101 40" id="logo" xmlns="http://www.w3.org/2000/svg"><path d="M20.972 17.197v5.94c0 2.924-1.288 5.675-5.508 5.675H5.601C2.045 28.812 0 26.908 0 23.094V5.316c0-3.9 2.001-5.322 5.198-5.322h10.44c4.04 0 5.328 1.996 5.328 5.983V10.1H14.35V5.977H6.617v16.888h7.732v-5.674h6.617l.006.006zM27.15 28.812V0h6.704v11.522h1.022L41.68 0h7.683l-8.265 13.871v.402l8.841 14.539h-7.862l-7.15-11.838h-1.072v11.838H27.15zM69.578 23.446h-7.82l-1.065 5.366h-6.796L60.247 0h10.93l6.263 28.812h-6.797l-1.065-5.366zm-6.667-5.588h5.552L66.02 5.712h-.669l-2.44 12.146zM86.323 5.89h-7.286V0h21.326v5.89h-7.287v22.922h-6.753V5.89zM.954 37.12c.13 0 .248.012.365.03l.843-1.075h.564l-.967 1.205c.143.056.267.124.378.21.112.08.205.186.291.303.087.118.155.247.217.396.062.148.112.315.161.494h-.564a2.33 2.33 0 00-.18-.544 1.2 1.2 0 00-.266-.352.865.865 0 00-.365-.192 2.226 2.226 0 00-.483-.068v1.156H.439v-2.602h.509v1.038h.006zM5.669 37.008c0-.198-.056-.346-.167-.445-.112-.099-.267-.148-.471-.148-.149 0-.285.025-.415.08a.95.95 0 00-.329.216l-.272-.302c.117-.118.266-.21.452-.285a1.63 1.63 0 011.028-.05c.13.044.242.1.329.18.093.08.167.18.217.303.05.123.08.266.086.433v1.131c0 .099 0 .198.007.303 0 .105.012.191.024.266H5.7l-.019-.192c0-.068-.006-.13-.006-.192h-.012a.98.98 0 01-.378.34 1.124 1.124 0 01-.515.105c-.099 0-.204-.012-.31-.043a.922.922 0 01-.297-.136.714.714 0 01-.31-.624c0-.198.05-.353.155-.47a.925.925 0 01.41-.266c.167-.062.359-.099.576-.117.216-.019.44-.025.662-.025v-.074l.013.012zm-.105.42c-.137 0-.28 0-.422.019a1.765 1.765 0 00-.384.074.74.74 0 00-.285.155.34.34 0 00-.111.265c0 .08.018.149.05.204a.435.435 0 00.297.21c.068.013.13.025.198.025.124 0 .229-.018.322-.061a.585.585 0 00.235-.167.678.678 0 00.15-.248.932.932 0 00.049-.296v-.167H5.55l.013-.013zM8.866 36.112c.192 0 .366.03.527.093.16.061.297.148.409.265.111.118.204.254.266.415.062.16.093.346.093.544 0 .197-.037.389-.105.55-.069.16-.168.303-.292.414a1.242 1.242 0 01-.433.266c-.168.062-.341.092-.527.092s-.372-.03-.527-.092a1.165 1.165 0 01-.415-.266 1.274 1.274 0 01-.278-.427 1.782 1.782 0 01-.124-.568 1.627 1.627 0 01-.013-.18v-.185c.013-.377.062-.71.143-.99.08-.277.192-.512.34-.691a1.29 1.29 0 01.564-.408c.23-.087.496-.136.812-.136h.78v.408H9.3c-.23 0-.428.03-.583.092a.984.984 0 00-.39.26c-.1.111-.18.247-.235.408-.056.16-.1.34-.124.538a.967.967 0 01.378-.303c.16-.074.334-.111.52-.111m.793 1.316a.947.947 0 00-.235-.643.77.77 0 00-.26-.185.828.828 0 00-.335-.068 1 1 0 00-.335.055.889.889 0 00-.278.161.838.838 0 00-.193.266.881.881 0 00-.068.37c0 .137.019.267.062.378.044.117.1.216.174.297.074.08.167.148.272.191a.953.953 0 00.713 0 .814.814 0 00.26-.191.917.917 0 00.161-.285 1.04 1.04 0 00.056-.346M13.883 37.336v.185h-2.088a.818.818 0 00.26.587.82.82 0 00.273.174.89.89 0 00.8-.056c.13-.08.229-.173.297-.278l.365.26a1.384 1.384 0 01-.502.42c-.192.086-.402.13-.632.13a1.47 1.47 0 01-.545-.1 1.306 1.306 0 01-.434-.278 1.227 1.227 0 01-.285-.432 1.46 1.46 0 01-.105-.557c0-.204.031-.383.1-.556.067-.167.16-.315.284-.439.118-.123.26-.216.421-.284.162-.068.341-.1.533-.1.199 0 .378.032.54.1a1.147 1.147 0 01.644.698c.056.161.087.334.087.526m-.496-.173a.793.793 0 00-.21-.544c-.13-.142-.323-.217-.565-.217a.778.778 0 00-.316.062.875.875 0 00-.434.408.784.784 0 00-.08.285H13.4v.006zM16.946 38.684l-.78-1.997-.818 1.997h-.54l1.103-2.603h.52l1.048 2.603h-.533zM19.065 36.081v.878h.632c.192 0 .36.025.49.068a.924.924 0 01.328.18.69.69 0 01.186.271c.037.105.055.223.055.34a.9.9 0 01-.068.34.792.792 0 01-.198.278.891.891 0 01-.328.186c-.13.043-.28.068-.446.068H18.55v-2.603h.508l.006-.006zm0 2.22h.539c.186 0 .34-.032.459-.1.117-.068.18-.197.18-.383a.527.527 0 00-.05-.235.392.392 0 00-.137-.148.532.532 0 00-.21-.074 1.7 1.7 0 00-.26-.025h-.521v.97-.006zM22.497 38.684h-.515V36.08h.515v1.032h1.32v-1.032h.507v2.603h-.508v-1.162h-1.32v1.162zM27.378 37.008c0-.198-.056-.346-.167-.445-.112-.099-.267-.148-.471-.148-.149 0-.285.025-.415.08a.95.95 0 00-.329.216l-.272-.302c.117-.118.266-.21.452-.285a1.63 1.63 0 011.028-.05c.13.044.242.1.329.18.093.08.167.18.217.303.055.123.08.266.086.433v1.131c0 .099 0 .198.007.303 0 .105.012.191.024.266h-.458l-.019-.192c0-.068-.006-.13-.006-.192h-.012a.98.98 0 01-.378.34 1.124 1.124 0 01-.514.105c-.1 0-.205-.012-.31-.043a.922.922 0 01-.298-.136.714.714 0 01-.31-.624c0-.198.05-.353.155-.47a.925.925 0 01.41-.266c.167-.062.359-.099.576-.117a7.8 7.8 0 01.662-.025v-.074l.013.012zm-.105.42c-.137 0-.28 0-.422.019a1.765 1.765 0 00-.384.074.739.739 0 00-.285.155.34.34 0 00-.111.265c0 .08.018.149.05.204a.435.435 0 00.297.21c.068.013.13.025.198.025.124 0 .229-.018.322-.061a.585.585 0 00.235-.167.679.679 0 00.15-.248.932.932 0 00.049-.296v-.167h-.112l.012-.013zM30.488 37.657c-.254 0-.446.087-.582.254-.136.166-.223.426-.26.778h-.564c.037-.315.124-.58.254-.79.136-.211.304-.353.52-.415v-.019a.86.86 0 01-.458-.173c-.124-.099-.186-.253-.186-.463a.65.65 0 01.08-.334.695.695 0 01.217-.229c.093-.061.205-.105.335-.136.13-.03.279-.043.434-.043h1.09v2.602h-.502v-1.026h-.378v-.006zm-.762-.779c0 .074.019.136.05.186a.32.32 0 00.142.111c.056.025.13.043.211.05.08.006.167.012.26.012h.484v-.73h-.49c-.099 0-.186 0-.266.013a.622.622 0 00-.205.05.286.286 0 00-.13.11.351.351 0 00-.05.192M36.313 37.008c0-.198-.055-.346-.167-.445-.111-.099-.266-.148-.47-.148-.15 0-.286.025-.416.08a.949.949 0 00-.328.216l-.273-.302c.118-.118.267-.21.452-.285a1.63 1.63 0 011.029-.05c.13.044.242.1.328.18.093.08.168.18.217.303.05.123.08.266.087.433v1.131c0 .099 0 .198.006.303 0 .105.012.191.025.266h-.459l-.018-.192c0-.068-.006-.13-.006-.192h-.013a.98.98 0 01-.378.34 1.124 1.124 0 01-.514.105c-.1 0-.204-.012-.31-.043a.923.923 0 01-.297-.136.715.715 0 01-.31-.624c0-.198.05-.353.155-.47a.926.926 0 01.409-.266c.167-.062.36-.099.576-.117a7.8 7.8 0 01.663-.025v-.074l.012.012zm-.105.42c-.136 0-.279 0-.421.019a1.765 1.765 0 00-.384.074.74.74 0 00-.285.155.34.34 0 00-.112.265c0 .08.019.149.05.204a.433.433 0 00.297.21c.068.013.13.025.198.025.124 0 .23-.018.322-.061a.585.585 0 00.236-.167.678.678 0 00.149-.248.932.932 0 00.05-.296v-.167h-.112l.012-.013zM38.737 40h-.509v-3.92h.496v.415h.019c.099-.154.235-.272.409-.358a1.15 1.15 0 01.539-.124c.192 0 .378.037.539.105.16.068.303.167.415.29.118.124.204.273.266.433.062.167.093.346.093.532a1.5 1.5 0 01-.093.532 1.24 1.24 0 01-.266.432 1.339 1.339 0 01-.415.297 1.303 1.303 0 01-1.066-.006.966.966 0 01-.403-.353h-.018v1.713l-.006.012zm1.747-2.621c0-.13-.019-.247-.056-.365a.824.824 0 00-.452-.507.915.915 0 00-.378-.074.86.86 0 00-.65.278 1.013 1.013 0 00-.254.674c0 .136.024.254.067.371a.888.888 0 00.471.507.9.9 0 00.366.074.917.917 0 00.378-.074.777.777 0 00.279-.204.861.861 0 00.173-.303c.037-.117.056-.235.056-.365M42.707 36.081l1.072 1.267 1.053-1.267h.44v2.602h-.514v-1.879l-.91 1.162h-.15l-.916-1.143v1.86h-.509v-2.602h.434zM48.327 37.008c0-.198-.056-.346-.167-.445-.112-.099-.267-.148-.471-.148-.149 0-.285.025-.415.08a.95.95 0 00-.329.216l-.272-.302c.117-.118.266-.21.452-.285a1.63 1.63 0 011.029-.05c.13.044.241.1.328.18.093.08.167.18.217.303.056.123.08.266.087.433v1.131c0 .099 0 .198.006.303 0 .105.012.191.024.266h-.458l-.019-.192c0-.068-.006-.13-.006-.192h-.012a.98.98 0 01-.378.34 1.124 1.124 0 01-.514.105c-.1 0-.205-.012-.31-.043a.922.922 0 01-.297-.136.715.715 0 01-.31-.624c0-.198.05-.353.155-.47a.925.925 0 01.408-.266c.168-.062.36-.099.577-.117a7.8 7.8 0 01.663-.025v-.074l.012.012zm-.105.42c-.137 0-.28 0-.422.019a1.765 1.765 0 00-.384.074.739.739 0 00-.285.155.34.34 0 00-.111.265c0 .08.018.149.05.204a.435.435 0 00.297.21c.068.013.13.025.198.025.124 0 .23-.018.322-.061a.585.585 0 00.236-.167.679.679 0 00.148-.248.932.932 0 00.05-.296v-.167h-.112l.013-.013zM49.85 36.081h2.292v.408h-.917v2.194h-.508V36.49h-.867v-.408zM54.195 38.14h.018l.731-2.059h.552l-1.146 2.9c-.062.148-.118.283-.174.407a1.58 1.58 0 01-.192.322.731.731 0 01-.266.21.915.915 0 01-.39.074c-.063 0-.125 0-.193-.013-.068-.006-.13-.018-.186-.024l.056-.445.13.037c.05.006.1.012.149.012.13 0 .23-.037.297-.111a.916.916 0 00.186-.322l.18-.457-1.11-2.59h.565l.799 2.058h-.006zM57.06 40h-.507v-3.92h.495v.415h.019c.1-.154.235-.272.409-.358a1.15 1.15 0 01.539-.124c.192 0 .378.037.539.105.161.068.303.167.415.29.118.124.204.273.267.433.061.167.092.346.092.532a1.5 1.5 0 01-.093.532 1.24 1.24 0 01-.266.432 1.339 1.339 0 01-.415.297 1.303 1.303 0 01-1.066-.006.966.966 0 01-.402-.353h-.019v1.713l-.006.012zm1.748-2.621c0-.13-.019-.247-.056-.365a.824.824 0 00-.452-.507.915.915 0 00-.378-.074.86.86 0 00-.65.278 1.013 1.013 0 00-.254.674c0 .136.024.254.068.371a.888.888 0 00.47.507.9.9 0 00.366.074.917.917 0 00.378-.074.777.777 0 00.279-.204.861.861 0 00.173-.303c.037-.117.056-.235.056-.365M62.23 37.008c0-.198-.057-.346-.168-.445-.112-.099-.267-.148-.471-.148-.149 0-.285.025-.415.08a.95.95 0 00-.329.216l-.272-.302c.117-.118.266-.21.452-.285a1.63 1.63 0 011.029-.05c.13.044.241.1.334.18.093.08.167.18.217.303.056.123.08.266.087.433v1.131c0 .099 0 .198.006.303 0 .105.012.191.025.266h-.459l-.018-.192c0-.068-.006-.13-.006-.192h-.013a.98.98 0 01-.378.34 1.124 1.124 0 01-.514.105c-.1 0-.205-.012-.31-.043a.922.922 0 01-.297-.136.78.78 0 01-.223-.247.694.694 0 01-.087-.377c0-.198.05-.353.155-.47a.925.925 0 01.409-.266c.167-.062.36-.099.576-.117a7.8 7.8 0 01.663-.025v-.074l.006.012zm-.106.42c-.137 0-.28 0-.422.019a1.765 1.765 0 00-.384.074.739.739 0 00-.285.155.34.34 0 00-.111.265c0 .08.018.149.05.204a.435.435 0 00.297.21c.068.013.13.025.198.025a.768.768 0 00.564-.228.907.907 0 00.148-.248.932.932 0 00.05-.296v-.167h-.111l.006-.013zM67.675 38.683h-.526v-3.226l-.738.612-.31-.365 1.097-.89h.477v3.87zM71.486 38.683h-.527v-3.226l-.737.612-.31-.365 1.103-.89h.47v3.87zM74.856 34.715c.229 0 .427.055.594.16.168.106.304.254.41.433.105.186.185.402.235.65.05.247.074.512.074.79 0 .279-.025.55-.074.798-.05.247-.13.464-.236.643a1.25 1.25 0 01-.409.432c-.167.106-.365.161-.594.161-.23 0-.428-.055-.602-.16a1.326 1.326 0 01-.415-.433 2.39 2.39 0 01-.241-.643 4.052 4.052 0 01-.075-.797c0-.285.025-.544.075-.792.05-.247.13-.463.241-.649.106-.185.248-.327.415-.432.168-.105.366-.161.602-.161zm0 .445a.533.533 0 00-.397.154c-.1.105-.18.235-.242.396-.055.16-.093.334-.117.52-.019.185-.031.358-.031.525 0 .167.012.34.03.525.025.186.063.359.118.513.056.155.137.29.242.39a.533.533 0 00.397.154c.16 0 .285-.05.384-.154.099-.105.18-.235.235-.39.062-.154.1-.327.124-.513.025-.185.031-.358.031-.525 0-.167-.012-.34-.031-.526a2.277 2.277 0 00-.124-.519 1.085 1.085 0 00-.235-.396.505.505 0 00-.384-.154zM78.55 37.138h-1.27v.433h1.27v-.433zM82.024 35.283H80.42l-.031 1.014a1.816 1.816 0 01.502-.074c.185 0 .359.031.52.087a1.12 1.12 0 01.682.624c.068.155.099.321.099.507a1.329 1.329 0 01-.39.977c-.118.117-.26.203-.428.265-.161.062-.34.093-.54.093-.303 0-.557-.068-.767-.21a1.287 1.287 0 01-.471-.569l.483-.191a.842.842 0 00.291.377.809.809 0 00.465.142.778.778 0 00.316-.062.938.938 0 00.26-.167.83.83 0 00.174-.26.873.873 0 00.062-.34.92.92 0 00-.075-.383.788.788 0 00-.198-.266.939.939 0 00-.291-.154 1.273 1.273 0 00-.347-.05c-.149 0-.298.019-.453.062a2.086 2.086 0 00-.409.155l.056-2.059h2.094v.482zM84.781 34.715c.23 0 .428.055.595.16.167.106.304.254.409.433.105.186.186.402.235.65.05.247.075.512.075.79 0 .279-.025.55-.075.798-.05.247-.13.464-.235.643a1.25 1.25 0 01-.409.432c-.167.106-.366.161-.595.161-.229 0-.427-.055-.6-.16a1.325 1.325 0 01-.416-.433 2.39 2.39 0 01-.241-.643 4.052 4.052 0 01-.075-.797c0-.285.025-.544.075-.792.05-.247.13-.463.241-.649.106-.185.248-.327.415-.432.168-.105.366-.161.601-.161zm0 .445a.533.533 0 00-.396.154c-.1.105-.18.235-.242.396-.056.16-.093.334-.118.52a5.282 5.282 0 00-.03.525c0 .167.012.34.03.525.025.186.062.359.118.513.056.155.136.29.242.39a.533.533 0 00.396.154c.161 0 .285-.05.384-.154.1-.105.18-.235.236-.39.062-.154.099-.327.124-.513.024-.185.03-.358.03-.525 0-.167-.012-.34-.03-.526a2.277 2.277 0 00-.124-.519 1.086 1.086 0 00-.236-.396.505.505 0 00-.384-.154zM88.598 34.715c.229 0 .427.055.594.16.168.106.304.254.41.433.105.186.185.402.235.65.05.247.074.512.074.79 0 .279-.025.55-.074.798-.05.247-.13.464-.236.643a1.25 1.25 0 01-.409.432c-.167.106-.365.161-.594.161-.23 0-.428-.055-.601-.16a1.325 1.325 0 01-.415-.433 2.39 2.39 0 01-.242-.643 4.052 4.052 0 01-.074-.797c0-.285.024-.544.074-.792.05-.247.13-.463.242-.649.105-.185.247-.327.415-.432.167-.105.365-.161.6-.161zm0 .445a.533.533 0 00-.397.154c-.099.105-.18.235-.241.396-.056.16-.093.334-.118.52a5.282 5.282 0 00-.031.525c0 .167.012.34.03.525.026.186.063.359.119.513.055.155.136.29.241.39a.533.533 0 00.397.154c.16 0 .285-.05.384-.154.099-.105.18-.235.235-.39.062-.154.1-.327.124-.513.025-.185.031-.358.031-.525 0-.167-.012-.34-.03-.526a2.277 2.277 0 00-.125-.519 1.086 1.086 0 00-.235-.396.505.505 0 00-.384-.154zM93.643 37.12c.13 0 .248.012.365.03l.843-1.075h.564l-.967 1.205c.143.056.267.124.378.21.112.08.205.186.291.303.087.118.155.247.217.396.062.148.112.315.161.494h-.564a2.33 2.33 0 00-.18-.544 1.2 1.2 0 00-.266-.352.865.865 0 00-.365-.192 2.167 2.167 0 00-.477-.068v1.156h-.508v-2.602h.508v1.038zM96.775 34.814h1.258c.149 0 .297.018.446.043.149.031.285.087.41.16.123.075.216.18.297.304.074.13.117.29.117.482 0 .21-.062.39-.186.538a.933.933 0 01-.49.303v.012a.873.873 0 01.342.099.866.866 0 01.452.476c.043.111.068.235.068.37 0 .174-.037.328-.105.464a.937.937 0 01-.304.34c-.13.093-.285.16-.465.21a2.2 2.2 0 01-.588.068h-1.252v-3.875.006zm.527 1.656h.719c.093 0 .18-.012.272-.03a.611.611 0 00.242-.106.56.56 0 00.167-.191.586.586 0 00.068-.285.545.545 0 00-.061-.278.514.514 0 00-.18-.185.774.774 0 00-.267-.105 1.81 1.81 0 00-.334-.031h-.626v1.218-.007zm0 1.775h.682c.124 0 .241-.013.359-.038a.978.978 0 00.31-.117.642.642 0 00.216-.21.633.633 0 00.081-.322c0-.228-.08-.401-.242-.507-.16-.105-.384-.166-.669-.166h-.73v1.36h-.007z"/></symbol></svg>