<svg xmlns="http://www.w3.org/2000/svg" viewBox="0 0 101 40" >
  <path d="M20.9723 17.1967V23.137C20.9723 26.0609 19.6836 28.8116 15.4644 28.8116H5.60088C2.04457 28.8116 0 26.9077 0 23.0938V5.31598C0 1.4155 2.0012 -0.00622559 5.19817 -0.00622559H15.6379C19.6774 -0.00622559 20.9661 1.99038 20.9661 5.9774V10.1004H14.3492V5.9774H6.61697V22.8651H14.3492V17.1905H20.9661L20.9723 17.1967Z" />
  <path d="M27.1504 28.8116V0H33.8541V11.5222H34.8764L41.6792 0H49.3618L41.0968 13.8711V14.2729L49.9381 28.8116H42.0758L34.9259 16.9742H33.8541V28.8116H27.1504Z" />
  <path d="M69.5777 23.4461H61.7588L60.6931 28.8116H53.8965L60.247 0H71.1762L77.44 28.8116H70.6434L69.5777 23.4461ZM62.9112 17.8581H68.4625L66.0214 5.71163H65.3523L62.9112 17.8581Z" />
  <path d="M86.3232 5.8909H79.0371V0H100.363V5.8909H93.0765V28.8116H86.3232V5.8909Z" />
  <path d="M0.953695 37.1194C1.0838 37.1194 1.20152 37.1317 1.31924 37.1503L2.16185 36.0747H2.72566L1.75913 37.2801C1.90163 37.3357 2.02555 37.4037 2.13707 37.4903C2.24859 37.5706 2.34153 37.6757 2.42827 37.7932C2.51501 37.9106 2.58315 38.0404 2.64511 38.1888C2.70707 38.3371 2.75664 38.504 2.8062 38.6833H2.24239C2.19283 38.4669 2.13706 38.2815 2.06272 38.1393C1.98837 37.9971 1.90163 37.8797 1.79631 37.787C1.69098 37.6942 1.57326 37.6324 1.43076 37.5953C1.28826 37.5583 1.12718 37.5335 0.947502 37.5273V38.6833H0.439453V36.0809H0.947502V37.1194H0.953695Z" />
  <path d="M5.66885 37.0081C5.66885 36.8103 5.61309 36.662 5.50157 36.5631C5.39004 36.4642 5.23516 36.4147 5.0307 36.4147C4.882 36.4147 4.7457 36.4395 4.61559 36.4951C4.48548 36.5507 4.37396 36.6187 4.28722 36.7114L4.01461 36.4086C4.13233 36.2911 4.28102 36.1984 4.46689 36.1242C4.65276 36.05 4.85721 36.0129 5.07406 36.0129C5.22895 36.0129 5.36526 36.0315 5.49537 36.0747C5.62548 36.118 5.737 36.1737 5.82374 36.254C5.91668 36.3344 5.99103 36.4333 6.0406 36.5569C6.09016 36.6805 6.12114 36.8227 6.12733 36.9896C6.12733 37.0391 6.12733 37.0885 6.12733 37.138V38.1208C6.12733 38.2197 6.12733 38.3186 6.13353 38.4237C6.13353 38.5288 6.14591 38.6153 6.15831 38.6895H5.69983C5.69364 38.6277 5.68744 38.5659 5.68125 38.4979C5.68125 38.4299 5.67504 38.3681 5.67504 38.3062H5.66266C5.55733 38.4608 5.42722 38.5782 5.28472 38.6462C5.13603 38.7204 4.96874 38.7513 4.77048 38.7513C4.67135 38.7513 4.56602 38.7389 4.4607 38.708C4.35537 38.6833 4.25623 38.6339 4.1633 38.572C4.07036 38.5102 3.99602 38.4237 3.94025 38.3248C3.88449 38.2259 3.85352 38.1023 3.85352 37.9477C3.85352 37.7499 3.90308 37.5954 4.00841 37.4779C4.10754 37.3605 4.24385 37.274 4.41732 37.2121C4.58461 37.1503 4.77668 37.1132 4.99353 37.0947C5.21037 37.0761 5.43341 37.07 5.65646 37.07V36.9958L5.66885 37.0081ZM5.56353 37.4285C5.42722 37.4285 5.28472 37.4285 5.14222 37.447C4.99972 37.4594 4.87581 37.4841 4.75809 37.5212C4.64037 37.5583 4.54743 37.6077 4.47308 37.6757C4.39873 37.7437 4.36157 37.8303 4.36157 37.9415C4.36157 38.0219 4.38015 38.0899 4.41113 38.1455C4.44211 38.2012 4.48548 38.2444 4.53504 38.2815C4.58461 38.3186 4.64656 38.3433 4.70852 38.3557C4.77667 38.3681 4.83863 38.3804 4.90679 38.3804C5.0307 38.3804 5.13602 38.3619 5.22895 38.3186C5.32189 38.2815 5.40244 38.2259 5.46439 38.1517C5.53255 38.0775 5.58211 37.9972 5.61309 37.9045C5.64407 37.8117 5.66266 37.7128 5.66266 37.6077V37.4408H5.55113L5.56353 37.4285Z" />
  <path d="M8.86608 36.1119C9.05814 36.1119 9.23162 36.1428 9.39271 36.2046C9.55379 36.2664 9.6901 36.353 9.80162 36.4704C9.91314 36.5879 10.0061 36.7239 10.068 36.8846C10.13 37.0453 10.161 37.2307 10.161 37.4285C10.161 37.6263 10.1238 37.818 10.0556 37.9787C9.98748 38.1394 9.88836 38.2816 9.76445 38.3928C9.64054 38.5103 9.49804 38.5968 9.33075 38.6586C9.16347 38.7205 8.98999 38.7514 8.80412 38.7514C8.61825 38.7514 8.43237 38.7205 8.27748 38.6586C8.1164 38.5968 7.98009 38.5103 7.86237 38.3928C7.74466 38.2754 7.65172 38.1332 7.58357 37.9663C7.51542 37.7994 7.47205 37.6078 7.45966 37.3976C7.45346 37.342 7.44727 37.2802 7.44727 37.2184V37.0329C7.45966 36.6559 7.50923 36.3221 7.58977 36.0439C7.67032 35.7657 7.78183 35.5308 7.93053 35.3516C8.07922 35.1661 8.2651 35.0301 8.49434 34.9436C8.72357 34.8571 8.98999 34.8076 9.30597 34.8076H10.0866V35.2156H9.29977C9.07053 35.2156 8.87227 35.2465 8.71738 35.3083C8.55629 35.3701 8.42618 35.4567 8.32705 35.5679C8.22792 35.6792 8.14738 35.8152 8.09162 35.9759C8.03586 36.1366 7.99248 36.3159 7.9677 36.5137C8.06063 36.3839 8.19074 36.285 8.34564 36.2108C8.50672 36.1366 8.68021 36.0995 8.86608 36.0995M9.65912 37.4162C9.65912 37.2864 9.64053 37.1627 9.59716 37.0577C9.55379 36.9464 9.49803 36.8537 9.42369 36.7733C9.34934 36.6929 9.2626 36.6311 9.16347 36.5879C9.06434 36.5446 8.95282 36.5199 8.82891 36.5199C8.71119 36.5199 8.59966 36.5384 8.49434 36.5755C8.38901 36.6126 8.29608 36.6682 8.21553 36.7362C8.13499 36.8104 8.07303 36.8969 8.02347 37.002C7.9739 37.1071 7.95532 37.2369 7.95532 37.3729C7.95532 37.5089 7.9739 37.6387 8.01727 37.75C8.06064 37.8674 8.1164 37.9663 8.19074 38.0467C8.26509 38.127 8.35803 38.195 8.46335 38.2383C8.56868 38.2816 8.6926 38.3063 8.8227 38.3063C8.95281 38.3063 9.07054 38.2816 9.17586 38.2383C9.28119 38.1888 9.36173 38.127 9.43608 38.0467C9.50423 37.9663 9.55999 37.8674 9.59716 37.7623C9.63434 37.6573 9.65292 37.5398 9.65292 37.4162" />
  <path d="M13.8831 37.3358V37.4285C13.8831 37.4594 13.8831 37.4903 13.8831 37.5212H11.7951C11.7951 37.6387 11.8261 37.7499 11.8695 37.8488C11.9129 37.9477 11.9748 38.0343 12.0554 38.1084C12.1297 38.1826 12.2227 38.2383 12.328 38.2815C12.4333 38.3248 12.5448 38.3495 12.6563 38.3495C12.836 38.3495 12.9971 38.3062 13.1272 38.2259C13.2573 38.1455 13.3565 38.0528 13.4246 37.9477L13.7901 38.2073C13.6415 38.399 13.4742 38.5411 13.2883 38.6277C13.0962 38.7142 12.8856 38.7575 12.6563 38.7575C12.4643 38.7575 12.2846 38.7266 12.1111 38.6586C11.9438 38.5906 11.7952 38.4979 11.6774 38.3804C11.5535 38.263 11.4606 38.1146 11.3924 37.9477C11.3243 37.7808 11.2871 37.5954 11.2871 37.3914C11.2871 37.1874 11.3181 37.0082 11.3862 36.8351C11.4544 36.6682 11.5473 36.5198 11.6712 36.3962C11.789 36.2726 11.9315 36.1798 12.0925 36.1118C12.2536 36.0438 12.4333 36.0129 12.6254 36.0129C12.8236 36.0129 13.0033 36.0438 13.1644 36.1118C13.3193 36.1798 13.4556 36.2726 13.5609 36.39C13.6662 36.5075 13.753 36.6496 13.8087 36.8103C13.8645 36.9711 13.8955 37.1441 13.8955 37.3358M13.3998 37.1627C13.3936 36.9463 13.3255 36.7609 13.1892 36.6187C13.0591 36.4765 12.867 36.4024 12.6254 36.4024C12.5139 36.4024 12.4085 36.4209 12.3094 36.4642C12.2103 36.5075 12.1297 36.5631 12.0554 36.6311C11.981 36.6991 11.9253 36.7794 11.8757 36.8722C11.8323 36.9649 11.8013 37.0576 11.7951 37.1565H13.3998V37.1627Z" />
  <path d="M16.9461 38.6836L16.1654 36.687L15.3476 38.6836H14.8086L15.9114 36.0812H16.4319L17.4789 38.6836H16.9461Z" />
  <path d="M19.065 36.0812V36.9589H19.697C19.889 36.9589 20.0563 36.9837 20.1864 37.0269C20.3227 37.0702 20.4281 37.132 20.5148 37.2062C20.6015 37.2804 20.6573 37.3731 20.7007 37.4782C20.7379 37.5833 20.7564 37.7007 20.7564 37.8182C20.7564 37.9356 20.7316 38.0531 20.6883 38.1581C20.6449 38.2632 20.5768 38.3559 20.49 38.4363C20.4033 38.5167 20.2917 38.5785 20.1616 38.6217C20.0315 38.665 19.8829 38.6897 19.7156 38.6897H18.5508V36.0874H19.0588L19.065 36.0812ZM19.065 38.3003H19.604C19.7899 38.3003 19.9448 38.2694 20.0625 38.2014C20.1802 38.1334 20.2422 38.0036 20.2422 37.8182C20.2422 37.7254 20.2236 37.6451 20.1926 37.5833C20.1617 37.5214 20.1121 37.472 20.0563 37.4349C20.0006 37.3978 19.9262 37.3731 19.8457 37.3607C19.7651 37.3484 19.6784 37.336 19.5854 37.336H19.065V38.3065V38.3003Z" />
  <path d="M22.4967 38.6836H21.9824V36.0812H22.4967V37.1135H23.8164V36.0812H24.3244V38.6836H23.8164V37.5215H22.4967V38.6836Z" />
  <path d="M27.3778 37.0081C27.3778 36.8103 27.3221 36.662 27.2106 36.5631C27.099 36.4642 26.9441 36.4147 26.7397 36.4147C26.591 36.4147 26.4547 36.4395 26.3246 36.4951C26.1945 36.5507 26.0829 36.6187 25.9962 36.7114L25.7236 36.4086C25.8413 36.2911 25.99 36.1984 26.1759 36.1242C26.3618 36.05 26.5662 36.0129 26.783 36.0129C26.9379 36.0129 27.0743 36.0315 27.2044 36.0747C27.3345 36.118 27.446 36.1737 27.5327 36.254C27.6257 36.3344 27.7 36.4333 27.7496 36.5569C27.8053 36.6805 27.8301 36.8227 27.8363 36.9896C27.8363 37.0391 27.8363 37.0885 27.8363 37.138V38.1208C27.8363 38.2197 27.8363 38.3186 27.8425 38.4237C27.8425 38.5288 27.8549 38.6153 27.8673 38.6895H27.4088C27.4026 38.6277 27.3964 38.5659 27.3902 38.4979C27.3902 38.4299 27.384 38.3681 27.384 38.3062H27.3716C27.2663 38.4608 27.1362 38.5782 26.9937 38.6462C26.845 38.7204 26.6777 38.7513 26.4795 38.7513C26.3803 38.7513 26.275 38.7389 26.1697 38.708C26.0644 38.6833 25.9652 38.6339 25.8723 38.572C25.7793 38.5102 25.705 38.4237 25.6492 38.3248C25.5935 38.2259 25.5625 38.1023 25.5625 37.9477C25.5625 37.7499 25.6121 37.5954 25.7174 37.4779C25.8165 37.3605 25.9528 37.274 26.1263 37.2121C26.2936 37.1503 26.4857 37.1132 26.7025 37.0947C26.9194 37.0761 27.1424 37.07 27.3654 37.07V36.9958L27.3778 37.0081ZM27.2725 37.4285C27.1362 37.4285 26.9937 37.4285 26.8512 37.447C26.7087 37.4594 26.5848 37.4841 26.4671 37.5212C26.3494 37.5583 26.2564 37.6077 26.1821 37.6757C26.1077 37.7437 26.0705 37.8303 26.0705 37.9415C26.0705 38.0219 26.0891 38.0899 26.1201 38.1455C26.1511 38.2012 26.1945 38.2444 26.244 38.2815C26.2936 38.3186 26.3555 38.3433 26.4175 38.3557C26.4857 38.3681 26.5476 38.3804 26.6158 38.3804C26.7397 38.3804 26.845 38.3619 26.9379 38.3186C27.0309 38.2815 27.1114 38.2259 27.1734 38.1517C27.2415 38.0775 27.2911 37.9972 27.3221 37.9045C27.3531 37.8117 27.3716 37.7128 27.3716 37.6077V37.4408H27.2601L27.2725 37.4285Z" />
  <path d="M30.4884 37.6571C30.2344 37.6571 30.0424 37.7437 29.906 37.9106C29.7697 38.0775 29.683 38.3371 29.6458 38.6894H29.082C29.1192 38.3742 29.2059 38.1084 29.3361 37.8982C29.4724 37.688 29.6396 37.5459 29.8565 37.484V37.4655C29.6768 37.4469 29.5219 37.3913 29.398 37.2924C29.2741 37.1935 29.2121 37.039 29.2121 36.8288C29.2121 36.699 29.2369 36.5939 29.2927 36.495C29.3484 36.4023 29.4166 36.3281 29.5095 36.2663C29.6025 36.2045 29.714 36.1612 29.8441 36.1303C29.9742 36.0994 30.1229 36.087 30.2778 36.087H31.3682V38.6894H30.8664V37.6633H30.4884V37.6571ZM29.7264 36.8783C29.7264 36.9524 29.745 37.0143 29.7759 37.0637C29.8131 37.1132 29.8565 37.1502 29.9184 37.175C29.9742 37.1997 30.0486 37.2182 30.1291 37.2244C30.2096 37.2306 30.2964 37.2368 30.3893 37.2368H30.8726V36.5074H30.3831C30.284 36.5074 30.1972 36.5074 30.1167 36.5197C30.0362 36.5259 29.968 36.5445 29.9122 36.5692C29.8565 36.5939 29.8131 36.631 29.7821 36.6805C29.7512 36.7299 29.7326 36.7917 29.7326 36.8721" />
  <path d="M36.3134 37.0081C36.3134 36.8103 36.2576 36.662 36.1461 36.5631C36.0346 36.4642 35.8797 36.4147 35.6752 36.4147C35.5265 36.4147 35.3902 36.4395 35.2601 36.4951C35.13 36.5507 35.0185 36.6187 34.9318 36.7114L34.6591 36.4086C34.7769 36.2911 34.9255 36.1984 35.1114 36.1242C35.2973 36.05 35.5017 36.0129 35.7186 36.0129C35.8735 36.0129 36.0098 36.0315 36.1399 36.0747C36.27 36.118 36.3815 36.1737 36.4683 36.254C36.5612 36.3344 36.6356 36.4333 36.6851 36.5569C36.7347 36.6805 36.7657 36.8227 36.7719 36.9896C36.7719 37.0391 36.7719 37.0885 36.7719 37.138V38.1208C36.7719 38.2197 36.7719 38.3186 36.778 38.4237C36.778 38.5288 36.7904 38.6153 36.8028 38.6895H36.3444C36.3382 38.6277 36.332 38.5659 36.3258 38.4979C36.3258 38.4299 36.3196 38.3681 36.3196 38.3062H36.3072C36.2019 38.4608 36.0717 38.5782 35.9292 38.6462C35.7805 38.7204 35.6133 38.7513 35.415 38.7513C35.3159 38.7513 35.2106 38.7389 35.1052 38.708C34.9999 38.6833 34.9008 38.6339 34.8078 38.572C34.7149 38.5102 34.6406 38.4237 34.5848 38.3248C34.529 38.2259 34.498 38.1023 34.498 37.9477C34.498 37.7499 34.5476 37.5954 34.6529 37.4779C34.7521 37.3605 34.8884 37.274 35.0619 37.2121C35.2291 37.1503 35.4212 37.1132 35.638 37.0947C35.8549 37.0761 36.0779 37.07 36.301 37.07V36.9958L36.3134 37.0081ZM36.2081 37.4285C36.0718 37.4285 35.9292 37.4285 35.7867 37.447C35.6442 37.4594 35.5203 37.4841 35.4026 37.5212C35.2849 37.5583 35.192 37.6077 35.1176 37.6757C35.0433 37.7437 35.0061 37.8303 35.0061 37.9415C35.0061 38.0219 35.0247 38.0899 35.0557 38.1455C35.0866 38.2012 35.13 38.2444 35.1796 38.2815C35.2291 38.3186 35.2911 38.3433 35.3531 38.3557C35.4212 38.3681 35.4832 38.3804 35.5513 38.3804C35.6752 38.3804 35.7806 38.3619 35.8735 38.3186C35.9664 38.2815 36.047 38.2259 36.1089 38.1517C36.1771 38.0775 36.2266 37.9972 36.2576 37.9045C36.2886 37.8117 36.3072 37.7128 36.3072 37.6077V37.4408H36.1957L36.2081 37.4285Z" />
  <path d="M38.7366 40H38.2285V36.0809H38.7242V36.4951H38.7428C38.8419 36.3406 38.9782 36.2231 39.1517 36.1366C39.319 36.05 39.4986 36.0129 39.6907 36.0129C39.8828 36.0129 40.0686 36.05 40.2297 36.118C40.3908 36.186 40.5333 36.2849 40.6448 36.4086C40.7626 36.5322 40.8493 36.6805 40.9113 36.8412C40.9732 37.0081 41.0042 37.1874 41.0042 37.3729C41.0042 37.5583 40.9732 37.7437 40.9113 37.9045C40.8493 38.0714 40.7626 38.2135 40.6448 38.3372C40.5271 38.4608 40.3908 38.5597 40.2297 38.6339C40.0686 38.708 39.8828 38.7451 39.6845 38.7451C39.5048 38.7451 39.3314 38.7019 39.1641 38.6277C38.9968 38.5473 38.8605 38.4299 38.7614 38.2753H38.7428V39.9876L38.7366 40ZM40.4837 37.379C40.4837 37.2492 40.4652 37.1318 40.428 37.0143C40.3908 36.9031 40.3351 36.798 40.2545 36.7114C40.1802 36.6249 40.0872 36.5569 39.9757 36.5075C39.8642 36.458 39.7403 36.4333 39.5978 36.4333C39.4677 36.4333 39.3438 36.458 39.2322 36.5075C39.1207 36.5569 39.0278 36.6249 38.9472 36.7114C38.8667 36.798 38.8047 36.8969 38.7614 37.0143C38.718 37.1256 38.6932 37.2492 38.6932 37.3852C38.6932 37.5212 38.718 37.6386 38.7614 37.7561C38.8047 37.8735 38.8667 37.9725 38.9472 38.059C39.0278 38.1455 39.1207 38.2135 39.2322 38.263C39.3438 38.3124 39.4677 38.3372 39.5978 38.3372C39.7403 38.3372 39.8642 38.3124 39.9757 38.263C40.0872 38.2135 40.1802 38.1455 40.2545 38.059C40.3289 37.9725 40.3908 37.8735 40.428 37.7561C40.4652 37.6386 40.4837 37.5212 40.4837 37.3914" />
  <path d="M42.7071 36.0811L43.779 37.3482L44.8323 36.0811H45.2722V38.6834H44.7579V36.8043L43.8471 37.9664H43.6985L42.7815 36.8228V38.6834H42.2734V36.0811H42.7071Z" />
  <path d="M48.327 37.0081C48.327 36.8103 48.2713 36.662 48.1598 36.5631C48.0482 36.4642 47.8933 36.4147 47.6889 36.4147C47.5402 36.4147 47.4039 36.4395 47.2738 36.4951C47.1437 36.5507 47.0321 36.6187 46.9454 36.7114L46.6728 36.4086C46.7905 36.2911 46.9392 36.1984 47.1251 36.1242C47.311 36.05 47.5154 36.0129 47.7322 36.0129C47.8871 36.0129 48.0235 36.0315 48.1536 36.0747C48.2837 36.118 48.3952 36.1737 48.4819 36.254C48.5749 36.3344 48.6492 36.4333 48.6988 36.5569C48.7546 36.6805 48.7793 36.8227 48.7855 36.9896C48.7855 37.0391 48.7855 37.0885 48.7855 37.138V38.1208C48.7855 38.2197 48.7855 38.3186 48.7917 38.4237C48.7917 38.5288 48.8041 38.6153 48.8165 38.6895H48.358C48.3518 38.6277 48.3456 38.5659 48.3394 38.4979C48.3394 38.4299 48.3332 38.3681 48.3332 38.3062H48.3208C48.2155 38.4608 48.0854 38.5782 47.9429 38.6462C47.7942 38.7204 47.6269 38.7513 47.4287 38.7513C47.3295 38.7513 47.2242 38.7389 47.1189 38.708C47.0136 38.6833 46.9144 38.6339 46.8215 38.572C46.7286 38.5102 46.6542 38.4237 46.5984 38.3248C46.5427 38.2259 46.5117 38.1023 46.5117 37.9477C46.5117 37.7499 46.5613 37.5954 46.6666 37.4779C46.7657 37.3605 46.902 37.274 47.0755 37.2121C47.2428 37.1503 47.4349 37.1132 47.6517 37.0947C47.8686 37.0761 48.0916 37.07 48.3146 37.07V36.9958L48.327 37.0081ZM48.2217 37.4285C48.0854 37.4285 47.9429 37.4285 47.8004 37.447C47.6579 37.4594 47.534 37.4841 47.4163 37.5212C47.2986 37.5583 47.2056 37.6077 47.1313 37.6757C47.0569 37.7437 47.0197 37.8303 47.0197 37.9415C47.0197 38.0219 47.0383 38.0899 47.0693 38.1455C47.1003 38.2012 47.1437 38.2444 47.1932 38.2815C47.2428 38.3186 47.3047 38.3433 47.3667 38.3557C47.4349 38.3681 47.4968 38.3804 47.565 38.3804C47.6889 38.3804 47.7942 38.3619 47.8871 38.3186C47.9801 38.2815 48.0606 38.2259 48.1226 38.1517C48.1907 38.0775 48.2403 37.9972 48.2713 37.9045C48.3023 37.8117 48.3208 37.7128 48.3208 37.6077V37.4408H48.2093L48.2217 37.4285Z" />
  <path d="M49.8496 36.0811H52.142V36.489H51.225V38.6834H50.717V36.489H49.8496V36.0811Z" />
  <path d="M54.1947 38.1395H54.2133L54.9444 36.0811H55.4958L54.3496 38.9801C54.2877 39.1285 54.2319 39.2645 54.1762 39.3881C54.1204 39.5117 54.0522 39.623 53.9841 39.7095C53.9097 39.8023 53.823 39.8703 53.7177 39.9197C53.6123 39.9692 53.4822 39.9939 53.3274 39.9939C53.2654 39.9939 53.2034 39.9939 53.1353 39.9815C53.0671 39.9754 53.0052 39.963 52.9494 39.9568L53.0052 39.5117C53.0485 39.5241 53.0919 39.5365 53.1353 39.5488C53.1848 39.555 53.2344 39.5612 53.284 39.5612C53.4141 39.5612 53.5132 39.5241 53.5814 39.4499C53.6557 39.3758 53.7115 39.2707 53.7672 39.1285L53.9469 38.6711L52.8379 36.0811H53.4017L54.2009 38.1395H54.1947Z" />
  <path d="M57.0608 40H56.5527V36.0809H57.0484V36.4951H57.067C57.1661 36.3406 57.3024 36.2231 57.4759 36.1366C57.6432 36.05 57.8228 36.0129 58.0149 36.0129C58.207 36.0129 58.3928 36.05 58.5539 36.118C58.715 36.186 58.8575 36.2849 58.969 36.4086C59.0868 36.5322 59.1735 36.6805 59.2355 36.8412C59.2974 37.0081 59.3284 37.1874 59.3284 37.3729C59.3284 37.5583 59.2974 37.7437 59.2355 37.9045C59.1735 38.0714 59.0868 38.2135 58.969 38.3372C58.8513 38.4608 58.715 38.5597 58.5539 38.6339C58.3928 38.708 58.207 38.7451 58.0087 38.7451C57.829 38.7451 57.6556 38.7019 57.4883 38.6277C57.321 38.5473 57.1847 38.4299 57.0856 38.2753H57.067V39.9876L57.0608 40ZM58.8079 37.379C58.8079 37.2492 58.7894 37.1318 58.7522 37.0143C58.715 36.9031 58.6593 36.798 58.5787 36.7114C58.5044 36.6249 58.4114 36.5569 58.2999 36.5075C58.1884 36.458 58.0645 36.4333 57.922 36.4333C57.7919 36.4333 57.668 36.458 57.5564 36.5075C57.4449 36.5569 57.352 36.6249 57.2714 36.7114C57.1909 36.798 57.1289 36.8969 57.0856 37.0143C57.0422 37.1256 57.0174 37.2492 57.0174 37.3852C57.0174 37.5212 57.0422 37.6386 57.0856 37.7561C57.1289 37.8735 57.1909 37.9725 57.2714 38.059C57.352 38.1455 57.4449 38.2135 57.5564 38.263C57.668 38.3124 57.7919 38.3372 57.922 38.3372C58.0645 38.3372 58.1884 38.3124 58.2999 38.263C58.4114 38.2135 58.5044 38.1455 58.5787 38.059C58.6531 37.9725 58.715 37.8735 58.7522 37.7561C58.7894 37.6386 58.8079 37.5212 58.8079 37.3914" />
  <path d="M62.2291 37.0081C62.2291 36.8103 62.1733 36.662 62.0618 36.5631C61.9502 36.4642 61.7954 36.4147 61.5909 36.4147C61.4422 36.4147 61.3059 36.4395 61.1758 36.4951C61.0457 36.5507 60.9342 36.6187 60.8474 36.7114L60.5748 36.4086C60.6925 36.2911 60.8412 36.1984 61.0271 36.1242C61.213 36.05 61.4174 36.0129 61.6343 36.0129C61.7892 36.0129 61.9255 36.0315 62.0556 36.0747C62.1857 36.118 62.2972 36.1737 62.3901 36.254C62.4831 36.3344 62.5574 36.4333 62.607 36.5569C62.6628 36.6805 62.6875 36.8227 62.6937 36.9896C62.6937 37.0391 62.6937 37.0885 62.6937 37.138V38.1208C62.6937 38.2197 62.6937 38.3186 62.6999 38.4237C62.6999 38.5288 62.7123 38.6153 62.7247 38.6895H62.2662C62.26 38.6277 62.2538 38.5659 62.2477 38.4979C62.2477 38.4299 62.2415 38.3681 62.2415 38.3062H62.2291C62.1237 38.4608 61.9936 38.5782 61.8511 38.6462C61.7024 38.7204 61.5351 38.7513 61.3369 38.7513C61.2378 38.7513 61.1324 38.7389 61.0271 38.708C60.9218 38.6833 60.8226 38.6339 60.7297 38.572C60.6368 38.5102 60.5686 38.4237 60.5067 38.3248C60.4447 38.2259 60.4199 38.1023 60.4199 37.9477C60.4199 37.7499 60.4695 37.5954 60.5748 37.4779C60.6739 37.3605 60.8103 37.274 60.9837 37.2121C61.151 37.1503 61.3431 37.1132 61.5599 37.0947C61.7768 37.0761 61.9998 37.07 62.2229 37.07V36.9958L62.2291 37.0081ZM62.1237 37.4285C61.9874 37.4285 61.8449 37.4285 61.7024 37.447C61.5599 37.4594 61.436 37.4841 61.3183 37.5212C61.2006 37.5583 61.1076 37.6077 61.0333 37.6757C60.9589 37.7437 60.9218 37.8303 60.9218 37.9415C60.9218 38.0219 60.9404 38.0899 60.9713 38.1455C61.0023 38.2012 61.0457 38.2444 61.0952 38.2815C61.1448 38.3186 61.2068 38.3433 61.2687 38.3557C61.3369 38.3681 61.3988 38.3804 61.467 38.3804C61.5847 38.3804 61.6962 38.3619 61.7892 38.3186C61.8821 38.2815 61.9626 38.2259 62.0308 38.1517C62.0928 38.0775 62.1423 37.9972 62.1795 37.9045C62.2105 37.8117 62.2291 37.7128 62.2291 37.6077V37.4408H62.1175L62.1237 37.4285Z" />
  <path d="M67.6752 38.6834H67.1486V35.4567L66.4113 36.0687L66.1016 35.704L67.1982 34.8138H67.6752V38.6834Z" />
  <path d="M71.4858 38.6834H70.9592V35.4567L70.2219 36.0687L69.9121 35.704L71.0149 34.8138H71.4858V38.6834Z" />
  <path d="M74.8555 34.7148C75.0848 34.7148 75.283 34.7705 75.4503 34.8756C75.6176 34.9807 75.7539 35.129 75.8592 35.3083C75.9645 35.4937 76.0451 35.7101 76.0947 35.9573C76.1442 36.2046 76.169 36.4704 76.169 36.7485C76.169 37.0267 76.1442 37.2987 76.0947 37.5459C76.0451 37.7932 75.9645 38.0095 75.8592 38.1888C75.7539 38.3743 75.6114 38.5164 75.4503 38.6215C75.283 38.7266 75.0848 38.7822 74.8555 38.7822C74.6263 38.7822 74.428 38.7266 74.2545 38.6215C74.0873 38.5164 73.9509 38.3681 73.8394 38.1888C73.7341 38.0034 73.6535 37.787 73.5978 37.5459C73.5482 37.2987 73.5234 37.0329 73.5234 36.7485C73.5234 36.4642 73.5482 36.2046 73.5978 35.9573C73.6473 35.7101 73.7279 35.4937 73.8394 35.3083C73.9447 35.1228 74.0873 34.9807 74.2545 34.8756C74.4218 34.7705 74.6201 34.7148 74.8555 34.7148ZM74.8555 35.1599C74.6944 35.1599 74.5643 35.2094 74.459 35.3144C74.3599 35.4195 74.2793 35.5493 74.2173 35.7101C74.1616 35.8708 74.1244 36.0438 74.0996 36.2293C74.0811 36.4147 74.0687 36.5878 74.0687 36.7547C74.0687 36.9216 74.0811 37.0947 74.0996 37.2801C74.1244 37.4656 74.1616 37.6387 74.2173 37.7932C74.2731 37.9477 74.3537 38.0837 74.459 38.1826C74.5643 38.2877 74.6944 38.3372 74.8555 38.3372C75.0166 38.3372 75.1405 38.2877 75.2396 38.1826C75.3388 38.0775 75.4193 37.9477 75.4751 37.7932C75.537 37.6387 75.5742 37.4656 75.599 37.2801C75.6238 37.0947 75.63 36.9216 75.63 36.7547C75.63 36.5878 75.6176 36.4147 75.599 36.2293C75.5742 36.0438 75.537 35.8708 75.4751 35.7101C75.4193 35.5493 75.3388 35.4195 75.2396 35.3144C75.1405 35.2094 75.0104 35.1599 74.8555 35.1599Z" />
  <path d="M78.5494 37.1381H77.2793V37.5708H78.5494V37.1381Z" />
  <path d="M82.0244 35.2835H80.4197L80.3887 36.2973C80.4631 36.2726 80.5436 36.254 80.6366 36.2417C80.7233 36.2293 80.8101 36.2231 80.8906 36.2231C81.0765 36.2231 81.2499 36.254 81.411 36.3097C81.5721 36.3653 81.7084 36.4457 81.8199 36.5507C81.9377 36.6558 82.0244 36.7856 82.0926 36.934C82.1607 37.0885 82.1917 37.2554 82.1917 37.4409C82.1917 37.6449 82.1607 37.8303 82.0864 37.9972C82.0182 38.1579 81.9191 38.3001 81.8014 38.4175C81.6836 38.535 81.5411 38.6215 81.3739 38.6833C81.2128 38.7451 81.0331 38.7761 80.8348 38.7761C80.5312 38.7761 80.2772 38.7081 80.0666 38.5659C79.8559 38.4237 79.701 38.2383 79.5957 37.9972L80.079 37.8056C80.1409 37.9601 80.2401 38.0899 80.3702 38.1826C80.5065 38.2754 80.6614 38.3248 80.8348 38.3248C80.9464 38.3248 81.0517 38.3063 81.1508 38.263C81.2499 38.2197 81.3367 38.1641 81.411 38.0961C81.4854 38.0219 81.5411 37.9354 81.5845 37.8365C81.6279 37.7314 81.6465 37.6201 81.6465 37.4965C81.6465 37.3481 81.6217 37.2245 81.5721 37.1132C81.5226 37.0082 81.4544 36.9154 81.3739 36.8474C81.2871 36.7794 81.1942 36.73 81.0827 36.6929C80.9711 36.662 80.8596 36.6435 80.7357 36.6435C80.587 36.6435 80.4383 36.662 80.2834 36.7053C80.1285 36.7485 79.9922 36.798 79.8745 36.8598L79.9303 34.8014H82.0244V35.2712V35.2835Z" />
  <path d="M84.7813 34.7148C85.0105 34.7148 85.2088 34.7705 85.3761 34.8756C85.5433 34.9807 85.6797 35.129 85.785 35.3083C85.8903 35.4937 85.9709 35.7101 86.0204 35.9573C86.07 36.2046 86.0948 36.4704 86.0948 36.7485C86.0948 37.0267 86.07 37.2987 86.0204 37.5459C85.9709 37.7932 85.8903 38.0095 85.785 38.1888C85.6797 38.3743 85.5372 38.5164 85.3761 38.6215C85.2088 38.7266 85.0105 38.7822 84.7813 38.7822C84.552 38.7822 84.3538 38.7266 84.1803 38.6215C84.013 38.5164 83.8767 38.3681 83.7652 38.1888C83.6599 38.0034 83.5793 37.787 83.5236 37.5459C83.474 37.2987 83.4492 37.0329 83.4492 36.7485C83.4492 36.4642 83.474 36.2046 83.5236 35.9573C83.5731 35.7101 83.6537 35.4937 83.7652 35.3083C83.8705 35.1228 84.013 34.9807 84.1803 34.8756C84.3476 34.7705 84.5458 34.7148 84.7813 34.7148ZM84.7813 35.1599C84.6202 35.1599 84.4901 35.2094 84.3848 35.3144C84.2856 35.4195 84.2051 35.5493 84.1431 35.7101C84.0874 35.8708 84.0502 36.0438 84.0254 36.2293C84.0068 36.4147 83.9944 36.5878 83.9944 36.7547C83.9944 36.9216 84.0068 37.0947 84.0254 37.2801C84.0502 37.4656 84.0874 37.6387 84.1431 37.7932C84.1989 37.9477 84.2794 38.0837 84.3848 38.1826C84.4901 38.2877 84.6202 38.3372 84.7813 38.3372C84.9424 38.3372 85.0663 38.2877 85.1654 38.1826C85.2645 38.0775 85.3451 37.9477 85.4009 37.7932C85.4628 37.6387 85.5 37.4656 85.5248 37.2801C85.5495 37.0947 85.5557 36.9216 85.5557 36.7547C85.5557 36.5878 85.5433 36.4147 85.5248 36.2293C85.5 36.0438 85.4628 35.8708 85.4009 35.7101C85.3451 35.5493 85.2645 35.4195 85.1654 35.3144C85.0663 35.2094 84.9362 35.1599 84.7813 35.1599Z" />
  <path d="M88.5977 34.7148C88.8269 34.7148 89.0252 34.7705 89.1925 34.8756C89.3598 34.9807 89.4961 35.129 89.6014 35.3083C89.7067 35.4937 89.7873 35.7101 89.8368 35.9573C89.8864 36.2046 89.9112 36.4704 89.9112 36.7485C89.9112 37.0267 89.8864 37.2987 89.8368 37.5459C89.7873 37.7932 89.7067 38.0095 89.6014 38.1888C89.4961 38.3743 89.3536 38.5164 89.1925 38.6215C89.0252 38.7266 88.8269 38.7822 88.5977 38.7822C88.3685 38.7822 88.1702 38.7266 87.9967 38.6215C87.8294 38.5164 87.6931 38.3681 87.5816 38.1888C87.4763 38.0034 87.3957 37.787 87.34 37.5459C87.2904 37.2987 87.2656 37.0329 87.2656 36.7485C87.2656 36.4642 87.2904 36.2046 87.34 35.9573C87.3895 35.7101 87.4701 35.4937 87.5816 35.3083C87.6869 35.1228 87.8294 34.9807 87.9967 34.8756C88.164 34.7705 88.3623 34.7148 88.5977 34.7148ZM88.5977 35.1599C88.4366 35.1599 88.3065 35.2094 88.2012 35.3144C88.102 35.4195 88.0215 35.5493 87.9595 35.7101C87.9038 35.8708 87.8666 36.0438 87.8418 36.2293C87.8232 36.4147 87.8108 36.5878 87.8108 36.7547C87.8108 36.9216 87.8232 37.0947 87.8418 37.2801C87.8666 37.4656 87.9038 37.6387 87.9595 37.7932C88.0153 37.9477 88.0958 38.0837 88.2012 38.1826C88.3065 38.2877 88.4366 38.3372 88.5977 38.3372C88.7588 38.3372 88.8827 38.2877 88.9818 38.1826C89.0809 38.0775 89.1615 37.9477 89.2173 37.7932C89.2792 37.6387 89.3164 37.4656 89.3412 37.2801C89.3659 37.0947 89.3721 36.9216 89.3721 36.7547C89.3721 36.5878 89.3597 36.4147 89.3412 36.2293C89.3164 36.0438 89.2792 35.8708 89.2173 35.7101C89.1615 35.5493 89.0809 35.4195 88.9818 35.3144C88.8827 35.2094 88.7526 35.1599 88.5977 35.1599Z" />
  <path d="M93.6428 37.1194C93.7729 37.1194 93.8906 37.1317 94.0083 37.1503L94.851 36.0747H95.4148L94.4482 37.2801C94.5907 37.3357 94.7146 37.4037 94.8262 37.4903C94.9377 37.5706 95.0306 37.6757 95.1174 37.7932C95.2041 37.9106 95.2723 38.0404 95.3342 38.1888C95.3962 38.3371 95.4457 38.504 95.4953 38.6833H94.9315C94.8819 38.4669 94.8262 38.2815 94.7518 38.1393C94.6775 37.9971 94.5907 37.8797 94.4854 37.787C94.3801 37.6942 94.2624 37.6324 94.1199 37.5953C93.9774 37.5583 93.8225 37.5335 93.6428 37.5273V38.6833H93.1348V36.0809H93.6428V37.1194Z" />
  <path d="M96.7754 34.8138H98.0331C98.1818 34.8138 98.3305 34.8323 98.4792 34.8571C98.6279 34.888 98.7642 34.9436 98.8881 35.0178C99.012 35.092 99.105 35.197 99.1855 35.3207C99.2599 35.4505 99.3032 35.6112 99.3032 35.8028C99.3032 36.013 99.2413 36.1923 99.1174 36.3406C98.9934 36.489 98.8324 36.5879 98.6279 36.6435V36.6559C98.7518 36.6682 98.8695 36.6991 98.9687 36.7548C99.074 36.8042 99.1669 36.866 99.2413 36.9464C99.3156 37.0267 99.3776 37.1195 99.421 37.2307C99.4643 37.342 99.4891 37.4656 99.4891 37.6016C99.4891 37.7747 99.4519 37.9292 99.3838 38.0652C99.3156 38.2012 99.2103 38.3125 99.0802 38.4052C98.9501 38.4979 98.7952 38.5659 98.6155 38.6154C98.4358 38.6648 98.2438 38.6834 98.0269 38.6834H96.7754V34.8076V34.8138ZM97.302 36.4704H98.0207C98.1137 36.4704 98.2004 36.4581 98.2933 36.4395C98.3863 36.421 98.4668 36.3839 98.535 36.3344C98.6031 36.285 98.6589 36.2232 98.7023 36.1428C98.7456 36.0624 98.7704 35.9697 98.7704 35.8585C98.7704 35.7472 98.7518 35.6545 98.7085 35.5803C98.6651 35.5061 98.6093 35.4443 98.5288 35.3949C98.4482 35.3454 98.3615 35.3083 98.2624 35.2898C98.1632 35.2712 98.0517 35.2589 97.9278 35.2589H97.302V36.4766V36.4704ZM97.302 38.2445H97.9836C98.1075 38.2445 98.2252 38.2321 98.3429 38.2074C98.4606 38.1827 98.5597 38.1456 98.6527 38.09C98.7456 38.0343 98.8138 37.9663 98.8695 37.8798C98.9191 37.7932 98.9501 37.6882 98.9501 37.5583C98.9501 37.3296 98.8695 37.1566 98.7085 37.0515C98.5474 36.9464 98.3243 36.8846 98.0393 36.8846H97.3082V38.2445H97.302Z" />
</svg>
