<svg xmlns="http://www.w3.org/2000/svg" viewBox="0 0 90 113" fill="none">
  <g opacity="0.6">
    <path d="M44.7996 15.6C66.9865 15.6 84.9996 33.6131 84.9996 55.8C84.9996 77.9868 66.9866 96 44.7996 96C22.6127 96 4.59961 77.9868 4.59961 55.8C4.59961 33.6131 22.6127 15.6 44.7996 15.6ZM44.7996 18.1125C23.9706 18.1125 7.11211 34.971 7.11211 55.8C7.11211 76.6289 23.9706 93.4875 44.7996 93.4875C65.6286 93.4875 82.4871 76.6289 82.4871 55.8C82.4871 34.971 65.6287 18.1125 44.7996 18.1125ZM44.7996 30.675C45.4934 30.675 46.0559 31.2374 46.0559 31.9313V55.8C46.0559 56.4938 45.4934 57.0563 44.7996 57.0563H23.4434C22.7495 57.0563 22.1871 56.4938 22.1871 55.8C22.1871 55.1062 22.7495 54.5438 23.4434 54.5438H43.5434V31.9313C43.5434 31.2374 44.1058 30.675 44.7996 30.675Z" fill="white"/>
  </g>
</svg>
