<svg width="31" height="38" viewBox="0 0 31 38" fill="none" xmlns="http://www.w3.org/2000/svg">
<g id="Group 3889">
<g id="Group 3888">
<path id="Vector 5" d="M9 25.5L6 34.25L9.42857 33.7917L12 37L15 28.75" stroke="white"/>
<path id="Vector 6" d="M21 25.5L24 34.25L20.5714 33.7917L18 37L15 28.75" stroke="white"/>
</g>
<g id="Group 3887">
<path id="Vector 4" d="M11.3846 15.0657L14.3056 18.0257L19.923 12.3333" stroke="white"/>
<path id="Star 1" d="M12.7761 2.95788C14.1251 1.68375 16.2339 1.68375 17.5828 2.95788L18.247 3.58525C19.0502 4.3439 20.1044 4.78057 21.2088 4.81205L22.122 4.83809C23.9768 4.89097 25.468 6.38215 25.5209 8.23692L25.5469 9.15019C25.5784 10.2546 26.0151 11.3088 26.7737 12.112L27.4011 12.7761C28.6752 14.1251 28.6752 16.2339 27.4011 17.5828L26.7737 18.247C26.0151 19.0502 25.5784 20.1044 25.5469 21.2088L25.5209 22.122C25.468 23.9768 23.9768 25.468 22.122 25.5209L21.2088 25.5469C20.1044 25.5784 19.0502 26.0151 18.247 26.7737L17.5828 27.4011C16.2339 28.6752 14.1251 28.6752 12.7761 27.4011L12.112 26.7737C11.3088 26.0151 10.2546 25.5784 9.1502 25.5469L8.23692 25.5209C6.38215 25.468 4.89097 23.9768 4.83809 22.122L4.81205 21.2088C4.78057 20.1044 4.3439 19.0502 3.58525 18.247L2.95788 17.5828C1.68375 16.2339 1.68375 14.1251 2.95788 12.7761L3.58525 12.112C4.3439 11.3088 4.78057 10.2546 4.81205 9.1502L4.83809 8.23693C4.89097 6.38215 6.38215 4.89097 8.23692 4.83809L9.1502 4.81205C10.2546 4.78057 11.3088 4.3439 12.112 3.58525L12.7761 2.95788Z" stroke="white"/>
</g>
<circle id="Ellipse 47" cx="15" cy="15" r="8.5" stroke="white"/>
</g>
</svg>
