<svg viewBox="0 0 360 63" fill="none" xmlns="http://www.w3.org/2000/svg">
<mask id="path-1-inside-1_440_38639" fill="white">
<path d="M0 0H361V63H0V0Z"/>
</mask>
<path d="M0 1H361V-1H0V1ZM361 62H0V64H361V62Z" fill="#EBAA5B" fill-opacity="0.2" mask="url(#path-1-inside-1_440_38639)"/>
<path d="M-82.496 25.672H-81.344V30.584H-75.168V25.672H-74.016V37H-75.168V31.64H-81.344V37H-82.496V25.672ZM-66.3556 32.168C-66.3556 31.5173 -66.5263 31.032 -66.8676 30.712C-67.209 30.392 -67.705 30.232 -68.3556 30.232C-68.8036 30.232 -69.2196 30.312 -69.6036 30.472C-69.9876 30.632 -70.313 30.8453 -70.5796 31.112L-71.1876 30.392C-70.8783 30.0827 -70.473 29.8267 -69.9716 29.624C-69.4596 29.4213 -68.8836 29.32 -68.2436 29.32C-67.8383 29.32 -67.4596 29.3787 -67.1076 29.496C-66.7556 29.6027 -66.4463 29.768 -66.1796 29.992C-65.913 30.216 -65.705 30.4987 -65.5556 30.84C-65.4063 31.1813 -65.3316 31.5813 -65.3316 32.04V35.32C-65.3316 35.608 -65.321 35.9067 -65.2996 36.216C-65.2783 36.5253 -65.2463 36.7867 -65.2036 37H-66.1796C-66.2116 36.8187 -66.2383 36.6213 -66.2596 36.408C-66.281 36.1947 -66.2916 35.9867 -66.2916 35.784H-66.3236C-66.665 36.2853 -67.0543 36.648 -67.4916 36.872C-67.9183 37.0853 -68.4356 37.192 -69.0436 37.192C-69.3316 37.192 -69.6303 37.1493 -69.9396 37.064C-70.2383 36.9893 -70.5156 36.8613 -70.7716 36.68C-71.017 36.4987 -71.225 36.264 -71.3956 35.976C-71.5556 35.688 -71.6356 35.336 -71.6356 34.92C-71.6356 34.344 -71.4916 33.8907 -71.2036 33.56C-70.905 33.2187 -70.5103 32.968 -70.0196 32.808C-69.529 32.6373 -68.969 32.5307 -68.3396 32.488C-67.6996 32.4347 -67.0383 32.408 -66.3556 32.408V32.168ZM-66.6756 33.256C-67.1236 33.256 -67.577 33.2773 -68.0356 33.32C-68.4836 33.352 -68.8943 33.4267 -69.2676 33.544C-69.6303 33.6507 -69.929 33.8107 -70.1636 34.024C-70.3983 34.2373 -70.5156 34.52 -70.5156 34.872C-70.5156 35.1387 -70.4676 35.3627 -70.3716 35.544C-70.265 35.7253 -70.1263 35.8747 -69.9556 35.992C-69.785 36.0987 -69.5983 36.1787 -69.3956 36.232C-69.1823 36.2747 -68.969 36.296 -68.7556 36.296C-68.3716 36.296 -68.0303 36.232 -67.7316 36.104C-67.433 35.9653 -67.1823 35.784 -66.9796 35.56C-66.777 35.3253 -66.6223 35.0587 -66.5156 34.76C-66.409 34.4613 -66.3556 34.1467 -66.3556 33.816V33.256H-66.6756ZM-62.5927 37V29.512H-61.5047V36.088H-58.1447V29.512H-57.0567V36.088H-53.6807V29.512H-52.5927V37H-62.5927ZM-44.1307 30.904L-48.7227 37H-49.8427V29.512H-48.7227V35.384L-44.1307 29.512H-43.0107V37H-44.1307V30.904ZM-35.1766 32.584C-34.75 32.584 -34.35 32.616 -33.9766 32.68L-31.2886 29.512H-30.0726L-32.9846 32.904C-32.0993 33.1813 -31.4113 33.656 -30.9206 34.328C-30.43 34.9893 -30.0406 35.88 -29.7526 37H-30.9686C-31.118 36.3387 -31.31 35.7893 -31.5446 35.352C-31.7686 34.904 -32.0566 34.5467 -32.4086 34.28C-32.75 34.0027 -33.15 33.8107 -33.6086 33.704C-34.0673 33.5867 -34.59 33.5227 -35.1766 33.512V37H-36.2646V29.512H-35.1766V32.584ZM-22.4251 37L-24.9051 30.824L-27.4971 37H-28.6331L-25.3531 29.512H-24.3931L-21.3211 37H-22.4251ZM-13.912 30.904L-18.504 37H-19.624V29.512H-18.504V35.384L-13.912 29.512H-12.792V37H-13.912V30.904ZM-4.26987 32.68C-4.30187 31.976 -4.53121 31.3947 -4.95787 30.936C-5.37387 30.4667 -5.97121 30.232 -6.74987 30.232C-7.11254 30.232 -7.44854 30.3013 -7.75787 30.44C-8.06721 30.568 -8.33921 30.7493 -8.57387 30.984C-8.80854 31.208 -8.99521 31.4693 -9.13387 31.768C-9.27254 32.056 -9.35254 32.36 -9.37387 32.68H-4.26987ZM-3.16587 33.032C-3.16587 33.1067 -3.16587 33.1867 -3.16587 33.272C-3.16587 33.3573 -3.17121 33.448 -3.18187 33.544H-9.38987C-9.37921 33.9173 -9.30454 34.2693 -9.16587 34.6C-9.02721 34.9307 -8.83521 35.2187 -8.58987 35.464C-8.34454 35.7093 -8.05654 35.9067 -7.72587 36.056C-7.39521 36.1947 -7.03787 36.264 -6.65387 36.264C-6.08854 36.264 -5.60321 36.136 -5.19787 35.88C-4.78187 35.6133 -4.46721 35.3093 -4.25387 34.968L-3.43787 35.608C-3.88587 36.1733 -4.38187 36.5787 -4.92587 36.824C-5.45921 37.0693 -6.03521 37.192 -6.65387 37.192C-7.20854 37.192 -7.72587 37.096 -8.20587 36.904C-8.67521 36.7013 -9.08054 36.424 -9.42188 36.072C-9.76321 35.72 -10.0352 35.304 -10.2379 34.824C-10.4299 34.344 -10.5259 33.8213 -10.5259 33.256C-10.5259 32.6907 -10.4299 32.168 -10.2379 31.688C-10.0459 31.208 -9.77921 30.792 -9.43787 30.44C-9.09654 30.088 -8.69654 29.816 -8.23787 29.624C-7.77921 29.4213 -7.28321 29.32 -6.74987 29.32C-6.16321 29.32 -5.64587 29.4213 -5.19787 29.624C-4.74987 29.816 -4.37654 30.0827 -4.07787 30.424C-3.77921 30.7547 -3.55521 31.144 -3.40587 31.592C-3.24587 32.04 -3.16587 32.52 -3.16587 33.032ZM0.198375 37H-0.889625V29.512H0.198375V32.536H4.47038V29.512H5.55838V37H4.47038V33.448H0.198375V37ZM7.0975 29.512H13.6735V30.424H10.8415V37H9.7535V30.424H7.0975V29.512ZM16.2921 29.512V32.104H17.8281C18.3828 32.104 18.8521 32.168 19.2361 32.296C19.6201 32.4133 19.9295 32.584 20.1641 32.808C20.3988 33.0213 20.5695 33.2773 20.6761 33.576C20.7828 33.8747 20.8361 34.1947 20.8361 34.536C20.8361 34.8773 20.7721 35.1973 20.6441 35.496C20.5268 35.7947 20.3455 36.056 20.1001 36.28C19.8548 36.504 19.5455 36.68 19.1721 36.808C18.8095 36.936 18.3828 37 17.8921 37H15.2041V29.512H16.2921ZM16.2921 36.12H17.6361C17.9348 36.12 18.2121 36.0987 18.4681 36.056C18.7241 36.0027 18.9375 35.9173 19.1081 35.8C19.2895 35.672 19.4281 35.5067 19.5241 35.304C19.6308 35.1013 19.6841 34.8453 19.6841 34.536C19.6841 34.2267 19.6308 33.9707 19.5241 33.768C19.4175 33.5653 19.2681 33.4053 19.0761 33.288C18.8948 33.1707 18.6761 33.0907 18.4201 33.048C18.1641 32.9947 17.8868 32.968 17.5881 32.968H16.2921V36.12ZM22.9001 29.512V37H21.8121V29.512H22.9001Z" fill="#EBAA5B"/>
<path d="M34.0278 42.7265L38.8688 31.0692L42.9864 20.636H45.6851L40.9554 32.0152L36.6987 42.7265H34.0278Z" fill="#EBAA5B" fill-opacity="0.2"/>
<path d="M57.504 25.672H58.656V30.584H64.832V25.672H65.984V37H64.832V31.64H58.656V37H57.504V25.672ZM73.6444 32.168C73.6444 31.5173 73.4737 31.032 73.1324 30.712C72.791 30.392 72.295 30.232 71.6444 30.232C71.1964 30.232 70.7804 30.312 70.3964 30.472C70.0124 30.632 69.687 30.8453 69.4204 31.112L68.8124 30.392C69.1217 30.0827 69.527 29.8267 70.0284 29.624C70.5404 29.4213 71.1164 29.32 71.7564 29.32C72.1617 29.32 72.5404 29.3787 72.8924 29.496C73.2444 29.6027 73.5537 29.768 73.8204 29.992C74.087 30.216 74.295 30.4987 74.4444 30.84C74.5937 31.1813 74.6684 31.5813 74.6684 32.04V35.32C74.6684 35.608 74.679 35.9067 74.7004 36.216C74.7217 36.5253 74.7537 36.7867 74.7964 37H73.8204C73.7884 36.8187 73.7617 36.6213 73.7404 36.408C73.719 36.1947 73.7084 35.9867 73.7084 35.784H73.6764C73.335 36.2853 72.9457 36.648 72.5084 36.872C72.0817 37.0853 71.5644 37.192 70.9564 37.192C70.6684 37.192 70.3697 37.1493 70.0604 37.064C69.7617 36.9893 69.4844 36.8613 69.2284 36.68C68.983 36.4987 68.775 36.264 68.6044 35.976C68.4444 35.688 68.3644 35.336 68.3644 34.92C68.3644 34.344 68.5084 33.8907 68.7964 33.56C69.095 33.2187 69.4897 32.968 69.9804 32.808C70.471 32.6373 71.031 32.5307 71.6604 32.488C72.3004 32.4347 72.9617 32.408 73.6444 32.408V32.168ZM73.3244 33.256C72.8764 33.256 72.423 33.2773 71.9644 33.32C71.5164 33.352 71.1057 33.4267 70.7324 33.544C70.3697 33.6507 70.071 33.8107 69.8364 34.024C69.6017 34.2373 69.4844 34.52 69.4844 34.872C69.4844 35.1387 69.5324 35.3627 69.6284 35.544C69.735 35.7253 69.8737 35.8747 70.0444 35.992C70.215 36.0987 70.4017 36.1787 70.6044 36.232C70.8177 36.2747 71.031 36.296 71.2444 36.296C71.6284 36.296 71.9697 36.232 72.2684 36.104C72.567 35.9653 72.8177 35.784 73.0204 35.56C73.223 35.3253 73.3777 35.0587 73.4844 34.76C73.591 34.4613 73.6444 34.1467 73.6444 33.816V33.256H73.3244ZM77.4073 37V29.512H78.4953V36.088H81.8553V29.512H82.9433V36.088H86.3193V29.512H87.4073V37H77.4073ZM95.8693 30.904L91.2773 37H90.1573V29.512H91.2773V35.384L95.8693 29.512H96.9893V37H95.8693V30.904ZM104.823 32.584C105.25 32.584 105.65 32.616 106.023 32.68L108.711 29.512H109.927L107.015 32.904C107.901 33.1813 108.589 33.656 109.079 34.328C109.57 34.9893 109.959 35.88 110.247 37H109.031C108.882 36.3387 108.69 35.7893 108.455 35.352C108.231 34.904 107.943 34.5467 107.591 34.28C107.25 34.0027 106.85 33.8107 106.391 33.704C105.933 33.5867 105.41 33.5227 104.823 33.512V37H103.735V29.512H104.823V32.584ZM117.575 37L115.095 30.824L112.503 37H111.367L114.647 29.512H115.607L118.679 37H117.575ZM126.088 30.904L121.496 37H120.376V29.512H121.496V35.384L126.088 29.512H127.208V37H126.088V30.904ZM135.73 32.68C135.698 31.976 135.469 31.3947 135.042 30.936C134.626 30.4667 134.029 30.232 133.25 30.232C132.887 30.232 132.551 30.3013 132.242 30.44C131.933 30.568 131.661 30.7493 131.426 30.984C131.191 31.208 131.005 31.4693 130.866 31.768C130.727 32.056 130.647 32.36 130.626 32.68H135.73ZM136.834 33.032C136.834 33.1067 136.834 33.1867 136.834 33.272C136.834 33.3573 136.829 33.448 136.818 33.544H130.61C130.621 33.9173 130.695 34.2693 130.834 34.6C130.973 34.9307 131.165 35.2187 131.41 35.464C131.655 35.7093 131.943 35.9067 132.274 36.056C132.605 36.1947 132.962 36.264 133.346 36.264C133.911 36.264 134.397 36.136 134.802 35.88C135.218 35.6133 135.533 35.3093 135.746 34.968L136.562 35.608C136.114 36.1733 135.618 36.5787 135.074 36.824C134.541 37.0693 133.965 37.192 133.346 37.192C132.791 37.192 132.274 37.096 131.794 36.904C131.325 36.7013 130.919 36.424 130.578 36.072C130.237 35.72 129.965 35.304 129.762 34.824C129.57 34.344 129.474 33.8213 129.474 33.256C129.474 32.6907 129.57 32.168 129.762 31.688C129.954 31.208 130.221 30.792 130.562 30.44C130.903 30.088 131.303 29.816 131.762 29.624C132.221 29.4213 132.717 29.32 133.25 29.32C133.837 29.32 134.354 29.4213 134.802 29.624C135.25 29.816 135.623 30.0827 135.922 30.424C136.221 30.7547 136.445 31.144 136.594 31.592C136.754 32.04 136.834 32.52 136.834 33.032ZM140.198 37H139.11V29.512H140.198V32.536H144.47V29.512H145.558V37H144.47V33.448H140.198V37ZM147.098 29.512H153.674V30.424H150.842V37H149.754V30.424H147.098V29.512ZM156.292 29.512V32.104H157.828C158.383 32.104 158.852 32.168 159.236 32.296C159.62 32.4133 159.929 32.584 160.164 32.808C160.399 33.0213 160.569 33.2773 160.676 33.576C160.783 33.8747 160.836 34.1947 160.836 34.536C160.836 34.8773 160.772 35.1973 160.644 35.496C160.527 35.7947 160.345 36.056 160.1 36.28C159.855 36.504 159.545 36.68 159.172 36.808C158.809 36.936 158.383 37 157.892 37H155.204V29.512H156.292ZM156.292 36.12H157.636C157.935 36.12 158.212 36.0987 158.468 36.056C158.724 36.0027 158.937 35.9173 159.108 35.8C159.289 35.672 159.428 35.5067 159.524 35.304C159.631 35.1013 159.684 34.8453 159.684 34.536C159.684 34.2267 159.631 33.9707 159.524 33.768C159.417 33.5653 159.268 33.4053 159.076 33.288C158.895 33.1707 158.676 33.0907 158.42 33.048C158.164 32.9947 157.887 32.968 157.588 32.968H156.292V36.12ZM162.9 29.512V37H161.812V29.512H162.9Z" fill="#EBAA5B"/>
<path d="M174.028 42.7265L178.869 31.0692L182.986 20.636H185.685L180.955 32.0152L176.699 42.7265H174.028Z" fill="#EBAA5B" fill-opacity="0.2"/>
<path d="M197.504 25.672H198.656V30.584H204.832V25.672H205.984V37H204.832V31.64H198.656V37H197.504V25.672ZM213.644 32.168C213.644 31.5173 213.474 31.032 213.132 30.712C212.791 30.392 212.295 30.232 211.644 30.232C211.196 30.232 210.78 30.312 210.396 30.472C210.012 30.632 209.687 30.8453 209.42 31.112L208.812 30.392C209.122 30.0827 209.527 29.8267 210.028 29.624C210.54 29.4213 211.116 29.32 211.756 29.32C212.162 29.32 212.54 29.3787 212.892 29.496C213.244 29.6027 213.554 29.768 213.82 29.992C214.087 30.216 214.295 30.4987 214.444 30.84C214.594 31.1813 214.668 31.5813 214.668 32.04V35.32C214.668 35.608 214.679 35.9067 214.7 36.216C214.722 36.5253 214.754 36.7867 214.796 37H213.82C213.788 36.8187 213.762 36.6213 213.74 36.408C213.719 36.1947 213.708 35.9867 213.708 35.784H213.676C213.335 36.2853 212.946 36.648 212.508 36.872C212.082 37.0853 211.564 37.192 210.956 37.192C210.668 37.192 210.37 37.1493 210.06 37.064C209.762 36.9893 209.484 36.8613 209.228 36.68C208.983 36.4987 208.775 36.264 208.604 35.976C208.444 35.688 208.364 35.336 208.364 34.92C208.364 34.344 208.508 33.8907 208.796 33.56C209.095 33.2187 209.49 32.968 209.98 32.808C210.471 32.6373 211.031 32.5307 211.66 32.488C212.3 32.4347 212.962 32.408 213.644 32.408V32.168ZM213.324 33.256C212.876 33.256 212.423 33.2773 211.964 33.32C211.516 33.352 211.106 33.4267 210.732 33.544C210.37 33.6507 210.071 33.8107 209.836 34.024C209.602 34.2373 209.484 34.52 209.484 34.872C209.484 35.1387 209.532 35.3627 209.628 35.544C209.735 35.7253 209.874 35.8747 210.044 35.992C210.215 36.0987 210.402 36.1787 210.604 36.232C210.818 36.2747 211.031 36.296 211.244 36.296C211.628 36.296 211.97 36.232 212.268 36.104C212.567 35.9653 212.818 35.784 213.02 35.56C213.223 35.3253 213.378 35.0587 213.484 34.76C213.591 34.4613 213.644 34.1467 213.644 33.816V33.256H213.324ZM217.407 37V29.512H218.495V36.088H221.855V29.512H222.943V36.088H226.319V29.512H227.407V37H217.407ZM235.869 30.904L231.277 37H230.157V29.512H231.277V35.384L235.869 29.512H236.989V37H235.869V30.904ZM244.823 32.584C245.25 32.584 245.65 32.616 246.023 32.68L248.711 29.512H249.927L247.015 32.904C247.901 33.1813 248.589 33.656 249.079 34.328C249.57 34.9893 249.959 35.88 250.247 37H249.031C248.882 36.3387 248.69 35.7893 248.455 35.352C248.231 34.904 247.943 34.5467 247.591 34.28C247.25 34.0027 246.85 33.8107 246.391 33.704C245.933 33.5867 245.41 33.5227 244.823 33.512V37H243.735V29.512H244.823V32.584ZM257.575 37L255.095 30.824L252.503 37H251.367L254.647 29.512H255.607L258.679 37H257.575ZM266.088 30.904L261.496 37H260.376V29.512H261.496V35.384L266.088 29.512H267.208V37H266.088V30.904ZM275.73 32.68C275.698 31.976 275.469 31.3947 275.042 30.936C274.626 30.4667 274.029 30.232 273.25 30.232C272.887 30.232 272.551 30.3013 272.242 30.44C271.933 30.568 271.661 30.7493 271.426 30.984C271.191 31.208 271.005 31.4693 270.866 31.768C270.727 32.056 270.647 32.36 270.626 32.68H275.73ZM276.834 33.032C276.834 33.1067 276.834 33.1867 276.834 33.272C276.834 33.3573 276.829 33.448 276.818 33.544H270.61C270.621 33.9173 270.695 34.2693 270.834 34.6C270.973 34.9307 271.165 35.2187 271.41 35.464C271.655 35.7093 271.943 35.9067 272.274 36.056C272.605 36.1947 272.962 36.264 273.346 36.264C273.911 36.264 274.397 36.136 274.802 35.88C275.218 35.6133 275.533 35.3093 275.746 34.968L276.562 35.608C276.114 36.1733 275.618 36.5787 275.074 36.824C274.541 37.0693 273.965 37.192 273.346 37.192C272.791 37.192 272.274 37.096 271.794 36.904C271.325 36.7013 270.919 36.424 270.578 36.072C270.237 35.72 269.965 35.304 269.762 34.824C269.57 34.344 269.474 33.8213 269.474 33.256C269.474 32.6907 269.57 32.168 269.762 31.688C269.954 31.208 270.221 30.792 270.562 30.44C270.903 30.088 271.303 29.816 271.762 29.624C272.221 29.4213 272.717 29.32 273.25 29.32C273.837 29.32 274.354 29.4213 274.802 29.624C275.25 29.816 275.623 30.0827 275.922 30.424C276.221 30.7547 276.445 31.144 276.594 31.592C276.754 32.04 276.834 32.52 276.834 33.032ZM280.198 37H279.11V29.512H280.198V32.536H284.47V29.512H285.558V37H284.47V33.448H280.198V37ZM287.098 29.512H293.674V30.424H290.842V37H289.754V30.424H287.098V29.512ZM296.292 29.512V32.104H297.828C298.383 32.104 298.852 32.168 299.236 32.296C299.62 32.4133 299.929 32.584 300.164 32.808C300.399 33.0213 300.569 33.2773 300.676 33.576C300.783 33.8747 300.836 34.1947 300.836 34.536C300.836 34.8773 300.772 35.1973 300.644 35.496C300.527 35.7947 300.345 36.056 300.1 36.28C299.855 36.504 299.545 36.68 299.172 36.808C298.809 36.936 298.383 37 297.892 37H295.204V29.512H296.292ZM296.292 36.12H297.636C297.935 36.12 298.212 36.0987 298.468 36.056C298.724 36.0027 298.937 35.9173 299.108 35.8C299.289 35.672 299.428 35.5067 299.524 35.304C299.631 35.1013 299.684 34.8453 299.684 34.536C299.684 34.2267 299.631 33.9707 299.524 33.768C299.417 33.5653 299.268 33.4053 299.076 33.288C298.895 33.1707 298.676 33.0907 298.42 33.048C298.164 32.9947 297.887 32.968 297.588 32.968H296.292V36.12ZM302.9 29.512V37H301.812V29.512H302.9Z" fill="#EBAA5B"/>
<path d="M314.028 42.7265L318.869 31.0692L322.986 20.636H325.685L320.955 32.0152L316.699 42.7265H314.028Z" fill="#EBAA5B" fill-opacity="0.2"/>
<path d="M337.504 25.672H338.656V30.584H344.832V25.672H345.984V37H344.832V31.64H338.656V37H337.504V25.672ZM353.644 32.168C353.644 31.5173 353.474 31.032 353.132 30.712C352.791 30.392 352.295 30.232 351.644 30.232C351.196 30.232 350.78 30.312 350.396 30.472C350.012 30.632 349.687 30.8453 349.42 31.112L348.812 30.392C349.122 30.0827 349.527 29.8267 350.028 29.624C350.54 29.4213 351.116 29.32 351.756 29.32C352.162 29.32 352.54 29.3787 352.892 29.496C353.244 29.6027 353.554 29.768 353.82 29.992C354.087 30.216 354.295 30.4987 354.444 30.84C354.594 31.1813 354.668 31.5813 354.668 32.04V35.32C354.668 35.608 354.679 35.9067 354.7 36.216C354.722 36.5253 354.754 36.7867 354.796 37H353.82C353.788 36.8187 353.762 36.6213 353.74 36.408C353.719 36.1947 353.708 35.9867 353.708 35.784H353.676C353.335 36.2853 352.946 36.648 352.508 36.872C352.082 37.0853 351.564 37.192 350.956 37.192C350.668 37.192 350.37 37.1493 350.06 37.064C349.762 36.9893 349.484 36.8613 349.228 36.68C348.983 36.4987 348.775 36.264 348.604 35.976C348.444 35.688 348.364 35.336 348.364 34.92C348.364 34.344 348.508 33.8907 348.796 33.56C349.095 33.2187 349.49 32.968 349.98 32.808C350.471 32.6373 351.031 32.5307 351.66 32.488C352.3 32.4347 352.962 32.408 353.644 32.408V32.168ZM353.324 33.256C352.876 33.256 352.423 33.2773 351.964 33.32C351.516 33.352 351.106 33.4267 350.732 33.544C350.37 33.6507 350.071 33.8107 349.836 34.024C349.602 34.2373 349.484 34.52 349.484 34.872C349.484 35.1387 349.532 35.3627 349.628 35.544C349.735 35.7253 349.874 35.8747 350.044 35.992C350.215 36.0987 350.402 36.1787 350.604 36.232C350.818 36.2747 351.031 36.296 351.244 36.296C351.628 36.296 351.97 36.232 352.268 36.104C352.567 35.9653 352.818 35.784 353.02 35.56C353.223 35.3253 353.378 35.0587 353.484 34.76C353.591 34.4613 353.644 34.1467 353.644 33.816V33.256H353.324ZM357.407 37V29.512H358.495V36.088H361.855V29.512H362.943V36.088H366.319V29.512H367.407V37H357.407ZM375.869 30.904L371.277 37H370.157V29.512H371.277V35.384L375.869 29.512H376.989V37H375.869V30.904ZM384.823 32.584C385.25 32.584 385.65 32.616 386.023 32.68L388.711 29.512H389.927L387.015 32.904C387.901 33.1813 388.589 33.656 389.079 34.328C389.57 34.9893 389.959 35.88 390.247 37H389.031C388.882 36.3387 388.69 35.7893 388.455 35.352C388.231 34.904 387.943 34.5467 387.591 34.28C387.25 34.0027 386.85 33.8107 386.391 33.704C385.933 33.5867 385.41 33.5227 384.823 33.512V37H383.735V29.512H384.823V32.584ZM397.575 37L395.095 30.824L392.503 37H391.367L394.647 29.512H395.607L398.679 37H397.575ZM406.088 30.904L401.496 37H400.376V29.512H401.496V35.384L406.088 29.512H407.208V37H406.088V30.904ZM415.73 32.68C415.698 31.976 415.469 31.3947 415.042 30.936C414.626 30.4667 414.029 30.232 413.25 30.232C412.887 30.232 412.551 30.3013 412.242 30.44C411.933 30.568 411.661 30.7493 411.426 30.984C411.191 31.208 411.005 31.4693 410.866 31.768C410.727 32.056 410.647 32.36 410.626 32.68H415.73ZM416.834 33.032C416.834 33.1067 416.834 33.1867 416.834 33.272C416.834 33.3573 416.829 33.448 416.818 33.544H410.61C410.621 33.9173 410.695 34.2693 410.834 34.6C410.973 34.9307 411.165 35.2187 411.41 35.464C411.655 35.7093 411.943 35.9067 412.274 36.056C412.605 36.1947 412.962 36.264 413.346 36.264C413.911 36.264 414.397 36.136 414.802 35.88C415.218 35.6133 415.533 35.3093 415.746 34.968L416.562 35.608C416.114 36.1733 415.618 36.5787 415.074 36.824C414.541 37.0693 413.965 37.192 413.346 37.192C412.791 37.192 412.274 37.096 411.794 36.904C411.325 36.7013 410.919 36.424 410.578 36.072C410.237 35.72 409.965 35.304 409.762 34.824C409.57 34.344 409.474 33.8213 409.474 33.256C409.474 32.6907 409.57 32.168 409.762 31.688C409.954 31.208 410.221 30.792 410.562 30.44C410.903 30.088 411.303 29.816 411.762 29.624C412.221 29.4213 412.717 29.32 413.25 29.32C413.837 29.32 414.354 29.4213 414.802 29.624C415.25 29.816 415.623 30.0827 415.922 30.424C416.221 30.7547 416.445 31.144 416.594 31.592C416.754 32.04 416.834 32.52 416.834 33.032ZM420.198 37H419.11V29.512H420.198V32.536H424.47V29.512H425.558V37H424.47V33.448H420.198V37ZM427.098 29.512H433.674V30.424H430.842V37H429.754V30.424H427.098V29.512ZM436.292 29.512V32.104H437.828C438.383 32.104 438.852 32.168 439.236 32.296C439.62 32.4133 439.929 32.584 440.164 32.808C440.399 33.0213 440.569 33.2773 440.676 33.576C440.783 33.8747 440.836 34.1947 440.836 34.536C440.836 34.8773 440.772 35.1973 440.644 35.496C440.527 35.7947 440.345 36.056 440.1 36.28C439.855 36.504 439.545 36.68 439.172 36.808C438.809 36.936 438.383 37 437.892 37H435.204V29.512H436.292ZM436.292 36.12H437.636C437.935 36.12 438.212 36.0987 438.468 36.056C438.724 36.0027 438.937 35.9173 439.108 35.8C439.289 35.672 439.428 35.5067 439.524 35.304C439.631 35.1013 439.684 34.8453 439.684 34.536C439.684 34.2267 439.631 33.9707 439.524 33.768C439.417 33.5653 439.268 33.4053 439.076 33.288C438.895 33.1707 438.676 33.0907 438.42 33.048C438.164 32.9947 437.887 32.968 437.588 32.968H436.292V36.12ZM442.9 29.512V37H441.812V29.512H442.9Z" fill="#EBAA5B"/>
</svg>
