<svg width="16" height="16" viewBox="0 0 16 16" fill="none" xmlns="http://www.w3.org/2000/svg">
<g id="Group">
<path id="Vector" d="M14.7422 -0.456973C14.486 -0.494683 14.248 -0.317691 14.2103 -0.0616224C13.6288 3.88591 11.0169 6.75106 7.99998 6.75106C4.98327 6.75106 2.37154 3.88622 1.78979 -0.0608726C1.75199 -0.316972 1.51369 -0.493964 1.25778 -0.456223C1.00171 -0.418481 0.824721 -0.180284 0.862463 0.0757536C1.17455 2.19332 2.05051 4.12039 3.32895 5.50199C4.2768 6.52633 5.41171 7.2159 6.61632 7.51664V8.97048L7.19128 8.56616C7.42929 8.39879 7.70895 8.31031 7.99998 8.31031C8.29101 8.31031 8.57073 8.39882 8.80877 8.56622L9.38368 8.97048V7.51661C10.5883 7.2158 11.7233 6.52614 12.6712 5.50171C13.9497 4.11995 14.8256 2.19269 15.1375 0.0749725C15.1752 -0.181096 14.9982 -0.419262 14.7422 -0.456973ZM10.1728 10.6712L8.26958 9.33293C8.19065 9.27741 8.09651 9.24762 8.00001 9.24762C7.90352 9.24762 7.80937 9.27741 7.73045 9.33293L5.82727 10.6712C5.76577 10.7144 5.71558 10.7718 5.68093 10.8386C5.64628 10.9053 5.62819 10.9794 5.62819 11.0545V13.7311C5.62819 13.8062 5.64628 13.8803 5.68093 13.947C5.71558 14.0138 5.76577 14.0712 5.82727 14.1144L7.73045 15.4526C7.8113 15.5095 7.90566 15.5379 8.00001 15.5379C8.09437 15.5379 8.18872 15.5095 8.26958 15.4526L10.1728 14.1144C10.2343 14.0712 10.2844 14.0138 10.3191 13.947C10.3537 13.8803 10.3718 13.8062 10.3718 13.7311V11.0545C10.3718 10.902 10.2976 10.759 10.1728 10.6712Z" fill="#1A1B1C"/>
</g>
</svg>
