<svg xmlns="http://www.w3.org/2000/svg" viewBox="0 0 92 21" fill="none">
  <g clip-path="url(#clip0_4323_7045)">
    <path d="M30.6329 7.20947C30.752 6.88863 30.8084 6.54962 30.8021 6.20457C30.8084 5.8353 30.7457 5.45997 30.6141 5.11492C30.3885 4.53377 29.8934 4.09185 29.273 3.9163C28.9346 3.81339 28.5899 3.76496 28.2326 3.77101H25.707V11.4652H27.3678V8.66234H28.3266C28.6776 8.66839 29.0286 8.60785 29.3544 8.48678C29.649 8.37782 29.9122 8.20831 30.1378 7.99038C30.3572 7.7664 30.5264 7.50004 30.6329 7.20947ZM28.9032 6.94916C28.7215 7.09445 28.4896 7.16709 28.2577 7.16709H27.3678V5.25415H28.2326C28.4833 5.24204 28.7277 5.31468 28.922 5.47208C29.11 5.66579 29.1978 5.9261 29.1727 6.18641C29.204 6.47093 29.0975 6.74939 28.8907 6.94916" fill="white"/>
    <path d="M35.6164 11.3623C35.9172 11.2533 36.1867 11.0838 36.4123 10.8659C36.6442 10.6419 36.8259 10.3755 36.9387 10.0789C37.0704 9.752 37.133 9.40089 37.1268 9.04978V6.18642C37.1268 5.88374 37.0766 5.58106 36.9701 5.29049C36.8698 4.99991 36.7131 4.7275 36.5063 4.49746C36.287 4.25532 36.0175 4.0616 35.7167 3.93448C35.3595 3.78314 34.9772 3.71049 34.5886 3.71655C34.1813 3.70444 33.7739 3.78314 33.4041 3.94053C33.0971 4.07976 32.8276 4.27348 32.6082 4.52168C32.4014 4.75171 32.251 5.02413 32.1633 5.3147C32.0755 5.59317 32.0254 5.88374 32.0254 6.17431V8.9166C32.0254 9.24955 32.0755 9.5825 32.1695 9.90334C32.2573 10.206 32.4077 10.4905 32.6145 10.7387C32.8338 10.9869 33.1033 11.1807 33.4104 11.3078C34.1123 11.5741 34.8957 11.5923 35.6101 11.3441M33.6862 8.97109V6.11378C33.6924 5.90796 33.7676 5.70819 33.9118 5.55685C33.987 5.46604 34.0872 5.3934 34.1938 5.33892C34.3254 5.27838 34.4695 5.24811 34.6199 5.25417C34.7641 5.24811 34.9082 5.28443 35.0398 5.35102C35.1464 5.41156 35.2341 5.4842 35.3093 5.57501C35.372 5.65976 35.4221 5.75056 35.4535 5.85347C35.4785 5.93822 35.4911 6.02297 35.4911 6.10773V9.15875C35.5036 9.38879 35.4096 9.61277 35.2341 9.76411C35.0649 9.9094 34.8456 9.98204 34.6199 9.98204C34.3442 10.0184 34.0684 9.9094 33.893 9.70357C33.7426 9.4917 33.6611 9.23139 33.6674 8.97109" fill="white"/>
    <path d="M39.3262 10.751C39.5393 10.9992 39.8088 11.1929 40.1159 11.32C40.4856 11.4713 40.8867 11.544 41.2878 11.5379C41.8832 11.5561 42.4598 11.3745 42.9361 11.0294C43.3935 10.6783 43.6944 10.1759 43.7821 9.62499L42.2028 9.19519C42.1652 9.65526 41.7641 10.0064 41.2878 10.0003C41.0183 10.0245 40.7614 9.90951 40.6047 9.70369C40.4668 9.48576 40.3916 9.23151 40.4042 8.9712V6.1139C40.4042 6.01704 40.423 5.92623 40.448 5.83543C40.4794 5.73252 40.5295 5.64171 40.5984 5.55696C40.6737 5.46616 40.7614 5.39351 40.8679 5.33903C40.9995 5.2785 41.1499 5.25428 41.2941 5.25428C41.4382 5.24823 41.5761 5.2785 41.7077 5.33903C41.8143 5.39351 41.9083 5.46616 41.9897 5.55696C42.0649 5.63566 42.1213 5.72646 42.1589 5.82938C42.1903 5.91413 42.2153 5.99888 42.2341 6.08968L43.7946 5.63566C43.7382 5.38141 43.6442 5.13926 43.5189 4.90923C43.3873 4.67919 43.2118 4.47336 43.0113 4.30386C42.7919 4.1162 42.5412 3.97091 42.2655 3.87406C41.5573 3.63797 40.7865 3.66218 40.0971 3.94065C39.7963 4.07988 39.5268 4.2736 39.3074 4.52179C39.1069 4.75183 38.9502 5.02424 38.8625 5.31482C38.7685 5.59328 38.7246 5.88386 38.7246 6.17443V8.92277C38.7246 9.26178 38.7747 9.59473 38.8688 9.91557C38.9628 10.2243 39.1132 10.5088 39.3262 10.751Z" fill="white"/>
    <path d="M46.898 5.8354C46.9293 5.73248 46.9795 5.64168 47.0421 5.55693C47.1173 5.46612 47.2113 5.39348 47.3179 5.339C47.4495 5.27846 47.5936 5.25425 47.744 5.25425C47.8882 5.24819 48.0261 5.27846 48.1577 5.339C48.2642 5.39348 48.3582 5.46612 48.4459 5.55693C48.5212 5.63563 48.5776 5.72643 48.6089 5.82934C48.6402 5.9262 48.6653 6.017 48.6841 6.08965L50.2446 5.63563C50.1945 5.38137 50.1067 5.13923 49.9814 4.90919C49.8498 4.67915 49.6806 4.47333 49.4737 4.30383C49.2544 4.11617 49.0037 3.97088 48.7342 3.87402C48.4209 3.76506 48.0825 3.71058 47.7503 3.71663C47.343 3.70452 46.9419 3.77717 46.5658 3.93456C46.2588 4.06774 45.9893 4.26751 45.7762 4.51571C45.5757 4.74574 45.4252 5.01816 45.3312 5.30873C45.2435 5.5872 45.1934 5.87777 45.1934 6.16834V8.92274C45.1934 9.26174 45.2372 9.59469 45.3312 9.91553C45.419 10.2182 45.5694 10.5027 45.7762 10.7509C45.9893 10.9991 46.2588 11.1928 46.5658 11.32C46.9356 11.4713 47.3367 11.544 47.7378 11.5379C48.3331 11.5561 48.9097 11.3745 49.386 11.0294C49.8435 10.6843 50.1443 10.1819 50.2321 9.62496L48.6528 9.18305C48.6152 9.63707 48.2203 9.98818 47.744 9.98818C47.4808 10.0184 47.2176 9.90948 47.0547 9.70366C46.9105 9.48573 46.8416 9.23147 46.8541 8.97117V6.11386C46.8541 6.02306 46.8667 5.9262 46.898 5.8354Z" fill="white"/>
    <path d="M51.8281 11.4651H56.4595V9.95174H53.4889V8.31726H56.0458V6.84623H53.4889V5.25413H56.4595V3.771H51.8281V11.4651Z" fill="white"/>
    <path d="M57.375 5.23041H59.0796V11.4656H60.7279V5.23041H62.4325V3.77148H57.375V5.23041Z" fill="white"/>
    <path d="M67.7357 3.77148L65.4545 8.23905H65.4357V3.77148H63.7812V11.4656H65.3417L67.5603 7.28258H67.5728V11.4656H69.2336V3.77148H67.7357Z" fill="white"/>
    <path d="M13.0742 6.31982L6.73828 20.2129C9.36417 21.2541 12.3097 21.2662 14.9481 20.2431L13.3625 6.3622C13.2685 6.35615 13.1683 6.34404 13.0742 6.31982Z" fill="white"/>
    <path d="M12.3652 5.90234L0.445312 13.4875C1.26003 16.1148 3.09627 18.3365 5.57801 19.6743L12.5657 6.09606C12.4843 6.04158 12.4091 5.97499 12.3401 5.90234" fill="white"/>
    <path d="M13.9082 6.28366L16.1393 19.6924C18.6461 18.3546 20.5074 16.1147 21.3158 13.4572L14.2592 6.13232C14.1526 6.20497 14.0335 6.25945 13.9082 6.29577" fill="white"/>
    <path d="M12.5163 3.84405L10.2414 0C7.37108 0.157394 4.68879 1.41049 2.77734 3.48083L12.0337 4.55837C12.1152 4.27991 12.2844 4.03171 12.5163 3.84405Z" fill="white"/>
    <path d="M14.9089 5.00019C14.8964 5.26655 14.8086 5.5208 14.6582 5.73873L21.6271 12.1192C21.7149 11.5805 21.7587 11.0356 21.7587 10.4848C21.7587 8.31758 21.0631 6.20486 19.7658 4.43115L14.9089 5.00019Z" fill="white"/>
    <path d="M11.9886 5.09676L1.87359 4.58826C0.306831 6.82204 -0.313605 9.55828 0.150156 12.2219L12.07 5.45392C12.0262 5.33891 11.9948 5.21783 11.9886 5.09676Z" fill="white"/>
    <path d="M13.4755 3.52308C14.0583 3.53519 14.5785 3.88025 14.7978 4.40086L18.9529 3.45044C17.054 1.41037 14.403 0.169379 11.5703 -0.00012207L13.1057 3.5594C13.2248 3.53519 13.3501 3.52308 13.4755 3.52308Z" fill="white"/>
    <path d="M28.9467 20.1645V17.2406H28.9153L28.5393 18.1728L28.0505 19.2625H27.4489L26.9412 18.1365L26.5777 17.2406H26.5589V20.1645H25.7129V15.1763H26.5088L27.2295 16.8168L27.7309 18.0215H27.7622L28.2573 16.8168L28.9717 15.1884H29.7865V20.1705H28.9467V20.1645Z" fill="white"/>
    <path d="M33.8684 18.6511C33.8747 18.869 33.8308 19.093 33.7493 19.2988C33.6741 19.4804 33.5676 19.6499 33.4234 19.7891C33.2793 19.9284 33.1101 20.0313 32.9221 20.0979C32.7152 20.1705 32.5022 20.2068 32.2828 20.2068C32.0321 20.2129 31.7877 20.1705 31.5558 20.0737C31.3616 19.995 31.1924 19.8678 31.0608 19.7165C30.9291 19.5591 30.8351 19.3835 30.785 19.1898C30.7223 18.984 30.6973 18.7721 30.6973 18.5603V16.6776C30.6973 16.496 30.7286 16.3144 30.785 16.1388C30.8414 15.9572 30.9354 15.7877 31.0608 15.6424C31.1986 15.4911 31.3616 15.3639 31.5496 15.2731C31.7815 15.1702 32.0321 15.1218 32.2891 15.1339C32.5335 15.1278 32.7717 15.1763 32.991 15.2671C33.179 15.3518 33.3482 15.4729 33.4861 15.6242C33.6177 15.7695 33.7117 15.939 33.7744 16.1206C33.837 16.3022 33.8684 16.4899 33.8684 16.6776V18.6511ZM33.0223 16.6655C33.0223 16.5928 33.0098 16.5202 32.991 16.4475C32.9659 16.3628 32.9283 16.278 32.8719 16.2054C32.8155 16.1267 32.7341 16.0601 32.6463 16.0056C32.5398 15.9451 32.4144 15.9209 32.2954 15.9209C32.17 15.9148 32.0447 15.939 31.9381 15.9935C31.8504 16.0359 31.7752 16.1025 31.7125 16.1812C31.6561 16.2538 31.6123 16.3325 31.5872 16.4233C31.5621 16.502 31.5496 16.5868 31.5496 16.6655V18.5845C31.5433 18.7963 31.5997 19.0082 31.7188 19.1898C31.8567 19.3654 32.076 19.4562 32.3016 19.432C32.4896 19.432 32.6651 19.3654 32.803 19.2443C32.9471 19.1051 33.0223 18.9174 33.0161 18.7237L33.0223 16.6655Z" fill="white"/>
    <path d="M37.8237 19.1052C37.7548 19.4321 37.5668 19.7226 37.291 19.9224C37.0027 20.1222 36.658 20.219 36.3008 20.213C36.0627 20.219 35.8245 20.1767 35.6052 20.0919C35.4172 20.0132 35.248 19.8982 35.1101 19.7529C34.9722 19.6076 34.8657 19.4381 34.803 19.2505C34.7403 19.0446 34.709 18.8388 34.709 18.6209V16.6837C34.709 16.49 34.7403 16.2963 34.803 16.1086C34.8657 15.927 34.9659 15.7575 35.0975 15.6122C35.2354 15.4669 35.4046 15.3459 35.5926 15.2672C35.8183 15.1764 36.0564 15.134 36.2945 15.1401C36.658 15.1219 37.0215 15.2369 37.3098 15.4548C37.5668 15.6607 37.7485 15.9331 37.83 16.2418L37.0403 16.5021C37.0278 16.4295 37.0027 16.3568 36.9651 16.2842C36.9275 16.2176 36.8836 16.1571 36.8272 16.1026C36.7646 16.042 36.6894 15.9997 36.6016 15.9694C36.5076 15.9331 36.4136 15.921 36.3133 15.921C36.2005 15.921 36.0877 15.9391 35.9812 15.9876C35.8935 16.0299 35.8182 16.0844 35.7556 16.1571C35.6929 16.2236 35.649 16.3023 35.624 16.3871C35.5926 16.4718 35.5801 16.5566 35.5801 16.6474V18.633C35.5801 18.7359 35.5926 18.8328 35.624 18.9296C35.649 19.0204 35.6992 19.1052 35.7618 19.1839C35.8245 19.2565 35.8997 19.311 35.9875 19.3534C36.0877 19.3957 36.2005 19.4139 36.3071 19.4139C36.4763 19.42 36.6455 19.3655 36.7771 19.2626C36.9087 19.1597 36.9965 19.0083 37.0215 18.8449L37.8237 19.1052Z" fill="white"/>
    <path d="M38.6172 20.1645V15.1763H39.4695V17.2708H39.8769C39.9521 17.2708 40.0273 17.2587 40.1025 17.2406C40.1839 17.2224 40.2591 17.1861 40.3281 17.1376C40.4096 17.0771 40.4785 17.0045 40.5286 16.9197C40.5976 16.8047 40.6477 16.6836 40.679 16.5565L41.0613 15.1884H41.876L41.4938 16.6594C41.4436 16.8773 41.3496 17.0832 41.218 17.2648C41.1177 17.4101 40.9736 17.5251 40.7981 17.5856C40.9861 17.6461 41.1553 17.7672 41.2681 17.9246C41.3935 18.1123 41.4812 18.3181 41.5314 18.536L41.9638 20.1645H41.0989L40.7354 18.754C40.6978 18.5239 40.585 18.3181 40.4096 18.1546C40.2654 18.0517 40.0962 18.0033 39.9207 18.0033H39.4758V20.1584L38.6172 20.1645Z" fill="white"/>
    <path d="M45.6692 18.6508C45.6692 18.8687 45.6316 19.0927 45.5501 19.2985C45.4749 19.4802 45.3683 19.6497 45.2242 19.7889C45.0801 19.9281 44.9109 20.031 44.7228 20.0976C44.516 20.1703 44.303 20.2066 44.0836 20.2066C43.8329 20.2126 43.5885 20.1703 43.3566 20.0734C43.1624 19.9947 42.9931 19.8676 42.8615 19.7162C42.7362 19.5589 42.6422 19.3833 42.5858 19.1896C42.5231 18.9838 42.498 18.7719 42.498 18.56V16.6773C42.498 16.4957 42.5294 16.3141 42.5858 16.1386C42.6422 15.957 42.7362 15.7874 42.8615 15.6422C42.9994 15.4908 43.1624 15.3637 43.3504 15.2729C43.5822 15.17 43.8329 15.1216 44.0899 15.1337C44.3343 15.1276 44.5724 15.176 44.7918 15.2668C44.9798 15.3516 45.149 15.4727 45.2869 15.624C45.4185 15.7693 45.5188 15.9327 45.5752 16.1204C45.6378 16.302 45.6692 16.4897 45.6692 16.6773V18.6508ZM44.8106 16.6652C44.8106 16.5926 44.798 16.5199 44.7792 16.4473C44.7542 16.3625 44.7166 16.2838 44.6602 16.2051C44.6038 16.1265 44.5223 16.0599 44.4346 16.0054C44.328 15.9448 44.2027 15.9206 44.0836 15.9206C43.9583 15.9146 43.8329 15.9388 43.7264 15.9933C43.6386 16.0417 43.5634 16.1022 43.5008 16.1809C43.4444 16.2536 43.4068 16.3383 43.3754 16.4231C43.3504 16.5018 43.3378 16.5865 43.3378 16.6652V18.5842C43.3316 18.7961 43.388 19.008 43.507 19.1896C43.6449 19.3591 43.8643 19.4559 44.0836 19.4317C44.2716 19.4317 44.4471 19.3651 44.585 19.2441C44.7354 19.1109 44.8168 18.9172 44.8106 18.7235V16.6652Z" fill="white"/>
    <path d="M49.7284 18.6876C49.7597 19.0932 49.6156 19.4866 49.3336 19.7833C49.0453 20.0436 48.663 20.1828 48.2682 20.1647H46.6074V15.1765H48.193C48.5941 15.1462 48.9952 15.2794 49.296 15.5457C49.5529 15.8182 49.6845 16.1753 49.6657 16.5446C49.6657 16.7444 49.6219 16.9441 49.5279 17.1257C49.4213 17.3195 49.2458 17.4768 49.0328 17.5555V17.5919C49.1518 17.6282 49.2584 17.6827 49.3524 17.7614C49.4401 17.834 49.5153 17.9248 49.578 18.0217C49.6344 18.1246 49.6783 18.2335 49.7033 18.3486C49.7221 18.4515 49.7284 18.5726 49.7284 18.6876ZM48.8259 16.5627C48.8385 16.3872 48.7758 16.2177 48.6567 16.0906C48.5063 15.9634 48.3121 15.9029 48.1178 15.9211H47.4472V17.2286H48.1178C48.3121 17.2468 48.5063 17.1802 48.6505 17.047C48.7695 16.9078 48.8322 16.7383 48.8259 16.5627ZM48.9012 18.6391C48.9074 18.4575 48.851 18.2759 48.7382 18.1306C48.6003 17.9914 48.3998 17.9188 48.193 17.9369H47.4472V19.4019H48.1992C48.3121 19.4079 48.4249 19.3837 48.5314 19.3414C48.6191 19.305 48.6943 19.2506 48.757 19.1779C48.8134 19.1053 48.851 19.0266 48.8761 18.9358C48.8949 18.8389 48.9012 18.736 48.9012 18.6391Z" fill="white"/>
    <path d="M53.6338 19.1055C53.5649 19.4324 53.3769 19.7229 53.1011 19.9227C52.8129 20.1225 52.4682 20.2193 52.1172 20.2133C51.8791 20.2193 51.6409 20.177 51.4216 20.0922C51.0393 19.9409 50.751 19.6321 50.6257 19.2508C50.5567 19.0449 50.5254 18.8391 50.5254 18.6212V16.684C50.5254 16.4903 50.5567 16.2966 50.6257 16.1089C50.751 15.7336 51.033 15.4249 51.409 15.2735C51.6347 15.1827 51.8728 15.1403 52.1172 15.1464C52.4807 15.1282 52.8442 15.2433 53.1325 15.4612C53.3832 15.667 53.5649 15.9394 53.6464 16.2482L52.8379 16.5085C52.8254 16.4358 52.8003 16.3632 52.7627 16.2905C52.7251 16.2239 52.6812 16.1634 52.6248 16.1089C52.5622 16.0484 52.487 16.006 52.3992 15.9757C52.3052 15.9394 52.2112 15.9273 52.1109 15.9273C51.9981 15.9213 51.8853 15.9455 51.7788 15.9939C51.6911 16.0363 51.6159 16.0908 51.5532 16.1634C51.4905 16.23 51.4466 16.3087 51.4216 16.3934C51.3902 16.4782 51.3777 16.5629 51.3777 16.6537V18.6393C51.3777 18.7422 51.3902 18.8391 51.4216 18.936C51.4466 19.0268 51.4968 19.1115 51.5595 19.1902C51.6221 19.2629 51.6973 19.3173 51.7851 19.3597C51.8853 19.4021 51.9981 19.4203 52.1109 19.4203C52.2802 19.4263 52.4431 19.3718 52.5747 19.2689C52.7063 19.166 52.7941 19.0147 52.8191 18.8512L53.6338 19.1055Z" fill="white"/>
    <path d="M54.4355 20.1645V15.1763H55.2879V17.2708H55.6952C55.7704 17.2708 55.8456 17.2587 55.9208 17.2406C56.0023 17.2224 56.0775 17.1861 56.1464 17.1376C56.2279 17.0771 56.2969 17.0045 56.347 16.9197C56.4159 16.8047 56.4661 16.6836 56.4974 16.5565L56.8797 15.1884H57.6944L57.2933 16.6594C57.2432 16.8773 57.1492 17.0832 57.0176 17.2648C56.9173 17.4101 56.7732 17.5251 56.6039 17.5856C56.7982 17.6461 56.9674 17.7612 57.0865 17.9246C57.2118 18.1123 57.3058 18.3181 57.3497 18.536L57.7821 20.1645H56.9173L56.5475 18.7479C56.5099 18.5179 56.3971 18.306 56.2217 18.1425C56.0775 18.0396 55.9083 17.9912 55.7328 17.9912H55.2879V20.1463L54.4355 20.1645Z" fill="white"/>
    <path d="M58.5215 20.1644V15.1762H59.3613V18.5178H59.3738H59.3863C59.4991 18.2998 59.6119 18.1061 59.7122 17.9003C59.8125 17.6945 59.9128 17.4887 60.0193 17.2828L60.5771 16.2295C60.7588 15.8784 60.9468 15.5273 61.1286 15.1641H61.9119V20.1644H61.0659V16.9075H61.0534C60.9719 17.0649 60.8842 17.2223 60.8027 17.3857C60.7212 17.5492 60.6335 17.7066 60.552 17.864L59.3362 20.1583H58.5215V20.1644Z" fill="white"/>
    <path d="M62.9141 20.1645V15.1763H63.7538V18.5179H63.7664H63.7789C63.8917 18.3 64.0045 18.1063 64.0985 17.9004C64.1988 17.6946 64.3053 17.4888 64.4056 17.283L64.9634 16.2296C65.1451 15.8785 65.3269 15.5274 65.5149 15.1642H66.3045V20.1645H65.4585V16.9077H65.4459C65.3582 17.065 65.2767 17.2224 65.1953 17.3859C65.1138 17.5493 65.0261 17.7067 64.9446 17.8641L63.7288 20.1584L62.9141 20.1645ZM64.6187 14.8555C64.4369 14.8615 64.2552 14.8252 64.0923 14.7465C63.9607 14.6799 63.8416 14.5891 63.7538 14.4802C63.6724 14.3772 63.6034 14.2622 63.5658 14.1351C63.5282 14.0261 63.5032 13.9051 63.4969 13.79H64.1361C64.1424 13.8445 64.1549 13.899 64.1737 13.9535C64.1988 14.008 64.2301 14.0625 64.2677 14.1109C64.3116 14.1593 64.3617 14.1956 64.4181 14.232C64.4808 14.2622 64.5435 14.2804 64.6124 14.2743C64.6814 14.2743 64.7566 14.2622 64.8192 14.232C64.8756 14.2017 64.9258 14.1593 64.9696 14.1109C65.0072 14.0625 65.0386 14.014 65.0574 13.9535C65.0762 13.899 65.0887 13.8445 65.0887 13.79H65.7217C65.7092 13.9051 65.6841 14.0201 65.6465 14.1351C65.6026 14.2622 65.5399 14.3772 65.4585 14.4802C65.3707 14.5891 65.2517 14.6799 65.1263 14.7465C64.9696 14.8252 64.7942 14.8615 64.6187 14.8555Z" fill="white"/>
    <path d="M72.4167 16.714C72.4167 16.9198 72.3854 17.1196 72.3227 17.3133C72.26 17.4949 72.166 17.6583 72.0344 17.7976C71.9028 17.9428 71.7399 18.0518 71.5519 18.1245C71.3388 18.2092 71.1132 18.2455 70.8813 18.2455H70.1293V20.1585H69.2832V15.1703H70.8437C71.063 15.1703 71.2887 15.2006 71.4955 15.2671C71.8778 15.3822 72.1786 15.6667 72.3102 16.0299C72.3917 16.2478 72.423 16.4839 72.4167 16.714ZM71.5769 16.6958C71.5895 16.49 71.5268 16.2902 71.3889 16.1268C71.2385 15.9875 71.0317 15.9149 70.8249 15.933H70.123V17.4767H70.8374C71.0505 17.4888 71.2573 17.4101 71.4015 17.2588C71.5268 17.0953 71.5895 16.8956 71.5769 16.6958Z" fill="white"/>
    <path d="M73.1816 20.1645V15.1763H76.0582V15.939H74.034V17.2708H75.7762V18.0154H74.034V19.4017H76.0582V20.1766L73.1816 20.1645Z" fill="white"/>
    <path d="M77.6918 15.9329V20.1643H76.8457V15.1761H79.6909V15.9389H77.6918V15.9329Z" fill="white"/>
    <path d="M80.4434 20.1644V15.1762H81.2831V18.5178H81.2957H81.3082C81.421 18.2998 81.5338 18.1061 81.6341 17.9003C81.7344 17.6945 81.8346 17.4887 81.9412 17.2828L82.4989 16.2295C82.6807 15.8784 82.8687 15.5273 83.0504 15.1641H83.8338V20.1644H82.9878V16.9075H82.9752C82.8938 17.0649 82.806 17.2223 82.7246 17.3857C82.6431 17.5492 82.5553 17.7066 82.4739 17.864L81.2581 20.1583L80.4434 20.1644Z" fill="white"/>
    <path d="M87.9012 18.6513C87.9074 18.8692 87.8636 19.0932 87.7884 19.299C87.7132 19.4806 87.6066 19.6501 87.4625 19.7894C87.3183 19.9226 87.1491 20.0315 86.9611 20.0981C86.7543 20.1708 86.5412 20.2071 86.3219 20.2071C86.0712 20.2131 85.8268 20.1708 85.5949 20.0739C85.4006 19.9952 85.2314 19.8681 85.0998 19.7167C84.9745 19.5593 84.8805 19.3838 84.8241 19.1901C84.7614 18.9842 84.7363 18.7724 84.7363 18.5605V16.6778C84.7363 16.4962 84.7677 16.3146 84.8241 16.139C84.8805 15.9574 84.9745 15.7879 85.0998 15.6427C85.2377 15.4913 85.4006 15.3642 85.5886 15.2734C85.8205 15.1705 86.0712 15.122 86.3282 15.1341C86.5726 15.1281 86.8107 15.1765 87.0301 15.2673C87.2181 15.3521 87.3873 15.4731 87.5252 15.6245C87.6568 15.7698 87.757 15.9332 87.8134 16.1209C87.8761 16.3025 87.9074 16.4902 87.9074 16.6778L87.9012 18.6513ZM87.0426 16.6657C87.0426 16.5931 87.0301 16.5204 87.0113 16.4478C86.9862 16.363 86.9486 16.2843 86.8922 16.2056C86.8358 16.1269 86.7543 16.0603 86.6666 16.0059C86.5663 15.9514 86.4535 15.9211 86.3344 15.9211C86.2091 15.9151 86.0837 15.9393 85.9709 15.9938C85.8832 16.0422 85.808 16.1027 85.7453 16.1814C85.6889 16.2541 85.6513 16.3388 85.62 16.4236C85.5949 16.5023 85.5824 16.587 85.5824 16.6657V18.5847C85.5761 18.7966 85.6325 19.0024 85.7453 19.184C85.8769 19.3596 86.1025 19.4564 86.3282 19.4383C86.5162 19.4383 86.6916 19.3717 86.8295 19.2506C86.9737 19.1114 87.0489 18.9237 87.0426 18.73V16.6657Z" fill="white"/>
    <path d="M91.1559 20.1645V18.0094H89.7019V20.1645H88.8496V15.1763H89.7019V17.2708H91.1559V15.1763H92.0019V20.1645H91.1559Z" fill="white"/>
  </g>
  <defs>
    <clipPath id="clip0_4323_7045">
      <rect width="92" height="21" fill="white"/>
    </clipPath>
  </defs>
</svg>
