<svg xmlns="http://www.w3.org/2000/svg"  viewBox="0 0 6 30" fill="none">
  <path opacity="0.5" d="M6 15C6 13.6487 5.87919 12.2973 5.63758 10.9459C5.39597 9.5946 5.0604 8.27703 4.63087 6.99324C4.1745 5.70946 3.62416 4.48198 2.97987 3.31081C2.33557 2.11712 1.61074 1.01351 0.805369 0L0 0.337838C0.805369 1.26126 1.5302 2.31982 2.1745 3.51351C2.79195 4.68469 3.32886 5.92342 3.78523 7.22973C4.21476 8.51351 4.55034 9.83108 4.79195 11.1824C5.00671 12.5113 5.11409 13.7838 5.11409 15C5.11409 16.2162 5.00671 17.5 4.79195 18.8514C4.55034 20.1802 4.21476 21.4977 3.78523 22.8041C3.32886 24.0878 2.79195 25.3153 2.1745 26.4865C1.5302 27.6802 0.805369 28.7387 0 29.6622L0.805369 30C1.61074 28.9865 2.33557 27.8829 2.97987 26.6892C3.62416 25.518 4.1745 24.2905 4.63087 23.0068C5.0604 21.723 5.39597 20.4054 5.63758 19.0541C5.87919 17.7027 6 16.3514 6 15Z" fill="white"/>
</svg>
